<?xml version="1.0" standalone="no"?>
 <!DOCTYPE svg PUBLIC "-//W3C//DTD SVG 1.1//EN" 
 "http://www.w3.org/Graphics/SVG/1.1/DTD/svg11.dtd"> 
<svg
  xmlns:svg="http://www.w3.org/2000/svg"
  xmlns="http://www.w3.org/2000/svg"
  xmlns:xlink="http://www.w3.org/1999/xlink"
  version="1.1"
  width="419.9890mm" height="297.0022mm" viewBox="0.0000 0.0000 419.9890 297.0022">
<title>SVG Image created as left_routed-Edge_Cuts.svg date 2026/01/25 19:20:34 </title>
  <desc>Image generated by PCBNEW </desc>
<g style="fill:#000000; fill-opacity:1.0000;stroke:#000000; stroke-opacity:1.0000;
stroke-linecap:round; stroke-linejoin:round;"
 transform="translate(0 0) scale(1 1)">
</g>
<g style="fill:none; 
stroke:#000000; stroke-width:0.1500; stroke-opacity:1; 
stroke-linecap:round; stroke-linejoin:round;">
<path d="M87.9750 140.0250
L87.9750 58.7250
" />
<path d="M168.2750 48.7250
L168.2750 47.7250
" />
<path d="M168.2750 47.7250
L168.2500 47.7250
" />
<path d="M187.0250 54.7250
L187.0250 52.7250
" />
<path d="M185.0250 50.7250
L170.2750 50.7250
" />
<path d="M187.0250 52.7250 A2.0000 2.0000 0.0 0 0 185.0250 50.7250" />
<path d="M168.2750 48.7250 A2.0000 2.0000 0.0 0 0 170.2750 50.7250" />
<path d="M88.0000 58.4098 A2.0001 2.0001 0.0 0 0 87.9750 58.7250" />
<path d="M212.0250 73.4750
L212.0250 58.7250
" />
<path d="M210.0250 56.7250
L189.0250 56.7250
" />
<path d="M212.0250 58.7250 A2.0000 2.0000 0.0 0 0 210.0250 56.7250" />
<path d="M187.0250 54.7250 A2.0000 2.0000 0.0 0 0 189.0250 56.7250" />
<path d="M221.0916 123.2750
L222.5250 123.2750
" />
<path d="M224.5250 121.2750
L224.5250 77.4750
" />
<path d="M222.5250 75.4750
L214.0250 75.4750
" />
<path d="M87.9750 140.0250 A2.0001 2.0001 0.0 0 0 88.0000 140.3402" />
<path d="M222.5250 123.2750 A2.0000 2.0000 0.0 0 0 224.5250 121.2750" />
<path d="M224.5250 77.4750 A2.0000 2.0000 0.0 0 0 222.5250 75.4750" />
<path d="M212.0250 73.4750 A2.0000 2.0000 0.0 0 0 214.0250 75.4750" />
<path d="M168.2500 47.7250
L168.2500 46.6250
" />
<path d="M166.2500 44.6250
L90.0000 44.6250
" />
<path d="M88.0000 46.6250
L88.0000 58.4098
" />
<path d="M168.2500 46.6250 A2.0000 2.0000 0.0 0 0 166.2500 44.6250" />
<path d="M90.0000 44.6250 A2.0000 2.0000 0.0 0 0 88.0000 46.6250" />
<path d="M90.0000 145.7750
L139.8750 145.7750
" />
<path d="M88.0000 140.3402
L88.0000 143.7750
" />
<path d="M88.0000 143.7750 A2.0000 2.0000 0.0 0 0 90.0000 145.7750" />
<path d="M143.8750 155.5250
L187.3750 155.5250
" />
<path d="M141.8750 147.7750
L141.8750 153.5250
" />
<path d="M141.8750 147.7750 A2.0000 2.0000 0.0 0 0 139.8750 145.7750" />
<path d="M141.8750 153.5250 A2.0000 2.0000 0.0 0 0 143.8750 155.5250" />
<path d="M187.3750 155.5250 A2.0001 2.0001 0.0 0 0 187.6707 155.5030" />
<path d="M187.6707 155.5030
L230.0373 185.1685
" />
<path d="M231.4301 184.9229
L255.3769 150.7233
" />
<path d="M255.1313 149.3306
L220.5181 125.0942
" />
<path d="M230.0373 185.1685 A1.0000 1.0000 0.0 0 0 231.4301 184.9229" />
<path d="M255.3769 150.7234 A1.0001 1.0001 0.0 0 0 255.1313 149.3306" />
<path d="M221.0916 123.2750 A1.0000 1.0000 0.0 0 0 220.5181 125.0942" />
</g>
<g style="fill:none; 
stroke:#000000; stroke-width:0.1000; stroke-opacity:1; 
stroke-linecap:round; stroke-linejoin:round;">
<path d="M130.1500 48.5000
L130.1500 45.0000
" />
<path d="M131.2000 44.0000
L131.2000 45.0000
" />
<path d="M133.8000 44.0000
L131.2000 44.0000
" />
<path d="M133.8000 44.0000
L133.8000 45.0000
" />
<path d="M134.8500 45.0000
L130.1500 45.0000
" />
<path d="M134.8500 48.5000
L130.1500 48.5000
" />
<path d="M134.8500 48.5000
L134.8500 45.0000
" />
<path style="fill:none; 
stroke:#000000; stroke-width:0.1500; stroke-opacity:1; 
stroke-linecap:round; stroke-linejoin:round;fill:none"
d="M 91.0000,122.2500
109.0000,122.2500
109.0000,140.2500
91.0000,140.2500
Z" /> 
<path style="fill:none; 
stroke:#000000; stroke-width:0.1500; stroke-opacity:1; 
stroke-linecap:round; stroke-linejoin:round;fill:none"
d="M 91.0000,103.5000
109.0000,103.5000
109.0000,121.5000
91.0000,121.5000
Z" /> 
<path style="fill:none; 
stroke:#000000; stroke-width:0.1500; stroke-opacity:1; 
stroke-linecap:round; stroke-linejoin:round;fill:none"
d="M 91.0000,84.7500
109.0000,84.7500
109.0000,102.7500
91.0000,102.7500
Z" /> 
<path style="fill:none; 
stroke:#000000; stroke-width:0.1500; stroke-opacity:1; 
stroke-linecap:round; stroke-linejoin:round;fill:none"
d="M 91.0000,66.0000
109.0000,66.0000
109.0000,84.0000
91.0000,84.0000
Z" /> 
<path style="fill:none; 
stroke:#000000; stroke-width:0.1500; stroke-opacity:1; 
stroke-linecap:round; stroke-linejoin:round;fill:none"
d="M 109.7500,122.2500
127.7500,122.2500
127.7500,140.2500
109.7500,140.2500
Z" /> 
<path style="fill:none; 
stroke:#000000; stroke-width:0.1500; stroke-opacity:1; 
stroke-linecap:round; stroke-linejoin:round;fill:none"
d="M 109.7500,103.5000
127.7500,103.5000
127.7500,121.5000
109.7500,121.5000
Z" /> 
<path style="fill:none; 
stroke:#000000; stroke-width:0.1500; stroke-opacity:1; 
stroke-linecap:round; stroke-linejoin:round;fill:none"
d="M 109.7500,84.7500
127.7500,84.7500
127.7500,102.7500
109.7500,102.7500
Z" /> 
<path style="fill:none; 
stroke:#000000; stroke-width:0.1500; stroke-opacity:1; 
stroke-linecap:round; stroke-linejoin:round;fill:none"
d="M 109.7500,66.0000
127.7500,66.0000
127.7500,84.0000
109.7500,84.0000
Z" /> 
<path style="fill:none; 
stroke:#000000; stroke-width:0.1500; stroke-opacity:1; 
stroke-linecap:round; stroke-linejoin:round;fill:none"
d="M 128.5000,116.2500
146.5000,116.2500
146.5000,134.2500
128.5000,134.2500
Z" /> 
<path style="fill:none; 
stroke:#000000; stroke-width:0.1500; stroke-opacity:1; 
stroke-linecap:round; stroke-linejoin:round;fill:none"
d="M 128.5000,97.5000
146.5000,97.5000
146.5000,115.5000
128.5000,115.5000
Z" /> 
<path style="fill:none; 
stroke:#000000; stroke-width:0.1500; stroke-opacity:1; 
stroke-linecap:round; stroke-linejoin:round;fill:none"
d="M 128.5000,78.7500
146.5000,78.7500
146.5000,96.7500
128.5000,96.7500
Z" /> 
<path style="fill:none; 
stroke:#000000; stroke-width:0.1500; stroke-opacity:1; 
stroke-linecap:round; stroke-linejoin:round;fill:none"
d="M 128.5000,60.0000
146.5000,60.0000
146.5000,78.0000
128.5000,78.0000
Z" /> 
<path style="fill:none; 
stroke:#000000; stroke-width:0.1500; stroke-opacity:1; 
stroke-linecap:round; stroke-linejoin:round;fill:none"
d="M 147.2500,132.0000
165.2500,132.0000
165.2500,150.0000
147.2500,150.0000
Z" /> 
<path style="fill:none; 
stroke:#000000; stroke-width:0.1500; stroke-opacity:1; 
stroke-linecap:round; stroke-linejoin:round;fill:none"
d="M 147.2500,113.2500
165.2500,113.2500
165.2500,131.2500
147.2500,131.2500
Z" /> 
<path style="fill:none; 
stroke:#000000; stroke-width:0.1500; stroke-opacity:1; 
stroke-linecap:round; stroke-linejoin:round;fill:none"
d="M 147.2500,94.5000
165.2500,94.5000
165.2500,112.5000
147.2500,112.5000
Z" /> 
<path style="fill:none; 
stroke:#000000; stroke-width:0.1500; stroke-opacity:1; 
stroke-linecap:round; stroke-linejoin:round;fill:none"
d="M 147.2500,75.7500
165.2500,75.7500
165.2500,93.7500
147.2500,93.7500
Z" /> 
<path style="fill:none; 
stroke:#000000; stroke-width:0.1500; stroke-opacity:1; 
stroke-linecap:round; stroke-linejoin:round;fill:none"
d="M 147.2500,57.0000
165.2500,57.0000
165.2500,75.0000
147.2500,75.0000
Z" /> 
<path style="fill:none; 
stroke:#000000; stroke-width:0.1500; stroke-opacity:1; 
stroke-linecap:round; stroke-linejoin:round;fill:none"
d="M 166.0000,135.0000
184.0000,135.0000
184.0000,153.0000
166.0000,153.0000
Z" /> 
<path style="fill:none; 
stroke:#000000; stroke-width:0.1500; stroke-opacity:1; 
stroke-linecap:round; stroke-linejoin:round;fill:none"
d="M 166.0000,116.2500
184.0000,116.2500
184.0000,134.2500
166.0000,134.2500
Z" /> 
<path style="fill:none; 
stroke:#000000; stroke-width:0.1500; stroke-opacity:1; 
stroke-linecap:round; stroke-linejoin:round;fill:none"
d="M 166.0000,97.5000
184.0000,97.5000
184.0000,115.5000
166.0000,115.5000
Z" /> 
<path style="fill:none; 
stroke:#000000; stroke-width:0.1500; stroke-opacity:1; 
stroke-linecap:round; stroke-linejoin:round;fill:none"
d="M 166.0000,78.7500
184.0000,78.7500
184.0000,96.7500
166.0000,96.7500
Z" /> 
<path style="fill:none; 
stroke:#000000; stroke-width:0.1500; stroke-opacity:1; 
stroke-linecap:round; stroke-linejoin:round;fill:none"
d="M 166.0000,60.0000
184.0000,60.0000
184.0000,78.0000
166.0000,78.0000
Z" /> 
<path style="fill:none; 
stroke:#000000; stroke-width:0.1500; stroke-opacity:1; 
stroke-linecap:round; stroke-linejoin:round;fill:none"
d="M 184.7500,122.2500
202.7500,122.2500
202.7500,140.2500
184.7500,140.2500
Z" /> 
<path style="fill:none; 
stroke:#000000; stroke-width:0.1500; stroke-opacity:1; 
stroke-linecap:round; stroke-linejoin:round;fill:none"
d="M 184.7500,103.5000
202.7500,103.5000
202.7500,121.5000
184.7500,121.5000
Z" /> 
<path style="fill:none; 
stroke:#000000; stroke-width:0.1500; stroke-opacity:1; 
stroke-linecap:round; stroke-linejoin:round;fill:none"
d="M 184.7500,84.7500
202.7500,84.7500
202.7500,102.7500
184.7500,102.7500
Z" /> 
<path style="fill:none; 
stroke:#000000; stroke-width:0.1500; stroke-opacity:1; 
stroke-linecap:round; stroke-linejoin:round;fill:none"
d="M 184.7500,66.0000
202.7500,66.0000
202.7500,84.0000
184.7500,84.0000
Z" /> 
<path style="fill:none; 
stroke:#000000; stroke-width:0.1500; stroke-opacity:1; 
stroke-linecap:round; stroke-linejoin:round;fill:none"
d="M 203.5000,103.5000
221.5000,103.5000
221.5000,121.5000
203.5000,121.5000
Z" /> 
<path style="fill:none; 
stroke:#000000; stroke-width:0.1500; stroke-opacity:1; 
stroke-linecap:round; stroke-linejoin:round;fill:none"
d="M 203.5000,84.7500
221.5000,84.7500
221.5000,102.7500
203.5000,102.7500
Z" /> 
<path style="fill:none; 
stroke:#000000; stroke-width:0.1500; stroke-opacity:1; 
stroke-linecap:round; stroke-linejoin:round;fill:none"
d="M 229.0391,146.9307
218.7147,161.6755
203.9700,151.3511
214.2944,136.6063
Z" /> 
<path style="fill:none; 
stroke:#000000; stroke-width:0.1500; stroke-opacity:1; 
stroke-linecap:round; stroke-linejoin:round;fill:none"
d="M 239.0926,165.2624
228.7683,180.0072
214.0235,169.6828
224.3479,154.9381
Z" /> 
<path style="fill:none; 
stroke:#000000; stroke-width:0.1500; stroke-opacity:1; 
stroke-linecap:round; stroke-linejoin:round;fill:none"
d="M 249.8472,149.9033
239.5228,164.6481
224.7781,154.3237
235.1025,139.5790
Z" /> 
</g>
<g style="fill:none; 
stroke:#000000; stroke-width:0.2000; stroke-opacity:1; 
stroke-linecap:round; stroke-linejoin:round;">
<path d="M92.2760 51.4440
L92.2760 58.8100
" />
<path d="M92.2760 58.8100
L87.1960 58.8100
" />
<path d="M87.1960 58.8100
L87.1960 51.4440
" />
<path d="M87.1960 51.4440
L92.2760 51.4440
" />
</g>
<g style="fill:none; 
stroke:#000000; stroke-width:0.1500; stroke-opacity:1; 
stroke-linecap:round; stroke-linejoin:round;">
<path d="M140.5500 42.9000
L144.4500 42.9000
" />
<path d="M144.4500 42.9000
L144.4500 45.4000
" />
<path d="M140.5500 45.4000
L140.5500 42.9000
" />
</g>
<g style="fill:none; 
stroke:#000000; stroke-width:0.1000; stroke-opacity:1; 
stroke-linecap:round; stroke-linejoin:round;">
<circle cx="193.7500" cy="144.7500" r="4.0000" /> 
<circle cx="212.5000" cy="80.2500" r="4.0000" /> 
<circle cx="137.5000" cy="138.7750" r="4.0000" /> 
<circle cx="137.5000" cy="55.5000" r="4.0000" /> 
</g> 
</svg>
