M48
; DRILL file {KiCad 9.0.6} date 2026-01-25T21:10:03-0500
; FORMAT={-:-/ absolute / metric / decimal}
; #@! TF.CreationDate,2026-01-25T21:10:03-05:00
; #@! TF.GenerationSoftware,Kicad,Pcbnew,9.0.6
; #@! TF.FileFunction,Plated,1,2,PTH
FMAT,2
METRIC
; #@! TA.AperFunction,Plated,PTH,ComponentDrill
T1C0.750
; #@! TA.AperFunction,Plated,PTH,ComponentDrill
T2C0.991
; #@! TA.AperFunction,Plated,PTH,ComponentDrill
T3C1.092
; #@! TA.AperFunction,Plated,PTH,ComponentDrill
T4C1.600
%
G90
G05
T1
X155.25Y-47.5
X157.25Y-47.5
T2
X93.306Y-73.361
X93.306Y-92.111
X93.306Y-110.861
X93.306Y-129.611
X98.694Y-67.973
X98.694Y-86.723
X98.694Y-105.473
X98.694Y-124.223
X112.056Y-73.361
X112.056Y-92.111
X112.056Y-110.861
X112.056Y-129.611
X117.444Y-67.973
X117.444Y-86.723
X117.444Y-105.473
X117.444Y-124.223
X130.806Y-67.361
X130.806Y-86.111
X130.806Y-104.861
X130.806Y-123.611
X136.194Y-61.973
X136.194Y-80.723
X136.194Y-99.473
X136.194Y-118.223
X149.556Y-64.361
X149.556Y-83.111
X149.556Y-101.861
X149.556Y-120.611
X149.556Y-139.361
X154.944Y-58.973
X154.944Y-77.723
X154.944Y-96.473
X154.944Y-115.223
X154.944Y-133.973
X168.306Y-67.361
X168.306Y-86.111
X168.306Y-104.861
X168.306Y-123.611
X168.306Y-142.361
X173.694Y-61.973
X173.694Y-80.723
X173.694Y-99.473
X173.694Y-118.223
X173.694Y-136.973
X187.056Y-73.361
X187.056Y-92.111
X187.056Y-110.861
X187.056Y-129.611
X192.444Y-67.973
X192.444Y-86.723
X192.444Y-105.473
X192.444Y-124.223
X205.806Y-92.111
X205.806Y-110.861
X211.194Y-86.723
X211.194Y-105.473
X211.961Y-143.959
X219.466Y-142.635
X222.015Y-162.29
X229.519Y-160.967
X232.769Y-146.931
X240.274Y-145.608
T3
X92.53Y-47.38
X92.53Y-62.62
X95.07Y-47.38
X95.07Y-62.62
X97.61Y-47.38
X97.61Y-62.62
X100.15Y-47.38
X100.15Y-62.62
X102.69Y-47.38
X102.69Y-62.62
X105.23Y-47.38
X105.23Y-62.62
X107.77Y-47.38
X107.77Y-62.62
X110.31Y-47.38
X110.31Y-62.62
X112.85Y-47.38
X112.85Y-62.62
X115.39Y-47.38
X115.39Y-55.0
X115.39Y-57.54
X115.39Y-60.08
X115.39Y-62.62
X117.93Y-47.38
X117.93Y-62.62
X120.47Y-47.38
X120.47Y-62.62
T4
X105.0Y-69.85
X105.0Y-88.6
X105.0Y-107.35
X105.0Y-126.1
X123.75Y-69.85
X123.75Y-88.6
X123.75Y-107.35
X123.75Y-126.1
X142.5Y-63.85
X142.5Y-82.6
X142.5Y-101.35
X142.5Y-120.1
X161.25Y-60.85
X161.25Y-79.6
X161.25Y-98.35
X161.25Y-117.1
X161.25Y-135.85
X180.0Y-63.85
X180.0Y-82.6
X180.0Y-101.35
X180.0Y-120.1
X180.0Y-138.85
X198.75Y-69.85
X198.75Y-88.6
X198.75Y-107.35
X198.75Y-126.1
X217.5Y-88.6
X217.5Y-107.35
X223.554Y-147.79
X233.608Y-166.122
X244.362Y-150.763
M30
