%TF.GenerationSoftware,KiCad,Pcbnew,9.0.6*%
%TF.CreationDate,2026-01-25T21:10:06-05:00*%
%TF.ProjectId,left_routed,6c656674-5f72-46f7-9574-65642e6b6963,v1.0.0*%
%TF.SameCoordinates,Original*%
%TF.FileFunction,Copper,L2,Bot*%
%TF.FilePolarity,Positive*%
%FSLAX46Y46*%
G04 Gerber Fmt 4.6, Leading zero omitted, Abs format (unit mm)*
G04 Created by KiCad (PCBNEW 9.0.6) date 2026-01-25 21:10:06*
%MOMM*%
%LPD*%
G01*
G04 APERTURE LIST*
G04 Aperture macros list*
%AMRotRect*
0 Rectangle, with rotation*
0 The origin of the aperture is its center*
0 $1 length*
0 $2 width*
0 $3 Rotation angle, in degrees counterclockwise*
0 Add horizontal line*
21,1,$1,$2,0,0,$3*%
G04 Aperture macros list end*
%TA.AperFunction,WasherPad*%
%ADD10C,1.000000*%
%TD*%
%TA.AperFunction,ComponentPad*%
%ADD11RotRect,1.778000X1.778000X225.000000*%
%TD*%
%TA.AperFunction,SMDPad,CuDef*%
%ADD12RotRect,0.900000X1.200000X225.000000*%
%TD*%
%TA.AperFunction,ComponentPad*%
%ADD13C,1.905000*%
%TD*%
%TA.AperFunction,ComponentPad*%
%ADD14C,1.752600*%
%TD*%
%TA.AperFunction,ComponentPad*%
%ADD15RotRect,1.778000X1.778000X190.000000*%
%TD*%
%TA.AperFunction,SMDPad,CuDef*%
%ADD16RotRect,0.900000X1.200000X190.000000*%
%TD*%
%TA.AperFunction,ComponentPad*%
%ADD17R,1.200000X1.700000*%
%TD*%
%TA.AperFunction,ComponentPad*%
%ADD18O,1.200000X1.700000*%
%TD*%
%TA.AperFunction,ComponentPad*%
%ADD19C,1.900000*%
%TD*%
%TA.AperFunction,SMDPad,CuDef*%
%ADD20R,2.600000X2.600000*%
%TD*%
%TA.AperFunction,SMDPad,CuDef*%
%ADD21RotRect,2.600000X2.600000X145.000000*%
%TD*%
%TA.AperFunction,Conductor*%
%ADD22C,0.200000*%
%TD*%
G04 APERTURE END LIST*
D10*
%TO.P,T1,*%
%TO.N,*%
X141000000Y-46750000D03*
X144000000Y-46750000D03*
%TD*%
D11*
%TO.P,D4,1*%
%TO.N,P009*%
X98694077Y-67972590D03*
D12*
X97166726Y-69499941D03*
%TO.P,D4,2*%
%TO.N,actions_numbers*%
X94833274Y-71833393D03*
D13*
X93305923Y-73360744D03*
%TD*%
D11*
%TO.P,D16,1*%
%TO.N,P006*%
X154944077Y-77722590D03*
D12*
X153416726Y-79249941D03*
%TO.P,D16,2*%
%TO.N,middle_top*%
X151083274Y-81583393D03*
D13*
X149555923Y-83110744D03*
%TD*%
D11*
%TO.P,D7,1*%
%TO.N,P006*%
X117444077Y-86722590D03*
D12*
X115916726Y-88249941D03*
%TO.P,D7,2*%
%TO.N,pinky_top*%
X113583274Y-90583393D03*
D13*
X112055923Y-92110744D03*
%TD*%
D11*
%TO.P,D3,1*%
%TO.N,P006*%
X98694077Y-86722590D03*
D12*
X97166726Y-88249941D03*
%TO.P,D3,2*%
%TO.N,actions_top*%
X94833274Y-90583393D03*
D13*
X93305923Y-92110744D03*
%TD*%
D11*
%TO.P,D10,1*%
%TO.N,P008*%
X136194077Y-99472590D03*
D12*
X134666726Y-100999941D03*
%TO.P,D10,2*%
%TO.N,ring_home*%
X132333274Y-103333393D03*
D13*
X130805923Y-104860744D03*
%TD*%
D11*
%TO.P,D12,1*%
%TO.N,P009*%
X136194077Y-61972590D03*
D12*
X134666726Y-63499941D03*
%TO.P,D12,2*%
%TO.N,ring_numbers*%
X132333274Y-65833393D03*
D13*
X130805923Y-67360744D03*
%TD*%
D11*
%TO.P,D9,1*%
%TO.N,P017*%
X136194077Y-118222590D03*
D12*
X134666726Y-119749941D03*
%TO.P,D9,2*%
%TO.N,ring_bottom*%
X132333274Y-122083393D03*
D13*
X130805923Y-123610744D03*
%TD*%
D11*
%TO.P,D25,1*%
%TO.N,P006*%
X192444077Y-86722590D03*
D12*
X190916726Y-88249941D03*
%TO.P,D25,2*%
%TO.N,inner_top*%
X188583274Y-90583393D03*
D13*
X187055923Y-92110744D03*
%TD*%
D14*
%TO.P,MCU1,1*%
%TO.N,P006*%
X92530000Y-47380000D03*
%TO.P,MCU1,2*%
%TO.N,P008*%
X95070000Y-47380000D03*
%TO.P,MCU1,3*%
%TO.N,GND*%
X97610000Y-47380000D03*
%TO.P,MCU1,4*%
X100150000Y-47380000D03*
%TO.P,MCU1,5*%
%TO.N,P017*%
X102690000Y-47380000D03*
%TO.P,MCU1,6*%
%TO.N,P020*%
X105230000Y-47380000D03*
%TO.P,MCU1,7*%
%TO.N,P022*%
X107770000Y-47380000D03*
%TO.P,MCU1,8*%
%TO.N,P024*%
X110310000Y-47380000D03*
%TO.P,MCU1,9*%
%TO.N,P100*%
X112850000Y-47380000D03*
%TO.P,MCU1,10*%
%TO.N,P011*%
X115390000Y-47380000D03*
%TO.P,MCU1,11*%
%TO.N,P104*%
X117930000Y-47380000D03*
%TO.P,MCU1,12*%
%TO.N,P106*%
X120470000Y-47380000D03*
%TO.P,MCU1,13*%
%TO.N,P009*%
X120470000Y-62620000D03*
%TO.P,MCU1,14*%
%TO.N,P010*%
X117930000Y-62620000D03*
%TO.P,MCU1,15*%
%TO.N,P111*%
X115390000Y-62620000D03*
%TO.P,MCU1,16*%
%TO.N,P113*%
X112850000Y-62620000D03*
%TO.P,MCU1,17*%
%TO.N,P115*%
X110310000Y-62620000D03*
%TO.P,MCU1,18*%
%TO.N,P002*%
X107770000Y-62620000D03*
%TO.P,MCU1,19*%
%TO.N,P029*%
X105230000Y-62620000D03*
%TO.P,MCU1,20*%
%TO.N,P031*%
X102690000Y-62620000D03*
%TO.P,MCU1,21*%
%TO.N,VCC*%
X100150000Y-62620000D03*
%TO.P,MCU1,22*%
%TO.N,RST*%
X97610000Y-62620000D03*
%TO.P,MCU1,23*%
%TO.N,GND*%
X95070000Y-62620000D03*
%TO.P,MCU1,24*%
%TO.N,RAW*%
X92530000Y-62620000D03*
%TO.P,MCU1,31*%
%TO.N,P101*%
X115390000Y-60080000D03*
%TO.P,MCU1,32*%
%TO.N,P102*%
X115390000Y-57540000D03*
%TO.P,MCU1,33*%
%TO.N,P107*%
X115390000Y-55000000D03*
%TD*%
D11*
%TO.P,D17,1*%
%TO.N,P009*%
X154944077Y-58972590D03*
D12*
X153416726Y-60499941D03*
%TO.P,D17,2*%
%TO.N,middle_numbers*%
X151083274Y-62833393D03*
D13*
X149555923Y-64360744D03*
%TD*%
D15*
%TO.P,D29,1*%
%TO.N,P017*%
X219465568Y-142635335D03*
D16*
X217338381Y-143010416D03*
%TO.P,D29,2*%
%TO.N,space_thumb*%
X214088515Y-143583454D03*
D13*
X211961328Y-143958535D03*
%TD*%
D11*
%TO.P,D28,1*%
%TO.N,P006*%
X211194077Y-86722590D03*
D12*
X209666726Y-88249941D03*
%TO.P,D28,2*%
%TO.N,special_top*%
X207333274Y-90583393D03*
D13*
X205805923Y-92110744D03*
%TD*%
D11*
%TO.P,D6,1*%
%TO.N,P008*%
X117444077Y-105472590D03*
D12*
X115916726Y-106999941D03*
%TO.P,D6,2*%
%TO.N,pinky_home*%
X113583274Y-109333393D03*
D13*
X112055923Y-110860744D03*
%TD*%
D11*
%TO.P,D22,1*%
%TO.N,P009*%
X173694077Y-61972590D03*
D12*
X172166726Y-63499941D03*
%TO.P,D22,2*%
%TO.N,index_numbers*%
X169833274Y-65833393D03*
D13*
X168305923Y-67360744D03*
%TD*%
D11*
%TO.P,D1,1*%
%TO.N,P017*%
X98694077Y-124222590D03*
D12*
X97166726Y-125749941D03*
%TO.P,D1,2*%
%TO.N,actions_bottom*%
X94833274Y-128083393D03*
D13*
X93305923Y-129610744D03*
%TD*%
D11*
%TO.P,D27,1*%
%TO.N,P008*%
X211194077Y-105472590D03*
D12*
X209666726Y-106999941D03*
%TO.P,D27,2*%
%TO.N,special_home*%
X207333274Y-109333393D03*
D13*
X205805923Y-110860744D03*
%TD*%
D11*
%TO.P,D21,1*%
%TO.N,P006*%
X173694077Y-80722590D03*
D12*
X172166726Y-82249941D03*
%TO.P,D21,2*%
%TO.N,index_top*%
X169833274Y-84583393D03*
D13*
X168305923Y-86110744D03*
%TD*%
D11*
%TO.P,D20,1*%
%TO.N,P008*%
X173694077Y-99472590D03*
D12*
X172166726Y-100999941D03*
%TO.P,D20,2*%
%TO.N,index_home*%
X169833274Y-103333393D03*
D13*
X168305923Y-104860744D03*
%TD*%
D11*
%TO.P,D26,1*%
%TO.N,P009*%
X192444077Y-67972590D03*
D12*
X190916726Y-69499941D03*
%TO.P,D26,2*%
%TO.N,inner_numbers*%
X188583274Y-71833393D03*
D13*
X187055923Y-73360744D03*
%TD*%
D11*
%TO.P,D14,1*%
%TO.N,P017*%
X154944077Y-115222590D03*
D12*
X153416726Y-116749941D03*
%TO.P,D14,2*%
%TO.N,middle_bottom*%
X151083274Y-119083393D03*
D13*
X149555923Y-120610744D03*
%TD*%
D11*
%TO.P,D24,1*%
%TO.N,P008*%
X192444077Y-105472590D03*
D12*
X190916726Y-106999941D03*
%TO.P,D24,2*%
%TO.N,inner_home*%
X188583274Y-109333393D03*
D13*
X187055923Y-110860744D03*
%TD*%
D17*
%TO.P,JST1,1*%
%TO.N,pos*%
X155250000Y-47500000D03*
D18*
%TO.P,JST1,2*%
%TO.N,GND*%
X157250000Y-47500000D03*
%TD*%
D11*
%TO.P,D18,1*%
%TO.N,P020*%
X173694077Y-136972590D03*
D12*
X172166726Y-138499941D03*
%TO.P,D18,2*%
%TO.N,index_modifiers*%
X169833274Y-140833393D03*
D13*
X168305923Y-142360744D03*
%TD*%
D11*
%TO.P,D8,1*%
%TO.N,P009*%
X117444077Y-67972590D03*
D12*
X115916726Y-69499941D03*
%TO.P,D8,2*%
%TO.N,pinky_numbers*%
X113583274Y-71833393D03*
D13*
X112055923Y-73360744D03*
%TD*%
D15*
%TO.P,D31,1*%
%TO.N,P017*%
X240273645Y-145607948D03*
D16*
X238146458Y-145983029D03*
%TO.P,D31,2*%
%TO.N,forward_thumb*%
X234896592Y-146556067D03*
D13*
X232769405Y-146931148D03*
%TD*%
D11*
%TO.P,D5,1*%
%TO.N,P017*%
X117444077Y-124222590D03*
D12*
X115916726Y-125749941D03*
%TO.P,D5,2*%
%TO.N,pinky_bottom*%
X113583274Y-128083393D03*
D13*
X112055923Y-129610744D03*
%TD*%
D11*
%TO.P,D11,1*%
%TO.N,P006*%
X136194077Y-80722590D03*
D12*
X134666726Y-82249941D03*
%TO.P,D11,2*%
%TO.N,ring_top*%
X132333274Y-84583393D03*
D13*
X130805923Y-86110744D03*
%TD*%
D11*
%TO.P,D23,1*%
%TO.N,P017*%
X192444077Y-124222590D03*
D12*
X190916726Y-125749941D03*
%TO.P,D23,2*%
%TO.N,inner_bottom*%
X188583274Y-128083393D03*
D13*
X187055923Y-129610744D03*
%TD*%
D11*
%TO.P,D13,1*%
%TO.N,P020*%
X154944077Y-133972590D03*
D12*
X153416726Y-135499941D03*
%TO.P,D13,2*%
%TO.N,middle_modifiers*%
X151083274Y-137833393D03*
D13*
X149555923Y-139360744D03*
%TD*%
D11*
%TO.P,D19,1*%
%TO.N,P017*%
X173694077Y-118222590D03*
D12*
X172166726Y-119749941D03*
%TO.P,D19,2*%
%TO.N,index_bottom*%
X169833274Y-122083393D03*
D13*
X168305923Y-123610744D03*
%TD*%
D11*
%TO.P,D15,1*%
%TO.N,P008*%
X154944077Y-96472590D03*
D12*
X153416726Y-97999941D03*
%TO.P,D15,2*%
%TO.N,middle_home*%
X151083274Y-100333393D03*
D13*
X149555923Y-101860744D03*
%TD*%
D11*
%TO.P,D2,1*%
%TO.N,P008*%
X98694077Y-105472590D03*
D12*
X97166726Y-106999941D03*
%TO.P,D2,2*%
%TO.N,actions_home*%
X94833274Y-109333393D03*
D13*
X93305923Y-110860744D03*
%TD*%
D15*
%TO.P,D30,1*%
%TO.N,P020*%
X229519087Y-160967049D03*
D16*
X227391900Y-161342130D03*
%TO.P,D30,2*%
%TO.N,forward_top*%
X224142034Y-161915168D03*
D13*
X222014847Y-162290249D03*
%TD*%
D19*
%TO.P,S17,*%
%TO.N,*%
X161250000Y-60850000D03*
D20*
%TO.P,S17,1*%
%TO.N,P115*%
X159525000Y-71950000D03*
%TO.P,S17,2*%
%TO.N,middle_numbers*%
X147975000Y-69750000D03*
%TD*%
D19*
%TO.P,S11,*%
%TO.N,*%
X142500000Y-82600000D03*
D20*
%TO.P,S11,1*%
%TO.N,P002*%
X140775000Y-93700000D03*
%TO.P,S11,2*%
%TO.N,ring_top*%
X129225000Y-91500000D03*
%TD*%
D19*
%TO.P,S15,*%
%TO.N,*%
X161250000Y-98350000D03*
D20*
%TO.P,S15,1*%
%TO.N,P115*%
X159525000Y-109450000D03*
%TO.P,S15,2*%
%TO.N,middle_home*%
X147975000Y-107250000D03*
%TD*%
D19*
%TO.P,S12,*%
%TO.N,*%
X142500000Y-63850000D03*
D20*
%TO.P,S12,1*%
%TO.N,P002*%
X140775000Y-74950000D03*
%TO.P,S12,2*%
%TO.N,ring_numbers*%
X129225000Y-72750000D03*
%TD*%
D19*
%TO.P,S24,*%
%TO.N,*%
X198750000Y-107350000D03*
D20*
%TO.P,S24,1*%
%TO.N,P111*%
X197025000Y-118450000D03*
%TO.P,S24,2*%
%TO.N,inner_home*%
X185475000Y-116250000D03*
%TD*%
D19*
%TO.P,S6,*%
%TO.N,*%
X123750000Y-107350000D03*
D20*
%TO.P,S6,1*%
%TO.N,P029*%
X122025000Y-118450000D03*
%TO.P,S6,2*%
%TO.N,pinky_home*%
X110475000Y-116250000D03*
%TD*%
D19*
%TO.P,S9,*%
%TO.N,*%
X142500000Y-120100000D03*
D20*
%TO.P,S9,1*%
%TO.N,P002*%
X140775000Y-131200000D03*
%TO.P,S9,2*%
%TO.N,ring_bottom*%
X129225000Y-129000000D03*
%TD*%
D19*
%TO.P,S31,*%
%TO.N,*%
X244362314Y-150762762D03*
D21*
%TO.P,S31,1*%
%TO.N,P010*%
X236582578Y-158865930D03*
%TO.P,S31,2*%
%TO.N,forward_thumb*%
X228383240Y-150438988D03*
%TD*%
D19*
%TO.P,S3,*%
%TO.N,*%
X105000000Y-88600000D03*
D20*
%TO.P,S3,1*%
%TO.N,P031*%
X103275000Y-99700000D03*
%TO.P,S3,2*%
%TO.N,actions_top*%
X91725000Y-97500000D03*
%TD*%
D19*
%TO.P,S26,*%
%TO.N,*%
X198750000Y-69850000D03*
D20*
%TO.P,S26,1*%
%TO.N,P111*%
X197025000Y-80950000D03*
%TO.P,S26,2*%
%TO.N,inner_numbers*%
X185475000Y-78750000D03*
%TD*%
D19*
%TO.P,S29,*%
%TO.N,*%
X223554237Y-147790148D03*
D21*
%TO.P,S29,1*%
%TO.N,P111*%
X215774501Y-155893316D03*
%TO.P,S29,2*%
%TO.N,space_thumb*%
X207575163Y-147466374D03*
%TD*%
D19*
%TO.P,S13,*%
%TO.N,*%
X161250000Y-135850000D03*
D20*
%TO.P,S13,1*%
%TO.N,P115*%
X159525000Y-146950000D03*
%TO.P,S13,2*%
%TO.N,middle_modifiers*%
X147975000Y-144750000D03*
%TD*%
D19*
%TO.P,S1,*%
%TO.N,*%
X105000000Y-126100000D03*
D20*
%TO.P,S1,1*%
%TO.N,P031*%
X103275000Y-137200000D03*
%TO.P,S1,2*%
%TO.N,actions_bottom*%
X91725000Y-135000000D03*
%TD*%
D19*
%TO.P,S7,*%
%TO.N,*%
X123750000Y-88600000D03*
D20*
%TO.P,S7,1*%
%TO.N,P029*%
X122025000Y-99700000D03*
%TO.P,S7,2*%
%TO.N,pinky_top*%
X110475000Y-97500000D03*
%TD*%
D19*
%TO.P,S28,*%
%TO.N,*%
X217500000Y-88600000D03*
D20*
%TO.P,S28,1*%
%TO.N,P010*%
X215775000Y-99700000D03*
%TO.P,S28,2*%
%TO.N,special_top*%
X204225000Y-97500000D03*
%TD*%
D19*
%TO.P,S18,*%
%TO.N,*%
X180000000Y-138850000D03*
D20*
%TO.P,S18,1*%
%TO.N,P113*%
X178275000Y-149950000D03*
%TO.P,S18,2*%
%TO.N,index_modifiers*%
X166725000Y-147750000D03*
%TD*%
D19*
%TO.P,S16,*%
%TO.N,*%
X161250000Y-79600000D03*
D20*
%TO.P,S16,1*%
%TO.N,P115*%
X159525000Y-90700000D03*
%TO.P,S16,2*%
%TO.N,middle_top*%
X147975000Y-88500000D03*
%TD*%
D19*
%TO.P,S8,*%
%TO.N,*%
X123750000Y-69850000D03*
D20*
%TO.P,S8,1*%
%TO.N,P029*%
X122025000Y-80950000D03*
%TO.P,S8,2*%
%TO.N,pinky_numbers*%
X110475000Y-78750000D03*
%TD*%
D19*
%TO.P,S27,*%
%TO.N,*%
X217500000Y-107350000D03*
D20*
%TO.P,S27,1*%
%TO.N,P010*%
X215775000Y-118450000D03*
%TO.P,S27,2*%
%TO.N,special_home*%
X204225000Y-116250000D03*
%TD*%
D19*
%TO.P,S21,*%
%TO.N,*%
X180000000Y-82600000D03*
D20*
%TO.P,S21,1*%
%TO.N,P113*%
X178275000Y-93700000D03*
%TO.P,S21,2*%
%TO.N,index_top*%
X166725000Y-91500000D03*
%TD*%
D19*
%TO.P,S4,*%
%TO.N,*%
X105000000Y-69850000D03*
D20*
%TO.P,S4,1*%
%TO.N,P031*%
X103275000Y-80950000D03*
%TO.P,S4,2*%
%TO.N,actions_numbers*%
X91725000Y-78750000D03*
%TD*%
D19*
%TO.P,S25,*%
%TO.N,*%
X198750000Y-88600000D03*
D20*
%TO.P,S25,1*%
%TO.N,P111*%
X197025000Y-99700000D03*
%TO.P,S25,2*%
%TO.N,inner_top*%
X185475000Y-97500000D03*
%TD*%
D19*
%TO.P,S5,*%
%TO.N,*%
X123750000Y-126100000D03*
D20*
%TO.P,S5,1*%
%TO.N,P029*%
X122025000Y-137200000D03*
%TO.P,S5,2*%
%TO.N,pinky_bottom*%
X110475000Y-135000000D03*
%TD*%
D19*
%TO.P,S30,*%
%TO.N,*%
X233607756Y-166121863D03*
D21*
%TO.P,S30,1*%
%TO.N,P010*%
X225828020Y-174225031D03*
%TO.P,S30,2*%
%TO.N,forward_top*%
X217628682Y-165798089D03*
%TD*%
D19*
%TO.P,S14,*%
%TO.N,*%
X161250000Y-117100000D03*
D20*
%TO.P,S14,1*%
%TO.N,P115*%
X159525000Y-128200000D03*
%TO.P,S14,2*%
%TO.N,middle_bottom*%
X147975000Y-126000000D03*
%TD*%
D19*
%TO.P,S23,*%
%TO.N,*%
X198750000Y-126100000D03*
D20*
%TO.P,S23,1*%
%TO.N,P111*%
X197025000Y-137200000D03*
%TO.P,S23,2*%
%TO.N,inner_bottom*%
X185475000Y-135000000D03*
%TD*%
D19*
%TO.P,S22,*%
%TO.N,*%
X180000000Y-63850000D03*
D20*
%TO.P,S22,1*%
%TO.N,P113*%
X178275000Y-74950000D03*
%TO.P,S22,2*%
%TO.N,index_numbers*%
X166725000Y-72750000D03*
%TD*%
D19*
%TO.P,S20,*%
%TO.N,*%
X180000000Y-101350000D03*
D20*
%TO.P,S20,1*%
%TO.N,P113*%
X178275000Y-112450000D03*
%TO.P,S20,2*%
%TO.N,index_home*%
X166725000Y-110250000D03*
%TD*%
D19*
%TO.P,S10,*%
%TO.N,*%
X142500000Y-101350000D03*
D20*
%TO.P,S10,1*%
%TO.N,P002*%
X140775000Y-112450000D03*
%TO.P,S10,2*%
%TO.N,ring_home*%
X129225000Y-110250000D03*
%TD*%
D19*
%TO.P,S19,*%
%TO.N,*%
X180000000Y-120100000D03*
D20*
%TO.P,S19,1*%
%TO.N,P113*%
X178275000Y-131200000D03*
%TO.P,S19,2*%
%TO.N,index_bottom*%
X166725000Y-129000000D03*
%TD*%
D19*
%TO.P,S2,*%
%TO.N,*%
X105000000Y-107350000D03*
D20*
%TO.P,S2,1*%
%TO.N,P031*%
X103275000Y-118450000D03*
%TO.P,S2,2*%
%TO.N,actions_home*%
X91725000Y-116250000D03*
%TD*%
D22*
%TO.N,P031*%
X103275000Y-137200000D02*
X103275000Y-118450000D01*
X103275000Y-80950000D02*
X103275000Y-63205000D01*
X103275000Y-99700000D02*
X103275000Y-80950000D01*
X103275000Y-63205000D02*
X102690000Y-62620000D01*
X103275000Y-118450000D02*
X103275000Y-99700000D01*
%TO.N,actions_bottom*%
X91725000Y-131191667D02*
X94833274Y-128083393D01*
X91725000Y-131191667D02*
X93305923Y-129610744D01*
X91725000Y-135000000D02*
X91725000Y-131191667D01*
%TO.N,actions_home*%
X91725000Y-112441667D02*
X94833274Y-109333393D01*
X91725000Y-112441667D02*
X93305923Y-110860744D01*
X91725000Y-116250000D02*
X91725000Y-112441667D01*
%TO.N,actions_top*%
X91725000Y-93691667D02*
X94833274Y-90583393D01*
X91725000Y-93691667D02*
X93305923Y-92110744D01*
X91725000Y-97500000D02*
X91725000Y-93691667D01*
%TO.N,actions_numbers*%
X91725000Y-74941667D02*
X93305923Y-73360744D01*
X91725000Y-78750000D02*
X91725000Y-74941667D01*
X91725000Y-74941667D02*
X94833274Y-71833393D01*
%TO.N,P029*%
X122025000Y-137200000D02*
X122025000Y-118450000D01*
X122025000Y-80950000D02*
X122025000Y-99700000D01*
X122025000Y-118450000D02*
X122025000Y-99700000D01*
X122025000Y-67025000D02*
X121000000Y-66000000D01*
X122025000Y-80950000D02*
X122025000Y-67025000D01*
X108610000Y-66000000D02*
X105230000Y-62620000D01*
X121000000Y-66000000D02*
X108610000Y-66000000D01*
%TO.N,pinky_bottom*%
X110475000Y-131191667D02*
X112055923Y-129610744D01*
X110475000Y-131191667D02*
X113583274Y-128083393D01*
X110475000Y-135000000D02*
X110475000Y-131191667D01*
%TO.N,pinky_home*%
X110475000Y-116250000D02*
X110475000Y-112441667D01*
X110475000Y-112441667D02*
X112055923Y-110860744D01*
X110475000Y-112441667D02*
X113583274Y-109333393D01*
%TO.N,pinky_top*%
X110475000Y-93691667D02*
X112055923Y-92110744D01*
X110475000Y-97500000D02*
X110475000Y-93691667D01*
X110475000Y-93691667D02*
X113583274Y-90583393D01*
%TO.N,pinky_numbers*%
X110475000Y-74941667D02*
X112055923Y-73360744D01*
X110475000Y-78750000D02*
X110475000Y-74941667D01*
X110475000Y-74941667D02*
X113583274Y-71833393D01*
%TO.N,P002*%
X140775000Y-131200000D02*
X140775000Y-112450000D01*
X140775000Y-74950000D02*
X140775000Y-64275000D01*
X140775000Y-112450000D02*
X140775000Y-93700000D01*
X128500000Y-60000000D02*
X122901000Y-65599000D01*
X107770000Y-64592900D02*
X107770000Y-62620000D01*
X122901000Y-65599000D02*
X108776100Y-65599000D01*
X136500000Y-60000000D02*
X128500000Y-60000000D01*
X108776100Y-65599000D02*
X107770000Y-64592900D01*
X140775000Y-64275000D02*
X136500000Y-60000000D01*
X140775000Y-74950000D02*
X140775000Y-93700000D01*
%TO.N,ring_bottom*%
X129225000Y-125191667D02*
X130805923Y-123610744D01*
X129225000Y-129000000D02*
X129225000Y-125191667D01*
X129225000Y-125191667D02*
X132333274Y-122083393D01*
%TO.N,ring_home*%
X129225000Y-110250000D02*
X129225000Y-106441667D01*
X129225000Y-106441667D02*
X130805923Y-104860744D01*
X129225000Y-106441667D02*
X132333274Y-103333393D01*
%TO.N,ring_top*%
X129225000Y-91500000D02*
X129225000Y-87691667D01*
X129225000Y-87691667D02*
X132333274Y-84583393D01*
X129225000Y-87691667D02*
X130805923Y-86110744D01*
%TO.N,ring_numbers*%
X129225000Y-68941667D02*
X130805923Y-67360744D01*
X129225000Y-68941667D02*
X132333274Y-65833393D01*
X129225000Y-72750000D02*
X129225000Y-68941667D01*
%TO.N,P115*%
X122734900Y-65198000D02*
X111698000Y-65198000D01*
X128333900Y-59599000D02*
X122734900Y-65198000D01*
X111698000Y-65198000D02*
X110310000Y-63810000D01*
X159525000Y-109450000D02*
X159525000Y-90700000D01*
X159525000Y-128200000D02*
X159525000Y-109450000D01*
X159525000Y-71950000D02*
X159525000Y-90700000D01*
X110310000Y-63810000D02*
X110310000Y-62620000D01*
X159525000Y-61870599D02*
X154654401Y-57000000D01*
X159525000Y-146950000D02*
X159525000Y-128200000D01*
X154654401Y-57000000D02*
X146000000Y-57000000D01*
X143401000Y-59599000D02*
X128333900Y-59599000D01*
X146000000Y-57000000D02*
X143401000Y-59599000D01*
X159525000Y-71950000D02*
X159525000Y-61870599D01*
%TO.N,middle_modifiers*%
X147975000Y-140941667D02*
X151083274Y-137833393D01*
X147975000Y-144750000D02*
X147975000Y-140941667D01*
X147975000Y-140941667D02*
X149555923Y-139360744D01*
%TO.N,middle_bottom*%
X147975000Y-122191667D02*
X149555923Y-120610744D01*
X147975000Y-122191667D02*
X151083274Y-119083393D01*
X147975000Y-126000000D02*
X147975000Y-122191667D01*
%TO.N,middle_home*%
X147975000Y-103441667D02*
X149555923Y-101860744D01*
X147975000Y-107250000D02*
X147975000Y-107025000D01*
X147975000Y-107250000D02*
X147975000Y-103441667D01*
X151083274Y-103916726D02*
X151083274Y-100333393D01*
X147975000Y-107025000D02*
X151083274Y-103916726D01*
%TO.N,middle_top*%
X147975000Y-88500000D02*
X147975000Y-84691667D01*
X147975000Y-84691667D02*
X151083274Y-81583393D01*
X147975000Y-84691667D02*
X149555923Y-83110744D01*
%TO.N,middle_numbers*%
X147975000Y-69750000D02*
X147975000Y-65941667D01*
X147975000Y-65941667D02*
X149555923Y-64360744D01*
X147975000Y-65941667D02*
X151083274Y-62833393D01*
%TO.N,P113*%
X128167800Y-59198000D02*
X122568800Y-64797000D01*
X178275000Y-93700000D02*
X178275000Y-112450000D01*
X143234900Y-59198000D02*
X128167800Y-59198000D01*
X178275000Y-74950000D02*
X178275000Y-93700000D01*
X171099000Y-56599000D02*
X145833900Y-56599000D01*
X145833900Y-56599000D02*
X143234900Y-59198000D01*
X178275000Y-131200000D02*
X178275000Y-112450000D01*
X115027000Y-64797000D02*
X112850000Y-62620000D01*
X178275000Y-74950000D02*
X178275000Y-63775000D01*
X122568800Y-64797000D02*
X115027000Y-64797000D01*
X178275000Y-63775000D02*
X171099000Y-56599000D01*
X178275000Y-149950000D02*
X178275000Y-131200000D01*
%TO.N,index_modifiers*%
X166725000Y-143941667D02*
X168305923Y-142360744D01*
X166725000Y-147750000D02*
X166725000Y-143941667D01*
X166725000Y-143941667D02*
X169833274Y-140833393D01*
%TO.N,index_bottom*%
X166725000Y-128275000D02*
X169833274Y-125166726D01*
X169833274Y-125166726D02*
X169833274Y-122083393D01*
X166725000Y-125191667D02*
X168305923Y-123610744D01*
X166725000Y-129000000D02*
X166725000Y-128275000D01*
X166725000Y-129000000D02*
X166725000Y-125191667D01*
%TO.N,index_home*%
X166725000Y-106441667D02*
X169833274Y-103333393D01*
X166725000Y-106441667D02*
X168305923Y-104860744D01*
X166725000Y-110250000D02*
X166725000Y-106441667D01*
%TO.N,index_top*%
X166725000Y-91500000D02*
X166725000Y-87691667D01*
X166725000Y-87691667D02*
X169833274Y-84583393D01*
X166725000Y-87691667D02*
X168305923Y-86110744D01*
%TO.N,index_numbers*%
X166725000Y-68941667D02*
X168305923Y-67360744D01*
X166725000Y-72750000D02*
X166725000Y-68941667D01*
X166725000Y-68941667D02*
X169833274Y-65833393D01*
%TO.N,P111*%
X117166000Y-64396000D02*
X115390000Y-62620000D01*
X171265100Y-56198000D02*
X145667800Y-56198000D01*
X193249000Y-62249000D02*
X177316100Y-62249000D01*
X197025000Y-118450000D02*
X197025000Y-99700000D01*
X177316100Y-62249000D02*
X171265100Y-56198000D01*
X197025000Y-80950000D02*
X197000000Y-80925000D01*
X128001700Y-58797000D02*
X122402700Y-64396000D01*
X143068800Y-58797000D02*
X128001700Y-58797000D01*
X122402700Y-64396000D02*
X117166000Y-64396000D01*
X197000000Y-66000000D02*
X193249000Y-62249000D01*
X197025000Y-80950000D02*
X197025000Y-99700000D01*
X201393316Y-155893316D02*
X197025000Y-151525000D01*
X145667800Y-56198000D02*
X143068800Y-58797000D01*
X215774501Y-155893316D02*
X201393316Y-155893316D01*
X197025000Y-151525000D02*
X197025000Y-137200000D01*
X197025000Y-137200000D02*
X197025000Y-118450000D01*
X197000000Y-80925000D02*
X197000000Y-66000000D01*
%TO.N,inner_bottom*%
X185475000Y-135000000D02*
X185475000Y-131191667D01*
X185475000Y-131191667D02*
X188583274Y-128083393D01*
X185475000Y-131191667D02*
X187055923Y-129610744D01*
%TO.N,inner_home*%
X185475000Y-112441667D02*
X188583274Y-109333393D01*
X185475000Y-116250000D02*
X185475000Y-112441667D01*
X185475000Y-112441667D02*
X187055923Y-110860744D01*
%TO.N,inner_top*%
X185475000Y-93691667D02*
X188583274Y-90583393D01*
X185475000Y-97500000D02*
X185475000Y-93691667D01*
X185475000Y-93691667D02*
X187055923Y-92110744D01*
%TO.N,inner_numbers*%
X185475000Y-74941667D02*
X187055923Y-73360744D01*
X185475000Y-78750000D02*
X185475000Y-74941667D01*
X185475000Y-74941667D02*
X188583274Y-71833393D01*
%TO.N,P010*%
X209500000Y-84500000D02*
X200500000Y-75500000D01*
X242500000Y-145000000D02*
X238500000Y-141000000D01*
X215775000Y-118450000D02*
X215775000Y-99700000D01*
X211000000Y-84500000D02*
X209500000Y-84500000D01*
X193415100Y-61848000D02*
X177482200Y-61848000D01*
X236582578Y-167417422D02*
X236582578Y-158865930D01*
X142902700Y-58396000D02*
X127835600Y-58396000D01*
X215775000Y-99700000D02*
X215775000Y-89275000D01*
X177482200Y-61848000D02*
X171431200Y-55797000D01*
X200500000Y-68932900D02*
X193415100Y-61848000D01*
X236582578Y-158865930D02*
X242500000Y-152948508D01*
X171431200Y-55797000D02*
X145501700Y-55797000D01*
X200500000Y-75500000D02*
X200500000Y-68932900D01*
X119305000Y-63995000D02*
X117930000Y-62620000D01*
X215775000Y-89275000D02*
X211000000Y-84500000D01*
X242500000Y-152948508D02*
X242500000Y-145000000D01*
X122236600Y-63995000D02*
X119305000Y-63995000D01*
X225828020Y-174225031D02*
X229774969Y-174225031D01*
X145501700Y-55797000D02*
X142902700Y-58396000D01*
X127835600Y-58396000D02*
X122236600Y-63995000D01*
X215775000Y-129775000D02*
X215775000Y-118450000D01*
X227000000Y-141000000D02*
X215775000Y-129775000D01*
X238500000Y-141000000D02*
X227000000Y-141000000D01*
X229774969Y-174225031D02*
X236582578Y-167417422D01*
%TO.N,special_home*%
X204225000Y-116250000D02*
X204225000Y-112441667D01*
X204225000Y-112441667D02*
X207333274Y-109333393D01*
X204225000Y-112441667D02*
X205805923Y-110860744D01*
%TO.N,special_top*%
X204225000Y-93691667D02*
X207333274Y-90583393D01*
X204225000Y-97500000D02*
X204225000Y-93691667D01*
X204225000Y-93691667D02*
X205805923Y-92110744D01*
%TO.N,space_thumb*%
X207575163Y-147466374D02*
X210205595Y-147466374D01*
X207575163Y-147466374D02*
X211083002Y-143958535D01*
X210205595Y-147466374D02*
X214088515Y-143583454D01*
X211083002Y-143958535D02*
X211961330Y-143958535D01*
%TO.N,forward_top*%
X217628682Y-165798089D02*
X221136522Y-162290249D01*
X220259113Y-165798089D02*
X224142034Y-161915168D01*
X217628682Y-165798089D02*
X220259113Y-165798089D01*
X221136522Y-162290249D02*
X222014849Y-162290249D01*
%TO.N,forward_thumb*%
X228383240Y-150438988D02*
X231013671Y-150438988D01*
X231891080Y-146931148D02*
X232769407Y-146931148D01*
X231013671Y-150438988D02*
X234896592Y-146556067D01*
X228383240Y-150438988D02*
X231891080Y-146931148D01*
%TO.N,P017*%
X192444077Y-124222590D02*
X190916726Y-125749941D01*
X98694077Y-124222590D02*
X97166726Y-125749941D01*
X154944077Y-115222590D02*
X153416726Y-116749941D01*
X136194077Y-118222590D02*
X134666726Y-119749941D01*
X219465566Y-142635335D02*
X217713462Y-142635335D01*
X117444077Y-124222590D02*
X115916726Y-125749941D01*
X240273643Y-145607948D02*
X238521539Y-145607948D01*
X238521539Y-145607948D02*
X238146458Y-145983029D01*
X173694077Y-118222590D02*
X172166726Y-119749941D01*
X217713462Y-142635335D02*
X217338381Y-143010416D01*
%TO.N,P008*%
X136194077Y-99472590D02*
X134666726Y-100999941D01*
X117444077Y-105472590D02*
X115916726Y-106999941D01*
X173694077Y-99472590D02*
X172166726Y-100999941D01*
X98694077Y-105472590D02*
X97166726Y-106999941D01*
X211194077Y-105472590D02*
X209666726Y-106999941D01*
X192444077Y-105472590D02*
X190916726Y-106999941D01*
X154944077Y-96472590D02*
X153416726Y-97999941D01*
%TO.N,P006*%
X136194077Y-80722590D02*
X134666726Y-82249941D01*
X192444077Y-86722590D02*
X190916726Y-88249941D01*
X98694077Y-86722590D02*
X97166726Y-88249941D01*
X154944077Y-77722590D02*
X153416726Y-79249941D01*
X211194077Y-86722590D02*
X209666726Y-88249941D01*
X117444077Y-86722590D02*
X115916726Y-88249941D01*
X173694077Y-80722590D02*
X172166726Y-82249941D01*
%TO.N,P009*%
X136194077Y-61972590D02*
X134666726Y-63499941D01*
X154944077Y-58972590D02*
X153416726Y-60499941D01*
X192444077Y-67972590D02*
X190916726Y-69499941D01*
X173694077Y-61972590D02*
X172166726Y-63499941D01*
X117444077Y-67972590D02*
X115916726Y-69499941D01*
X98694077Y-67972590D02*
X97166726Y-69499941D01*
%TO.N,P020*%
X227766981Y-160967049D02*
X227391900Y-161342130D01*
X154944077Y-133972590D02*
X153416726Y-135499941D01*
X173694077Y-136972590D02*
X172166726Y-138499941D01*
X229519085Y-160967049D02*
X227766981Y-160967049D01*
%TD*%
M02*
