%TF.GenerationSoftware,KiCad,Pcbnew,9.0.6*%
%TF.CreationDate,2026-01-25T21:10:06-05:00*%
%TF.ProjectId,left_routed,6c656674-5f72-46f7-9574-65642e6b6963,v1.0.0*%
%TF.SameCoordinates,Original*%
%TF.FileFunction,Legend,Top*%
%TF.FilePolarity,Positive*%
%FSLAX46Y46*%
G04 Gerber Fmt 4.6, Leading zero omitted, Abs format (unit mm)*
G04 Created by KiCad (PCBNEW 9.0.6) date 2026-01-25 21:10:06*
%MOMM*%
%LPD*%
G01*
G04 APERTURE LIST*
%ADD10C,0.150000*%
%ADD11C,0.300000*%
%ADD12C,0.100000*%
%ADD13C,0.381000*%
%ADD14C,0.120000*%
%ADD15C,4.000000*%
%ADD16C,1.752600*%
G04 APERTURE END LIST*
D10*
X99712295Y-61603857D02*
X100512295Y-61337190D01*
X100512295Y-61337190D02*
X99712295Y-61070524D01*
X100436104Y-60346714D02*
X100474200Y-60384810D01*
X100474200Y-60384810D02*
X100512295Y-60499095D01*
X100512295Y-60499095D02*
X100512295Y-60575286D01*
X100512295Y-60575286D02*
X100474200Y-60689572D01*
X100474200Y-60689572D02*
X100398009Y-60765762D01*
X100398009Y-60765762D02*
X100321819Y-60803857D01*
X100321819Y-60803857D02*
X100169438Y-60841953D01*
X100169438Y-60841953D02*
X100055152Y-60841953D01*
X100055152Y-60841953D02*
X99902771Y-60803857D01*
X99902771Y-60803857D02*
X99826580Y-60765762D01*
X99826580Y-60765762D02*
X99750390Y-60689572D01*
X99750390Y-60689572D02*
X99712295Y-60575286D01*
X99712295Y-60575286D02*
X99712295Y-60499095D01*
X99712295Y-60499095D02*
X99750390Y-60384810D01*
X99750390Y-60384810D02*
X99788485Y-60346714D01*
X100436104Y-59546714D02*
X100474200Y-59584810D01*
X100474200Y-59584810D02*
X100512295Y-59699095D01*
X100512295Y-59699095D02*
X100512295Y-59775286D01*
X100512295Y-59775286D02*
X100474200Y-59889572D01*
X100474200Y-59889572D02*
X100398009Y-59965762D01*
X100398009Y-59965762D02*
X100321819Y-60003857D01*
X100321819Y-60003857D02*
X100169438Y-60041953D01*
X100169438Y-60041953D02*
X100055152Y-60041953D01*
X100055152Y-60041953D02*
X99902771Y-60003857D01*
X99902771Y-60003857D02*
X99826580Y-59965762D01*
X99826580Y-59965762D02*
X99750390Y-59889572D01*
X99750390Y-59889572D02*
X99712295Y-59775286D01*
X99712295Y-59775286D02*
X99712295Y-59699095D01*
X99712295Y-59699095D02*
X99750390Y-59584810D01*
X99750390Y-59584810D02*
X99788485Y-59546714D01*
X110672295Y-61070524D02*
X110672295Y-61527667D01*
X110672295Y-61299095D02*
X109872295Y-61299095D01*
X109872295Y-61299095D02*
X109986580Y-61375286D01*
X109986580Y-61375286D02*
X110062771Y-61451476D01*
X110062771Y-61451476D02*
X110100866Y-61527667D01*
X110672295Y-60308619D02*
X110672295Y-60765762D01*
X110672295Y-60537190D02*
X109872295Y-60537190D01*
X109872295Y-60537190D02*
X109986580Y-60613381D01*
X109986580Y-60613381D02*
X110062771Y-60689571D01*
X110062771Y-60689571D02*
X110100866Y-60765762D01*
X109872295Y-59584809D02*
X109872295Y-59965761D01*
X109872295Y-59965761D02*
X110253247Y-60003857D01*
X110253247Y-60003857D02*
X110215152Y-59965761D01*
X110215152Y-59965761D02*
X110177057Y-59889571D01*
X110177057Y-59889571D02*
X110177057Y-59699095D01*
X110177057Y-59699095D02*
X110215152Y-59622904D01*
X110215152Y-59622904D02*
X110253247Y-59584809D01*
X110253247Y-59584809D02*
X110329438Y-59546714D01*
X110329438Y-59546714D02*
X110519914Y-59546714D01*
X110519914Y-59546714D02*
X110596104Y-59584809D01*
X110596104Y-59584809D02*
X110634200Y-59622904D01*
X110634200Y-59622904D02*
X110672295Y-59699095D01*
X110672295Y-59699095D02*
X110672295Y-59889571D01*
X110672295Y-59889571D02*
X110634200Y-59965761D01*
X110634200Y-59965761D02*
X110596104Y-60003857D01*
X99750390Y-50148523D02*
X99712295Y-50224713D01*
X99712295Y-50224713D02*
X99712295Y-50338999D01*
X99712295Y-50338999D02*
X99750390Y-50453285D01*
X99750390Y-50453285D02*
X99826580Y-50529475D01*
X99826580Y-50529475D02*
X99902771Y-50567570D01*
X99902771Y-50567570D02*
X100055152Y-50605666D01*
X100055152Y-50605666D02*
X100169438Y-50605666D01*
X100169438Y-50605666D02*
X100321819Y-50567570D01*
X100321819Y-50567570D02*
X100398009Y-50529475D01*
X100398009Y-50529475D02*
X100474200Y-50453285D01*
X100474200Y-50453285D02*
X100512295Y-50338999D01*
X100512295Y-50338999D02*
X100512295Y-50262808D01*
X100512295Y-50262808D02*
X100474200Y-50148523D01*
X100474200Y-50148523D02*
X100436104Y-50110427D01*
X100436104Y-50110427D02*
X100169438Y-50110427D01*
X100169438Y-50110427D02*
X100169438Y-50262808D01*
X100512295Y-49767570D02*
X99712295Y-49767570D01*
X99712295Y-49767570D02*
X100512295Y-49310427D01*
X100512295Y-49310427D02*
X99712295Y-49310427D01*
X100512295Y-48929475D02*
X99712295Y-48929475D01*
X99712295Y-48929475D02*
X99712295Y-48738999D01*
X99712295Y-48738999D02*
X99750390Y-48624713D01*
X99750390Y-48624713D02*
X99826580Y-48548523D01*
X99826580Y-48548523D02*
X99902771Y-48510428D01*
X99902771Y-48510428D02*
X100055152Y-48472332D01*
X100055152Y-48472332D02*
X100169438Y-48472332D01*
X100169438Y-48472332D02*
X100321819Y-48510428D01*
X100321819Y-48510428D02*
X100398009Y-48548523D01*
X100398009Y-48548523D02*
X100474200Y-48624713D01*
X100474200Y-48624713D02*
X100512295Y-48738999D01*
X100512295Y-48738999D02*
X100512295Y-48929475D01*
X97972295Y-61026094D02*
X97591342Y-61292761D01*
X97972295Y-61483237D02*
X97172295Y-61483237D01*
X97172295Y-61483237D02*
X97172295Y-61178475D01*
X97172295Y-61178475D02*
X97210390Y-61102285D01*
X97210390Y-61102285D02*
X97248485Y-61064190D01*
X97248485Y-61064190D02*
X97324676Y-61026094D01*
X97324676Y-61026094D02*
X97438961Y-61026094D01*
X97438961Y-61026094D02*
X97515152Y-61064190D01*
X97515152Y-61064190D02*
X97553247Y-61102285D01*
X97553247Y-61102285D02*
X97591342Y-61178475D01*
X97591342Y-61178475D02*
X97591342Y-61483237D01*
X97934200Y-60721333D02*
X97972295Y-60607047D01*
X97972295Y-60607047D02*
X97972295Y-60416571D01*
X97972295Y-60416571D02*
X97934200Y-60340380D01*
X97934200Y-60340380D02*
X97896104Y-60302285D01*
X97896104Y-60302285D02*
X97819914Y-60264190D01*
X97819914Y-60264190D02*
X97743723Y-60264190D01*
X97743723Y-60264190D02*
X97667533Y-60302285D01*
X97667533Y-60302285D02*
X97629438Y-60340380D01*
X97629438Y-60340380D02*
X97591342Y-60416571D01*
X97591342Y-60416571D02*
X97553247Y-60568952D01*
X97553247Y-60568952D02*
X97515152Y-60645142D01*
X97515152Y-60645142D02*
X97477057Y-60683237D01*
X97477057Y-60683237D02*
X97400866Y-60721333D01*
X97400866Y-60721333D02*
X97324676Y-60721333D01*
X97324676Y-60721333D02*
X97248485Y-60683237D01*
X97248485Y-60683237D02*
X97210390Y-60645142D01*
X97210390Y-60645142D02*
X97172295Y-60568952D01*
X97172295Y-60568952D02*
X97172295Y-60378475D01*
X97172295Y-60378475D02*
X97210390Y-60264190D01*
X97172295Y-60035618D02*
X97172295Y-59578475D01*
X97972295Y-59807047D02*
X97172295Y-59807047D01*
D11*
X119640328Y-60289714D02*
X120640328Y-60289714D01*
X119783185Y-60289714D02*
X119711757Y-60218285D01*
X119711757Y-60218285D02*
X119640328Y-60075428D01*
X119640328Y-60075428D02*
X119640328Y-59861142D01*
X119640328Y-59861142D02*
X119711757Y-59718285D01*
X119711757Y-59718285D02*
X119854614Y-59646857D01*
X119854614Y-59646857D02*
X120640328Y-59646857D01*
X120640328Y-58932571D02*
X119640328Y-58932571D01*
X119140328Y-58932571D02*
X119211757Y-59003999D01*
X119211757Y-59003999D02*
X119283185Y-58932571D01*
X119283185Y-58932571D02*
X119211757Y-58861142D01*
X119211757Y-58861142D02*
X119140328Y-58932571D01*
X119140328Y-58932571D02*
X119283185Y-58932571D01*
X120568900Y-57575428D02*
X120640328Y-57718285D01*
X120640328Y-57718285D02*
X120640328Y-58003999D01*
X120640328Y-58003999D02*
X120568900Y-58146856D01*
X120568900Y-58146856D02*
X120497471Y-58218285D01*
X120497471Y-58218285D02*
X120354614Y-58289713D01*
X120354614Y-58289713D02*
X119926042Y-58289713D01*
X119926042Y-58289713D02*
X119783185Y-58218285D01*
X119783185Y-58218285D02*
X119711757Y-58146856D01*
X119711757Y-58146856D02*
X119640328Y-58003999D01*
X119640328Y-58003999D02*
X119640328Y-57718285D01*
X119640328Y-57718285D02*
X119711757Y-57575428D01*
X120568900Y-56361142D02*
X120640328Y-56503999D01*
X120640328Y-56503999D02*
X120640328Y-56789714D01*
X120640328Y-56789714D02*
X120568900Y-56932571D01*
X120568900Y-56932571D02*
X120426042Y-57003999D01*
X120426042Y-57003999D02*
X119854614Y-57003999D01*
X119854614Y-57003999D02*
X119711757Y-56932571D01*
X119711757Y-56932571D02*
X119640328Y-56789714D01*
X119640328Y-56789714D02*
X119640328Y-56503999D01*
X119640328Y-56503999D02*
X119711757Y-56361142D01*
X119711757Y-56361142D02*
X119854614Y-56289714D01*
X119854614Y-56289714D02*
X119997471Y-56289714D01*
X119997471Y-56289714D02*
X120140328Y-57003999D01*
X120497471Y-55646857D02*
X120568900Y-55575428D01*
X120568900Y-55575428D02*
X120640328Y-55646857D01*
X120640328Y-55646857D02*
X120568900Y-55718285D01*
X120568900Y-55718285D02*
X120497471Y-55646857D01*
X120497471Y-55646857D02*
X120640328Y-55646857D01*
X120068900Y-55646857D02*
X119211757Y-55718285D01*
X119211757Y-55718285D02*
X119140328Y-55646857D01*
X119140328Y-55646857D02*
X119211757Y-55575428D01*
X119211757Y-55575428D02*
X120068900Y-55646857D01*
X120068900Y-55646857D02*
X119140328Y-55646857D01*
X119640328Y-54932571D02*
X120640328Y-54932571D01*
X119783185Y-54932571D02*
X119711757Y-54861142D01*
X119711757Y-54861142D02*
X119640328Y-54718285D01*
X119640328Y-54718285D02*
X119640328Y-54503999D01*
X119640328Y-54503999D02*
X119711757Y-54361142D01*
X119711757Y-54361142D02*
X119854614Y-54289714D01*
X119854614Y-54289714D02*
X120640328Y-54289714D01*
X120640328Y-52932571D02*
X119854614Y-52932571D01*
X119854614Y-52932571D02*
X119711757Y-53003999D01*
X119711757Y-53003999D02*
X119640328Y-53146856D01*
X119640328Y-53146856D02*
X119640328Y-53432571D01*
X119640328Y-53432571D02*
X119711757Y-53575428D01*
X120568900Y-52932571D02*
X120640328Y-53075428D01*
X120640328Y-53075428D02*
X120640328Y-53432571D01*
X120640328Y-53432571D02*
X120568900Y-53575428D01*
X120568900Y-53575428D02*
X120426042Y-53646856D01*
X120426042Y-53646856D02*
X120283185Y-53646856D01*
X120283185Y-53646856D02*
X120140328Y-53575428D01*
X120140328Y-53575428D02*
X120068900Y-53432571D01*
X120068900Y-53432571D02*
X120068900Y-53075428D01*
X120068900Y-53075428D02*
X119997471Y-52932571D01*
X119640328Y-52218285D02*
X120640328Y-52218285D01*
X119783185Y-52218285D02*
X119711757Y-52146856D01*
X119711757Y-52146856D02*
X119640328Y-52003999D01*
X119640328Y-52003999D02*
X119640328Y-51789713D01*
X119640328Y-51789713D02*
X119711757Y-51646856D01*
X119711757Y-51646856D02*
X119854614Y-51575428D01*
X119854614Y-51575428D02*
X120640328Y-51575428D01*
X120640328Y-50646856D02*
X120568900Y-50789713D01*
X120568900Y-50789713D02*
X120497471Y-50861142D01*
X120497471Y-50861142D02*
X120354614Y-50932570D01*
X120354614Y-50932570D02*
X119926042Y-50932570D01*
X119926042Y-50932570D02*
X119783185Y-50861142D01*
X119783185Y-50861142D02*
X119711757Y-50789713D01*
X119711757Y-50789713D02*
X119640328Y-50646856D01*
X119640328Y-50646856D02*
X119640328Y-50432570D01*
X119640328Y-50432570D02*
X119711757Y-50289713D01*
X119711757Y-50289713D02*
X119783185Y-50218285D01*
X119783185Y-50218285D02*
X119926042Y-50146856D01*
X119926042Y-50146856D02*
X120354614Y-50146856D01*
X120354614Y-50146856D02*
X120497471Y-50218285D01*
X120497471Y-50218285D02*
X120568900Y-50289713D01*
X120568900Y-50289713D02*
X120640328Y-50432570D01*
X120640328Y-50432570D02*
X120640328Y-50646856D01*
D10*
X97210390Y-50148523D02*
X97172295Y-50224713D01*
X97172295Y-50224713D02*
X97172295Y-50338999D01*
X97172295Y-50338999D02*
X97210390Y-50453285D01*
X97210390Y-50453285D02*
X97286580Y-50529475D01*
X97286580Y-50529475D02*
X97362771Y-50567570D01*
X97362771Y-50567570D02*
X97515152Y-50605666D01*
X97515152Y-50605666D02*
X97629438Y-50605666D01*
X97629438Y-50605666D02*
X97781819Y-50567570D01*
X97781819Y-50567570D02*
X97858009Y-50529475D01*
X97858009Y-50529475D02*
X97934200Y-50453285D01*
X97934200Y-50453285D02*
X97972295Y-50338999D01*
X97972295Y-50338999D02*
X97972295Y-50262808D01*
X97972295Y-50262808D02*
X97934200Y-50148523D01*
X97934200Y-50148523D02*
X97896104Y-50110427D01*
X97896104Y-50110427D02*
X97629438Y-50110427D01*
X97629438Y-50110427D02*
X97629438Y-50262808D01*
X97972295Y-49767570D02*
X97172295Y-49767570D01*
X97172295Y-49767570D02*
X97972295Y-49310427D01*
X97972295Y-49310427D02*
X97172295Y-49310427D01*
X97972295Y-48929475D02*
X97172295Y-48929475D01*
X97172295Y-48929475D02*
X97172295Y-48738999D01*
X97172295Y-48738999D02*
X97210390Y-48624713D01*
X97210390Y-48624713D02*
X97286580Y-48548523D01*
X97286580Y-48548523D02*
X97362771Y-48510428D01*
X97362771Y-48510428D02*
X97515152Y-48472332D01*
X97515152Y-48472332D02*
X97629438Y-48472332D01*
X97629438Y-48472332D02*
X97781819Y-48510428D01*
X97781819Y-48510428D02*
X97858009Y-48548523D01*
X97858009Y-48548523D02*
X97934200Y-48624713D01*
X97934200Y-48624713D02*
X97972295Y-48738999D01*
X97972295Y-48738999D02*
X97972295Y-48929475D01*
X94562295Y-50262809D02*
X94562295Y-50186619D01*
X94562295Y-50186619D02*
X94600390Y-50110428D01*
X94600390Y-50110428D02*
X94638485Y-50072333D01*
X94638485Y-50072333D02*
X94714676Y-50034238D01*
X94714676Y-50034238D02*
X94867057Y-49996143D01*
X94867057Y-49996143D02*
X95057533Y-49996143D01*
X95057533Y-49996143D02*
X95209914Y-50034238D01*
X95209914Y-50034238D02*
X95286104Y-50072333D01*
X95286104Y-50072333D02*
X95324200Y-50110428D01*
X95324200Y-50110428D02*
X95362295Y-50186619D01*
X95362295Y-50186619D02*
X95362295Y-50262809D01*
X95362295Y-50262809D02*
X95324200Y-50339000D01*
X95324200Y-50339000D02*
X95286104Y-50377095D01*
X95286104Y-50377095D02*
X95209914Y-50415190D01*
X95209914Y-50415190D02*
X95057533Y-50453286D01*
X95057533Y-50453286D02*
X94867057Y-50453286D01*
X94867057Y-50453286D02*
X94714676Y-50415190D01*
X94714676Y-50415190D02*
X94638485Y-50377095D01*
X94638485Y-50377095D02*
X94600390Y-50339000D01*
X94600390Y-50339000D02*
X94562295Y-50262809D01*
X94562295Y-49500904D02*
X94562295Y-49424714D01*
X94562295Y-49424714D02*
X94600390Y-49348523D01*
X94600390Y-49348523D02*
X94638485Y-49310428D01*
X94638485Y-49310428D02*
X94714676Y-49272333D01*
X94714676Y-49272333D02*
X94867057Y-49234238D01*
X94867057Y-49234238D02*
X95057533Y-49234238D01*
X95057533Y-49234238D02*
X95209914Y-49272333D01*
X95209914Y-49272333D02*
X95286104Y-49310428D01*
X95286104Y-49310428D02*
X95324200Y-49348523D01*
X95324200Y-49348523D02*
X95362295Y-49424714D01*
X95362295Y-49424714D02*
X95362295Y-49500904D01*
X95362295Y-49500904D02*
X95324200Y-49577095D01*
X95324200Y-49577095D02*
X95286104Y-49615190D01*
X95286104Y-49615190D02*
X95209914Y-49653285D01*
X95209914Y-49653285D02*
X95057533Y-49691381D01*
X95057533Y-49691381D02*
X94867057Y-49691381D01*
X94867057Y-49691381D02*
X94714676Y-49653285D01*
X94714676Y-49653285D02*
X94638485Y-49615190D01*
X94638485Y-49615190D02*
X94600390Y-49577095D01*
X94600390Y-49577095D02*
X94562295Y-49500904D01*
X94905152Y-48777095D02*
X94867057Y-48853285D01*
X94867057Y-48853285D02*
X94828961Y-48891380D01*
X94828961Y-48891380D02*
X94752771Y-48929476D01*
X94752771Y-48929476D02*
X94714676Y-48929476D01*
X94714676Y-48929476D02*
X94638485Y-48891380D01*
X94638485Y-48891380D02*
X94600390Y-48853285D01*
X94600390Y-48853285D02*
X94562295Y-48777095D01*
X94562295Y-48777095D02*
X94562295Y-48624714D01*
X94562295Y-48624714D02*
X94600390Y-48548523D01*
X94600390Y-48548523D02*
X94638485Y-48510428D01*
X94638485Y-48510428D02*
X94714676Y-48472333D01*
X94714676Y-48472333D02*
X94752771Y-48472333D01*
X94752771Y-48472333D02*
X94828961Y-48510428D01*
X94828961Y-48510428D02*
X94867057Y-48548523D01*
X94867057Y-48548523D02*
X94905152Y-48624714D01*
X94905152Y-48624714D02*
X94905152Y-48777095D01*
X94905152Y-48777095D02*
X94943247Y-48853285D01*
X94943247Y-48853285D02*
X94981342Y-48891380D01*
X94981342Y-48891380D02*
X95057533Y-48929476D01*
X95057533Y-48929476D02*
X95209914Y-48929476D01*
X95209914Y-48929476D02*
X95286104Y-48891380D01*
X95286104Y-48891380D02*
X95324200Y-48853285D01*
X95324200Y-48853285D02*
X95362295Y-48777095D01*
X95362295Y-48777095D02*
X95362295Y-48624714D01*
X95362295Y-48624714D02*
X95324200Y-48548523D01*
X95324200Y-48548523D02*
X95286104Y-48510428D01*
X95286104Y-48510428D02*
X95209914Y-48472333D01*
X95209914Y-48472333D02*
X95057533Y-48472333D01*
X95057533Y-48472333D02*
X94981342Y-48510428D01*
X94981342Y-48510428D02*
X94943247Y-48548523D01*
X94943247Y-48548523D02*
X94905152Y-48624714D01*
X92092295Y-50262809D02*
X92092295Y-50186619D01*
X92092295Y-50186619D02*
X92130390Y-50110428D01*
X92130390Y-50110428D02*
X92168485Y-50072333D01*
X92168485Y-50072333D02*
X92244676Y-50034238D01*
X92244676Y-50034238D02*
X92397057Y-49996143D01*
X92397057Y-49996143D02*
X92587533Y-49996143D01*
X92587533Y-49996143D02*
X92739914Y-50034238D01*
X92739914Y-50034238D02*
X92816104Y-50072333D01*
X92816104Y-50072333D02*
X92854200Y-50110428D01*
X92854200Y-50110428D02*
X92892295Y-50186619D01*
X92892295Y-50186619D02*
X92892295Y-50262809D01*
X92892295Y-50262809D02*
X92854200Y-50339000D01*
X92854200Y-50339000D02*
X92816104Y-50377095D01*
X92816104Y-50377095D02*
X92739914Y-50415190D01*
X92739914Y-50415190D02*
X92587533Y-50453286D01*
X92587533Y-50453286D02*
X92397057Y-50453286D01*
X92397057Y-50453286D02*
X92244676Y-50415190D01*
X92244676Y-50415190D02*
X92168485Y-50377095D01*
X92168485Y-50377095D02*
X92130390Y-50339000D01*
X92130390Y-50339000D02*
X92092295Y-50262809D01*
X92092295Y-49500904D02*
X92092295Y-49424714D01*
X92092295Y-49424714D02*
X92130390Y-49348523D01*
X92130390Y-49348523D02*
X92168485Y-49310428D01*
X92168485Y-49310428D02*
X92244676Y-49272333D01*
X92244676Y-49272333D02*
X92397057Y-49234238D01*
X92397057Y-49234238D02*
X92587533Y-49234238D01*
X92587533Y-49234238D02*
X92739914Y-49272333D01*
X92739914Y-49272333D02*
X92816104Y-49310428D01*
X92816104Y-49310428D02*
X92854200Y-49348523D01*
X92854200Y-49348523D02*
X92892295Y-49424714D01*
X92892295Y-49424714D02*
X92892295Y-49500904D01*
X92892295Y-49500904D02*
X92854200Y-49577095D01*
X92854200Y-49577095D02*
X92816104Y-49615190D01*
X92816104Y-49615190D02*
X92739914Y-49653285D01*
X92739914Y-49653285D02*
X92587533Y-49691381D01*
X92587533Y-49691381D02*
X92397057Y-49691381D01*
X92397057Y-49691381D02*
X92244676Y-49653285D01*
X92244676Y-49653285D02*
X92168485Y-49615190D01*
X92168485Y-49615190D02*
X92130390Y-49577095D01*
X92130390Y-49577095D02*
X92092295Y-49500904D01*
X92092295Y-48548523D02*
X92092295Y-48700904D01*
X92092295Y-48700904D02*
X92130390Y-48777095D01*
X92130390Y-48777095D02*
X92168485Y-48815190D01*
X92168485Y-48815190D02*
X92282771Y-48891380D01*
X92282771Y-48891380D02*
X92435152Y-48929476D01*
X92435152Y-48929476D02*
X92739914Y-48929476D01*
X92739914Y-48929476D02*
X92816104Y-48891380D01*
X92816104Y-48891380D02*
X92854200Y-48853285D01*
X92854200Y-48853285D02*
X92892295Y-48777095D01*
X92892295Y-48777095D02*
X92892295Y-48624714D01*
X92892295Y-48624714D02*
X92854200Y-48548523D01*
X92854200Y-48548523D02*
X92816104Y-48510428D01*
X92816104Y-48510428D02*
X92739914Y-48472333D01*
X92739914Y-48472333D02*
X92549438Y-48472333D01*
X92549438Y-48472333D02*
X92473247Y-48510428D01*
X92473247Y-48510428D02*
X92435152Y-48548523D01*
X92435152Y-48548523D02*
X92397057Y-48624714D01*
X92397057Y-48624714D02*
X92397057Y-48777095D01*
X92397057Y-48777095D02*
X92435152Y-48853285D01*
X92435152Y-48853285D02*
X92473247Y-48891380D01*
X92473247Y-48891380D02*
X92549438Y-48929476D01*
X113212295Y-49996143D02*
X113212295Y-50453286D01*
X113212295Y-50224714D02*
X112412295Y-50224714D01*
X112412295Y-50224714D02*
X112526580Y-50300905D01*
X112526580Y-50300905D02*
X112602771Y-50377095D01*
X112602771Y-50377095D02*
X112640866Y-50453286D01*
X112412295Y-49500904D02*
X112412295Y-49424714D01*
X112412295Y-49424714D02*
X112450390Y-49348523D01*
X112450390Y-49348523D02*
X112488485Y-49310428D01*
X112488485Y-49310428D02*
X112564676Y-49272333D01*
X112564676Y-49272333D02*
X112717057Y-49234238D01*
X112717057Y-49234238D02*
X112907533Y-49234238D01*
X112907533Y-49234238D02*
X113059914Y-49272333D01*
X113059914Y-49272333D02*
X113136104Y-49310428D01*
X113136104Y-49310428D02*
X113174200Y-49348523D01*
X113174200Y-49348523D02*
X113212295Y-49424714D01*
X113212295Y-49424714D02*
X113212295Y-49500904D01*
X113212295Y-49500904D02*
X113174200Y-49577095D01*
X113174200Y-49577095D02*
X113136104Y-49615190D01*
X113136104Y-49615190D02*
X113059914Y-49653285D01*
X113059914Y-49653285D02*
X112907533Y-49691381D01*
X112907533Y-49691381D02*
X112717057Y-49691381D01*
X112717057Y-49691381D02*
X112564676Y-49653285D01*
X112564676Y-49653285D02*
X112488485Y-49615190D01*
X112488485Y-49615190D02*
X112450390Y-49577095D01*
X112450390Y-49577095D02*
X112412295Y-49500904D01*
X112412295Y-48738999D02*
X112412295Y-48662809D01*
X112412295Y-48662809D02*
X112450390Y-48586618D01*
X112450390Y-48586618D02*
X112488485Y-48548523D01*
X112488485Y-48548523D02*
X112564676Y-48510428D01*
X112564676Y-48510428D02*
X112717057Y-48472333D01*
X112717057Y-48472333D02*
X112907533Y-48472333D01*
X112907533Y-48472333D02*
X113059914Y-48510428D01*
X113059914Y-48510428D02*
X113136104Y-48548523D01*
X113136104Y-48548523D02*
X113174200Y-48586618D01*
X113174200Y-48586618D02*
X113212295Y-48662809D01*
X113212295Y-48662809D02*
X113212295Y-48738999D01*
X113212295Y-48738999D02*
X113174200Y-48815190D01*
X113174200Y-48815190D02*
X113136104Y-48853285D01*
X113136104Y-48853285D02*
X113059914Y-48891380D01*
X113059914Y-48891380D02*
X112907533Y-48929476D01*
X112907533Y-48929476D02*
X112717057Y-48929476D01*
X112717057Y-48929476D02*
X112564676Y-48891380D01*
X112564676Y-48891380D02*
X112488485Y-48853285D01*
X112488485Y-48853285D02*
X112450390Y-48815190D01*
X112450390Y-48815190D02*
X112412295Y-48738999D01*
X104792295Y-61337190D02*
X104792295Y-61261000D01*
X104792295Y-61261000D02*
X104830390Y-61184809D01*
X104830390Y-61184809D02*
X104868485Y-61146714D01*
X104868485Y-61146714D02*
X104944676Y-61108619D01*
X104944676Y-61108619D02*
X105097057Y-61070524D01*
X105097057Y-61070524D02*
X105287533Y-61070524D01*
X105287533Y-61070524D02*
X105439914Y-61108619D01*
X105439914Y-61108619D02*
X105516104Y-61146714D01*
X105516104Y-61146714D02*
X105554200Y-61184809D01*
X105554200Y-61184809D02*
X105592295Y-61261000D01*
X105592295Y-61261000D02*
X105592295Y-61337190D01*
X105592295Y-61337190D02*
X105554200Y-61413381D01*
X105554200Y-61413381D02*
X105516104Y-61451476D01*
X105516104Y-61451476D02*
X105439914Y-61489571D01*
X105439914Y-61489571D02*
X105287533Y-61527667D01*
X105287533Y-61527667D02*
X105097057Y-61527667D01*
X105097057Y-61527667D02*
X104944676Y-61489571D01*
X104944676Y-61489571D02*
X104868485Y-61451476D01*
X104868485Y-61451476D02*
X104830390Y-61413381D01*
X104830390Y-61413381D02*
X104792295Y-61337190D01*
X104868485Y-60765762D02*
X104830390Y-60727666D01*
X104830390Y-60727666D02*
X104792295Y-60651476D01*
X104792295Y-60651476D02*
X104792295Y-60461000D01*
X104792295Y-60461000D02*
X104830390Y-60384809D01*
X104830390Y-60384809D02*
X104868485Y-60346714D01*
X104868485Y-60346714D02*
X104944676Y-60308619D01*
X104944676Y-60308619D02*
X105020866Y-60308619D01*
X105020866Y-60308619D02*
X105135152Y-60346714D01*
X105135152Y-60346714D02*
X105592295Y-60803857D01*
X105592295Y-60803857D02*
X105592295Y-60308619D01*
X105592295Y-59927666D02*
X105592295Y-59775285D01*
X105592295Y-59775285D02*
X105554200Y-59699095D01*
X105554200Y-59699095D02*
X105516104Y-59660999D01*
X105516104Y-59660999D02*
X105401819Y-59584809D01*
X105401819Y-59584809D02*
X105249438Y-59546714D01*
X105249438Y-59546714D02*
X104944676Y-59546714D01*
X104944676Y-59546714D02*
X104868485Y-59584809D01*
X104868485Y-59584809D02*
X104830390Y-59622904D01*
X104830390Y-59622904D02*
X104792295Y-59699095D01*
X104792295Y-59699095D02*
X104792295Y-59851476D01*
X104792295Y-59851476D02*
X104830390Y-59927666D01*
X104830390Y-59927666D02*
X104868485Y-59965761D01*
X104868485Y-59965761D02*
X104944676Y-60003857D01*
X104944676Y-60003857D02*
X105135152Y-60003857D01*
X105135152Y-60003857D02*
X105211342Y-59965761D01*
X105211342Y-59965761D02*
X105249438Y-59927666D01*
X105249438Y-59927666D02*
X105287533Y-59851476D01*
X105287533Y-59851476D02*
X105287533Y-59699095D01*
X105287533Y-59699095D02*
X105249438Y-59622904D01*
X105249438Y-59622904D02*
X105211342Y-59584809D01*
X105211342Y-59584809D02*
X105135152Y-59546714D01*
X92892295Y-61026095D02*
X92511342Y-61292762D01*
X92892295Y-61483238D02*
X92092295Y-61483238D01*
X92092295Y-61483238D02*
X92092295Y-61178476D01*
X92092295Y-61178476D02*
X92130390Y-61102286D01*
X92130390Y-61102286D02*
X92168485Y-61064191D01*
X92168485Y-61064191D02*
X92244676Y-61026095D01*
X92244676Y-61026095D02*
X92358961Y-61026095D01*
X92358961Y-61026095D02*
X92435152Y-61064191D01*
X92435152Y-61064191D02*
X92473247Y-61102286D01*
X92473247Y-61102286D02*
X92511342Y-61178476D01*
X92511342Y-61178476D02*
X92511342Y-61483238D01*
X92663723Y-60721334D02*
X92663723Y-60340381D01*
X92892295Y-60797524D02*
X92092295Y-60530857D01*
X92092295Y-60530857D02*
X92892295Y-60264191D01*
X92092295Y-60073715D02*
X92892295Y-59883239D01*
X92892295Y-59883239D02*
X92320866Y-59730858D01*
X92320866Y-59730858D02*
X92892295Y-59578477D01*
X92892295Y-59578477D02*
X92092295Y-59388001D01*
X107332295Y-61337190D02*
X107332295Y-61261000D01*
X107332295Y-61261000D02*
X107370390Y-61184809D01*
X107370390Y-61184809D02*
X107408485Y-61146714D01*
X107408485Y-61146714D02*
X107484676Y-61108619D01*
X107484676Y-61108619D02*
X107637057Y-61070524D01*
X107637057Y-61070524D02*
X107827533Y-61070524D01*
X107827533Y-61070524D02*
X107979914Y-61108619D01*
X107979914Y-61108619D02*
X108056104Y-61146714D01*
X108056104Y-61146714D02*
X108094200Y-61184809D01*
X108094200Y-61184809D02*
X108132295Y-61261000D01*
X108132295Y-61261000D02*
X108132295Y-61337190D01*
X108132295Y-61337190D02*
X108094200Y-61413381D01*
X108094200Y-61413381D02*
X108056104Y-61451476D01*
X108056104Y-61451476D02*
X107979914Y-61489571D01*
X107979914Y-61489571D02*
X107827533Y-61527667D01*
X107827533Y-61527667D02*
X107637057Y-61527667D01*
X107637057Y-61527667D02*
X107484676Y-61489571D01*
X107484676Y-61489571D02*
X107408485Y-61451476D01*
X107408485Y-61451476D02*
X107370390Y-61413381D01*
X107370390Y-61413381D02*
X107332295Y-61337190D01*
X107332295Y-60575285D02*
X107332295Y-60499095D01*
X107332295Y-60499095D02*
X107370390Y-60422904D01*
X107370390Y-60422904D02*
X107408485Y-60384809D01*
X107408485Y-60384809D02*
X107484676Y-60346714D01*
X107484676Y-60346714D02*
X107637057Y-60308619D01*
X107637057Y-60308619D02*
X107827533Y-60308619D01*
X107827533Y-60308619D02*
X107979914Y-60346714D01*
X107979914Y-60346714D02*
X108056104Y-60384809D01*
X108056104Y-60384809D02*
X108094200Y-60422904D01*
X108094200Y-60422904D02*
X108132295Y-60499095D01*
X108132295Y-60499095D02*
X108132295Y-60575285D01*
X108132295Y-60575285D02*
X108094200Y-60651476D01*
X108094200Y-60651476D02*
X108056104Y-60689571D01*
X108056104Y-60689571D02*
X107979914Y-60727666D01*
X107979914Y-60727666D02*
X107827533Y-60765762D01*
X107827533Y-60765762D02*
X107637057Y-60765762D01*
X107637057Y-60765762D02*
X107484676Y-60727666D01*
X107484676Y-60727666D02*
X107408485Y-60689571D01*
X107408485Y-60689571D02*
X107370390Y-60651476D01*
X107370390Y-60651476D02*
X107332295Y-60575285D01*
X107408485Y-60003857D02*
X107370390Y-59965761D01*
X107370390Y-59965761D02*
X107332295Y-59889571D01*
X107332295Y-59889571D02*
X107332295Y-59699095D01*
X107332295Y-59699095D02*
X107370390Y-59622904D01*
X107370390Y-59622904D02*
X107408485Y-59584809D01*
X107408485Y-59584809D02*
X107484676Y-59546714D01*
X107484676Y-59546714D02*
X107560866Y-59546714D01*
X107560866Y-59546714D02*
X107675152Y-59584809D01*
X107675152Y-59584809D02*
X108132295Y-60041952D01*
X108132295Y-60041952D02*
X108132295Y-59546714D01*
X109872295Y-50262809D02*
X109872295Y-50186619D01*
X109872295Y-50186619D02*
X109910390Y-50110428D01*
X109910390Y-50110428D02*
X109948485Y-50072333D01*
X109948485Y-50072333D02*
X110024676Y-50034238D01*
X110024676Y-50034238D02*
X110177057Y-49996143D01*
X110177057Y-49996143D02*
X110367533Y-49996143D01*
X110367533Y-49996143D02*
X110519914Y-50034238D01*
X110519914Y-50034238D02*
X110596104Y-50072333D01*
X110596104Y-50072333D02*
X110634200Y-50110428D01*
X110634200Y-50110428D02*
X110672295Y-50186619D01*
X110672295Y-50186619D02*
X110672295Y-50262809D01*
X110672295Y-50262809D02*
X110634200Y-50339000D01*
X110634200Y-50339000D02*
X110596104Y-50377095D01*
X110596104Y-50377095D02*
X110519914Y-50415190D01*
X110519914Y-50415190D02*
X110367533Y-50453286D01*
X110367533Y-50453286D02*
X110177057Y-50453286D01*
X110177057Y-50453286D02*
X110024676Y-50415190D01*
X110024676Y-50415190D02*
X109948485Y-50377095D01*
X109948485Y-50377095D02*
X109910390Y-50339000D01*
X109910390Y-50339000D02*
X109872295Y-50262809D01*
X109948485Y-49691381D02*
X109910390Y-49653285D01*
X109910390Y-49653285D02*
X109872295Y-49577095D01*
X109872295Y-49577095D02*
X109872295Y-49386619D01*
X109872295Y-49386619D02*
X109910390Y-49310428D01*
X109910390Y-49310428D02*
X109948485Y-49272333D01*
X109948485Y-49272333D02*
X110024676Y-49234238D01*
X110024676Y-49234238D02*
X110100866Y-49234238D01*
X110100866Y-49234238D02*
X110215152Y-49272333D01*
X110215152Y-49272333D02*
X110672295Y-49729476D01*
X110672295Y-49729476D02*
X110672295Y-49234238D01*
X110138961Y-48548523D02*
X110672295Y-48548523D01*
X109834200Y-48738999D02*
X110405628Y-48929476D01*
X110405628Y-48929476D02*
X110405628Y-48434237D01*
X102262295Y-50262809D02*
X102262295Y-50186619D01*
X102262295Y-50186619D02*
X102300390Y-50110428D01*
X102300390Y-50110428D02*
X102338485Y-50072333D01*
X102338485Y-50072333D02*
X102414676Y-50034238D01*
X102414676Y-50034238D02*
X102567057Y-49996143D01*
X102567057Y-49996143D02*
X102757533Y-49996143D01*
X102757533Y-49996143D02*
X102909914Y-50034238D01*
X102909914Y-50034238D02*
X102986104Y-50072333D01*
X102986104Y-50072333D02*
X103024200Y-50110428D01*
X103024200Y-50110428D02*
X103062295Y-50186619D01*
X103062295Y-50186619D02*
X103062295Y-50262809D01*
X103062295Y-50262809D02*
X103024200Y-50339000D01*
X103024200Y-50339000D02*
X102986104Y-50377095D01*
X102986104Y-50377095D02*
X102909914Y-50415190D01*
X102909914Y-50415190D02*
X102757533Y-50453286D01*
X102757533Y-50453286D02*
X102567057Y-50453286D01*
X102567057Y-50453286D02*
X102414676Y-50415190D01*
X102414676Y-50415190D02*
X102338485Y-50377095D01*
X102338485Y-50377095D02*
X102300390Y-50339000D01*
X102300390Y-50339000D02*
X102262295Y-50262809D01*
X103062295Y-49234238D02*
X103062295Y-49691381D01*
X103062295Y-49462809D02*
X102262295Y-49462809D01*
X102262295Y-49462809D02*
X102376580Y-49539000D01*
X102376580Y-49539000D02*
X102452771Y-49615190D01*
X102452771Y-49615190D02*
X102490866Y-49691381D01*
X102262295Y-48967571D02*
X102262295Y-48434237D01*
X102262295Y-48434237D02*
X103062295Y-48777095D01*
X113212295Y-61070524D02*
X113212295Y-61527667D01*
X113212295Y-61299095D02*
X112412295Y-61299095D01*
X112412295Y-61299095D02*
X112526580Y-61375286D01*
X112526580Y-61375286D02*
X112602771Y-61451476D01*
X112602771Y-61451476D02*
X112640866Y-61527667D01*
X113212295Y-60308619D02*
X113212295Y-60765762D01*
X113212295Y-60537190D02*
X112412295Y-60537190D01*
X112412295Y-60537190D02*
X112526580Y-60613381D01*
X112526580Y-60613381D02*
X112602771Y-60689571D01*
X112602771Y-60689571D02*
X112640866Y-60765762D01*
X112412295Y-60041952D02*
X112412295Y-59546714D01*
X112412295Y-59546714D02*
X112717057Y-59813380D01*
X112717057Y-59813380D02*
X112717057Y-59699095D01*
X112717057Y-59699095D02*
X112755152Y-59622904D01*
X112755152Y-59622904D02*
X112793247Y-59584809D01*
X112793247Y-59584809D02*
X112869438Y-59546714D01*
X112869438Y-59546714D02*
X113059914Y-59546714D01*
X113059914Y-59546714D02*
X113136104Y-59584809D01*
X113136104Y-59584809D02*
X113174200Y-59622904D01*
X113174200Y-59622904D02*
X113212295Y-59699095D01*
X113212295Y-59699095D02*
X113212295Y-59927666D01*
X113212295Y-59927666D02*
X113174200Y-60003857D01*
X113174200Y-60003857D02*
X113136104Y-60041952D01*
X117492295Y-61337190D02*
X117492295Y-61261000D01*
X117492295Y-61261000D02*
X117530390Y-61184809D01*
X117530390Y-61184809D02*
X117568485Y-61146714D01*
X117568485Y-61146714D02*
X117644676Y-61108619D01*
X117644676Y-61108619D02*
X117797057Y-61070524D01*
X117797057Y-61070524D02*
X117987533Y-61070524D01*
X117987533Y-61070524D02*
X118139914Y-61108619D01*
X118139914Y-61108619D02*
X118216104Y-61146714D01*
X118216104Y-61146714D02*
X118254200Y-61184809D01*
X118254200Y-61184809D02*
X118292295Y-61261000D01*
X118292295Y-61261000D02*
X118292295Y-61337190D01*
X118292295Y-61337190D02*
X118254200Y-61413381D01*
X118254200Y-61413381D02*
X118216104Y-61451476D01*
X118216104Y-61451476D02*
X118139914Y-61489571D01*
X118139914Y-61489571D02*
X117987533Y-61527667D01*
X117987533Y-61527667D02*
X117797057Y-61527667D01*
X117797057Y-61527667D02*
X117644676Y-61489571D01*
X117644676Y-61489571D02*
X117568485Y-61451476D01*
X117568485Y-61451476D02*
X117530390Y-61413381D01*
X117530390Y-61413381D02*
X117492295Y-61337190D01*
X118292295Y-60308619D02*
X118292295Y-60765762D01*
X118292295Y-60537190D02*
X117492295Y-60537190D01*
X117492295Y-60537190D02*
X117606580Y-60613381D01*
X117606580Y-60613381D02*
X117682771Y-60689571D01*
X117682771Y-60689571D02*
X117720866Y-60765762D01*
X117492295Y-59813380D02*
X117492295Y-59737190D01*
X117492295Y-59737190D02*
X117530390Y-59660999D01*
X117530390Y-59660999D02*
X117568485Y-59622904D01*
X117568485Y-59622904D02*
X117644676Y-59584809D01*
X117644676Y-59584809D02*
X117797057Y-59546714D01*
X117797057Y-59546714D02*
X117987533Y-59546714D01*
X117987533Y-59546714D02*
X118139914Y-59584809D01*
X118139914Y-59584809D02*
X118216104Y-59622904D01*
X118216104Y-59622904D02*
X118254200Y-59660999D01*
X118254200Y-59660999D02*
X118292295Y-59737190D01*
X118292295Y-59737190D02*
X118292295Y-59813380D01*
X118292295Y-59813380D02*
X118254200Y-59889571D01*
X118254200Y-59889571D02*
X118216104Y-59927666D01*
X118216104Y-59927666D02*
X118139914Y-59965761D01*
X118139914Y-59965761D02*
X117987533Y-60003857D01*
X117987533Y-60003857D02*
X117797057Y-60003857D01*
X117797057Y-60003857D02*
X117644676Y-59965761D01*
X117644676Y-59965761D02*
X117568485Y-59927666D01*
X117568485Y-59927666D02*
X117530390Y-59889571D01*
X117530390Y-59889571D02*
X117492295Y-59813380D01*
X107362295Y-50262809D02*
X107362295Y-50186619D01*
X107362295Y-50186619D02*
X107400390Y-50110428D01*
X107400390Y-50110428D02*
X107438485Y-50072333D01*
X107438485Y-50072333D02*
X107514676Y-50034238D01*
X107514676Y-50034238D02*
X107667057Y-49996143D01*
X107667057Y-49996143D02*
X107857533Y-49996143D01*
X107857533Y-49996143D02*
X108009914Y-50034238D01*
X108009914Y-50034238D02*
X108086104Y-50072333D01*
X108086104Y-50072333D02*
X108124200Y-50110428D01*
X108124200Y-50110428D02*
X108162295Y-50186619D01*
X108162295Y-50186619D02*
X108162295Y-50262809D01*
X108162295Y-50262809D02*
X108124200Y-50339000D01*
X108124200Y-50339000D02*
X108086104Y-50377095D01*
X108086104Y-50377095D02*
X108009914Y-50415190D01*
X108009914Y-50415190D02*
X107857533Y-50453286D01*
X107857533Y-50453286D02*
X107667057Y-50453286D01*
X107667057Y-50453286D02*
X107514676Y-50415190D01*
X107514676Y-50415190D02*
X107438485Y-50377095D01*
X107438485Y-50377095D02*
X107400390Y-50339000D01*
X107400390Y-50339000D02*
X107362295Y-50262809D01*
X107438485Y-49691381D02*
X107400390Y-49653285D01*
X107400390Y-49653285D02*
X107362295Y-49577095D01*
X107362295Y-49577095D02*
X107362295Y-49386619D01*
X107362295Y-49386619D02*
X107400390Y-49310428D01*
X107400390Y-49310428D02*
X107438485Y-49272333D01*
X107438485Y-49272333D02*
X107514676Y-49234238D01*
X107514676Y-49234238D02*
X107590866Y-49234238D01*
X107590866Y-49234238D02*
X107705152Y-49272333D01*
X107705152Y-49272333D02*
X108162295Y-49729476D01*
X108162295Y-49729476D02*
X108162295Y-49234238D01*
X107438485Y-48929476D02*
X107400390Y-48891380D01*
X107400390Y-48891380D02*
X107362295Y-48815190D01*
X107362295Y-48815190D02*
X107362295Y-48624714D01*
X107362295Y-48624714D02*
X107400390Y-48548523D01*
X107400390Y-48548523D02*
X107438485Y-48510428D01*
X107438485Y-48510428D02*
X107514676Y-48472333D01*
X107514676Y-48472333D02*
X107590866Y-48472333D01*
X107590866Y-48472333D02*
X107705152Y-48510428D01*
X107705152Y-48510428D02*
X108162295Y-48967571D01*
X108162295Y-48967571D02*
X108162295Y-48472333D01*
X118292295Y-49996143D02*
X118292295Y-50453286D01*
X118292295Y-50224714D02*
X117492295Y-50224714D01*
X117492295Y-50224714D02*
X117606580Y-50300905D01*
X117606580Y-50300905D02*
X117682771Y-50377095D01*
X117682771Y-50377095D02*
X117720866Y-50453286D01*
X117492295Y-49500904D02*
X117492295Y-49424714D01*
X117492295Y-49424714D02*
X117530390Y-49348523D01*
X117530390Y-49348523D02*
X117568485Y-49310428D01*
X117568485Y-49310428D02*
X117644676Y-49272333D01*
X117644676Y-49272333D02*
X117797057Y-49234238D01*
X117797057Y-49234238D02*
X117987533Y-49234238D01*
X117987533Y-49234238D02*
X118139914Y-49272333D01*
X118139914Y-49272333D02*
X118216104Y-49310428D01*
X118216104Y-49310428D02*
X118254200Y-49348523D01*
X118254200Y-49348523D02*
X118292295Y-49424714D01*
X118292295Y-49424714D02*
X118292295Y-49500904D01*
X118292295Y-49500904D02*
X118254200Y-49577095D01*
X118254200Y-49577095D02*
X118216104Y-49615190D01*
X118216104Y-49615190D02*
X118139914Y-49653285D01*
X118139914Y-49653285D02*
X117987533Y-49691381D01*
X117987533Y-49691381D02*
X117797057Y-49691381D01*
X117797057Y-49691381D02*
X117644676Y-49653285D01*
X117644676Y-49653285D02*
X117568485Y-49615190D01*
X117568485Y-49615190D02*
X117530390Y-49577095D01*
X117530390Y-49577095D02*
X117492295Y-49500904D01*
X117758961Y-48548523D02*
X118292295Y-48548523D01*
X117454200Y-48738999D02*
X118025628Y-48929476D01*
X118025628Y-48929476D02*
X118025628Y-48434237D01*
X115752295Y-61070524D02*
X115752295Y-61527667D01*
X115752295Y-61299095D02*
X114952295Y-61299095D01*
X114952295Y-61299095D02*
X115066580Y-61375286D01*
X115066580Y-61375286D02*
X115142771Y-61451476D01*
X115142771Y-61451476D02*
X115180866Y-61527667D01*
X115752295Y-60308619D02*
X115752295Y-60765762D01*
X115752295Y-60537190D02*
X114952295Y-60537190D01*
X114952295Y-60537190D02*
X115066580Y-60613381D01*
X115066580Y-60613381D02*
X115142771Y-60689571D01*
X115142771Y-60689571D02*
X115180866Y-60765762D01*
X115752295Y-59546714D02*
X115752295Y-60003857D01*
X115752295Y-59775285D02*
X114952295Y-59775285D01*
X114952295Y-59775285D02*
X115066580Y-59851476D01*
X115066580Y-59851476D02*
X115142771Y-59927666D01*
X115142771Y-59927666D02*
X115180866Y-60003857D01*
X102252295Y-61337190D02*
X102252295Y-61261000D01*
X102252295Y-61261000D02*
X102290390Y-61184809D01*
X102290390Y-61184809D02*
X102328485Y-61146714D01*
X102328485Y-61146714D02*
X102404676Y-61108619D01*
X102404676Y-61108619D02*
X102557057Y-61070524D01*
X102557057Y-61070524D02*
X102747533Y-61070524D01*
X102747533Y-61070524D02*
X102899914Y-61108619D01*
X102899914Y-61108619D02*
X102976104Y-61146714D01*
X102976104Y-61146714D02*
X103014200Y-61184809D01*
X103014200Y-61184809D02*
X103052295Y-61261000D01*
X103052295Y-61261000D02*
X103052295Y-61337190D01*
X103052295Y-61337190D02*
X103014200Y-61413381D01*
X103014200Y-61413381D02*
X102976104Y-61451476D01*
X102976104Y-61451476D02*
X102899914Y-61489571D01*
X102899914Y-61489571D02*
X102747533Y-61527667D01*
X102747533Y-61527667D02*
X102557057Y-61527667D01*
X102557057Y-61527667D02*
X102404676Y-61489571D01*
X102404676Y-61489571D02*
X102328485Y-61451476D01*
X102328485Y-61451476D02*
X102290390Y-61413381D01*
X102290390Y-61413381D02*
X102252295Y-61337190D01*
X102252295Y-60803857D02*
X102252295Y-60308619D01*
X102252295Y-60308619D02*
X102557057Y-60575285D01*
X102557057Y-60575285D02*
X102557057Y-60461000D01*
X102557057Y-60461000D02*
X102595152Y-60384809D01*
X102595152Y-60384809D02*
X102633247Y-60346714D01*
X102633247Y-60346714D02*
X102709438Y-60308619D01*
X102709438Y-60308619D02*
X102899914Y-60308619D01*
X102899914Y-60308619D02*
X102976104Y-60346714D01*
X102976104Y-60346714D02*
X103014200Y-60384809D01*
X103014200Y-60384809D02*
X103052295Y-60461000D01*
X103052295Y-60461000D02*
X103052295Y-60689571D01*
X103052295Y-60689571D02*
X103014200Y-60765762D01*
X103014200Y-60765762D02*
X102976104Y-60803857D01*
X103052295Y-59546714D02*
X103052295Y-60003857D01*
X103052295Y-59775285D02*
X102252295Y-59775285D01*
X102252295Y-59775285D02*
X102366580Y-59851476D01*
X102366580Y-59851476D02*
X102442771Y-59927666D01*
X102442771Y-59927666D02*
X102480866Y-60003857D01*
X94670390Y-61064190D02*
X94632295Y-61140380D01*
X94632295Y-61140380D02*
X94632295Y-61254666D01*
X94632295Y-61254666D02*
X94670390Y-61368952D01*
X94670390Y-61368952D02*
X94746580Y-61445142D01*
X94746580Y-61445142D02*
X94822771Y-61483237D01*
X94822771Y-61483237D02*
X94975152Y-61521333D01*
X94975152Y-61521333D02*
X95089438Y-61521333D01*
X95089438Y-61521333D02*
X95241819Y-61483237D01*
X95241819Y-61483237D02*
X95318009Y-61445142D01*
X95318009Y-61445142D02*
X95394200Y-61368952D01*
X95394200Y-61368952D02*
X95432295Y-61254666D01*
X95432295Y-61254666D02*
X95432295Y-61178475D01*
X95432295Y-61178475D02*
X95394200Y-61064190D01*
X95394200Y-61064190D02*
X95356104Y-61026094D01*
X95356104Y-61026094D02*
X95089438Y-61026094D01*
X95089438Y-61026094D02*
X95089438Y-61178475D01*
X95432295Y-60683237D02*
X94632295Y-60683237D01*
X94632295Y-60683237D02*
X95432295Y-60226094D01*
X95432295Y-60226094D02*
X94632295Y-60226094D01*
X95432295Y-59845142D02*
X94632295Y-59845142D01*
X94632295Y-59845142D02*
X94632295Y-59654666D01*
X94632295Y-59654666D02*
X94670390Y-59540380D01*
X94670390Y-59540380D02*
X94746580Y-59464190D01*
X94746580Y-59464190D02*
X94822771Y-59426095D01*
X94822771Y-59426095D02*
X94975152Y-59387999D01*
X94975152Y-59387999D02*
X95089438Y-59387999D01*
X95089438Y-59387999D02*
X95241819Y-59426095D01*
X95241819Y-59426095D02*
X95318009Y-59464190D01*
X95318009Y-59464190D02*
X95394200Y-59540380D01*
X95394200Y-59540380D02*
X95432295Y-59654666D01*
X95432295Y-59654666D02*
X95432295Y-59845142D01*
X104862295Y-50262809D02*
X104862295Y-50186619D01*
X104862295Y-50186619D02*
X104900390Y-50110428D01*
X104900390Y-50110428D02*
X104938485Y-50072333D01*
X104938485Y-50072333D02*
X105014676Y-50034238D01*
X105014676Y-50034238D02*
X105167057Y-49996143D01*
X105167057Y-49996143D02*
X105357533Y-49996143D01*
X105357533Y-49996143D02*
X105509914Y-50034238D01*
X105509914Y-50034238D02*
X105586104Y-50072333D01*
X105586104Y-50072333D02*
X105624200Y-50110428D01*
X105624200Y-50110428D02*
X105662295Y-50186619D01*
X105662295Y-50186619D02*
X105662295Y-50262809D01*
X105662295Y-50262809D02*
X105624200Y-50339000D01*
X105624200Y-50339000D02*
X105586104Y-50377095D01*
X105586104Y-50377095D02*
X105509914Y-50415190D01*
X105509914Y-50415190D02*
X105357533Y-50453286D01*
X105357533Y-50453286D02*
X105167057Y-50453286D01*
X105167057Y-50453286D02*
X105014676Y-50415190D01*
X105014676Y-50415190D02*
X104938485Y-50377095D01*
X104938485Y-50377095D02*
X104900390Y-50339000D01*
X104900390Y-50339000D02*
X104862295Y-50262809D01*
X104938485Y-49691381D02*
X104900390Y-49653285D01*
X104900390Y-49653285D02*
X104862295Y-49577095D01*
X104862295Y-49577095D02*
X104862295Y-49386619D01*
X104862295Y-49386619D02*
X104900390Y-49310428D01*
X104900390Y-49310428D02*
X104938485Y-49272333D01*
X104938485Y-49272333D02*
X105014676Y-49234238D01*
X105014676Y-49234238D02*
X105090866Y-49234238D01*
X105090866Y-49234238D02*
X105205152Y-49272333D01*
X105205152Y-49272333D02*
X105662295Y-49729476D01*
X105662295Y-49729476D02*
X105662295Y-49234238D01*
X104862295Y-48738999D02*
X104862295Y-48662809D01*
X104862295Y-48662809D02*
X104900390Y-48586618D01*
X104900390Y-48586618D02*
X104938485Y-48548523D01*
X104938485Y-48548523D02*
X105014676Y-48510428D01*
X105014676Y-48510428D02*
X105167057Y-48472333D01*
X105167057Y-48472333D02*
X105357533Y-48472333D01*
X105357533Y-48472333D02*
X105509914Y-48510428D01*
X105509914Y-48510428D02*
X105586104Y-48548523D01*
X105586104Y-48548523D02*
X105624200Y-48586618D01*
X105624200Y-48586618D02*
X105662295Y-48662809D01*
X105662295Y-48662809D02*
X105662295Y-48738999D01*
X105662295Y-48738999D02*
X105624200Y-48815190D01*
X105624200Y-48815190D02*
X105586104Y-48853285D01*
X105586104Y-48853285D02*
X105509914Y-48891380D01*
X105509914Y-48891380D02*
X105357533Y-48929476D01*
X105357533Y-48929476D02*
X105167057Y-48929476D01*
X105167057Y-48929476D02*
X105014676Y-48891380D01*
X105014676Y-48891380D02*
X104938485Y-48853285D01*
X104938485Y-48853285D02*
X104900390Y-48815190D01*
X104900390Y-48815190D02*
X104862295Y-48738999D01*
%TO.C,T1*%
X139200000Y-45400000D02*
X139200000Y-48250000D01*
X139200000Y-48250000D02*
X145800000Y-48250000D01*
X142500000Y-45400000D02*
X139200000Y-45400000D01*
X142500000Y-45400000D02*
X145800000Y-45400000D01*
X144450000Y-45400000D02*
X140550000Y-45400000D01*
X145800000Y-48250000D02*
X145800000Y-45400000D01*
D12*
%TO.C,D4*%
X95540381Y-70560601D02*
X96247487Y-70419180D01*
X95823223Y-70843444D02*
X95469670Y-71196997D01*
X96106066Y-71126286D02*
X95540381Y-70560601D01*
X96247487Y-70419180D02*
X95858579Y-70030271D01*
X96247487Y-70419180D02*
X96106066Y-71126286D01*
X96247487Y-70419180D02*
X96636396Y-70808088D01*
X96530330Y-70136337D02*
X96247487Y-70419180D01*
%TO.C,D16*%
X151790381Y-80310601D02*
X152497487Y-80169180D01*
X152073223Y-80593444D02*
X151719670Y-80946997D01*
X152356066Y-80876286D02*
X151790381Y-80310601D01*
X152497487Y-80169180D02*
X152108579Y-79780271D01*
X152497487Y-80169180D02*
X152356066Y-80876286D01*
X152497487Y-80169180D02*
X152886396Y-80558088D01*
X152780330Y-79886337D02*
X152497487Y-80169180D01*
%TO.C,D7*%
X114290381Y-89310601D02*
X114997487Y-89169180D01*
X114573223Y-89593444D02*
X114219670Y-89946997D01*
X114856066Y-89876286D02*
X114290381Y-89310601D01*
X114997487Y-89169180D02*
X114608579Y-88780271D01*
X114997487Y-89169180D02*
X114856066Y-89876286D01*
X114997487Y-89169180D02*
X115386396Y-89558088D01*
X115280330Y-88886337D02*
X114997487Y-89169180D01*
%TO.C,D3*%
X95540381Y-89310601D02*
X96247487Y-89169180D01*
X95823223Y-89593444D02*
X95469670Y-89946997D01*
X96106066Y-89876286D02*
X95540381Y-89310601D01*
X96247487Y-89169180D02*
X95858579Y-88780271D01*
X96247487Y-89169180D02*
X96106066Y-89876286D01*
X96247487Y-89169180D02*
X96636396Y-89558088D01*
X96530330Y-88886337D02*
X96247487Y-89169180D01*
%TO.C,D10*%
X133040381Y-102060601D02*
X133747487Y-101919180D01*
X133323223Y-102343444D02*
X132969670Y-102696997D01*
X133606066Y-102626286D02*
X133040381Y-102060601D01*
X133747487Y-101919180D02*
X133358579Y-101530271D01*
X133747487Y-101919180D02*
X133606066Y-102626286D01*
X133747487Y-101919180D02*
X134136396Y-102308088D01*
X134030330Y-101636337D02*
X133747487Y-101919180D01*
%TO.C,D12*%
X133040381Y-64560601D02*
X133747487Y-64419180D01*
X133323223Y-64843444D02*
X132969670Y-65196997D01*
X133606066Y-65126286D02*
X133040381Y-64560601D01*
X133747487Y-64419180D02*
X133358579Y-64030271D01*
X133747487Y-64419180D02*
X133606066Y-65126286D01*
X133747487Y-64419180D02*
X134136396Y-64808088D01*
X134030330Y-64136337D02*
X133747487Y-64419180D01*
%TO.C,D9*%
X133040381Y-120810601D02*
X133747487Y-120669180D01*
X133323223Y-121093444D02*
X132969670Y-121446997D01*
X133606066Y-121376286D02*
X133040381Y-120810601D01*
X133747487Y-120669180D02*
X133358579Y-120280271D01*
X133747487Y-120669180D02*
X133606066Y-121376286D01*
X133747487Y-120669180D02*
X134136396Y-121058088D01*
X134030330Y-120386337D02*
X133747487Y-120669180D01*
%TO.C,D25*%
X189290381Y-89310601D02*
X189997487Y-89169180D01*
X189573223Y-89593444D02*
X189219670Y-89946997D01*
X189856066Y-89876286D02*
X189290381Y-89310601D01*
X189997487Y-89169180D02*
X189608579Y-88780271D01*
X189997487Y-89169180D02*
X189856066Y-89876286D01*
X189997487Y-89169180D02*
X190386396Y-89558088D01*
X190280330Y-88886337D02*
X189997487Y-89169180D01*
D13*
%TO.C,MCU1*%
X88720000Y-46110000D02*
X88720000Y-63890000D01*
X88720000Y-63890000D02*
X121740000Y-63890000D01*
X121740000Y-46110000D02*
X88720000Y-46110000D01*
X121740000Y-63890000D02*
X121740000Y-46110000D01*
D12*
%TO.C,D17*%
X151790381Y-61560601D02*
X152497487Y-61419180D01*
X152073223Y-61843444D02*
X151719670Y-62196997D01*
X152356066Y-62126286D02*
X151790381Y-61560601D01*
X152497487Y-61419180D02*
X152108579Y-61030271D01*
X152497487Y-61419180D02*
X152356066Y-62126286D01*
X152497487Y-61419180D02*
X152886396Y-61808088D01*
X152780330Y-61136337D02*
X152497487Y-61419180D01*
%TO.C,D29*%
X215397787Y-142946424D02*
X216058131Y-143236158D01*
X215467246Y-143340347D02*
X214974842Y-143427171D01*
X215536705Y-143734270D02*
X215397787Y-142946424D01*
X216058131Y-143236158D02*
X215536705Y-143734270D01*
X216058131Y-143236158D02*
X215962624Y-142694514D01*
X216058131Y-143236158D02*
X216153637Y-143777802D01*
X216452054Y-143166699D02*
X216058131Y-143236158D01*
%TO.C,D28*%
X208040381Y-89310601D02*
X208747487Y-89169180D01*
X208323223Y-89593444D02*
X207969670Y-89946997D01*
X208606066Y-89876286D02*
X208040381Y-89310601D01*
X208747487Y-89169180D02*
X208358579Y-88780271D01*
X208747487Y-89169180D02*
X208606066Y-89876286D01*
X208747487Y-89169180D02*
X209136396Y-89558088D01*
X209030330Y-88886337D02*
X208747487Y-89169180D01*
%TO.C,D6*%
X114290381Y-108060601D02*
X114997487Y-107919180D01*
X114573223Y-108343444D02*
X114219670Y-108696997D01*
X114856066Y-108626286D02*
X114290381Y-108060601D01*
X114997487Y-107919180D02*
X114608579Y-107530271D01*
X114997487Y-107919180D02*
X114856066Y-108626286D01*
X114997487Y-107919180D02*
X115386396Y-108308088D01*
X115280330Y-107636337D02*
X114997487Y-107919180D01*
%TO.C,D22*%
X170540381Y-64560601D02*
X171247487Y-64419180D01*
X170823223Y-64843444D02*
X170469670Y-65196997D01*
X171106066Y-65126286D02*
X170540381Y-64560601D01*
X171247487Y-64419180D02*
X170858579Y-64030271D01*
X171247487Y-64419180D02*
X171106066Y-65126286D01*
X171247487Y-64419180D02*
X171636396Y-64808088D01*
X171530330Y-64136337D02*
X171247487Y-64419180D01*
D14*
%TO.C,B1*%
X130050000Y-47025000D02*
X130050000Y-46475000D01*
X131075000Y-44900000D02*
X130150000Y-44900000D01*
X134850000Y-44900000D02*
X133925000Y-44900000D01*
X134850000Y-48600000D02*
X130150000Y-48600000D01*
X134950000Y-47025000D02*
X134950000Y-46475000D01*
D12*
%TO.C,D1*%
X95540381Y-126810601D02*
X96247487Y-126669180D01*
X95823223Y-127093444D02*
X95469670Y-127446997D01*
X96106066Y-127376286D02*
X95540381Y-126810601D01*
X96247487Y-126669180D02*
X95858579Y-126280271D01*
X96247487Y-126669180D02*
X96106066Y-127376286D01*
X96247487Y-126669180D02*
X96636396Y-127058088D01*
X96530330Y-126386337D02*
X96247487Y-126669180D01*
%TO.C,D27*%
X208040381Y-108060601D02*
X208747487Y-107919180D01*
X208323223Y-108343444D02*
X207969670Y-108696997D01*
X208606066Y-108626286D02*
X208040381Y-108060601D01*
X208747487Y-107919180D02*
X208358579Y-107530271D01*
X208747487Y-107919180D02*
X208606066Y-108626286D01*
X208747487Y-107919180D02*
X209136396Y-108308088D01*
X209030330Y-107636337D02*
X208747487Y-107919180D01*
%TO.C,D21*%
X170540381Y-83310601D02*
X171247487Y-83169180D01*
X170823223Y-83593444D02*
X170469670Y-83946997D01*
X171106066Y-83876286D02*
X170540381Y-83310601D01*
X171247487Y-83169180D02*
X170858579Y-82780271D01*
X171247487Y-83169180D02*
X171106066Y-83876286D01*
X171247487Y-83169180D02*
X171636396Y-83558088D01*
X171530330Y-82886337D02*
X171247487Y-83169180D01*
%TO.C,D20*%
X170540381Y-102060601D02*
X171247487Y-101919180D01*
X170823223Y-102343444D02*
X170469670Y-102696997D01*
X171106066Y-102626286D02*
X170540381Y-102060601D01*
X171247487Y-101919180D02*
X170858579Y-101530271D01*
X171247487Y-101919180D02*
X171106066Y-102626286D01*
X171247487Y-101919180D02*
X171636396Y-102308088D01*
X171530330Y-101636337D02*
X171247487Y-101919180D01*
%TO.C,D26*%
X189290381Y-70560601D02*
X189997487Y-70419180D01*
X189573223Y-70843444D02*
X189219670Y-71196997D01*
X189856066Y-71126286D02*
X189290381Y-70560601D01*
X189997487Y-70419180D02*
X189608579Y-70030271D01*
X189997487Y-70419180D02*
X189856066Y-71126286D01*
X189997487Y-70419180D02*
X190386396Y-70808088D01*
X190280330Y-70136337D02*
X189997487Y-70419180D01*
%TO.C,D14*%
X151790381Y-117810601D02*
X152497487Y-117669180D01*
X152073223Y-118093444D02*
X151719670Y-118446997D01*
X152356066Y-118376286D02*
X151790381Y-117810601D01*
X152497487Y-117669180D02*
X152108579Y-117280271D01*
X152497487Y-117669180D02*
X152356066Y-118376286D01*
X152497487Y-117669180D02*
X152886396Y-118058088D01*
X152780330Y-117386337D02*
X152497487Y-117669180D01*
%TO.C,D24*%
X189290381Y-108060601D02*
X189997487Y-107919180D01*
X189573223Y-108343444D02*
X189219670Y-108696997D01*
X189856066Y-108626286D02*
X189290381Y-108060601D01*
X189997487Y-107919180D02*
X189608579Y-107530271D01*
X189997487Y-107919180D02*
X189856066Y-108626286D01*
X189997487Y-107919180D02*
X190386396Y-108308088D01*
X190280330Y-107636337D02*
X189997487Y-107919180D01*
%TO.C,D18*%
X170540381Y-139560601D02*
X171247487Y-139419180D01*
X170823223Y-139843444D02*
X170469670Y-140196997D01*
X171106066Y-140126286D02*
X170540381Y-139560601D01*
X171247487Y-139419180D02*
X170858579Y-139030271D01*
X171247487Y-139419180D02*
X171106066Y-140126286D01*
X171247487Y-139419180D02*
X171636396Y-139808088D01*
X171530330Y-139136337D02*
X171247487Y-139419180D01*
%TO.C,D8*%
X114290381Y-70560601D02*
X114997487Y-70419180D01*
X114573223Y-70843444D02*
X114219670Y-71196997D01*
X114856066Y-71126286D02*
X114290381Y-70560601D01*
X114997487Y-70419180D02*
X114608579Y-70030271D01*
X114997487Y-70419180D02*
X114856066Y-71126286D01*
X114997487Y-70419180D02*
X115386396Y-70808088D01*
X115280330Y-70136337D02*
X114997487Y-70419180D01*
%TO.C,D31*%
X236205864Y-145919037D02*
X236866208Y-146208771D01*
X236275323Y-146312960D02*
X235782919Y-146399784D01*
X236344782Y-146706883D02*
X236205864Y-145919037D01*
X236866208Y-146208771D02*
X236344782Y-146706883D01*
X236866208Y-146208771D02*
X236770701Y-145667127D01*
X236866208Y-146208771D02*
X236961714Y-146750415D01*
X237260131Y-146139312D02*
X236866208Y-146208771D01*
%TO.C,D5*%
X114290381Y-126810601D02*
X114997487Y-126669180D01*
X114573223Y-127093444D02*
X114219670Y-127446997D01*
X114856066Y-127376286D02*
X114290381Y-126810601D01*
X114997487Y-126669180D02*
X114608579Y-126280271D01*
X114997487Y-126669180D02*
X114856066Y-127376286D01*
X114997487Y-126669180D02*
X115386396Y-127058088D01*
X115280330Y-126386337D02*
X114997487Y-126669180D01*
%TO.C,D11*%
X133040381Y-83310601D02*
X133747487Y-83169180D01*
X133323223Y-83593444D02*
X132969670Y-83946997D01*
X133606066Y-83876286D02*
X133040381Y-83310601D01*
X133747487Y-83169180D02*
X133358579Y-82780271D01*
X133747487Y-83169180D02*
X133606066Y-83876286D01*
X133747487Y-83169180D02*
X134136396Y-83558088D01*
X134030330Y-82886337D02*
X133747487Y-83169180D01*
%TO.C,D23*%
X189290381Y-126810601D02*
X189997487Y-126669180D01*
X189573223Y-127093444D02*
X189219670Y-127446997D01*
X189856066Y-127376286D02*
X189290381Y-126810601D01*
X189997487Y-126669180D02*
X189608579Y-126280271D01*
X189997487Y-126669180D02*
X189856066Y-127376286D01*
X189997487Y-126669180D02*
X190386396Y-127058088D01*
X190280330Y-126386337D02*
X189997487Y-126669180D01*
%TO.C,D13*%
X151790381Y-136560601D02*
X152497487Y-136419180D01*
X152073223Y-136843444D02*
X151719670Y-137196997D01*
X152356066Y-137126286D02*
X151790381Y-136560601D01*
X152497487Y-136419180D02*
X152108579Y-136030271D01*
X152497487Y-136419180D02*
X152356066Y-137126286D01*
X152497487Y-136419180D02*
X152886396Y-136808088D01*
X152780330Y-136136337D02*
X152497487Y-136419180D01*
%TO.C,D19*%
X170540381Y-120810601D02*
X171247487Y-120669180D01*
X170823223Y-121093444D02*
X170469670Y-121446997D01*
X171106066Y-121376286D02*
X170540381Y-120810601D01*
X171247487Y-120669180D02*
X170858579Y-120280271D01*
X171247487Y-120669180D02*
X171106066Y-121376286D01*
X171247487Y-120669180D02*
X171636396Y-121058088D01*
X171530330Y-120386337D02*
X171247487Y-120669180D01*
%TO.C,D15*%
X151790381Y-99060601D02*
X152497487Y-98919180D01*
X152073223Y-99343444D02*
X151719670Y-99696997D01*
X152356066Y-99626286D02*
X151790381Y-99060601D01*
X152497487Y-98919180D02*
X152108579Y-98530271D01*
X152497487Y-98919180D02*
X152356066Y-99626286D01*
X152497487Y-98919180D02*
X152886396Y-99308088D01*
X152780330Y-98636337D02*
X152497487Y-98919180D01*
%TO.C,D2*%
X95540381Y-108060601D02*
X96247487Y-107919180D01*
X95823223Y-108343444D02*
X95469670Y-108696997D01*
X96106066Y-108626286D02*
X95540381Y-108060601D01*
X96247487Y-107919180D02*
X95858579Y-107530271D01*
X96247487Y-107919180D02*
X96106066Y-108626286D01*
X96247487Y-107919180D02*
X96636396Y-108308088D01*
X96530330Y-107636337D02*
X96247487Y-107919180D01*
%TO.C,D30*%
X225451306Y-161278138D02*
X226111650Y-161567872D01*
X225520765Y-161672061D02*
X225028361Y-161758885D01*
X225590224Y-162065984D02*
X225451306Y-161278138D01*
X226111650Y-161567872D02*
X225590224Y-162065984D01*
X226111650Y-161567872D02*
X226016143Y-161026228D01*
X226111650Y-161567872D02*
X226207156Y-162109516D01*
X226505573Y-161498413D02*
X226111650Y-161567872D01*
%TD*%
D15*
%TO.C,*%
X137500000Y-55500000D03*
%TD*%
D16*
%TO.C,MCU1*%
X92530000Y-47380000D03*
X95070000Y-47380000D03*
X97610000Y-47380000D03*
X100150000Y-47380000D03*
X102690000Y-47380000D03*
X105230000Y-47380000D03*
X107770000Y-47380000D03*
X110310000Y-47380000D03*
X112850000Y-47380000D03*
X115390000Y-47380000D03*
X117930000Y-47380000D03*
X120470000Y-47380000D03*
X120470000Y-62620000D03*
X117930000Y-62620000D03*
X115390000Y-62620000D03*
X112850000Y-62620000D03*
X110310000Y-62620000D03*
X107770000Y-62620000D03*
X105230000Y-62620000D03*
X102690000Y-62620000D03*
X100150000Y-62620000D03*
X97610000Y-62620000D03*
X95070000Y-62620000D03*
X92530000Y-62620000D03*
X115390000Y-60080000D03*
X115390000Y-57540000D03*
X115390000Y-55000000D03*
%TD*%
D15*
%TO.C,*%
X193750000Y-144750000D03*
%TD*%
%TO.C,*%
X212500000Y-80250000D03*
%TD*%
%TO.C,*%
X137500000Y-138775000D03*
%TD*%
M02*
