%TF.GenerationSoftware,KiCad,Pcbnew,9.0.6*%
%TF.CreationDate,2026-01-25T21:10:06-05:00*%
%TF.ProjectId,left_routed,6c656674-5f72-46f7-9574-65642e6b6963,v1.0.0*%
%TF.SameCoordinates,Original*%
%TF.FileFunction,Profile,NP*%
%FSLAX46Y46*%
G04 Gerber Fmt 4.6, Leading zero omitted, Abs format (unit mm)*
G04 Created by KiCad (PCBNEW 9.0.6) date 2026-01-25 21:10:06*
%MOMM*%
%LPD*%
G01*
G04 APERTURE LIST*
%TA.AperFunction,Profile*%
%ADD10C,0.150000*%
%TD*%
G04 APERTURE END LIST*
D10*
X170275000Y-50725000D02*
G75*
G02*
X168275000Y-48725000I0J2000000D01*
G01*
X224525000Y-121275000D02*
G75*
G02*
X222525000Y-123275000I-2000000J0D01*
G01*
X255131317Y-149330606D02*
X220518073Y-125094152D01*
X88000000Y-140340238D02*
X88000000Y-143775000D01*
X189025000Y-56725000D02*
G75*
G02*
X187025000Y-54725000I0J2000000D01*
G01*
X166250000Y-44625000D02*
X90000000Y-44625000D01*
X88000000Y-46625000D02*
X88000000Y-58409762D01*
X210025000Y-56725000D02*
G75*
G02*
X212025000Y-58725000I0J-2000000D01*
G01*
X221091650Y-123275000D02*
X222525000Y-123275000D01*
X212025000Y-73475000D02*
X212025000Y-58725000D01*
X224525000Y-121275000D02*
X224525000Y-77475000D01*
X87975000Y-58725000D02*
G75*
G02*
X88000004Y-58409763I1999700J0D01*
G01*
X231430077Y-184922932D02*
X255376893Y-150723335D01*
X187670651Y-155503027D02*
X230037348Y-185168508D01*
X210025000Y-56725000D02*
X189025000Y-56725000D01*
X255131317Y-149330606D02*
G75*
G02*
X255376952Y-150723377I-573517J-819194D01*
G01*
X87975000Y-140025000D02*
X87975000Y-58725000D01*
X90000000Y-145775000D02*
G75*
G02*
X88000000Y-143775000I0J2000000D01*
G01*
X222525000Y-75475000D02*
G75*
G02*
X224525000Y-77475000I0J-2000000D01*
G01*
X168275000Y-47725000D02*
X168250000Y-47725000D01*
X222525000Y-75475000D02*
X214025000Y-75475000D01*
X187670651Y-155503027D02*
G75*
G02*
X187375000Y-155524996I-295651J1978427D01*
G01*
X185025000Y-50725000D02*
X170275000Y-50725000D01*
X168275000Y-48725000D02*
X168275000Y-47725000D01*
X231430077Y-184922932D02*
G75*
G02*
X230037308Y-185168565I-819177J573432D01*
G01*
X141875000Y-147775000D02*
X141875000Y-153525000D01*
X139875000Y-145775000D02*
G75*
G02*
X141875000Y-147775000I0J-2000000D01*
G01*
X88000000Y-140340238D02*
G75*
G02*
X87975005Y-140025000I1975400J315238D01*
G01*
X88000000Y-46625000D02*
G75*
G02*
X90000000Y-44625000I2000000J0D01*
G01*
X90000000Y-145775000D02*
X139875000Y-145775000D01*
X143875000Y-155525000D02*
X187375000Y-155525000D01*
X168250000Y-47725000D02*
X168250000Y-46625000D01*
X166250000Y-44625000D02*
G75*
G02*
X168250000Y-46625000I0J-2000000D01*
G01*
X214025000Y-75475000D02*
G75*
G02*
X212025000Y-73475000I0J2000000D01*
G01*
X185025000Y-50725000D02*
G75*
G02*
X187025000Y-52725000I0J-2000000D01*
G01*
X143875000Y-155525000D02*
G75*
G02*
X141875000Y-153525000I0J2000000D01*
G01*
X220518073Y-125094152D02*
G75*
G02*
X221091650Y-123274971I573627J819152D01*
G01*
X187025000Y-54725000D02*
X187025000Y-52725000D01*
M02*
