%TF.GenerationSoftware,KiCad,Pcbnew,9.0.6*%
%TF.CreationDate,2026-01-25T21:10:06-05:00*%
%TF.ProjectId,left_routed,6c656674-5f72-46f7-9574-65642e6b6963,v1.0.0*%
%TF.SameCoordinates,Original*%
%TF.FileFunction,Legend,Bot*%
%TF.FilePolarity,Positive*%
%FSLAX46Y46*%
G04 Gerber Fmt 4.6, Leading zero omitted, Abs format (unit mm)*
G04 Created by KiCad (PCBNEW 9.0.6) date 2026-01-25 21:10:06*
%MOMM*%
%LPD*%
G01*
G04 APERTURE LIST*
%ADD10C,0.150000*%
%ADD11C,0.100000*%
%ADD12C,0.381000*%
%ADD13C,1.752600*%
G04 APERTURE END LIST*
D10*
X102262295Y-48662810D02*
X102262295Y-48739000D01*
X102262295Y-48739000D02*
X102300390Y-48815191D01*
X102300390Y-48815191D02*
X102338485Y-48853286D01*
X102338485Y-48853286D02*
X102414676Y-48891381D01*
X102414676Y-48891381D02*
X102567057Y-48929476D01*
X102567057Y-48929476D02*
X102757533Y-48929476D01*
X102757533Y-48929476D02*
X102909914Y-48891381D01*
X102909914Y-48891381D02*
X102986104Y-48853286D01*
X102986104Y-48853286D02*
X103024200Y-48815191D01*
X103024200Y-48815191D02*
X103062295Y-48739000D01*
X103062295Y-48739000D02*
X103062295Y-48662810D01*
X103062295Y-48662810D02*
X103024200Y-48586619D01*
X103024200Y-48586619D02*
X102986104Y-48548524D01*
X102986104Y-48548524D02*
X102909914Y-48510429D01*
X102909914Y-48510429D02*
X102757533Y-48472333D01*
X102757533Y-48472333D02*
X102567057Y-48472333D01*
X102567057Y-48472333D02*
X102414676Y-48510429D01*
X102414676Y-48510429D02*
X102338485Y-48548524D01*
X102338485Y-48548524D02*
X102300390Y-48586619D01*
X102300390Y-48586619D02*
X102262295Y-48662810D01*
X103062295Y-49691381D02*
X103062295Y-49234238D01*
X103062295Y-49462810D02*
X102262295Y-49462810D01*
X102262295Y-49462810D02*
X102376580Y-49386619D01*
X102376580Y-49386619D02*
X102452771Y-49310429D01*
X102452771Y-49310429D02*
X102490866Y-49234238D01*
X102262295Y-49958048D02*
X102262295Y-50491382D01*
X102262295Y-50491382D02*
X103062295Y-50148524D01*
X94670390Y-59845143D02*
X94632295Y-59768953D01*
X94632295Y-59768953D02*
X94632295Y-59654667D01*
X94632295Y-59654667D02*
X94670390Y-59540381D01*
X94670390Y-59540381D02*
X94746580Y-59464191D01*
X94746580Y-59464191D02*
X94822771Y-59426096D01*
X94822771Y-59426096D02*
X94975152Y-59388000D01*
X94975152Y-59388000D02*
X95089438Y-59388000D01*
X95089438Y-59388000D02*
X95241819Y-59426096D01*
X95241819Y-59426096D02*
X95318009Y-59464191D01*
X95318009Y-59464191D02*
X95394200Y-59540381D01*
X95394200Y-59540381D02*
X95432295Y-59654667D01*
X95432295Y-59654667D02*
X95432295Y-59730858D01*
X95432295Y-59730858D02*
X95394200Y-59845143D01*
X95394200Y-59845143D02*
X95356104Y-59883239D01*
X95356104Y-59883239D02*
X95089438Y-59883239D01*
X95089438Y-59883239D02*
X95089438Y-59730858D01*
X95432295Y-60226096D02*
X94632295Y-60226096D01*
X94632295Y-60226096D02*
X95432295Y-60683239D01*
X95432295Y-60683239D02*
X94632295Y-60683239D01*
X95432295Y-61064191D02*
X94632295Y-61064191D01*
X94632295Y-61064191D02*
X94632295Y-61254667D01*
X94632295Y-61254667D02*
X94670390Y-61368953D01*
X94670390Y-61368953D02*
X94746580Y-61445143D01*
X94746580Y-61445143D02*
X94822771Y-61483238D01*
X94822771Y-61483238D02*
X94975152Y-61521334D01*
X94975152Y-61521334D02*
X95089438Y-61521334D01*
X95089438Y-61521334D02*
X95241819Y-61483238D01*
X95241819Y-61483238D02*
X95318009Y-61445143D01*
X95318009Y-61445143D02*
X95394200Y-61368953D01*
X95394200Y-61368953D02*
X95432295Y-61254667D01*
X95432295Y-61254667D02*
X95432295Y-61064191D01*
X92892295Y-59921334D02*
X92511342Y-59654667D01*
X92892295Y-59464191D02*
X92092295Y-59464191D01*
X92092295Y-59464191D02*
X92092295Y-59768953D01*
X92092295Y-59768953D02*
X92130390Y-59845143D01*
X92130390Y-59845143D02*
X92168485Y-59883238D01*
X92168485Y-59883238D02*
X92244676Y-59921334D01*
X92244676Y-59921334D02*
X92358961Y-59921334D01*
X92358961Y-59921334D02*
X92435152Y-59883238D01*
X92435152Y-59883238D02*
X92473247Y-59845143D01*
X92473247Y-59845143D02*
X92511342Y-59768953D01*
X92511342Y-59768953D02*
X92511342Y-59464191D01*
X92663723Y-60226095D02*
X92663723Y-60607048D01*
X92892295Y-60149905D02*
X92092295Y-60416572D01*
X92092295Y-60416572D02*
X92892295Y-60683238D01*
X92092295Y-60873714D02*
X92892295Y-61064190D01*
X92892295Y-61064190D02*
X92320866Y-61216571D01*
X92320866Y-61216571D02*
X92892295Y-61368952D01*
X92892295Y-61368952D02*
X92092295Y-61559429D01*
X99750390Y-48929476D02*
X99712295Y-48853286D01*
X99712295Y-48853286D02*
X99712295Y-48739000D01*
X99712295Y-48739000D02*
X99750390Y-48624714D01*
X99750390Y-48624714D02*
X99826580Y-48548524D01*
X99826580Y-48548524D02*
X99902771Y-48510429D01*
X99902771Y-48510429D02*
X100055152Y-48472333D01*
X100055152Y-48472333D02*
X100169438Y-48472333D01*
X100169438Y-48472333D02*
X100321819Y-48510429D01*
X100321819Y-48510429D02*
X100398009Y-48548524D01*
X100398009Y-48548524D02*
X100474200Y-48624714D01*
X100474200Y-48624714D02*
X100512295Y-48739000D01*
X100512295Y-48739000D02*
X100512295Y-48815191D01*
X100512295Y-48815191D02*
X100474200Y-48929476D01*
X100474200Y-48929476D02*
X100436104Y-48967572D01*
X100436104Y-48967572D02*
X100169438Y-48967572D01*
X100169438Y-48967572D02*
X100169438Y-48815191D01*
X100512295Y-49310429D02*
X99712295Y-49310429D01*
X99712295Y-49310429D02*
X100512295Y-49767572D01*
X100512295Y-49767572D02*
X99712295Y-49767572D01*
X100512295Y-50148524D02*
X99712295Y-50148524D01*
X99712295Y-50148524D02*
X99712295Y-50339000D01*
X99712295Y-50339000D02*
X99750390Y-50453286D01*
X99750390Y-50453286D02*
X99826580Y-50529476D01*
X99826580Y-50529476D02*
X99902771Y-50567571D01*
X99902771Y-50567571D02*
X100055152Y-50605667D01*
X100055152Y-50605667D02*
X100169438Y-50605667D01*
X100169438Y-50605667D02*
X100321819Y-50567571D01*
X100321819Y-50567571D02*
X100398009Y-50529476D01*
X100398009Y-50529476D02*
X100474200Y-50453286D01*
X100474200Y-50453286D02*
X100512295Y-50339000D01*
X100512295Y-50339000D02*
X100512295Y-50148524D01*
X97972295Y-60149905D02*
X97591342Y-59883238D01*
X97972295Y-59692762D02*
X97172295Y-59692762D01*
X97172295Y-59692762D02*
X97172295Y-59997524D01*
X97172295Y-59997524D02*
X97210390Y-60073714D01*
X97210390Y-60073714D02*
X97248485Y-60111809D01*
X97248485Y-60111809D02*
X97324676Y-60149905D01*
X97324676Y-60149905D02*
X97438961Y-60149905D01*
X97438961Y-60149905D02*
X97515152Y-60111809D01*
X97515152Y-60111809D02*
X97553247Y-60073714D01*
X97553247Y-60073714D02*
X97591342Y-59997524D01*
X97591342Y-59997524D02*
X97591342Y-59692762D01*
X97934200Y-60454666D02*
X97972295Y-60568952D01*
X97972295Y-60568952D02*
X97972295Y-60759428D01*
X97972295Y-60759428D02*
X97934200Y-60835619D01*
X97934200Y-60835619D02*
X97896104Y-60873714D01*
X97896104Y-60873714D02*
X97819914Y-60911809D01*
X97819914Y-60911809D02*
X97743723Y-60911809D01*
X97743723Y-60911809D02*
X97667533Y-60873714D01*
X97667533Y-60873714D02*
X97629438Y-60835619D01*
X97629438Y-60835619D02*
X97591342Y-60759428D01*
X97591342Y-60759428D02*
X97553247Y-60607047D01*
X97553247Y-60607047D02*
X97515152Y-60530857D01*
X97515152Y-60530857D02*
X97477057Y-60492762D01*
X97477057Y-60492762D02*
X97400866Y-60454666D01*
X97400866Y-60454666D02*
X97324676Y-60454666D01*
X97324676Y-60454666D02*
X97248485Y-60492762D01*
X97248485Y-60492762D02*
X97210390Y-60530857D01*
X97210390Y-60530857D02*
X97172295Y-60607047D01*
X97172295Y-60607047D02*
X97172295Y-60797524D01*
X97172295Y-60797524D02*
X97210390Y-60911809D01*
X97172295Y-61140381D02*
X97172295Y-61597524D01*
X97972295Y-61368952D02*
X97172295Y-61368952D01*
X102252295Y-59737191D02*
X102252295Y-59813381D01*
X102252295Y-59813381D02*
X102290390Y-59889572D01*
X102290390Y-59889572D02*
X102328485Y-59927667D01*
X102328485Y-59927667D02*
X102404676Y-59965762D01*
X102404676Y-59965762D02*
X102557057Y-60003857D01*
X102557057Y-60003857D02*
X102747533Y-60003857D01*
X102747533Y-60003857D02*
X102899914Y-59965762D01*
X102899914Y-59965762D02*
X102976104Y-59927667D01*
X102976104Y-59927667D02*
X103014200Y-59889572D01*
X103014200Y-59889572D02*
X103052295Y-59813381D01*
X103052295Y-59813381D02*
X103052295Y-59737191D01*
X103052295Y-59737191D02*
X103014200Y-59661000D01*
X103014200Y-59661000D02*
X102976104Y-59622905D01*
X102976104Y-59622905D02*
X102899914Y-59584810D01*
X102899914Y-59584810D02*
X102747533Y-59546714D01*
X102747533Y-59546714D02*
X102557057Y-59546714D01*
X102557057Y-59546714D02*
X102404676Y-59584810D01*
X102404676Y-59584810D02*
X102328485Y-59622905D01*
X102328485Y-59622905D02*
X102290390Y-59661000D01*
X102290390Y-59661000D02*
X102252295Y-59737191D01*
X102252295Y-60270524D02*
X102252295Y-60765762D01*
X102252295Y-60765762D02*
X102557057Y-60499096D01*
X102557057Y-60499096D02*
X102557057Y-60613381D01*
X102557057Y-60613381D02*
X102595152Y-60689572D01*
X102595152Y-60689572D02*
X102633247Y-60727667D01*
X102633247Y-60727667D02*
X102709438Y-60765762D01*
X102709438Y-60765762D02*
X102899914Y-60765762D01*
X102899914Y-60765762D02*
X102976104Y-60727667D01*
X102976104Y-60727667D02*
X103014200Y-60689572D01*
X103014200Y-60689572D02*
X103052295Y-60613381D01*
X103052295Y-60613381D02*
X103052295Y-60384810D01*
X103052295Y-60384810D02*
X103014200Y-60308619D01*
X103014200Y-60308619D02*
X102976104Y-60270524D01*
X103052295Y-61527667D02*
X103052295Y-61070524D01*
X103052295Y-61299096D02*
X102252295Y-61299096D01*
X102252295Y-61299096D02*
X102366580Y-61222905D01*
X102366580Y-61222905D02*
X102442771Y-61146715D01*
X102442771Y-61146715D02*
X102480866Y-61070524D01*
X97210390Y-48929476D02*
X97172295Y-48853286D01*
X97172295Y-48853286D02*
X97172295Y-48739000D01*
X97172295Y-48739000D02*
X97210390Y-48624714D01*
X97210390Y-48624714D02*
X97286580Y-48548524D01*
X97286580Y-48548524D02*
X97362771Y-48510429D01*
X97362771Y-48510429D02*
X97515152Y-48472333D01*
X97515152Y-48472333D02*
X97629438Y-48472333D01*
X97629438Y-48472333D02*
X97781819Y-48510429D01*
X97781819Y-48510429D02*
X97858009Y-48548524D01*
X97858009Y-48548524D02*
X97934200Y-48624714D01*
X97934200Y-48624714D02*
X97972295Y-48739000D01*
X97972295Y-48739000D02*
X97972295Y-48815191D01*
X97972295Y-48815191D02*
X97934200Y-48929476D01*
X97934200Y-48929476D02*
X97896104Y-48967572D01*
X97896104Y-48967572D02*
X97629438Y-48967572D01*
X97629438Y-48967572D02*
X97629438Y-48815191D01*
X97972295Y-49310429D02*
X97172295Y-49310429D01*
X97172295Y-49310429D02*
X97972295Y-49767572D01*
X97972295Y-49767572D02*
X97172295Y-49767572D01*
X97972295Y-50148524D02*
X97172295Y-50148524D01*
X97172295Y-50148524D02*
X97172295Y-50339000D01*
X97172295Y-50339000D02*
X97210390Y-50453286D01*
X97210390Y-50453286D02*
X97286580Y-50529476D01*
X97286580Y-50529476D02*
X97362771Y-50567571D01*
X97362771Y-50567571D02*
X97515152Y-50605667D01*
X97515152Y-50605667D02*
X97629438Y-50605667D01*
X97629438Y-50605667D02*
X97781819Y-50567571D01*
X97781819Y-50567571D02*
X97858009Y-50529476D01*
X97858009Y-50529476D02*
X97934200Y-50453286D01*
X97934200Y-50453286D02*
X97972295Y-50339000D01*
X97972295Y-50339000D02*
X97972295Y-50148524D01*
X113212295Y-60003857D02*
X113212295Y-59546714D01*
X113212295Y-59775286D02*
X112412295Y-59775286D01*
X112412295Y-59775286D02*
X112526580Y-59699095D01*
X112526580Y-59699095D02*
X112602771Y-59622905D01*
X112602771Y-59622905D02*
X112640866Y-59546714D01*
X113212295Y-60765762D02*
X113212295Y-60308619D01*
X113212295Y-60537191D02*
X112412295Y-60537191D01*
X112412295Y-60537191D02*
X112526580Y-60461000D01*
X112526580Y-60461000D02*
X112602771Y-60384810D01*
X112602771Y-60384810D02*
X112640866Y-60308619D01*
X112412295Y-61032429D02*
X112412295Y-61527667D01*
X112412295Y-61527667D02*
X112717057Y-61261001D01*
X112717057Y-61261001D02*
X112717057Y-61375286D01*
X112717057Y-61375286D02*
X112755152Y-61451477D01*
X112755152Y-61451477D02*
X112793247Y-61489572D01*
X112793247Y-61489572D02*
X112869438Y-61527667D01*
X112869438Y-61527667D02*
X113059914Y-61527667D01*
X113059914Y-61527667D02*
X113136104Y-61489572D01*
X113136104Y-61489572D02*
X113174200Y-61451477D01*
X113174200Y-61451477D02*
X113212295Y-61375286D01*
X113212295Y-61375286D02*
X113212295Y-61146715D01*
X113212295Y-61146715D02*
X113174200Y-61070524D01*
X113174200Y-61070524D02*
X113136104Y-61032429D01*
X99712295Y-59470524D02*
X100512295Y-59737191D01*
X100512295Y-59737191D02*
X99712295Y-60003857D01*
X100436104Y-60727667D02*
X100474200Y-60689571D01*
X100474200Y-60689571D02*
X100512295Y-60575286D01*
X100512295Y-60575286D02*
X100512295Y-60499095D01*
X100512295Y-60499095D02*
X100474200Y-60384809D01*
X100474200Y-60384809D02*
X100398009Y-60308619D01*
X100398009Y-60308619D02*
X100321819Y-60270524D01*
X100321819Y-60270524D02*
X100169438Y-60232428D01*
X100169438Y-60232428D02*
X100055152Y-60232428D01*
X100055152Y-60232428D02*
X99902771Y-60270524D01*
X99902771Y-60270524D02*
X99826580Y-60308619D01*
X99826580Y-60308619D02*
X99750390Y-60384809D01*
X99750390Y-60384809D02*
X99712295Y-60499095D01*
X99712295Y-60499095D02*
X99712295Y-60575286D01*
X99712295Y-60575286D02*
X99750390Y-60689571D01*
X99750390Y-60689571D02*
X99788485Y-60727667D01*
X100436104Y-61527667D02*
X100474200Y-61489571D01*
X100474200Y-61489571D02*
X100512295Y-61375286D01*
X100512295Y-61375286D02*
X100512295Y-61299095D01*
X100512295Y-61299095D02*
X100474200Y-61184809D01*
X100474200Y-61184809D02*
X100398009Y-61108619D01*
X100398009Y-61108619D02*
X100321819Y-61070524D01*
X100321819Y-61070524D02*
X100169438Y-61032428D01*
X100169438Y-61032428D02*
X100055152Y-61032428D01*
X100055152Y-61032428D02*
X99902771Y-61070524D01*
X99902771Y-61070524D02*
X99826580Y-61108619D01*
X99826580Y-61108619D02*
X99750390Y-61184809D01*
X99750390Y-61184809D02*
X99712295Y-61299095D01*
X99712295Y-61299095D02*
X99712295Y-61375286D01*
X99712295Y-61375286D02*
X99750390Y-61489571D01*
X99750390Y-61489571D02*
X99788485Y-61527667D01*
X113212295Y-48929476D02*
X113212295Y-48472333D01*
X113212295Y-48700905D02*
X112412295Y-48700905D01*
X112412295Y-48700905D02*
X112526580Y-48624714D01*
X112526580Y-48624714D02*
X112602771Y-48548524D01*
X112602771Y-48548524D02*
X112640866Y-48472333D01*
X112412295Y-49424715D02*
X112412295Y-49500905D01*
X112412295Y-49500905D02*
X112450390Y-49577096D01*
X112450390Y-49577096D02*
X112488485Y-49615191D01*
X112488485Y-49615191D02*
X112564676Y-49653286D01*
X112564676Y-49653286D02*
X112717057Y-49691381D01*
X112717057Y-49691381D02*
X112907533Y-49691381D01*
X112907533Y-49691381D02*
X113059914Y-49653286D01*
X113059914Y-49653286D02*
X113136104Y-49615191D01*
X113136104Y-49615191D02*
X113174200Y-49577096D01*
X113174200Y-49577096D02*
X113212295Y-49500905D01*
X113212295Y-49500905D02*
X113212295Y-49424715D01*
X113212295Y-49424715D02*
X113174200Y-49348524D01*
X113174200Y-49348524D02*
X113136104Y-49310429D01*
X113136104Y-49310429D02*
X113059914Y-49272334D01*
X113059914Y-49272334D02*
X112907533Y-49234238D01*
X112907533Y-49234238D02*
X112717057Y-49234238D01*
X112717057Y-49234238D02*
X112564676Y-49272334D01*
X112564676Y-49272334D02*
X112488485Y-49310429D01*
X112488485Y-49310429D02*
X112450390Y-49348524D01*
X112450390Y-49348524D02*
X112412295Y-49424715D01*
X112412295Y-50186620D02*
X112412295Y-50262810D01*
X112412295Y-50262810D02*
X112450390Y-50339001D01*
X112450390Y-50339001D02*
X112488485Y-50377096D01*
X112488485Y-50377096D02*
X112564676Y-50415191D01*
X112564676Y-50415191D02*
X112717057Y-50453286D01*
X112717057Y-50453286D02*
X112907533Y-50453286D01*
X112907533Y-50453286D02*
X113059914Y-50415191D01*
X113059914Y-50415191D02*
X113136104Y-50377096D01*
X113136104Y-50377096D02*
X113174200Y-50339001D01*
X113174200Y-50339001D02*
X113212295Y-50262810D01*
X113212295Y-50262810D02*
X113212295Y-50186620D01*
X113212295Y-50186620D02*
X113174200Y-50110429D01*
X113174200Y-50110429D02*
X113136104Y-50072334D01*
X113136104Y-50072334D02*
X113059914Y-50034239D01*
X113059914Y-50034239D02*
X112907533Y-49996143D01*
X112907533Y-49996143D02*
X112717057Y-49996143D01*
X112717057Y-49996143D02*
X112564676Y-50034239D01*
X112564676Y-50034239D02*
X112488485Y-50072334D01*
X112488485Y-50072334D02*
X112450390Y-50110429D01*
X112450390Y-50110429D02*
X112412295Y-50186620D01*
X107362295Y-48662810D02*
X107362295Y-48739000D01*
X107362295Y-48739000D02*
X107400390Y-48815191D01*
X107400390Y-48815191D02*
X107438485Y-48853286D01*
X107438485Y-48853286D02*
X107514676Y-48891381D01*
X107514676Y-48891381D02*
X107667057Y-48929476D01*
X107667057Y-48929476D02*
X107857533Y-48929476D01*
X107857533Y-48929476D02*
X108009914Y-48891381D01*
X108009914Y-48891381D02*
X108086104Y-48853286D01*
X108086104Y-48853286D02*
X108124200Y-48815191D01*
X108124200Y-48815191D02*
X108162295Y-48739000D01*
X108162295Y-48739000D02*
X108162295Y-48662810D01*
X108162295Y-48662810D02*
X108124200Y-48586619D01*
X108124200Y-48586619D02*
X108086104Y-48548524D01*
X108086104Y-48548524D02*
X108009914Y-48510429D01*
X108009914Y-48510429D02*
X107857533Y-48472333D01*
X107857533Y-48472333D02*
X107667057Y-48472333D01*
X107667057Y-48472333D02*
X107514676Y-48510429D01*
X107514676Y-48510429D02*
X107438485Y-48548524D01*
X107438485Y-48548524D02*
X107400390Y-48586619D01*
X107400390Y-48586619D02*
X107362295Y-48662810D01*
X107438485Y-49234238D02*
X107400390Y-49272334D01*
X107400390Y-49272334D02*
X107362295Y-49348524D01*
X107362295Y-49348524D02*
X107362295Y-49539000D01*
X107362295Y-49539000D02*
X107400390Y-49615191D01*
X107400390Y-49615191D02*
X107438485Y-49653286D01*
X107438485Y-49653286D02*
X107514676Y-49691381D01*
X107514676Y-49691381D02*
X107590866Y-49691381D01*
X107590866Y-49691381D02*
X107705152Y-49653286D01*
X107705152Y-49653286D02*
X108162295Y-49196143D01*
X108162295Y-49196143D02*
X108162295Y-49691381D01*
X107438485Y-49996143D02*
X107400390Y-50034239D01*
X107400390Y-50034239D02*
X107362295Y-50110429D01*
X107362295Y-50110429D02*
X107362295Y-50300905D01*
X107362295Y-50300905D02*
X107400390Y-50377096D01*
X107400390Y-50377096D02*
X107438485Y-50415191D01*
X107438485Y-50415191D02*
X107514676Y-50453286D01*
X107514676Y-50453286D02*
X107590866Y-50453286D01*
X107590866Y-50453286D02*
X107705152Y-50415191D01*
X107705152Y-50415191D02*
X108162295Y-49958048D01*
X108162295Y-49958048D02*
X108162295Y-50453286D01*
X104792295Y-59737191D02*
X104792295Y-59813381D01*
X104792295Y-59813381D02*
X104830390Y-59889572D01*
X104830390Y-59889572D02*
X104868485Y-59927667D01*
X104868485Y-59927667D02*
X104944676Y-59965762D01*
X104944676Y-59965762D02*
X105097057Y-60003857D01*
X105097057Y-60003857D02*
X105287533Y-60003857D01*
X105287533Y-60003857D02*
X105439914Y-59965762D01*
X105439914Y-59965762D02*
X105516104Y-59927667D01*
X105516104Y-59927667D02*
X105554200Y-59889572D01*
X105554200Y-59889572D02*
X105592295Y-59813381D01*
X105592295Y-59813381D02*
X105592295Y-59737191D01*
X105592295Y-59737191D02*
X105554200Y-59661000D01*
X105554200Y-59661000D02*
X105516104Y-59622905D01*
X105516104Y-59622905D02*
X105439914Y-59584810D01*
X105439914Y-59584810D02*
X105287533Y-59546714D01*
X105287533Y-59546714D02*
X105097057Y-59546714D01*
X105097057Y-59546714D02*
X104944676Y-59584810D01*
X104944676Y-59584810D02*
X104868485Y-59622905D01*
X104868485Y-59622905D02*
X104830390Y-59661000D01*
X104830390Y-59661000D02*
X104792295Y-59737191D01*
X104868485Y-60308619D02*
X104830390Y-60346715D01*
X104830390Y-60346715D02*
X104792295Y-60422905D01*
X104792295Y-60422905D02*
X104792295Y-60613381D01*
X104792295Y-60613381D02*
X104830390Y-60689572D01*
X104830390Y-60689572D02*
X104868485Y-60727667D01*
X104868485Y-60727667D02*
X104944676Y-60765762D01*
X104944676Y-60765762D02*
X105020866Y-60765762D01*
X105020866Y-60765762D02*
X105135152Y-60727667D01*
X105135152Y-60727667D02*
X105592295Y-60270524D01*
X105592295Y-60270524D02*
X105592295Y-60765762D01*
X105592295Y-61146715D02*
X105592295Y-61299096D01*
X105592295Y-61299096D02*
X105554200Y-61375286D01*
X105554200Y-61375286D02*
X105516104Y-61413382D01*
X105516104Y-61413382D02*
X105401819Y-61489572D01*
X105401819Y-61489572D02*
X105249438Y-61527667D01*
X105249438Y-61527667D02*
X104944676Y-61527667D01*
X104944676Y-61527667D02*
X104868485Y-61489572D01*
X104868485Y-61489572D02*
X104830390Y-61451477D01*
X104830390Y-61451477D02*
X104792295Y-61375286D01*
X104792295Y-61375286D02*
X104792295Y-61222905D01*
X104792295Y-61222905D02*
X104830390Y-61146715D01*
X104830390Y-61146715D02*
X104868485Y-61108620D01*
X104868485Y-61108620D02*
X104944676Y-61070524D01*
X104944676Y-61070524D02*
X105135152Y-61070524D01*
X105135152Y-61070524D02*
X105211342Y-61108620D01*
X105211342Y-61108620D02*
X105249438Y-61146715D01*
X105249438Y-61146715D02*
X105287533Y-61222905D01*
X105287533Y-61222905D02*
X105287533Y-61375286D01*
X105287533Y-61375286D02*
X105249438Y-61451477D01*
X105249438Y-61451477D02*
X105211342Y-61489572D01*
X105211342Y-61489572D02*
X105135152Y-61527667D01*
X107332295Y-59737191D02*
X107332295Y-59813381D01*
X107332295Y-59813381D02*
X107370390Y-59889572D01*
X107370390Y-59889572D02*
X107408485Y-59927667D01*
X107408485Y-59927667D02*
X107484676Y-59965762D01*
X107484676Y-59965762D02*
X107637057Y-60003857D01*
X107637057Y-60003857D02*
X107827533Y-60003857D01*
X107827533Y-60003857D02*
X107979914Y-59965762D01*
X107979914Y-59965762D02*
X108056104Y-59927667D01*
X108056104Y-59927667D02*
X108094200Y-59889572D01*
X108094200Y-59889572D02*
X108132295Y-59813381D01*
X108132295Y-59813381D02*
X108132295Y-59737191D01*
X108132295Y-59737191D02*
X108094200Y-59661000D01*
X108094200Y-59661000D02*
X108056104Y-59622905D01*
X108056104Y-59622905D02*
X107979914Y-59584810D01*
X107979914Y-59584810D02*
X107827533Y-59546714D01*
X107827533Y-59546714D02*
X107637057Y-59546714D01*
X107637057Y-59546714D02*
X107484676Y-59584810D01*
X107484676Y-59584810D02*
X107408485Y-59622905D01*
X107408485Y-59622905D02*
X107370390Y-59661000D01*
X107370390Y-59661000D02*
X107332295Y-59737191D01*
X107332295Y-60499096D02*
X107332295Y-60575286D01*
X107332295Y-60575286D02*
X107370390Y-60651477D01*
X107370390Y-60651477D02*
X107408485Y-60689572D01*
X107408485Y-60689572D02*
X107484676Y-60727667D01*
X107484676Y-60727667D02*
X107637057Y-60765762D01*
X107637057Y-60765762D02*
X107827533Y-60765762D01*
X107827533Y-60765762D02*
X107979914Y-60727667D01*
X107979914Y-60727667D02*
X108056104Y-60689572D01*
X108056104Y-60689572D02*
X108094200Y-60651477D01*
X108094200Y-60651477D02*
X108132295Y-60575286D01*
X108132295Y-60575286D02*
X108132295Y-60499096D01*
X108132295Y-60499096D02*
X108094200Y-60422905D01*
X108094200Y-60422905D02*
X108056104Y-60384810D01*
X108056104Y-60384810D02*
X107979914Y-60346715D01*
X107979914Y-60346715D02*
X107827533Y-60308619D01*
X107827533Y-60308619D02*
X107637057Y-60308619D01*
X107637057Y-60308619D02*
X107484676Y-60346715D01*
X107484676Y-60346715D02*
X107408485Y-60384810D01*
X107408485Y-60384810D02*
X107370390Y-60422905D01*
X107370390Y-60422905D02*
X107332295Y-60499096D01*
X107408485Y-61070524D02*
X107370390Y-61108620D01*
X107370390Y-61108620D02*
X107332295Y-61184810D01*
X107332295Y-61184810D02*
X107332295Y-61375286D01*
X107332295Y-61375286D02*
X107370390Y-61451477D01*
X107370390Y-61451477D02*
X107408485Y-61489572D01*
X107408485Y-61489572D02*
X107484676Y-61527667D01*
X107484676Y-61527667D02*
X107560866Y-61527667D01*
X107560866Y-61527667D02*
X107675152Y-61489572D01*
X107675152Y-61489572D02*
X108132295Y-61032429D01*
X108132295Y-61032429D02*
X108132295Y-61527667D01*
X117492295Y-59737191D02*
X117492295Y-59813381D01*
X117492295Y-59813381D02*
X117530390Y-59889572D01*
X117530390Y-59889572D02*
X117568485Y-59927667D01*
X117568485Y-59927667D02*
X117644676Y-59965762D01*
X117644676Y-59965762D02*
X117797057Y-60003857D01*
X117797057Y-60003857D02*
X117987533Y-60003857D01*
X117987533Y-60003857D02*
X118139914Y-59965762D01*
X118139914Y-59965762D02*
X118216104Y-59927667D01*
X118216104Y-59927667D02*
X118254200Y-59889572D01*
X118254200Y-59889572D02*
X118292295Y-59813381D01*
X118292295Y-59813381D02*
X118292295Y-59737191D01*
X118292295Y-59737191D02*
X118254200Y-59661000D01*
X118254200Y-59661000D02*
X118216104Y-59622905D01*
X118216104Y-59622905D02*
X118139914Y-59584810D01*
X118139914Y-59584810D02*
X117987533Y-59546714D01*
X117987533Y-59546714D02*
X117797057Y-59546714D01*
X117797057Y-59546714D02*
X117644676Y-59584810D01*
X117644676Y-59584810D02*
X117568485Y-59622905D01*
X117568485Y-59622905D02*
X117530390Y-59661000D01*
X117530390Y-59661000D02*
X117492295Y-59737191D01*
X118292295Y-60765762D02*
X118292295Y-60308619D01*
X118292295Y-60537191D02*
X117492295Y-60537191D01*
X117492295Y-60537191D02*
X117606580Y-60461000D01*
X117606580Y-60461000D02*
X117682771Y-60384810D01*
X117682771Y-60384810D02*
X117720866Y-60308619D01*
X117492295Y-61261001D02*
X117492295Y-61337191D01*
X117492295Y-61337191D02*
X117530390Y-61413382D01*
X117530390Y-61413382D02*
X117568485Y-61451477D01*
X117568485Y-61451477D02*
X117644676Y-61489572D01*
X117644676Y-61489572D02*
X117797057Y-61527667D01*
X117797057Y-61527667D02*
X117987533Y-61527667D01*
X117987533Y-61527667D02*
X118139914Y-61489572D01*
X118139914Y-61489572D02*
X118216104Y-61451477D01*
X118216104Y-61451477D02*
X118254200Y-61413382D01*
X118254200Y-61413382D02*
X118292295Y-61337191D01*
X118292295Y-61337191D02*
X118292295Y-61261001D01*
X118292295Y-61261001D02*
X118254200Y-61184810D01*
X118254200Y-61184810D02*
X118216104Y-61146715D01*
X118216104Y-61146715D02*
X118139914Y-61108620D01*
X118139914Y-61108620D02*
X117987533Y-61070524D01*
X117987533Y-61070524D02*
X117797057Y-61070524D01*
X117797057Y-61070524D02*
X117644676Y-61108620D01*
X117644676Y-61108620D02*
X117568485Y-61146715D01*
X117568485Y-61146715D02*
X117530390Y-61184810D01*
X117530390Y-61184810D02*
X117492295Y-61261001D01*
X109872295Y-48662810D02*
X109872295Y-48739000D01*
X109872295Y-48739000D02*
X109910390Y-48815191D01*
X109910390Y-48815191D02*
X109948485Y-48853286D01*
X109948485Y-48853286D02*
X110024676Y-48891381D01*
X110024676Y-48891381D02*
X110177057Y-48929476D01*
X110177057Y-48929476D02*
X110367533Y-48929476D01*
X110367533Y-48929476D02*
X110519914Y-48891381D01*
X110519914Y-48891381D02*
X110596104Y-48853286D01*
X110596104Y-48853286D02*
X110634200Y-48815191D01*
X110634200Y-48815191D02*
X110672295Y-48739000D01*
X110672295Y-48739000D02*
X110672295Y-48662810D01*
X110672295Y-48662810D02*
X110634200Y-48586619D01*
X110634200Y-48586619D02*
X110596104Y-48548524D01*
X110596104Y-48548524D02*
X110519914Y-48510429D01*
X110519914Y-48510429D02*
X110367533Y-48472333D01*
X110367533Y-48472333D02*
X110177057Y-48472333D01*
X110177057Y-48472333D02*
X110024676Y-48510429D01*
X110024676Y-48510429D02*
X109948485Y-48548524D01*
X109948485Y-48548524D02*
X109910390Y-48586619D01*
X109910390Y-48586619D02*
X109872295Y-48662810D01*
X109948485Y-49234238D02*
X109910390Y-49272334D01*
X109910390Y-49272334D02*
X109872295Y-49348524D01*
X109872295Y-49348524D02*
X109872295Y-49539000D01*
X109872295Y-49539000D02*
X109910390Y-49615191D01*
X109910390Y-49615191D02*
X109948485Y-49653286D01*
X109948485Y-49653286D02*
X110024676Y-49691381D01*
X110024676Y-49691381D02*
X110100866Y-49691381D01*
X110100866Y-49691381D02*
X110215152Y-49653286D01*
X110215152Y-49653286D02*
X110672295Y-49196143D01*
X110672295Y-49196143D02*
X110672295Y-49691381D01*
X110138961Y-50377096D02*
X110672295Y-50377096D01*
X109834200Y-50186620D02*
X110405628Y-49996143D01*
X110405628Y-49996143D02*
X110405628Y-50491382D01*
X92092295Y-48662810D02*
X92092295Y-48739000D01*
X92092295Y-48739000D02*
X92130390Y-48815191D01*
X92130390Y-48815191D02*
X92168485Y-48853286D01*
X92168485Y-48853286D02*
X92244676Y-48891381D01*
X92244676Y-48891381D02*
X92397057Y-48929476D01*
X92397057Y-48929476D02*
X92587533Y-48929476D01*
X92587533Y-48929476D02*
X92739914Y-48891381D01*
X92739914Y-48891381D02*
X92816104Y-48853286D01*
X92816104Y-48853286D02*
X92854200Y-48815191D01*
X92854200Y-48815191D02*
X92892295Y-48739000D01*
X92892295Y-48739000D02*
X92892295Y-48662810D01*
X92892295Y-48662810D02*
X92854200Y-48586619D01*
X92854200Y-48586619D02*
X92816104Y-48548524D01*
X92816104Y-48548524D02*
X92739914Y-48510429D01*
X92739914Y-48510429D02*
X92587533Y-48472333D01*
X92587533Y-48472333D02*
X92397057Y-48472333D01*
X92397057Y-48472333D02*
X92244676Y-48510429D01*
X92244676Y-48510429D02*
X92168485Y-48548524D01*
X92168485Y-48548524D02*
X92130390Y-48586619D01*
X92130390Y-48586619D02*
X92092295Y-48662810D01*
X92092295Y-49424715D02*
X92092295Y-49500905D01*
X92092295Y-49500905D02*
X92130390Y-49577096D01*
X92130390Y-49577096D02*
X92168485Y-49615191D01*
X92168485Y-49615191D02*
X92244676Y-49653286D01*
X92244676Y-49653286D02*
X92397057Y-49691381D01*
X92397057Y-49691381D02*
X92587533Y-49691381D01*
X92587533Y-49691381D02*
X92739914Y-49653286D01*
X92739914Y-49653286D02*
X92816104Y-49615191D01*
X92816104Y-49615191D02*
X92854200Y-49577096D01*
X92854200Y-49577096D02*
X92892295Y-49500905D01*
X92892295Y-49500905D02*
X92892295Y-49424715D01*
X92892295Y-49424715D02*
X92854200Y-49348524D01*
X92854200Y-49348524D02*
X92816104Y-49310429D01*
X92816104Y-49310429D02*
X92739914Y-49272334D01*
X92739914Y-49272334D02*
X92587533Y-49234238D01*
X92587533Y-49234238D02*
X92397057Y-49234238D01*
X92397057Y-49234238D02*
X92244676Y-49272334D01*
X92244676Y-49272334D02*
X92168485Y-49310429D01*
X92168485Y-49310429D02*
X92130390Y-49348524D01*
X92130390Y-49348524D02*
X92092295Y-49424715D01*
X92092295Y-50377096D02*
X92092295Y-50224715D01*
X92092295Y-50224715D02*
X92130390Y-50148524D01*
X92130390Y-50148524D02*
X92168485Y-50110429D01*
X92168485Y-50110429D02*
X92282771Y-50034239D01*
X92282771Y-50034239D02*
X92435152Y-49996143D01*
X92435152Y-49996143D02*
X92739914Y-49996143D01*
X92739914Y-49996143D02*
X92816104Y-50034239D01*
X92816104Y-50034239D02*
X92854200Y-50072334D01*
X92854200Y-50072334D02*
X92892295Y-50148524D01*
X92892295Y-50148524D02*
X92892295Y-50300905D01*
X92892295Y-50300905D02*
X92854200Y-50377096D01*
X92854200Y-50377096D02*
X92816104Y-50415191D01*
X92816104Y-50415191D02*
X92739914Y-50453286D01*
X92739914Y-50453286D02*
X92549438Y-50453286D01*
X92549438Y-50453286D02*
X92473247Y-50415191D01*
X92473247Y-50415191D02*
X92435152Y-50377096D01*
X92435152Y-50377096D02*
X92397057Y-50300905D01*
X92397057Y-50300905D02*
X92397057Y-50148524D01*
X92397057Y-50148524D02*
X92435152Y-50072334D01*
X92435152Y-50072334D02*
X92473247Y-50034239D01*
X92473247Y-50034239D02*
X92549438Y-49996143D01*
X115752295Y-60003857D02*
X115752295Y-59546714D01*
X115752295Y-59775286D02*
X114952295Y-59775286D01*
X114952295Y-59775286D02*
X115066580Y-59699095D01*
X115066580Y-59699095D02*
X115142771Y-59622905D01*
X115142771Y-59622905D02*
X115180866Y-59546714D01*
X115752295Y-60765762D02*
X115752295Y-60308619D01*
X115752295Y-60537191D02*
X114952295Y-60537191D01*
X114952295Y-60537191D02*
X115066580Y-60461000D01*
X115066580Y-60461000D02*
X115142771Y-60384810D01*
X115142771Y-60384810D02*
X115180866Y-60308619D01*
X115752295Y-61527667D02*
X115752295Y-61070524D01*
X115752295Y-61299096D02*
X114952295Y-61299096D01*
X114952295Y-61299096D02*
X115066580Y-61222905D01*
X115066580Y-61222905D02*
X115142771Y-61146715D01*
X115142771Y-61146715D02*
X115180866Y-61070524D01*
X110672295Y-60003857D02*
X110672295Y-59546714D01*
X110672295Y-59775286D02*
X109872295Y-59775286D01*
X109872295Y-59775286D02*
X109986580Y-59699095D01*
X109986580Y-59699095D02*
X110062771Y-59622905D01*
X110062771Y-59622905D02*
X110100866Y-59546714D01*
X110672295Y-60765762D02*
X110672295Y-60308619D01*
X110672295Y-60537191D02*
X109872295Y-60537191D01*
X109872295Y-60537191D02*
X109986580Y-60461000D01*
X109986580Y-60461000D02*
X110062771Y-60384810D01*
X110062771Y-60384810D02*
X110100866Y-60308619D01*
X109872295Y-61489572D02*
X109872295Y-61108620D01*
X109872295Y-61108620D02*
X110253247Y-61070524D01*
X110253247Y-61070524D02*
X110215152Y-61108620D01*
X110215152Y-61108620D02*
X110177057Y-61184810D01*
X110177057Y-61184810D02*
X110177057Y-61375286D01*
X110177057Y-61375286D02*
X110215152Y-61451477D01*
X110215152Y-61451477D02*
X110253247Y-61489572D01*
X110253247Y-61489572D02*
X110329438Y-61527667D01*
X110329438Y-61527667D02*
X110519914Y-61527667D01*
X110519914Y-61527667D02*
X110596104Y-61489572D01*
X110596104Y-61489572D02*
X110634200Y-61451477D01*
X110634200Y-61451477D02*
X110672295Y-61375286D01*
X110672295Y-61375286D02*
X110672295Y-61184810D01*
X110672295Y-61184810D02*
X110634200Y-61108620D01*
X110634200Y-61108620D02*
X110596104Y-61070524D01*
X118292295Y-48929476D02*
X118292295Y-48472333D01*
X118292295Y-48700905D02*
X117492295Y-48700905D01*
X117492295Y-48700905D02*
X117606580Y-48624714D01*
X117606580Y-48624714D02*
X117682771Y-48548524D01*
X117682771Y-48548524D02*
X117720866Y-48472333D01*
X117492295Y-49424715D02*
X117492295Y-49500905D01*
X117492295Y-49500905D02*
X117530390Y-49577096D01*
X117530390Y-49577096D02*
X117568485Y-49615191D01*
X117568485Y-49615191D02*
X117644676Y-49653286D01*
X117644676Y-49653286D02*
X117797057Y-49691381D01*
X117797057Y-49691381D02*
X117987533Y-49691381D01*
X117987533Y-49691381D02*
X118139914Y-49653286D01*
X118139914Y-49653286D02*
X118216104Y-49615191D01*
X118216104Y-49615191D02*
X118254200Y-49577096D01*
X118254200Y-49577096D02*
X118292295Y-49500905D01*
X118292295Y-49500905D02*
X118292295Y-49424715D01*
X118292295Y-49424715D02*
X118254200Y-49348524D01*
X118254200Y-49348524D02*
X118216104Y-49310429D01*
X118216104Y-49310429D02*
X118139914Y-49272334D01*
X118139914Y-49272334D02*
X117987533Y-49234238D01*
X117987533Y-49234238D02*
X117797057Y-49234238D01*
X117797057Y-49234238D02*
X117644676Y-49272334D01*
X117644676Y-49272334D02*
X117568485Y-49310429D01*
X117568485Y-49310429D02*
X117530390Y-49348524D01*
X117530390Y-49348524D02*
X117492295Y-49424715D01*
X117758961Y-50377096D02*
X118292295Y-50377096D01*
X117454200Y-50186620D02*
X118025628Y-49996143D01*
X118025628Y-49996143D02*
X118025628Y-50491382D01*
X104862295Y-48662810D02*
X104862295Y-48739000D01*
X104862295Y-48739000D02*
X104900390Y-48815191D01*
X104900390Y-48815191D02*
X104938485Y-48853286D01*
X104938485Y-48853286D02*
X105014676Y-48891381D01*
X105014676Y-48891381D02*
X105167057Y-48929476D01*
X105167057Y-48929476D02*
X105357533Y-48929476D01*
X105357533Y-48929476D02*
X105509914Y-48891381D01*
X105509914Y-48891381D02*
X105586104Y-48853286D01*
X105586104Y-48853286D02*
X105624200Y-48815191D01*
X105624200Y-48815191D02*
X105662295Y-48739000D01*
X105662295Y-48739000D02*
X105662295Y-48662810D01*
X105662295Y-48662810D02*
X105624200Y-48586619D01*
X105624200Y-48586619D02*
X105586104Y-48548524D01*
X105586104Y-48548524D02*
X105509914Y-48510429D01*
X105509914Y-48510429D02*
X105357533Y-48472333D01*
X105357533Y-48472333D02*
X105167057Y-48472333D01*
X105167057Y-48472333D02*
X105014676Y-48510429D01*
X105014676Y-48510429D02*
X104938485Y-48548524D01*
X104938485Y-48548524D02*
X104900390Y-48586619D01*
X104900390Y-48586619D02*
X104862295Y-48662810D01*
X104938485Y-49234238D02*
X104900390Y-49272334D01*
X104900390Y-49272334D02*
X104862295Y-49348524D01*
X104862295Y-49348524D02*
X104862295Y-49539000D01*
X104862295Y-49539000D02*
X104900390Y-49615191D01*
X104900390Y-49615191D02*
X104938485Y-49653286D01*
X104938485Y-49653286D02*
X105014676Y-49691381D01*
X105014676Y-49691381D02*
X105090866Y-49691381D01*
X105090866Y-49691381D02*
X105205152Y-49653286D01*
X105205152Y-49653286D02*
X105662295Y-49196143D01*
X105662295Y-49196143D02*
X105662295Y-49691381D01*
X104862295Y-50186620D02*
X104862295Y-50262810D01*
X104862295Y-50262810D02*
X104900390Y-50339001D01*
X104900390Y-50339001D02*
X104938485Y-50377096D01*
X104938485Y-50377096D02*
X105014676Y-50415191D01*
X105014676Y-50415191D02*
X105167057Y-50453286D01*
X105167057Y-50453286D02*
X105357533Y-50453286D01*
X105357533Y-50453286D02*
X105509914Y-50415191D01*
X105509914Y-50415191D02*
X105586104Y-50377096D01*
X105586104Y-50377096D02*
X105624200Y-50339001D01*
X105624200Y-50339001D02*
X105662295Y-50262810D01*
X105662295Y-50262810D02*
X105662295Y-50186620D01*
X105662295Y-50186620D02*
X105624200Y-50110429D01*
X105624200Y-50110429D02*
X105586104Y-50072334D01*
X105586104Y-50072334D02*
X105509914Y-50034239D01*
X105509914Y-50034239D02*
X105357533Y-49996143D01*
X105357533Y-49996143D02*
X105167057Y-49996143D01*
X105167057Y-49996143D02*
X105014676Y-50034239D01*
X105014676Y-50034239D02*
X104938485Y-50072334D01*
X104938485Y-50072334D02*
X104900390Y-50110429D01*
X104900390Y-50110429D02*
X104862295Y-50186620D01*
X94562295Y-48662810D02*
X94562295Y-48739000D01*
X94562295Y-48739000D02*
X94600390Y-48815191D01*
X94600390Y-48815191D02*
X94638485Y-48853286D01*
X94638485Y-48853286D02*
X94714676Y-48891381D01*
X94714676Y-48891381D02*
X94867057Y-48929476D01*
X94867057Y-48929476D02*
X95057533Y-48929476D01*
X95057533Y-48929476D02*
X95209914Y-48891381D01*
X95209914Y-48891381D02*
X95286104Y-48853286D01*
X95286104Y-48853286D02*
X95324200Y-48815191D01*
X95324200Y-48815191D02*
X95362295Y-48739000D01*
X95362295Y-48739000D02*
X95362295Y-48662810D01*
X95362295Y-48662810D02*
X95324200Y-48586619D01*
X95324200Y-48586619D02*
X95286104Y-48548524D01*
X95286104Y-48548524D02*
X95209914Y-48510429D01*
X95209914Y-48510429D02*
X95057533Y-48472333D01*
X95057533Y-48472333D02*
X94867057Y-48472333D01*
X94867057Y-48472333D02*
X94714676Y-48510429D01*
X94714676Y-48510429D02*
X94638485Y-48548524D01*
X94638485Y-48548524D02*
X94600390Y-48586619D01*
X94600390Y-48586619D02*
X94562295Y-48662810D01*
X94562295Y-49424715D02*
X94562295Y-49500905D01*
X94562295Y-49500905D02*
X94600390Y-49577096D01*
X94600390Y-49577096D02*
X94638485Y-49615191D01*
X94638485Y-49615191D02*
X94714676Y-49653286D01*
X94714676Y-49653286D02*
X94867057Y-49691381D01*
X94867057Y-49691381D02*
X95057533Y-49691381D01*
X95057533Y-49691381D02*
X95209914Y-49653286D01*
X95209914Y-49653286D02*
X95286104Y-49615191D01*
X95286104Y-49615191D02*
X95324200Y-49577096D01*
X95324200Y-49577096D02*
X95362295Y-49500905D01*
X95362295Y-49500905D02*
X95362295Y-49424715D01*
X95362295Y-49424715D02*
X95324200Y-49348524D01*
X95324200Y-49348524D02*
X95286104Y-49310429D01*
X95286104Y-49310429D02*
X95209914Y-49272334D01*
X95209914Y-49272334D02*
X95057533Y-49234238D01*
X95057533Y-49234238D02*
X94867057Y-49234238D01*
X94867057Y-49234238D02*
X94714676Y-49272334D01*
X94714676Y-49272334D02*
X94638485Y-49310429D01*
X94638485Y-49310429D02*
X94600390Y-49348524D01*
X94600390Y-49348524D02*
X94562295Y-49424715D01*
X94905152Y-50148524D02*
X94867057Y-50072334D01*
X94867057Y-50072334D02*
X94828961Y-50034239D01*
X94828961Y-50034239D02*
X94752771Y-49996143D01*
X94752771Y-49996143D02*
X94714676Y-49996143D01*
X94714676Y-49996143D02*
X94638485Y-50034239D01*
X94638485Y-50034239D02*
X94600390Y-50072334D01*
X94600390Y-50072334D02*
X94562295Y-50148524D01*
X94562295Y-50148524D02*
X94562295Y-50300905D01*
X94562295Y-50300905D02*
X94600390Y-50377096D01*
X94600390Y-50377096D02*
X94638485Y-50415191D01*
X94638485Y-50415191D02*
X94714676Y-50453286D01*
X94714676Y-50453286D02*
X94752771Y-50453286D01*
X94752771Y-50453286D02*
X94828961Y-50415191D01*
X94828961Y-50415191D02*
X94867057Y-50377096D01*
X94867057Y-50377096D02*
X94905152Y-50300905D01*
X94905152Y-50300905D02*
X94905152Y-50148524D01*
X94905152Y-50148524D02*
X94943247Y-50072334D01*
X94943247Y-50072334D02*
X94981342Y-50034239D01*
X94981342Y-50034239D02*
X95057533Y-49996143D01*
X95057533Y-49996143D02*
X95209914Y-49996143D01*
X95209914Y-49996143D02*
X95286104Y-50034239D01*
X95286104Y-50034239D02*
X95324200Y-50072334D01*
X95324200Y-50072334D02*
X95362295Y-50148524D01*
X95362295Y-50148524D02*
X95362295Y-50300905D01*
X95362295Y-50300905D02*
X95324200Y-50377096D01*
X95324200Y-50377096D02*
X95286104Y-50415191D01*
X95286104Y-50415191D02*
X95209914Y-50453286D01*
X95209914Y-50453286D02*
X95057533Y-50453286D01*
X95057533Y-50453286D02*
X94981342Y-50415191D01*
X94981342Y-50415191D02*
X94943247Y-50377096D01*
X94943247Y-50377096D02*
X94905152Y-50300905D01*
D11*
%TO.C,D4*%
X95540381Y-70560601D02*
X96247487Y-70419180D01*
X95823223Y-70843444D02*
X95469670Y-71196997D01*
X96106066Y-71126286D02*
X95540381Y-70560601D01*
X96247487Y-70419180D02*
X95858579Y-70030271D01*
X96247487Y-70419180D02*
X96106066Y-71126286D01*
X96247487Y-70419180D02*
X96636396Y-70808088D01*
X96530330Y-70136337D02*
X96247487Y-70419180D01*
%TO.C,D16*%
X151790381Y-80310601D02*
X152497487Y-80169180D01*
X152073223Y-80593444D02*
X151719670Y-80946997D01*
X152356066Y-80876286D02*
X151790381Y-80310601D01*
X152497487Y-80169180D02*
X152108579Y-79780271D01*
X152497487Y-80169180D02*
X152356066Y-80876286D01*
X152497487Y-80169180D02*
X152886396Y-80558088D01*
X152780330Y-79886337D02*
X152497487Y-80169180D01*
%TO.C,D7*%
X114290381Y-89310601D02*
X114997487Y-89169180D01*
X114573223Y-89593444D02*
X114219670Y-89946997D01*
X114856066Y-89876286D02*
X114290381Y-89310601D01*
X114997487Y-89169180D02*
X114608579Y-88780271D01*
X114997487Y-89169180D02*
X114856066Y-89876286D01*
X114997487Y-89169180D02*
X115386396Y-89558088D01*
X115280330Y-88886337D02*
X114997487Y-89169180D01*
%TO.C,D3*%
X95540381Y-89310601D02*
X96247487Y-89169180D01*
X95823223Y-89593444D02*
X95469670Y-89946997D01*
X96106066Y-89876286D02*
X95540381Y-89310601D01*
X96247487Y-89169180D02*
X95858579Y-88780271D01*
X96247487Y-89169180D02*
X96106066Y-89876286D01*
X96247487Y-89169180D02*
X96636396Y-89558088D01*
X96530330Y-88886337D02*
X96247487Y-89169180D01*
%TO.C,D10*%
X133040381Y-102060601D02*
X133747487Y-101919180D01*
X133323223Y-102343444D02*
X132969670Y-102696997D01*
X133606066Y-102626286D02*
X133040381Y-102060601D01*
X133747487Y-101919180D02*
X133358579Y-101530271D01*
X133747487Y-101919180D02*
X133606066Y-102626286D01*
X133747487Y-101919180D02*
X134136396Y-102308088D01*
X134030330Y-101636337D02*
X133747487Y-101919180D01*
%TO.C,D12*%
X133040381Y-64560601D02*
X133747487Y-64419180D01*
X133323223Y-64843444D02*
X132969670Y-65196997D01*
X133606066Y-65126286D02*
X133040381Y-64560601D01*
X133747487Y-64419180D02*
X133358579Y-64030271D01*
X133747487Y-64419180D02*
X133606066Y-65126286D01*
X133747487Y-64419180D02*
X134136396Y-64808088D01*
X134030330Y-64136337D02*
X133747487Y-64419180D01*
%TO.C,D9*%
X133040381Y-120810601D02*
X133747487Y-120669180D01*
X133323223Y-121093444D02*
X132969670Y-121446997D01*
X133606066Y-121376286D02*
X133040381Y-120810601D01*
X133747487Y-120669180D02*
X133358579Y-120280271D01*
X133747487Y-120669180D02*
X133606066Y-121376286D01*
X133747487Y-120669180D02*
X134136396Y-121058088D01*
X134030330Y-120386337D02*
X133747487Y-120669180D01*
%TO.C,D25*%
X189290381Y-89310601D02*
X189997487Y-89169180D01*
X189573223Y-89593444D02*
X189219670Y-89946997D01*
X189856066Y-89876286D02*
X189290381Y-89310601D01*
X189997487Y-89169180D02*
X189608579Y-88780271D01*
X189997487Y-89169180D02*
X189856066Y-89876286D01*
X189997487Y-89169180D02*
X190386396Y-89558088D01*
X190280330Y-88886337D02*
X189997487Y-89169180D01*
D12*
%TO.C,MCU1*%
X88720000Y-46110000D02*
X88720000Y-63890000D01*
X88720000Y-63890000D02*
X121740000Y-63890000D01*
X121740000Y-46110000D02*
X88720000Y-46110000D01*
X121740000Y-63890000D02*
X121740000Y-46110000D01*
D11*
%TO.C,D17*%
X151790381Y-61560601D02*
X152497487Y-61419180D01*
X152073223Y-61843444D02*
X151719670Y-62196997D01*
X152356066Y-62126286D02*
X151790381Y-61560601D01*
X152497487Y-61419180D02*
X152108579Y-61030271D01*
X152497487Y-61419180D02*
X152356066Y-62126286D01*
X152497487Y-61419180D02*
X152886396Y-61808088D01*
X152780330Y-61136337D02*
X152497487Y-61419180D01*
%TO.C,D29*%
X215397787Y-142946424D02*
X216058131Y-143236158D01*
X215467246Y-143340347D02*
X214974842Y-143427171D01*
X215536705Y-143734270D02*
X215397787Y-142946424D01*
X216058131Y-143236158D02*
X215536705Y-143734270D01*
X216058131Y-143236158D02*
X215962624Y-142694514D01*
X216058131Y-143236158D02*
X216153637Y-143777802D01*
X216452054Y-143166699D02*
X216058131Y-143236158D01*
%TO.C,D28*%
X208040381Y-89310601D02*
X208747487Y-89169180D01*
X208323223Y-89593444D02*
X207969670Y-89946997D01*
X208606066Y-89876286D02*
X208040381Y-89310601D01*
X208747487Y-89169180D02*
X208358579Y-88780271D01*
X208747487Y-89169180D02*
X208606066Y-89876286D01*
X208747487Y-89169180D02*
X209136396Y-89558088D01*
X209030330Y-88886337D02*
X208747487Y-89169180D01*
%TO.C,D6*%
X114290381Y-108060601D02*
X114997487Y-107919180D01*
X114573223Y-108343444D02*
X114219670Y-108696997D01*
X114856066Y-108626286D02*
X114290381Y-108060601D01*
X114997487Y-107919180D02*
X114608579Y-107530271D01*
X114997487Y-107919180D02*
X114856066Y-108626286D01*
X114997487Y-107919180D02*
X115386396Y-108308088D01*
X115280330Y-107636337D02*
X114997487Y-107919180D01*
%TO.C,D22*%
X170540381Y-64560601D02*
X171247487Y-64419180D01*
X170823223Y-64843444D02*
X170469670Y-65196997D01*
X171106066Y-65126286D02*
X170540381Y-64560601D01*
X171247487Y-64419180D02*
X170858579Y-64030271D01*
X171247487Y-64419180D02*
X171106066Y-65126286D01*
X171247487Y-64419180D02*
X171636396Y-64808088D01*
X171530330Y-64136337D02*
X171247487Y-64419180D01*
%TO.C,D1*%
X95540381Y-126810601D02*
X96247487Y-126669180D01*
X95823223Y-127093444D02*
X95469670Y-127446997D01*
X96106066Y-127376286D02*
X95540381Y-126810601D01*
X96247487Y-126669180D02*
X95858579Y-126280271D01*
X96247487Y-126669180D02*
X96106066Y-127376286D01*
X96247487Y-126669180D02*
X96636396Y-127058088D01*
X96530330Y-126386337D02*
X96247487Y-126669180D01*
%TO.C,D27*%
X208040381Y-108060601D02*
X208747487Y-107919180D01*
X208323223Y-108343444D02*
X207969670Y-108696997D01*
X208606066Y-108626286D02*
X208040381Y-108060601D01*
X208747487Y-107919180D02*
X208358579Y-107530271D01*
X208747487Y-107919180D02*
X208606066Y-108626286D01*
X208747487Y-107919180D02*
X209136396Y-108308088D01*
X209030330Y-107636337D02*
X208747487Y-107919180D01*
%TO.C,D21*%
X170540381Y-83310601D02*
X171247487Y-83169180D01*
X170823223Y-83593444D02*
X170469670Y-83946997D01*
X171106066Y-83876286D02*
X170540381Y-83310601D01*
X171247487Y-83169180D02*
X170858579Y-82780271D01*
X171247487Y-83169180D02*
X171106066Y-83876286D01*
X171247487Y-83169180D02*
X171636396Y-83558088D01*
X171530330Y-82886337D02*
X171247487Y-83169180D01*
%TO.C,D20*%
X170540381Y-102060601D02*
X171247487Y-101919180D01*
X170823223Y-102343444D02*
X170469670Y-102696997D01*
X171106066Y-102626286D02*
X170540381Y-102060601D01*
X171247487Y-101919180D02*
X170858579Y-101530271D01*
X171247487Y-101919180D02*
X171106066Y-102626286D01*
X171247487Y-101919180D02*
X171636396Y-102308088D01*
X171530330Y-101636337D02*
X171247487Y-101919180D01*
%TO.C,D26*%
X189290381Y-70560601D02*
X189997487Y-70419180D01*
X189573223Y-70843444D02*
X189219670Y-71196997D01*
X189856066Y-71126286D02*
X189290381Y-70560601D01*
X189997487Y-70419180D02*
X189608579Y-70030271D01*
X189997487Y-70419180D02*
X189856066Y-71126286D01*
X189997487Y-70419180D02*
X190386396Y-70808088D01*
X190280330Y-70136337D02*
X189997487Y-70419180D01*
%TO.C,D14*%
X151790381Y-117810601D02*
X152497487Y-117669180D01*
X152073223Y-118093444D02*
X151719670Y-118446997D01*
X152356066Y-118376286D02*
X151790381Y-117810601D01*
X152497487Y-117669180D02*
X152108579Y-117280271D01*
X152497487Y-117669180D02*
X152356066Y-118376286D01*
X152497487Y-117669180D02*
X152886396Y-118058088D01*
X152780330Y-117386337D02*
X152497487Y-117669180D01*
%TO.C,D24*%
X189290381Y-108060601D02*
X189997487Y-107919180D01*
X189573223Y-108343444D02*
X189219670Y-108696997D01*
X189856066Y-108626286D02*
X189290381Y-108060601D01*
X189997487Y-107919180D02*
X189608579Y-107530271D01*
X189997487Y-107919180D02*
X189856066Y-108626286D01*
X189997487Y-107919180D02*
X190386396Y-108308088D01*
X190280330Y-107636337D02*
X189997487Y-107919180D01*
D10*
%TO.C,JST1*%
X153300000Y-46150000D02*
X153300000Y-53750000D01*
X153300000Y-53750000D02*
X159200000Y-53750000D01*
X154000000Y-46150000D02*
X153300000Y-46150000D01*
X154000000Y-47750000D02*
X154000000Y-46150000D01*
X155000000Y-49250000D02*
X155500000Y-49250000D01*
X155250000Y-49000000D02*
X155250000Y-49500000D01*
X158500000Y-46150000D02*
X158500000Y-47750000D01*
X158500000Y-47750000D02*
X154000000Y-47750000D01*
X159200000Y-46150000D02*
X158500000Y-46150000D01*
X159200000Y-53750000D02*
X159200000Y-46150000D01*
D11*
%TO.C,D18*%
X170540381Y-139560601D02*
X171247487Y-139419180D01*
X170823223Y-139843444D02*
X170469670Y-140196997D01*
X171106066Y-140126286D02*
X170540381Y-139560601D01*
X171247487Y-139419180D02*
X170858579Y-139030271D01*
X171247487Y-139419180D02*
X171106066Y-140126286D01*
X171247487Y-139419180D02*
X171636396Y-139808088D01*
X171530330Y-139136337D02*
X171247487Y-139419180D01*
%TO.C,D8*%
X114290381Y-70560601D02*
X114997487Y-70419180D01*
X114573223Y-70843444D02*
X114219670Y-71196997D01*
X114856066Y-71126286D02*
X114290381Y-70560601D01*
X114997487Y-70419180D02*
X114608579Y-70030271D01*
X114997487Y-70419180D02*
X114856066Y-71126286D01*
X114997487Y-70419180D02*
X115386396Y-70808088D01*
X115280330Y-70136337D02*
X114997487Y-70419180D01*
%TO.C,D31*%
X236205864Y-145919037D02*
X236866208Y-146208771D01*
X236275323Y-146312960D02*
X235782919Y-146399784D01*
X236344782Y-146706883D02*
X236205864Y-145919037D01*
X236866208Y-146208771D02*
X236344782Y-146706883D01*
X236866208Y-146208771D02*
X236770701Y-145667127D01*
X236866208Y-146208771D02*
X236961714Y-146750415D01*
X237260131Y-146139312D02*
X236866208Y-146208771D01*
%TO.C,D5*%
X114290381Y-126810601D02*
X114997487Y-126669180D01*
X114573223Y-127093444D02*
X114219670Y-127446997D01*
X114856066Y-127376286D02*
X114290381Y-126810601D01*
X114997487Y-126669180D02*
X114608579Y-126280271D01*
X114997487Y-126669180D02*
X114856066Y-127376286D01*
X114997487Y-126669180D02*
X115386396Y-127058088D01*
X115280330Y-126386337D02*
X114997487Y-126669180D01*
%TO.C,D11*%
X133040381Y-83310601D02*
X133747487Y-83169180D01*
X133323223Y-83593444D02*
X132969670Y-83946997D01*
X133606066Y-83876286D02*
X133040381Y-83310601D01*
X133747487Y-83169180D02*
X133358579Y-82780271D01*
X133747487Y-83169180D02*
X133606066Y-83876286D01*
X133747487Y-83169180D02*
X134136396Y-83558088D01*
X134030330Y-82886337D02*
X133747487Y-83169180D01*
%TO.C,D23*%
X189290381Y-126810601D02*
X189997487Y-126669180D01*
X189573223Y-127093444D02*
X189219670Y-127446997D01*
X189856066Y-127376286D02*
X189290381Y-126810601D01*
X189997487Y-126669180D02*
X189608579Y-126280271D01*
X189997487Y-126669180D02*
X189856066Y-127376286D01*
X189997487Y-126669180D02*
X190386396Y-127058088D01*
X190280330Y-126386337D02*
X189997487Y-126669180D01*
%TO.C,D13*%
X151790381Y-136560601D02*
X152497487Y-136419180D01*
X152073223Y-136843444D02*
X151719670Y-137196997D01*
X152356066Y-137126286D02*
X151790381Y-136560601D01*
X152497487Y-136419180D02*
X152108579Y-136030271D01*
X152497487Y-136419180D02*
X152356066Y-137126286D01*
X152497487Y-136419180D02*
X152886396Y-136808088D01*
X152780330Y-136136337D02*
X152497487Y-136419180D01*
%TO.C,D19*%
X170540381Y-120810601D02*
X171247487Y-120669180D01*
X170823223Y-121093444D02*
X170469670Y-121446997D01*
X171106066Y-121376286D02*
X170540381Y-120810601D01*
X171247487Y-120669180D02*
X170858579Y-120280271D01*
X171247487Y-120669180D02*
X171106066Y-121376286D01*
X171247487Y-120669180D02*
X171636396Y-121058088D01*
X171530330Y-120386337D02*
X171247487Y-120669180D01*
%TO.C,D15*%
X151790381Y-99060601D02*
X152497487Y-98919180D01*
X152073223Y-99343444D02*
X151719670Y-99696997D01*
X152356066Y-99626286D02*
X151790381Y-99060601D01*
X152497487Y-98919180D02*
X152108579Y-98530271D01*
X152497487Y-98919180D02*
X152356066Y-99626286D01*
X152497487Y-98919180D02*
X152886396Y-99308088D01*
X152780330Y-98636337D02*
X152497487Y-98919180D01*
%TO.C,D2*%
X95540381Y-108060601D02*
X96247487Y-107919180D01*
X95823223Y-108343444D02*
X95469670Y-108696997D01*
X96106066Y-108626286D02*
X95540381Y-108060601D01*
X96247487Y-107919180D02*
X95858579Y-107530271D01*
X96247487Y-107919180D02*
X96106066Y-108626286D01*
X96247487Y-107919180D02*
X96636396Y-108308088D01*
X96530330Y-107636337D02*
X96247487Y-107919180D01*
%TO.C,D30*%
X225451306Y-161278138D02*
X226111650Y-161567872D01*
X225520765Y-161672061D02*
X225028361Y-161758885D01*
X225590224Y-162065984D02*
X225451306Y-161278138D01*
X226111650Y-161567872D02*
X225590224Y-162065984D01*
X226111650Y-161567872D02*
X226016143Y-161026228D01*
X226111650Y-161567872D02*
X226207156Y-162109516D01*
X226505573Y-161498413D02*
X226111650Y-161567872D01*
D10*
%TO.C,S17*%
X149250000Y-67500000D02*
X153750000Y-67500000D01*
X149250000Y-68000000D02*
X149250000Y-67500000D01*
X149250000Y-72200000D02*
X149250000Y-71600000D01*
X153730000Y-72200000D02*
X149250000Y-72200000D01*
X153750000Y-67500000D02*
X153750000Y-68200000D01*
X154250000Y-73700000D02*
X154250000Y-72780000D01*
X154250000Y-73700000D02*
X154750000Y-74200000D01*
X154750000Y-74200000D02*
X157750000Y-74200000D01*
X155450000Y-69700000D02*
X157750000Y-69700000D01*
X157750000Y-69700000D02*
X158250000Y-70200000D01*
X157750000Y-74200000D02*
X158250000Y-73700000D01*
X153730000Y-72200000D02*
G75*
G02*
X154250000Y-72780000I-30000J-550000D01*
G01*
X155450000Y-69700000D02*
G75*
G02*
X153750000Y-68220000I-110000J1590000D01*
G01*
%TO.C,S11*%
X130500000Y-89250000D02*
X135000000Y-89250000D01*
X130500000Y-89750000D02*
X130500000Y-89250000D01*
X130500000Y-93950000D02*
X130500000Y-93350000D01*
X134980000Y-93950000D02*
X130500000Y-93950000D01*
X135000000Y-89250000D02*
X135000000Y-89950000D01*
X135500000Y-95450000D02*
X135500000Y-94530000D01*
X135500000Y-95450000D02*
X136000000Y-95950000D01*
X136000000Y-95950000D02*
X139000000Y-95950000D01*
X136700000Y-91450000D02*
X139000000Y-91450000D01*
X139000000Y-91450000D02*
X139500000Y-91950000D01*
X139000000Y-95950000D02*
X139500000Y-95450000D01*
X134980000Y-93950000D02*
G75*
G02*
X135500000Y-94530000I-30000J-550000D01*
G01*
X136700000Y-91450000D02*
G75*
G02*
X135000000Y-89970000I-110000J1590000D01*
G01*
%TO.C,S15*%
X149250000Y-105000000D02*
X153750000Y-105000000D01*
X149250000Y-105500000D02*
X149250000Y-105000000D01*
X149250000Y-109700000D02*
X149250000Y-109100000D01*
X153730000Y-109700000D02*
X149250000Y-109700000D01*
X153750000Y-105000000D02*
X153750000Y-105700000D01*
X154250000Y-111200000D02*
X154250000Y-110280000D01*
X154250000Y-111200000D02*
X154750000Y-111700000D01*
X154750000Y-111700000D02*
X157750000Y-111700000D01*
X155450000Y-107200000D02*
X157750000Y-107200000D01*
X157750000Y-107200000D02*
X158250000Y-107700000D01*
X157750000Y-111700000D02*
X158250000Y-111200000D01*
X153730000Y-109700000D02*
G75*
G02*
X154250000Y-110280000I-30000J-550000D01*
G01*
X155450000Y-107200000D02*
G75*
G02*
X153750000Y-105720000I-110000J1590000D01*
G01*
%TO.C,S12*%
X130500000Y-70500000D02*
X135000000Y-70500000D01*
X130500000Y-71000000D02*
X130500000Y-70500000D01*
X130500000Y-75200000D02*
X130500000Y-74600000D01*
X134980000Y-75200000D02*
X130500000Y-75200000D01*
X135000000Y-70500000D02*
X135000000Y-71200000D01*
X135500000Y-76700000D02*
X135500000Y-75780000D01*
X135500000Y-76700000D02*
X136000000Y-77200000D01*
X136000000Y-77200000D02*
X139000000Y-77200000D01*
X136700000Y-72700000D02*
X139000000Y-72700000D01*
X139000000Y-72700000D02*
X139500000Y-73200000D01*
X139000000Y-77200000D02*
X139500000Y-76700000D01*
X134980000Y-75200000D02*
G75*
G02*
X135500000Y-75780000I-30000J-550000D01*
G01*
X136700000Y-72700000D02*
G75*
G02*
X135000000Y-71220000I-110000J1590000D01*
G01*
%TO.C,S24*%
X186750000Y-114000000D02*
X191250000Y-114000000D01*
X186750000Y-114500000D02*
X186750000Y-114000000D01*
X186750000Y-118700000D02*
X186750000Y-118100000D01*
X191230000Y-118700000D02*
X186750000Y-118700000D01*
X191250000Y-114000000D02*
X191250000Y-114700000D01*
X191750000Y-120200000D02*
X191750000Y-119280000D01*
X191750000Y-120200000D02*
X192250000Y-120700000D01*
X192250000Y-120700000D02*
X195250000Y-120700000D01*
X192950000Y-116200000D02*
X195250000Y-116200000D01*
X195250000Y-116200000D02*
X195750000Y-116700000D01*
X195250000Y-120700000D02*
X195750000Y-120200000D01*
X191230000Y-118700000D02*
G75*
G02*
X191750000Y-119280000I-30000J-550000D01*
G01*
X192950000Y-116200000D02*
G75*
G02*
X191250000Y-114720000I-110000J1590000D01*
G01*
%TO.C,S6*%
X111750000Y-114000000D02*
X116250000Y-114000000D01*
X111750000Y-114500000D02*
X111750000Y-114000000D01*
X111750000Y-118700000D02*
X111750000Y-118100000D01*
X116230000Y-118700000D02*
X111750000Y-118700000D01*
X116250000Y-114000000D02*
X116250000Y-114700000D01*
X116750000Y-120200000D02*
X116750000Y-119280000D01*
X116750000Y-120200000D02*
X117250000Y-120700000D01*
X117250000Y-120700000D02*
X120250000Y-120700000D01*
X117950000Y-116200000D02*
X120250000Y-116200000D01*
X120250000Y-116200000D02*
X120750000Y-116700000D01*
X120250000Y-120700000D02*
X120750000Y-120200000D01*
X116230000Y-118700000D02*
G75*
G02*
X116750000Y-119280000I-30000J-550000D01*
G01*
X117950000Y-116200000D02*
G75*
G02*
X116250000Y-114720000I-110000J1590000D01*
G01*
%TO.C,S9*%
X130500000Y-126750000D02*
X135000000Y-126750000D01*
X130500000Y-127250000D02*
X130500000Y-126750000D01*
X130500000Y-131450000D02*
X130500000Y-130850000D01*
X134980000Y-131450000D02*
X130500000Y-131450000D01*
X135000000Y-126750000D02*
X135000000Y-127450000D01*
X135500000Y-132950000D02*
X135500000Y-132030000D01*
X135500000Y-132950000D02*
X136000000Y-133450000D01*
X136000000Y-133450000D02*
X139000000Y-133450000D01*
X136700000Y-128950000D02*
X139000000Y-128950000D01*
X139000000Y-128950000D02*
X139500000Y-129450000D01*
X139000000Y-133450000D02*
X139500000Y-132950000D01*
X134980000Y-131450000D02*
G75*
G02*
X135500000Y-132030000I-30000J-550000D01*
G01*
X136700000Y-128950000D02*
G75*
G02*
X135000000Y-127470000I-110000J1590000D01*
G01*
%TO.C,S31*%
X228022397Y-153177221D02*
X228366543Y-152685729D01*
X230431418Y-149736782D02*
X230718206Y-149327206D01*
X230718206Y-149327206D02*
X234404390Y-151908300D01*
X231257792Y-157273831D02*
X231380580Y-157970195D01*
X231257792Y-157273831D02*
X231785483Y-156520211D01*
X231380580Y-157970195D02*
X233838036Y-159690924D01*
X231692198Y-155746843D02*
X228022397Y-153177221D01*
X233838036Y-159690924D02*
X234534401Y-159568137D01*
X234404390Y-151908300D02*
X234002887Y-152481706D01*
X234535081Y-154685514D02*
X236419130Y-156004740D01*
X236419130Y-156004740D02*
X236541918Y-156701104D01*
X231692198Y-155746843D02*
G75*
G02*
X231785482Y-156520211I-340042J-433326D01*
G01*
X234535081Y-154685514D02*
G75*
G02*
X233991416Y-152498090I821877J1365544D01*
G01*
%TO.C,S3*%
X93000000Y-95250000D02*
X97500000Y-95250000D01*
X93000000Y-95750000D02*
X93000000Y-95250000D01*
X93000000Y-99950000D02*
X93000000Y-99350000D01*
X97480000Y-99950000D02*
X93000000Y-99950000D01*
X97500000Y-95250000D02*
X97500000Y-95950000D01*
X98000000Y-101450000D02*
X98000000Y-100530000D01*
X98000000Y-101450000D02*
X98500000Y-101950000D01*
X98500000Y-101950000D02*
X101500000Y-101950000D01*
X99200000Y-97450000D02*
X101500000Y-97450000D01*
X101500000Y-97450000D02*
X102000000Y-97950000D01*
X101500000Y-101950000D02*
X102000000Y-101450000D01*
X97480000Y-99950000D02*
G75*
G02*
X98000000Y-100530000I-30000J-550000D01*
G01*
X99200000Y-97450000D02*
G75*
G02*
X97500000Y-95970000I-110000J1590000D01*
G01*
%TO.C,S26*%
X186750000Y-76500000D02*
X191250000Y-76500000D01*
X186750000Y-77000000D02*
X186750000Y-76500000D01*
X186750000Y-81200000D02*
X186750000Y-80600000D01*
X191230000Y-81200000D02*
X186750000Y-81200000D01*
X191250000Y-76500000D02*
X191250000Y-77200000D01*
X191750000Y-82700000D02*
X191750000Y-81780000D01*
X191750000Y-82700000D02*
X192250000Y-83200000D01*
X192250000Y-83200000D02*
X195250000Y-83200000D01*
X192950000Y-78700000D02*
X195250000Y-78700000D01*
X195250000Y-78700000D02*
X195750000Y-79200000D01*
X195250000Y-83200000D02*
X195750000Y-82700000D01*
X191230000Y-81200000D02*
G75*
G02*
X191750000Y-81780000I-30000J-550000D01*
G01*
X192950000Y-78700000D02*
G75*
G02*
X191250000Y-77220000I-110000J1590000D01*
G01*
%TO.C,S29*%
X207214320Y-150204607D02*
X207558466Y-149713115D01*
X209623341Y-146764168D02*
X209910129Y-146354592D01*
X209910129Y-146354592D02*
X213596313Y-148935686D01*
X210449715Y-154301217D02*
X210572503Y-154997581D01*
X210449715Y-154301217D02*
X210977406Y-153547597D01*
X210572503Y-154997581D02*
X213029959Y-156718310D01*
X210884121Y-152774229D02*
X207214320Y-150204607D01*
X213029959Y-156718310D02*
X213726324Y-156595523D01*
X213596313Y-148935686D02*
X213194810Y-149509092D01*
X213727004Y-151712900D02*
X215611053Y-153032126D01*
X215611053Y-153032126D02*
X215733841Y-153728490D01*
X210884121Y-152774229D02*
G75*
G02*
X210977405Y-153547597I-340042J-433326D01*
G01*
X213727004Y-151712900D02*
G75*
G02*
X213183339Y-149525476I821877J1365544D01*
G01*
%TO.C,S13*%
X149250000Y-142500000D02*
X153750000Y-142500000D01*
X149250000Y-143000000D02*
X149250000Y-142500000D01*
X149250000Y-147200000D02*
X149250000Y-146600000D01*
X153730000Y-147200000D02*
X149250000Y-147200000D01*
X153750000Y-142500000D02*
X153750000Y-143200000D01*
X154250000Y-148700000D02*
X154250000Y-147780000D01*
X154250000Y-148700000D02*
X154750000Y-149200000D01*
X154750000Y-149200000D02*
X157750000Y-149200000D01*
X155450000Y-144700000D02*
X157750000Y-144700000D01*
X157750000Y-144700000D02*
X158250000Y-145200000D01*
X157750000Y-149200000D02*
X158250000Y-148700000D01*
X153730000Y-147200000D02*
G75*
G02*
X154250000Y-147780000I-30000J-550000D01*
G01*
X155450000Y-144700000D02*
G75*
G02*
X153750000Y-143220000I-110000J1590000D01*
G01*
%TO.C,S1*%
X93000000Y-132750000D02*
X97500000Y-132750000D01*
X93000000Y-133250000D02*
X93000000Y-132750000D01*
X93000000Y-137450000D02*
X93000000Y-136850000D01*
X97480000Y-137450000D02*
X93000000Y-137450000D01*
X97500000Y-132750000D02*
X97500000Y-133450000D01*
X98000000Y-138950000D02*
X98000000Y-138030000D01*
X98000000Y-138950000D02*
X98500000Y-139450000D01*
X98500000Y-139450000D02*
X101500000Y-139450000D01*
X99200000Y-134950000D02*
X101500000Y-134950000D01*
X101500000Y-134950000D02*
X102000000Y-135450000D01*
X101500000Y-139450000D02*
X102000000Y-138950000D01*
X97480000Y-137450000D02*
G75*
G02*
X98000000Y-138030000I-30000J-550000D01*
G01*
X99200000Y-134950000D02*
G75*
G02*
X97500000Y-133470000I-110000J1590000D01*
G01*
%TO.C,S7*%
X111750000Y-95250000D02*
X116250000Y-95250000D01*
X111750000Y-95750000D02*
X111750000Y-95250000D01*
X111750000Y-99950000D02*
X111750000Y-99350000D01*
X116230000Y-99950000D02*
X111750000Y-99950000D01*
X116250000Y-95250000D02*
X116250000Y-95950000D01*
X116750000Y-101450000D02*
X116750000Y-100530000D01*
X116750000Y-101450000D02*
X117250000Y-101950000D01*
X117250000Y-101950000D02*
X120250000Y-101950000D01*
X117950000Y-97450000D02*
X120250000Y-97450000D01*
X120250000Y-97450000D02*
X120750000Y-97950000D01*
X120250000Y-101950000D02*
X120750000Y-101450000D01*
X116230000Y-99950000D02*
G75*
G02*
X116750000Y-100530000I-30000J-550000D01*
G01*
X117950000Y-97450000D02*
G75*
G02*
X116250000Y-95970000I-110000J1590000D01*
G01*
%TO.C,S28*%
X205500000Y-95250000D02*
X210000000Y-95250000D01*
X205500000Y-95750000D02*
X205500000Y-95250000D01*
X205500000Y-99950000D02*
X205500000Y-99350000D01*
X209980000Y-99950000D02*
X205500000Y-99950000D01*
X210000000Y-95250000D02*
X210000000Y-95950000D01*
X210500000Y-101450000D02*
X210500000Y-100530000D01*
X210500000Y-101450000D02*
X211000000Y-101950000D01*
X211000000Y-101950000D02*
X214000000Y-101950000D01*
X211700000Y-97450000D02*
X214000000Y-97450000D01*
X214000000Y-97450000D02*
X214500000Y-97950000D01*
X214000000Y-101950000D02*
X214500000Y-101450000D01*
X209980000Y-99950000D02*
G75*
G02*
X210500000Y-100530000I-30000J-550000D01*
G01*
X211700000Y-97450000D02*
G75*
G02*
X210000000Y-95970000I-110000J1590000D01*
G01*
%TO.C,S18*%
X168000000Y-145500000D02*
X172500000Y-145500000D01*
X168000000Y-146000000D02*
X168000000Y-145500000D01*
X168000000Y-150200000D02*
X168000000Y-149600000D01*
X172480000Y-150200000D02*
X168000000Y-150200000D01*
X172500000Y-145500000D02*
X172500000Y-146200000D01*
X173000000Y-151700000D02*
X173000000Y-150780000D01*
X173000000Y-151700000D02*
X173500000Y-152200000D01*
X173500000Y-152200000D02*
X176500000Y-152200000D01*
X174200000Y-147700000D02*
X176500000Y-147700000D01*
X176500000Y-147700000D02*
X177000000Y-148200000D01*
X176500000Y-152200000D02*
X177000000Y-151700000D01*
X172480000Y-150200000D02*
G75*
G02*
X173000000Y-150780000I-30000J-550000D01*
G01*
X174200000Y-147700000D02*
G75*
G02*
X172500000Y-146220000I-110000J1590000D01*
G01*
%TO.C,S16*%
X149250000Y-86250000D02*
X153750000Y-86250000D01*
X149250000Y-86750000D02*
X149250000Y-86250000D01*
X149250000Y-90950000D02*
X149250000Y-90350000D01*
X153730000Y-90950000D02*
X149250000Y-90950000D01*
X153750000Y-86250000D02*
X153750000Y-86950000D01*
X154250000Y-92450000D02*
X154250000Y-91530000D01*
X154250000Y-92450000D02*
X154750000Y-92950000D01*
X154750000Y-92950000D02*
X157750000Y-92950000D01*
X155450000Y-88450000D02*
X157750000Y-88450000D01*
X157750000Y-88450000D02*
X158250000Y-88950000D01*
X157750000Y-92950000D02*
X158250000Y-92450000D01*
X153730000Y-90950000D02*
G75*
G02*
X154250000Y-91530000I-30000J-550000D01*
G01*
X155450000Y-88450000D02*
G75*
G02*
X153750000Y-86970000I-110000J1590000D01*
G01*
%TO.C,S8*%
X111750000Y-76500000D02*
X116250000Y-76500000D01*
X111750000Y-77000000D02*
X111750000Y-76500000D01*
X111750000Y-81200000D02*
X111750000Y-80600000D01*
X116230000Y-81200000D02*
X111750000Y-81200000D01*
X116250000Y-76500000D02*
X116250000Y-77200000D01*
X116750000Y-82700000D02*
X116750000Y-81780000D01*
X116750000Y-82700000D02*
X117250000Y-83200000D01*
X117250000Y-83200000D02*
X120250000Y-83200000D01*
X117950000Y-78700000D02*
X120250000Y-78700000D01*
X120250000Y-78700000D02*
X120750000Y-79200000D01*
X120250000Y-83200000D02*
X120750000Y-82700000D01*
X116230000Y-81200000D02*
G75*
G02*
X116750000Y-81780000I-30000J-550000D01*
G01*
X117950000Y-78700000D02*
G75*
G02*
X116250000Y-77220000I-110000J1590000D01*
G01*
%TO.C,S27*%
X205500000Y-114000000D02*
X210000000Y-114000000D01*
X205500000Y-114500000D02*
X205500000Y-114000000D01*
X205500000Y-118700000D02*
X205500000Y-118100000D01*
X209980000Y-118700000D02*
X205500000Y-118700000D01*
X210000000Y-114000000D02*
X210000000Y-114700000D01*
X210500000Y-120200000D02*
X210500000Y-119280000D01*
X210500000Y-120200000D02*
X211000000Y-120700000D01*
X211000000Y-120700000D02*
X214000000Y-120700000D01*
X211700000Y-116200000D02*
X214000000Y-116200000D01*
X214000000Y-116200000D02*
X214500000Y-116700000D01*
X214000000Y-120700000D02*
X214500000Y-120200000D01*
X209980000Y-118700000D02*
G75*
G02*
X210500000Y-119280000I-30000J-550000D01*
G01*
X211700000Y-116200000D02*
G75*
G02*
X210000000Y-114720000I-110000J1590000D01*
G01*
%TO.C,S21*%
X168000000Y-89250000D02*
X172500000Y-89250000D01*
X168000000Y-89750000D02*
X168000000Y-89250000D01*
X168000000Y-93950000D02*
X168000000Y-93350000D01*
X172480000Y-93950000D02*
X168000000Y-93950000D01*
X172500000Y-89250000D02*
X172500000Y-89950000D01*
X173000000Y-95450000D02*
X173000000Y-94530000D01*
X173000000Y-95450000D02*
X173500000Y-95950000D01*
X173500000Y-95950000D02*
X176500000Y-95950000D01*
X174200000Y-91450000D02*
X176500000Y-91450000D01*
X176500000Y-91450000D02*
X177000000Y-91950000D01*
X176500000Y-95950000D02*
X177000000Y-95450000D01*
X172480000Y-93950000D02*
G75*
G02*
X173000000Y-94530000I-30000J-550000D01*
G01*
X174200000Y-91450000D02*
G75*
G02*
X172500000Y-89970000I-110000J1590000D01*
G01*
%TO.C,S4*%
X93000000Y-76500000D02*
X97500000Y-76500000D01*
X93000000Y-77000000D02*
X93000000Y-76500000D01*
X93000000Y-81200000D02*
X93000000Y-80600000D01*
X97480000Y-81200000D02*
X93000000Y-81200000D01*
X97500000Y-76500000D02*
X97500000Y-77200000D01*
X98000000Y-82700000D02*
X98000000Y-81780000D01*
X98000000Y-82700000D02*
X98500000Y-83200000D01*
X98500000Y-83200000D02*
X101500000Y-83200000D01*
X99200000Y-78700000D02*
X101500000Y-78700000D01*
X101500000Y-78700000D02*
X102000000Y-79200000D01*
X101500000Y-83200000D02*
X102000000Y-82700000D01*
X97480000Y-81200000D02*
G75*
G02*
X98000000Y-81780000I-30000J-550000D01*
G01*
X99200000Y-78700000D02*
G75*
G02*
X97500000Y-77220000I-110000J1590000D01*
G01*
%TO.C,S25*%
X186750000Y-95250000D02*
X191250000Y-95250000D01*
X186750000Y-95750000D02*
X186750000Y-95250000D01*
X186750000Y-99950000D02*
X186750000Y-99350000D01*
X191230000Y-99950000D02*
X186750000Y-99950000D01*
X191250000Y-95250000D02*
X191250000Y-95950000D01*
X191750000Y-101450000D02*
X191750000Y-100530000D01*
X191750000Y-101450000D02*
X192250000Y-101950000D01*
X192250000Y-101950000D02*
X195250000Y-101950000D01*
X192950000Y-97450000D02*
X195250000Y-97450000D01*
X195250000Y-97450000D02*
X195750000Y-97950000D01*
X195250000Y-101950000D02*
X195750000Y-101450000D01*
X191230000Y-99950000D02*
G75*
G02*
X191750000Y-100530000I-30000J-550000D01*
G01*
X192950000Y-97450000D02*
G75*
G02*
X191250000Y-95970000I-110000J1590000D01*
G01*
%TO.C,S5*%
X111750000Y-132750000D02*
X116250000Y-132750000D01*
X111750000Y-133250000D02*
X111750000Y-132750000D01*
X111750000Y-137450000D02*
X111750000Y-136850000D01*
X116230000Y-137450000D02*
X111750000Y-137450000D01*
X116250000Y-132750000D02*
X116250000Y-133450000D01*
X116750000Y-138950000D02*
X116750000Y-138030000D01*
X116750000Y-138950000D02*
X117250000Y-139450000D01*
X117250000Y-139450000D02*
X120250000Y-139450000D01*
X117950000Y-134950000D02*
X120250000Y-134950000D01*
X120250000Y-134950000D02*
X120750000Y-135450000D01*
X120250000Y-139450000D02*
X120750000Y-138950000D01*
X116230000Y-137450000D02*
G75*
G02*
X116750000Y-138030000I-30000J-550000D01*
G01*
X117950000Y-134950000D02*
G75*
G02*
X116250000Y-133470000I-110000J1590000D01*
G01*
%TO.C,S30*%
X217267839Y-168536322D02*
X217611985Y-168044830D01*
X219676860Y-165095883D02*
X219963648Y-164686307D01*
X219963648Y-164686307D02*
X223649832Y-167267401D01*
X220503234Y-172632932D02*
X220626022Y-173329296D01*
X220503234Y-172632932D02*
X221030925Y-171879312D01*
X220626022Y-173329296D02*
X223083478Y-175050025D01*
X220937640Y-171105944D02*
X217267839Y-168536322D01*
X223083478Y-175050025D02*
X223779843Y-174927238D01*
X223649832Y-167267401D02*
X223248329Y-167840807D01*
X223780523Y-170044615D02*
X225664572Y-171363841D01*
X225664572Y-171363841D02*
X225787360Y-172060205D01*
X220937640Y-171105944D02*
G75*
G02*
X221030924Y-171879312I-340042J-433326D01*
G01*
X223780523Y-170044615D02*
G75*
G02*
X223236858Y-167857191I821877J1365544D01*
G01*
%TO.C,S14*%
X149250000Y-123750000D02*
X153750000Y-123750000D01*
X149250000Y-124250000D02*
X149250000Y-123750000D01*
X149250000Y-128450000D02*
X149250000Y-127850000D01*
X153730000Y-128450000D02*
X149250000Y-128450000D01*
X153750000Y-123750000D02*
X153750000Y-124450000D01*
X154250000Y-129950000D02*
X154250000Y-129030000D01*
X154250000Y-129950000D02*
X154750000Y-130450000D01*
X154750000Y-130450000D02*
X157750000Y-130450000D01*
X155450000Y-125950000D02*
X157750000Y-125950000D01*
X157750000Y-125950000D02*
X158250000Y-126450000D01*
X157750000Y-130450000D02*
X158250000Y-129950000D01*
X153730000Y-128450000D02*
G75*
G02*
X154250000Y-129030000I-30000J-550000D01*
G01*
X155450000Y-125950000D02*
G75*
G02*
X153750000Y-124470000I-110000J1590000D01*
G01*
%TO.C,S23*%
X186750000Y-132750000D02*
X191250000Y-132750000D01*
X186750000Y-133250000D02*
X186750000Y-132750000D01*
X186750000Y-137450000D02*
X186750000Y-136850000D01*
X191230000Y-137450000D02*
X186750000Y-137450000D01*
X191250000Y-132750000D02*
X191250000Y-133450000D01*
X191750000Y-138950000D02*
X191750000Y-138030000D01*
X191750000Y-138950000D02*
X192250000Y-139450000D01*
X192250000Y-139450000D02*
X195250000Y-139450000D01*
X192950000Y-134950000D02*
X195250000Y-134950000D01*
X195250000Y-134950000D02*
X195750000Y-135450000D01*
X195250000Y-139450000D02*
X195750000Y-138950000D01*
X191230000Y-137450000D02*
G75*
G02*
X191750000Y-138030000I-30000J-550000D01*
G01*
X192950000Y-134950000D02*
G75*
G02*
X191250000Y-133470000I-110000J1590000D01*
G01*
%TO.C,S22*%
X168000000Y-70500000D02*
X172500000Y-70500000D01*
X168000000Y-71000000D02*
X168000000Y-70500000D01*
X168000000Y-75200000D02*
X168000000Y-74600000D01*
X172480000Y-75200000D02*
X168000000Y-75200000D01*
X172500000Y-70500000D02*
X172500000Y-71200000D01*
X173000000Y-76700000D02*
X173000000Y-75780000D01*
X173000000Y-76700000D02*
X173500000Y-77200000D01*
X173500000Y-77200000D02*
X176500000Y-77200000D01*
X174200000Y-72700000D02*
X176500000Y-72700000D01*
X176500000Y-72700000D02*
X177000000Y-73200000D01*
X176500000Y-77200000D02*
X177000000Y-76700000D01*
X172480000Y-75200000D02*
G75*
G02*
X173000000Y-75780000I-30000J-550000D01*
G01*
X174200000Y-72700000D02*
G75*
G02*
X172500000Y-71220000I-110000J1590000D01*
G01*
%TO.C,S20*%
X168000000Y-108000000D02*
X172500000Y-108000000D01*
X168000000Y-108500000D02*
X168000000Y-108000000D01*
X168000000Y-112700000D02*
X168000000Y-112100000D01*
X172480000Y-112700000D02*
X168000000Y-112700000D01*
X172500000Y-108000000D02*
X172500000Y-108700000D01*
X173000000Y-114200000D02*
X173000000Y-113280000D01*
X173000000Y-114200000D02*
X173500000Y-114700000D01*
X173500000Y-114700000D02*
X176500000Y-114700000D01*
X174200000Y-110200000D02*
X176500000Y-110200000D01*
X176500000Y-110200000D02*
X177000000Y-110700000D01*
X176500000Y-114700000D02*
X177000000Y-114200000D01*
X172480000Y-112700000D02*
G75*
G02*
X173000000Y-113280000I-30000J-550000D01*
G01*
X174200000Y-110200000D02*
G75*
G02*
X172500000Y-108720000I-110000J1590000D01*
G01*
%TO.C,S10*%
X130500000Y-108000000D02*
X135000000Y-108000000D01*
X130500000Y-108500000D02*
X130500000Y-108000000D01*
X130500000Y-112700000D02*
X130500000Y-112100000D01*
X134980000Y-112700000D02*
X130500000Y-112700000D01*
X135000000Y-108000000D02*
X135000000Y-108700000D01*
X135500000Y-114200000D02*
X135500000Y-113280000D01*
X135500000Y-114200000D02*
X136000000Y-114700000D01*
X136000000Y-114700000D02*
X139000000Y-114700000D01*
X136700000Y-110200000D02*
X139000000Y-110200000D01*
X139000000Y-110200000D02*
X139500000Y-110700000D01*
X139000000Y-114700000D02*
X139500000Y-114200000D01*
X134980000Y-112700000D02*
G75*
G02*
X135500000Y-113280000I-30000J-550000D01*
G01*
X136700000Y-110200000D02*
G75*
G02*
X135000000Y-108720000I-110000J1590000D01*
G01*
%TO.C,S19*%
X168000000Y-126750000D02*
X172500000Y-126750000D01*
X168000000Y-127250000D02*
X168000000Y-126750000D01*
X168000000Y-131450000D02*
X168000000Y-130850000D01*
X172480000Y-131450000D02*
X168000000Y-131450000D01*
X172500000Y-126750000D02*
X172500000Y-127450000D01*
X173000000Y-132950000D02*
X173000000Y-132030000D01*
X173000000Y-132950000D02*
X173500000Y-133450000D01*
X173500000Y-133450000D02*
X176500000Y-133450000D01*
X174200000Y-128950000D02*
X176500000Y-128950000D01*
X176500000Y-128950000D02*
X177000000Y-129450000D01*
X176500000Y-133450000D02*
X177000000Y-132950000D01*
X172480000Y-131450000D02*
G75*
G02*
X173000000Y-132030000I-30000J-550000D01*
G01*
X174200000Y-128950000D02*
G75*
G02*
X172500000Y-127470000I-110000J1590000D01*
G01*
%TO.C,S2*%
X93000000Y-114000000D02*
X97500000Y-114000000D01*
X93000000Y-114500000D02*
X93000000Y-114000000D01*
X93000000Y-118700000D02*
X93000000Y-118100000D01*
X97480000Y-118700000D02*
X93000000Y-118700000D01*
X97500000Y-114000000D02*
X97500000Y-114700000D01*
X98000000Y-120200000D02*
X98000000Y-119280000D01*
X98000000Y-120200000D02*
X98500000Y-120700000D01*
X98500000Y-120700000D02*
X101500000Y-120700000D01*
X99200000Y-116200000D02*
X101500000Y-116200000D01*
X101500000Y-116200000D02*
X102000000Y-116700000D01*
X101500000Y-120700000D02*
X102000000Y-120200000D01*
X97480000Y-118700000D02*
G75*
G02*
X98000000Y-119280000I-30000J-550000D01*
G01*
X99200000Y-116200000D02*
G75*
G02*
X97500000Y-114720000I-110000J1590000D01*
G01*
%TD*%
D13*
%TO.C,MCU1*%
X92530000Y-47380000D03*
X95070000Y-47380000D03*
X97610000Y-47380000D03*
X100150000Y-47380000D03*
X102690000Y-47380000D03*
X105230000Y-47380000D03*
X107770000Y-47380000D03*
X110310000Y-47380000D03*
X112850000Y-47380000D03*
X115390000Y-47380000D03*
X117930000Y-47380000D03*
X120470000Y-47380000D03*
X120470000Y-62620000D03*
X117930000Y-62620000D03*
X115390000Y-62620000D03*
X112850000Y-62620000D03*
X110310000Y-62620000D03*
X107770000Y-62620000D03*
X105230000Y-62620000D03*
X102690000Y-62620000D03*
X100150000Y-62620000D03*
X97610000Y-62620000D03*
X95070000Y-62620000D03*
X92530000Y-62620000D03*
X115390000Y-60080000D03*
X115390000Y-57540000D03*
X115390000Y-55000000D03*
%TD*%
M02*
