M48
; DRILL file {KiCad 9.0.6} date 2026-01-25T21:10:03-0500
; FORMAT={-:-/ absolute / metric / decimal}
; #@! TF.CreationDate,2026-01-25T21:10:03-05:00
; #@! TF.GenerationSoftware,Kicad,Pcbnew,9.0.6
; #@! TF.FileFunction,NonPlated,1,2,NPTH
FMAT,2
METRIC
; #@! TA.AperFunction,NonPlated,NPTH,ComponentDrill
T1C0.750
; #@! TA.AperFunction,NonPlated,NPTH,ComponentDrill
T2C0.900
; #@! TA.AperFunction,NonPlated,NPTH,ComponentDrill
T3C3.000
; #@! TA.AperFunction,NonPlated,NPTH,ComponentDrill
T4C4.000
; #@! TA.AperFunction,NonPlated,NPTH,ComponentDrill
T5C5.000
%
G90
G05
T1
X132.5Y-45.375
X132.5Y-48.125
T2
X141.0Y-46.75
X144.0Y-46.75
T3
X95.0Y-78.75
X95.0Y-97.5
X95.0Y-116.25
X95.0Y-135.0
X100.0Y-80.95
X100.0Y-99.7
X100.0Y-118.45
X100.0Y-137.2
X113.75Y-78.75
X113.75Y-97.5
X113.75Y-116.25
X113.75Y-135.0
X118.75Y-80.95
X118.75Y-99.7
X118.75Y-118.45
X118.75Y-137.2
X132.5Y-72.75
X132.5Y-91.5
X132.5Y-110.25
X132.5Y-129.0
X137.5Y-74.95
X137.5Y-93.7
X137.5Y-112.45
X137.5Y-131.2
X151.25Y-69.75
X151.25Y-88.5
X151.25Y-107.25
X151.25Y-126.0
X151.25Y-144.75
X156.25Y-71.95
X156.25Y-90.7
X156.25Y-109.45
X156.25Y-128.2
X156.25Y-146.95
X170.0Y-72.75
X170.0Y-91.5
X170.0Y-110.25
X170.0Y-129.0
X170.0Y-147.75
X175.0Y-74.95
X175.0Y-93.7
X175.0Y-112.45
X175.0Y-131.2
X175.0Y-149.95
X188.75Y-78.75
X188.75Y-97.5
X188.75Y-116.25
X188.75Y-135.0
X193.75Y-80.95
X193.75Y-99.7
X193.75Y-118.45
X193.75Y-137.2
X207.5Y-97.5
X207.5Y-116.25
X210.258Y-149.345
X212.5Y-99.7
X212.5Y-118.45
X213.092Y-154.015
X220.311Y-167.677
X223.145Y-172.347
X231.066Y-152.317
X233.9Y-156.987
T4
X137.5Y-55.5
X137.5Y-138.775
X193.75Y-144.75
X212.5Y-80.25
T5
X100.0Y-75.0
X100.0Y-93.75
X100.0Y-112.5
X100.0Y-131.25
X118.75Y-75.0
X118.75Y-93.75
X118.75Y-112.5
X118.75Y-131.25
X137.5Y-69.0
X137.5Y-87.75
X137.5Y-106.5
X137.5Y-125.25
X156.25Y-66.0
X156.25Y-84.75
X156.25Y-103.5
X156.25Y-122.25
X156.25Y-141.0
X175.0Y-69.0
X175.0Y-87.75
X175.0Y-106.5
X175.0Y-125.25
X175.0Y-144.0
X193.75Y-75.0
X193.75Y-93.75
X193.75Y-112.5
X193.75Y-131.25
X212.5Y-93.75
X212.5Y-112.5
X216.505Y-149.141
X226.558Y-167.473
X237.313Y-152.114
M30
