%TF.GenerationSoftware,KiCad,Pcbnew,9.0.6*%
%TF.CreationDate,2026-01-25T21:10:06-05:00*%
%TF.ProjectId,left_routed,6c656674-5f72-46f7-9574-65642e6b6963,v1.0.0*%
%TF.SameCoordinates,Original*%
%TF.FileFunction,Paste,Bot*%
%TF.FilePolarity,Positive*%
%FSLAX46Y46*%
G04 Gerber Fmt 4.6, Leading zero omitted, Abs format (unit mm)*
G04 Created by KiCad (PCBNEW 9.0.6) date 2026-01-25 21:10:06*
%MOMM*%
%LPD*%
G01*
G04 APERTURE LIST*
G04 Aperture macros list*
%AMRotRect*
0 Rectangle, with rotation*
0 The origin of the aperture is its center*
0 $1 length*
0 $2 width*
0 $3 Rotation angle, in degrees counterclockwise*
0 Add horizontal line*
21,1,$1,$2,0,0,$3*%
G04 Aperture macros list end*
%ADD10RotRect,0.900000X1.200000X225.000000*%
%ADD11RotRect,0.900000X1.200000X190.000000*%
%ADD12R,2.600000X2.600000*%
%ADD13RotRect,2.600000X2.600000X145.000000*%
G04 APERTURE END LIST*
D10*
%TO.C,D4*%
X97166726Y-69499941D03*
X94833274Y-71833393D03*
%TD*%
%TO.C,D16*%
X153416726Y-79249941D03*
X151083274Y-81583393D03*
%TD*%
%TO.C,D7*%
X115916726Y-88249941D03*
X113583274Y-90583393D03*
%TD*%
%TO.C,D3*%
X97166726Y-88249941D03*
X94833274Y-90583393D03*
%TD*%
%TO.C,D10*%
X134666726Y-100999941D03*
X132333274Y-103333393D03*
%TD*%
%TO.C,D12*%
X134666726Y-63499941D03*
X132333274Y-65833393D03*
%TD*%
%TO.C,D9*%
X134666726Y-119749941D03*
X132333274Y-122083393D03*
%TD*%
%TO.C,D25*%
X190916726Y-88249941D03*
X188583274Y-90583393D03*
%TD*%
%TO.C,D17*%
X153416726Y-60499941D03*
X151083274Y-62833393D03*
%TD*%
D11*
%TO.C,D29*%
X217338381Y-143010416D03*
X214088515Y-143583454D03*
%TD*%
D10*
%TO.C,D28*%
X209666726Y-88249941D03*
X207333274Y-90583393D03*
%TD*%
%TO.C,D6*%
X115916726Y-106999941D03*
X113583274Y-109333393D03*
%TD*%
%TO.C,D22*%
X172166726Y-63499941D03*
X169833274Y-65833393D03*
%TD*%
%TO.C,D1*%
X97166726Y-125749941D03*
X94833274Y-128083393D03*
%TD*%
%TO.C,D27*%
X209666726Y-106999941D03*
X207333274Y-109333393D03*
%TD*%
%TO.C,D21*%
X172166726Y-82249941D03*
X169833274Y-84583393D03*
%TD*%
%TO.C,D20*%
X172166726Y-100999941D03*
X169833274Y-103333393D03*
%TD*%
%TO.C,D26*%
X190916726Y-69499941D03*
X188583274Y-71833393D03*
%TD*%
%TO.C,D14*%
X153416726Y-116749941D03*
X151083274Y-119083393D03*
%TD*%
%TO.C,D24*%
X190916726Y-106999941D03*
X188583274Y-109333393D03*
%TD*%
%TO.C,D18*%
X172166726Y-138499941D03*
X169833274Y-140833393D03*
%TD*%
%TO.C,D8*%
X115916726Y-69499941D03*
X113583274Y-71833393D03*
%TD*%
D11*
%TO.C,D31*%
X238146458Y-145983029D03*
X234896592Y-146556067D03*
%TD*%
D10*
%TO.C,D5*%
X115916726Y-125749941D03*
X113583274Y-128083393D03*
%TD*%
%TO.C,D11*%
X134666726Y-82249941D03*
X132333274Y-84583393D03*
%TD*%
%TO.C,D23*%
X190916726Y-125749941D03*
X188583274Y-128083393D03*
%TD*%
%TO.C,D13*%
X153416726Y-135499941D03*
X151083274Y-137833393D03*
%TD*%
%TO.C,D19*%
X172166726Y-119749941D03*
X169833274Y-122083393D03*
%TD*%
%TO.C,D15*%
X153416726Y-97999941D03*
X151083274Y-100333393D03*
%TD*%
%TO.C,D2*%
X97166726Y-106999941D03*
X94833274Y-109333393D03*
%TD*%
D11*
%TO.C,D30*%
X227391900Y-161342130D03*
X224142034Y-161915168D03*
%TD*%
D12*
%TO.C,S17*%
X159525000Y-71950000D03*
X147975000Y-69750000D03*
%TD*%
%TO.C,S11*%
X140775000Y-93700000D03*
X129225000Y-91500000D03*
%TD*%
%TO.C,S15*%
X159525000Y-109450000D03*
X147975000Y-107250000D03*
%TD*%
%TO.C,S12*%
X140775000Y-74950000D03*
X129225000Y-72750000D03*
%TD*%
%TO.C,S24*%
X197025000Y-118450000D03*
X185475000Y-116250000D03*
%TD*%
%TO.C,S6*%
X122025000Y-118450000D03*
X110475000Y-116250000D03*
%TD*%
%TO.C,S9*%
X140775000Y-131200000D03*
X129225000Y-129000000D03*
%TD*%
D13*
%TO.C,S31*%
X236582578Y-158865930D03*
X228383240Y-150438988D03*
%TD*%
D12*
%TO.C,S3*%
X103275000Y-99700000D03*
X91725000Y-97500000D03*
%TD*%
%TO.C,S26*%
X197025000Y-80950000D03*
X185475000Y-78750000D03*
%TD*%
D13*
%TO.C,S29*%
X215774501Y-155893316D03*
X207575163Y-147466374D03*
%TD*%
D12*
%TO.C,S13*%
X159525000Y-146950000D03*
X147975000Y-144750000D03*
%TD*%
%TO.C,S1*%
X103275000Y-137200000D03*
X91725000Y-135000000D03*
%TD*%
%TO.C,S7*%
X122025000Y-99700000D03*
X110475000Y-97500000D03*
%TD*%
%TO.C,S28*%
X215775000Y-99700000D03*
X204225000Y-97500000D03*
%TD*%
%TO.C,S18*%
X178275000Y-149950000D03*
X166725000Y-147750000D03*
%TD*%
%TO.C,S16*%
X159525000Y-90700000D03*
X147975000Y-88500000D03*
%TD*%
%TO.C,S8*%
X122025000Y-80950000D03*
X110475000Y-78750000D03*
%TD*%
%TO.C,S27*%
X215775000Y-118450000D03*
X204225000Y-116250000D03*
%TD*%
%TO.C,S21*%
X178275000Y-93700000D03*
X166725000Y-91500000D03*
%TD*%
%TO.C,S4*%
X103275000Y-80950000D03*
X91725000Y-78750000D03*
%TD*%
%TO.C,S25*%
X197025000Y-99700000D03*
X185475000Y-97500000D03*
%TD*%
%TO.C,S5*%
X122025000Y-137200000D03*
X110475000Y-135000000D03*
%TD*%
D13*
%TO.C,S30*%
X225828020Y-174225031D03*
X217628682Y-165798089D03*
%TD*%
D12*
%TO.C,S14*%
X159525000Y-128200000D03*
X147975000Y-126000000D03*
%TD*%
%TO.C,S23*%
X197025000Y-137200000D03*
X185475000Y-135000000D03*
%TD*%
%TO.C,S22*%
X178275000Y-74950000D03*
X166725000Y-72750000D03*
%TD*%
%TO.C,S20*%
X178275000Y-112450000D03*
X166725000Y-110250000D03*
%TD*%
%TO.C,S10*%
X140775000Y-112450000D03*
X129225000Y-110250000D03*
%TD*%
%TO.C,S19*%
X178275000Y-131200000D03*
X166725000Y-129000000D03*
%TD*%
%TO.C,S2*%
X103275000Y-118450000D03*
X91725000Y-116250000D03*
%TD*%
M02*
