%TF.GenerationSoftware,KiCad,Pcbnew,9.0.6*%
%TF.CreationDate,2026-02-01T20:14:31-05:00*%
%TF.ProjectId,left-pcb-finished,6c656674-2d70-4636-922d-66696e697368,v1.0.0*%
%TF.SameCoordinates,Original*%
%TF.FileFunction,Soldermask,Bot*%
%TF.FilePolarity,Negative*%
%FSLAX46Y46*%
G04 Gerber Fmt 4.6, Leading zero omitted, Abs format (unit mm)*
G04 Created by KiCad (PCBNEW 9.0.6) date 2026-02-01 20:14:31*
%MOMM*%
%LPD*%
G01*
G04 APERTURE LIST*
G04 Aperture macros list*
%AMRoundRect*
0 Rectangle with rounded corners*
0 $1 Rounding radius*
0 $2 $3 $4 $5 $6 $7 $8 $9 X,Y pos of 4 corners*
0 Add a 4 corners polygon primitive as box body*
4,1,4,$2,$3,$4,$5,$6,$7,$8,$9,$2,$3,0*
0 Add four circle primitives for the rounded corners*
1,1,$1+$1,$2,$3*
1,1,$1+$1,$4,$5*
1,1,$1+$1,$6,$7*
1,1,$1+$1,$8,$9*
0 Add four rect primitives between the rounded corners*
20,1,$1+$1,$2,$3,$4,$5,0*
20,1,$1+$1,$4,$5,$6,$7,0*
20,1,$1+$1,$6,$7,$8,$9,0*
20,1,$1+$1,$8,$9,$2,$3,0*%
G04 Aperture macros list end*
%ADD10C,5.100000*%
%ADD11C,2.000000*%
%ADD12C,3.100000*%
%ADD13RoundRect,0.050000X1.300000X1.300000X-1.300000X1.300000X-1.300000X-1.300000X1.300000X-1.300000X0*%
%ADD14RoundRect,0.050000X1.810547X0.319248X-0.319248X1.810547X-1.810547X-0.319248X0.319248X-1.810547X0*%
%ADD15RoundRect,0.050000X-0.106066X0.742462X-0.742462X0.106066X0.106066X-0.742462X0.742462X-0.106066X0*%
%ADD16RoundRect,0.050000X0.000000X1.257236X-1.257236X0.000000X0.000000X-1.257236X1.257236X0.000000X0*%
%ADD17C,2.005000*%
%ADD18RoundRect,0.050000X0.338975X0.669026X-0.547352X0.512743X-0.338975X-0.669026X0.547352X-0.512743X0*%
%ADD19RoundRect,0.050000X0.721121X1.029867X-1.029867X0.721121X-0.721121X-1.029867X1.029867X-0.721121X0*%
%ADD20C,1.852600*%
%ADD21RoundRect,0.050000X-0.600000X-0.850000X0.600000X-0.850000X0.600000X0.850000X-0.600000X0.850000X0*%
%ADD22O,1.300000X1.800000*%
%ADD23C,0.850000*%
%ADD24RoundRect,0.050000X-0.775000X-0.500000X0.775000X-0.500000X0.775000X0.500000X-0.775000X0.500000X0*%
%ADD25C,1.100000*%
%ADD26RoundRect,0.050000X-0.450000X-0.625000X0.450000X-0.625000X0.450000X0.625000X-0.450000X0.625000X0*%
%ADD27RoundRect,0.050000X-0.450000X-0.450000X0.450000X-0.450000X0.450000X0.450000X-0.450000X0.450000X0*%
%ADD28C,4.100000*%
G04 APERTURE END LIST*
D10*
%TO.C,S1*%
X100000000Y-131250000D03*
D11*
X105000000Y-126100000D03*
D12*
X100000000Y-137200000D03*
D13*
X103275000Y-137200000D03*
X91725000Y-135000000D03*
D12*
X95000000Y-135000000D03*
%TD*%
D10*
%TO.C,S2*%
X100000000Y-112500000D03*
D11*
X105000000Y-107350000D03*
D12*
X100000000Y-118450000D03*
D13*
X103275000Y-118450000D03*
X91725000Y-116250000D03*
D12*
X95000000Y-116250000D03*
%TD*%
D10*
%TO.C,S3*%
X100000000Y-93750000D03*
D11*
X105000000Y-88600000D03*
D12*
X100000000Y-99700000D03*
D13*
X103275000Y-99700000D03*
X91725000Y-97500000D03*
D12*
X95000000Y-97500000D03*
%TD*%
D10*
%TO.C,S4*%
X100000000Y-75000000D03*
D11*
X105000000Y-69850000D03*
D12*
X100000000Y-80950000D03*
D13*
X103275000Y-80950000D03*
X91725000Y-78750000D03*
D12*
X95000000Y-78750000D03*
%TD*%
D10*
%TO.C,S5*%
X118750000Y-131250000D03*
D11*
X123750000Y-126100000D03*
D12*
X118750000Y-137200000D03*
D13*
X122025000Y-137200000D03*
X110475000Y-135000000D03*
D12*
X113750000Y-135000000D03*
%TD*%
D10*
%TO.C,S6*%
X118750000Y-112500000D03*
D11*
X123750000Y-107350000D03*
D12*
X118750000Y-118450000D03*
D13*
X122025000Y-118450000D03*
X110475000Y-116250000D03*
D12*
X113750000Y-116250000D03*
%TD*%
D10*
%TO.C,S7*%
X118750000Y-93750000D03*
D11*
X123750000Y-88600000D03*
D12*
X118750000Y-99700000D03*
D13*
X122025000Y-99700000D03*
X110475000Y-97500000D03*
D12*
X113750000Y-97500000D03*
%TD*%
D10*
%TO.C,S8*%
X118750000Y-75000000D03*
D11*
X123750000Y-69850000D03*
D12*
X118750000Y-80950000D03*
D13*
X122025000Y-80950000D03*
X110475000Y-78750000D03*
D12*
X113750000Y-78750000D03*
%TD*%
D10*
%TO.C,S9*%
X137500000Y-125250000D03*
D11*
X142500000Y-120100000D03*
D12*
X137500000Y-131200000D03*
D13*
X140775000Y-131200000D03*
X129225000Y-129000000D03*
D12*
X132500000Y-129000000D03*
%TD*%
D10*
%TO.C,S10*%
X137500000Y-106500000D03*
D11*
X142500000Y-101350000D03*
D12*
X137500000Y-112450000D03*
D13*
X140775000Y-112450000D03*
X129225000Y-110250000D03*
D12*
X132500000Y-110250000D03*
%TD*%
D10*
%TO.C,S11*%
X137500000Y-87750000D03*
D11*
X142500000Y-82600000D03*
D12*
X137500000Y-93700000D03*
D13*
X140775000Y-93700000D03*
X129225000Y-91500000D03*
D12*
X132500000Y-91500000D03*
%TD*%
D10*
%TO.C,S12*%
X137500000Y-69000000D03*
D11*
X142500000Y-63850000D03*
D12*
X137500000Y-74950000D03*
D13*
X140775000Y-74950000D03*
X129225000Y-72750000D03*
D12*
X132500000Y-72750000D03*
%TD*%
D10*
%TO.C,S13*%
X156250000Y-141000000D03*
D11*
X161250000Y-135850000D03*
D12*
X156250000Y-146950000D03*
D13*
X159525000Y-146950000D03*
X147975000Y-144750000D03*
D12*
X151250000Y-144750000D03*
%TD*%
D10*
%TO.C,S14*%
X156250000Y-122250000D03*
D11*
X161250000Y-117100000D03*
D12*
X156250000Y-128200000D03*
D13*
X159525000Y-128200000D03*
X147975000Y-126000000D03*
D12*
X151250000Y-126000000D03*
%TD*%
D10*
%TO.C,S15*%
X156250000Y-103500000D03*
D11*
X161250000Y-98350000D03*
D12*
X156250000Y-109450000D03*
D13*
X159525000Y-109450000D03*
X147975000Y-107250000D03*
D12*
X151250000Y-107250000D03*
%TD*%
D10*
%TO.C,S16*%
X156250000Y-84750000D03*
D11*
X161250000Y-79600000D03*
D12*
X156250000Y-90700000D03*
D13*
X159525000Y-90700000D03*
X147975000Y-88500000D03*
D12*
X151250000Y-88500000D03*
%TD*%
D10*
%TO.C,S17*%
X156250000Y-66000000D03*
D11*
X161250000Y-60850000D03*
D12*
X156250000Y-71950000D03*
D13*
X159525000Y-71950000D03*
X147975000Y-69750000D03*
D12*
X151250000Y-69750000D03*
%TD*%
D10*
%TO.C,S18*%
X175000000Y-144000000D03*
D11*
X180000000Y-138850000D03*
D12*
X175000000Y-149950000D03*
D13*
X178275000Y-149950000D03*
X166725000Y-147750000D03*
D12*
X170000000Y-147750000D03*
%TD*%
D10*
%TO.C,S19*%
X175000000Y-125250000D03*
D11*
X180000000Y-120100000D03*
D12*
X175000000Y-131200000D03*
D13*
X178275000Y-131200000D03*
X166725000Y-129000000D03*
D12*
X170000000Y-129000000D03*
%TD*%
D10*
%TO.C,S20*%
X175000000Y-106500000D03*
D11*
X180000000Y-101350000D03*
D12*
X175000000Y-112450000D03*
D13*
X178275000Y-112450000D03*
X166725000Y-110250000D03*
D12*
X170000000Y-110250000D03*
%TD*%
D10*
%TO.C,S21*%
X175000000Y-87750000D03*
D11*
X180000000Y-82600000D03*
D12*
X175000000Y-93700000D03*
D13*
X178275000Y-93700000D03*
X166725000Y-91500000D03*
D12*
X170000000Y-91500000D03*
%TD*%
D10*
%TO.C,S22*%
X175000000Y-69000000D03*
D11*
X180000000Y-63850000D03*
D12*
X175000000Y-74950000D03*
D13*
X178275000Y-74950000D03*
X166725000Y-72750000D03*
D12*
X170000000Y-72750000D03*
%TD*%
D10*
%TO.C,S23*%
X193750000Y-131250000D03*
D11*
X198750000Y-126100000D03*
D12*
X193750000Y-137200000D03*
D13*
X197025000Y-137200000D03*
X185475000Y-135000000D03*
D12*
X188750000Y-135000000D03*
%TD*%
D10*
%TO.C,S24*%
X193750000Y-112500000D03*
D11*
X198750000Y-107350000D03*
D12*
X193750000Y-118450000D03*
D13*
X197025000Y-118450000D03*
X185475000Y-116250000D03*
D12*
X188750000Y-116250000D03*
%TD*%
D10*
%TO.C,S25*%
X193750000Y-93750000D03*
D11*
X198750000Y-88600000D03*
D12*
X193750000Y-99700000D03*
D13*
X197025000Y-99700000D03*
X185475000Y-97500000D03*
D12*
X188750000Y-97500000D03*
%TD*%
D10*
%TO.C,S26*%
X193750000Y-75000000D03*
D11*
X198750000Y-69850000D03*
D12*
X193750000Y-80950000D03*
D13*
X197025000Y-80950000D03*
X185475000Y-78750000D03*
D12*
X188750000Y-78750000D03*
%TD*%
D10*
%TO.C,S27*%
X212500000Y-112500000D03*
D11*
X217500000Y-107350000D03*
D12*
X212500000Y-118450000D03*
D13*
X215775000Y-118450000D03*
X204225000Y-116250000D03*
D12*
X207500000Y-116250000D03*
%TD*%
D10*
%TO.C,S28*%
X212500000Y-93750000D03*
D11*
X217500000Y-88600000D03*
D12*
X212500000Y-99700000D03*
D13*
X215775000Y-99700000D03*
X204225000Y-97500000D03*
D12*
X207500000Y-97500000D03*
%TD*%
D10*
%TO.C,S29*%
X216504558Y-149140899D03*
D11*
X223554237Y-147790148D03*
D12*
X213091778Y-154014854D03*
D14*
X215774501Y-155893316D03*
X207575163Y-147466374D03*
D12*
X210257886Y-149344837D03*
%TD*%
D10*
%TO.C,S30*%
X226558077Y-167472614D03*
D11*
X233607756Y-166121863D03*
D12*
X223145297Y-172346569D03*
D14*
X225828020Y-174225031D03*
X217628682Y-165798089D03*
D12*
X220311405Y-167676552D03*
%TD*%
D10*
%TO.C,S31*%
X237312635Y-152113513D03*
D11*
X244362314Y-150762762D03*
D12*
X233899855Y-156987468D03*
D14*
X236582578Y-158865930D03*
X228383240Y-150438988D03*
D12*
X231065963Y-152317451D03*
%TD*%
D15*
%TO.C,D1*%
X94833274Y-128083393D03*
X97166726Y-125749941D03*
D16*
X98694077Y-124222590D03*
D17*
X93305923Y-129610744D03*
%TD*%
D15*
%TO.C,D2*%
X94833274Y-109333393D03*
X97166726Y-106999941D03*
D16*
X98694077Y-105472590D03*
D17*
X93305923Y-110860744D03*
%TD*%
D15*
%TO.C,D3*%
X94833274Y-90583393D03*
X97166726Y-88249941D03*
D16*
X98694077Y-86722590D03*
D17*
X93305923Y-92110744D03*
%TD*%
D15*
%TO.C,D4*%
X94833274Y-71833393D03*
X97166726Y-69499941D03*
D16*
X98694077Y-67972590D03*
D17*
X93305923Y-73360744D03*
%TD*%
D15*
%TO.C,D5*%
X113583274Y-128083393D03*
X115916726Y-125749941D03*
D16*
X117444077Y-124222590D03*
D17*
X112055923Y-129610744D03*
%TD*%
D15*
%TO.C,D6*%
X113583274Y-109333393D03*
X115916726Y-106999941D03*
D16*
X117444077Y-105472590D03*
D17*
X112055923Y-110860744D03*
%TD*%
D15*
%TO.C,D7*%
X113583274Y-90583393D03*
X115916726Y-88249941D03*
D16*
X117444077Y-86722590D03*
D17*
X112055923Y-92110744D03*
%TD*%
D15*
%TO.C,D8*%
X113583274Y-71833393D03*
X115916726Y-69499941D03*
D16*
X117444077Y-67972590D03*
D17*
X112055923Y-73360744D03*
%TD*%
D15*
%TO.C,D9*%
X132333274Y-122083393D03*
X134666726Y-119749941D03*
D16*
X136194077Y-118222590D03*
D17*
X130805923Y-123610744D03*
%TD*%
D15*
%TO.C,D10*%
X132333274Y-103333393D03*
X134666726Y-100999941D03*
D16*
X136194077Y-99472590D03*
D17*
X130805923Y-104860744D03*
%TD*%
D15*
%TO.C,D11*%
X132333274Y-84583393D03*
X134666726Y-82249941D03*
D16*
X136194077Y-80722590D03*
D17*
X130805923Y-86110744D03*
%TD*%
D15*
%TO.C,D12*%
X132333274Y-65833393D03*
X134666726Y-63499941D03*
D16*
X136194077Y-61972590D03*
D17*
X130805923Y-67360744D03*
%TD*%
D15*
%TO.C,D13*%
X151083274Y-137833393D03*
X153416726Y-135499941D03*
D16*
X154944077Y-133972590D03*
D17*
X149555923Y-139360744D03*
%TD*%
D15*
%TO.C,D14*%
X151083274Y-119083393D03*
X153416726Y-116749941D03*
D16*
X154944077Y-115222590D03*
D17*
X149555923Y-120610744D03*
%TD*%
D15*
%TO.C,D15*%
X151083274Y-100333393D03*
X153416726Y-97999941D03*
D16*
X154944077Y-96472590D03*
D17*
X149555923Y-101860744D03*
%TD*%
D15*
%TO.C,D16*%
X151083274Y-81583393D03*
X153416726Y-79249941D03*
D16*
X154944077Y-77722590D03*
D17*
X149555923Y-83110744D03*
%TD*%
D15*
%TO.C,D17*%
X151083274Y-62833393D03*
X153416726Y-60499941D03*
D16*
X154944077Y-58972590D03*
D17*
X149555923Y-64360744D03*
%TD*%
D15*
%TO.C,D18*%
X169833274Y-140833393D03*
X172166726Y-138499941D03*
D16*
X173694077Y-136972590D03*
D17*
X168305923Y-142360744D03*
%TD*%
D15*
%TO.C,D19*%
X169833274Y-122083393D03*
X172166726Y-119749941D03*
D16*
X173694077Y-118222590D03*
D17*
X168305923Y-123610744D03*
%TD*%
D15*
%TO.C,D20*%
X169833274Y-103333393D03*
X172166726Y-100999941D03*
D16*
X173694077Y-99472590D03*
D17*
X168305923Y-104860744D03*
%TD*%
D15*
%TO.C,D21*%
X169833274Y-84583393D03*
X172166726Y-82249941D03*
D16*
X173694077Y-80722590D03*
D17*
X168305923Y-86110744D03*
%TD*%
D15*
%TO.C,D22*%
X169833274Y-65833393D03*
X172166726Y-63499941D03*
D16*
X173694077Y-61972590D03*
D17*
X168305923Y-67360744D03*
%TD*%
D15*
%TO.C,D23*%
X188583274Y-128083393D03*
X190916726Y-125749941D03*
D16*
X192444077Y-124222590D03*
D17*
X187055923Y-129610744D03*
%TD*%
D15*
%TO.C,D24*%
X188583274Y-109333393D03*
X190916726Y-106999941D03*
D16*
X192444077Y-105472590D03*
D17*
X187055923Y-110860744D03*
%TD*%
D15*
%TO.C,D25*%
X188583274Y-90583393D03*
X190916726Y-88249941D03*
D16*
X192444077Y-86722590D03*
D17*
X187055923Y-92110744D03*
%TD*%
D15*
%TO.C,D26*%
X188583274Y-71833393D03*
X190916726Y-69499941D03*
D16*
X192444077Y-67972590D03*
D17*
X187055923Y-73360744D03*
%TD*%
D15*
%TO.C,D27*%
X207333274Y-109333393D03*
X209666726Y-106999941D03*
D16*
X211194077Y-105472590D03*
D17*
X205805923Y-110860744D03*
%TD*%
D15*
%TO.C,D28*%
X207333274Y-90583393D03*
X209666726Y-88249941D03*
D16*
X211194077Y-86722590D03*
D17*
X205805923Y-92110744D03*
%TD*%
D18*
%TO.C,D29*%
X214088515Y-143583454D03*
X217338381Y-143010416D03*
D19*
X219465566Y-142635335D03*
D17*
X211961330Y-143958535D03*
%TD*%
D18*
%TO.C,D30*%
X224142034Y-161915168D03*
X227391900Y-161342130D03*
D19*
X229519085Y-160967049D03*
D17*
X222014849Y-162290249D03*
%TD*%
D18*
%TO.C,D31*%
X234896592Y-146556067D03*
X238146458Y-145983029D03*
D19*
X240273643Y-145607948D03*
D17*
X232769407Y-146931148D03*
%TD*%
D20*
%TO.C,MCU1*%
X92530000Y-47380000D03*
X95070000Y-47380000D03*
X97610000Y-47380000D03*
X100150000Y-47380000D03*
X102690000Y-47380000D03*
X105230000Y-47380000D03*
X107770000Y-47380000D03*
X110310000Y-47380000D03*
X112850000Y-47380000D03*
X115390000Y-47380000D03*
X117930000Y-47380000D03*
X120470000Y-47380000D03*
X120470000Y-62620000D03*
X117930000Y-62620000D03*
X115390000Y-62620000D03*
X112850000Y-62620000D03*
X110310000Y-62620000D03*
X107770000Y-62620000D03*
X105230000Y-62620000D03*
X102690000Y-62620000D03*
X100150000Y-62620000D03*
X97610000Y-62620000D03*
X95070000Y-62620000D03*
X92530000Y-62620000D03*
X115390000Y-60080000D03*
X115390000Y-57540000D03*
X115390000Y-55000000D03*
%TD*%
D21*
%TO.C,JST1*%
X155250000Y-47500000D03*
D22*
X157250000Y-47500000D03*
%TD*%
D23*
%TO.C,B1*%
X132500000Y-45375000D03*
X132500000Y-48125000D03*
D24*
X129875000Y-45900000D03*
X135125000Y-45900000D03*
X129875000Y-47600000D03*
X135125000Y-47600000D03*
%TD*%
D25*
%TO.C,T1*%
X144000000Y-46750000D03*
X141000000Y-46750000D03*
D26*
X140250000Y-48825000D03*
X143250000Y-48825000D03*
X144750000Y-48825000D03*
D27*
X146200000Y-45650000D03*
X146200000Y-47850000D03*
X138800000Y-47850000D03*
X138800000Y-45650000D03*
%TD*%
D28*
%TO.C,*%
X193750000Y-144750000D03*
%TD*%
%TO.C,*%
X137500000Y-138775000D03*
%TD*%
%TO.C,*%
X137500000Y-55500000D03*
%TD*%
%TO.C,*%
X212500000Y-80250000D03*
%TD*%
M02*
