<?xml version="1.0" encoding="UTF-8" standalone="no"?>
<!-- Created with Inkscape (http://www.inkscape.org/) -->

<svg
   width="210mm"
   height="297mm"
   viewBox="0 0 210 297"
   version="1.1"
   id="svg1"
   xml:space="preserve"
   inkscape:version="1.4.2 (ebf0e940, 2025-05-08)"
   sodipodi:docname="left-outline.svg"
   xmlns:inkscape="http://www.inkscape.org/namespaces/inkscape"
   xmlns:sodipodi="http://sodipodi.sourceforge.net/DTD/sodipodi-0.dtd"
   xmlns="http://www.w3.org/2000/svg"
   xmlns:svg="http://www.w3.org/2000/svg"><sodipodi:namedview
     id="namedview1"
     pagecolor="#505050"
     bordercolor="#eeeeee"
     borderopacity="1"
     inkscape:showpageshadow="0"
     inkscape:pageopacity="0"
     inkscape:pagecheckerboard="0"
     inkscape:deskcolor="#505050"
     inkscape:document-units="mm"
     inkscape:zoom="0.89887065"
     inkscape:cx="397.16504"
     inkscape:cy="294.25813"
     inkscape:window-width="2056"
     inkscape:window-height="1186"
     inkscape:window-x="1739"
     inkscape:window-y="117"
     inkscape:window-maximized="0"
     inkscape:current-layer="layer1" /><defs
     id="defs1" /><g
     inkscape:label="Layer 1"
     inkscape:groupmode="layer"
     id="layer1"><g
       id="g2"
       transform="translate(-65.682727,-15.190301)"><g
         style="fill:#000000;fill-opacity:1;stroke:#000000;stroke-linecap:round;stroke-linejoin:round;stroke-opacity:1"
         id="g1" /><g
         style="fill:none;stroke:#000000;stroke-width:0.15;stroke-linecap:round;stroke-linejoin:round;stroke-opacity:1"
         id="g38"><path
           d="m 87.975,140.025 v -81.3"
           id="path1" /><path
           d="m 168.275,48.725 v -1"
           id="path2" /><path
           d="M 168.275,47.725 H 168.25"
           id="path3" /><path
           d="m 187.025,54.725 v -2"
           id="path4" /><path
           d="m 185.025,50.725 h -14.75"
           id="path5" /><path
           d="m 187.025,52.725 a 2,2 0 0 0 -2,-2"
           id="path6" /><path
           d="m 168.275,48.725 a 2,2 0 0 0 2,2"
           id="path7" /><path
           d="M 88,58.4098 A 2.0001,2.0001 0 0 0 87.975,58.725"
           id="path8" /><path
           d="M 212.025,73.475 V 58.725"
           id="path9" /><path
           d="m 210.025,56.725 h -21"
           id="path10" /><path
           d="m 212.025,58.725 a 2,2 0 0 0 -2,-2"
           id="path11" /><path
           d="m 187.025,54.725 a 2,2 0 0 0 2,2"
           id="path12" /><path
           d="m 221.0916,123.275 h 1.4334"
           id="path13" /><path
           d="m 224.525,121.275 v -43.8"
           id="path14" /><path
           d="m 222.525,75.475 h -8.5"
           id="path15" /><path
           d="M 87.975,140.025 A 2.0001,2.0001 0 0 0 88,140.3402"
           id="path16" /><path
           d="m 222.525,123.275 a 2,2 0 0 0 2,-2"
           id="path17" /><path
           d="m 224.525,77.475 a 2,2 0 0 0 -2,-2"
           id="path18" /><path
           d="m 212.025,73.475 a 2,2 0 0 0 2,2"
           id="path19" /><path
           d="m 168.25,47.725 v -1.1"
           id="path20" /><path
           d="M 166.25,44.625 H 90"
           id="path21" /><path
           d="M 88,46.625 V 58.4098"
           id="path22" /><path
           d="m 168.25,46.625 a 2,2 0 0 0 -2,-2"
           id="path23" /><path
           d="m 90,44.625 a 2,2 0 0 0 -2,2"
           id="path24" /><path
           d="m 90,145.775 h 49.875"
           id="path25" /><path
           d="m 88,140.3402 v 3.4348"
           id="path26" /><path
           d="m 88,143.775 a 2,2 0 0 0 2,2"
           id="path27" /><path
           d="m 143.875,155.525 h 43.5"
           id="path28" /><path
           d="m 141.875,147.775 v 5.75"
           id="path29" /><path
           d="m 141.875,147.775 a 2,2 0 0 0 -2,-2"
           id="path30" /><path
           d="m 141.875,153.525 a 2,2 0 0 0 2,2"
           id="path31" /><path
           d="m 187.375,155.525 a 2.0001,2.0001 0 0 0 0.2957,-0.022"
           id="path32" /><path
           d="m 187.6707,155.503 42.3666,29.6655"
           id="path33" /><path
           d="m 231.4301,184.9229 23.9468,-34.1996"
           id="path34" /><path
           d="M 255.1313,149.3306 220.5181,125.0942"
           id="path35" /><path
           d="m 230.0373,185.1685 a 1,1 0 0 0 1.3928,-0.2456"
           id="path36" /><path
           d="m 255.3769,150.7234 a 1.0001,1.0001 0 0 0 -0.2456,-1.3928"
           id="path37" /><path
           d="m 221.0916,123.275 a 1,1 0 0 0 -0.5735,1.8192"
           id="path38" /></g><g
         style="fill:none;stroke:#000000;stroke-width:0.1;stroke-linecap:round;stroke-linejoin:round;stroke-opacity:1"
         id="g76"><path
           d="M 130.15,48.5 V 45"
           id="path39" /><path
           d="m 131.2,44 v 1"
           id="path40" /><path
           d="m 133.8,44 h -2.6"
           id="path41" /><path
           d="m 133.8,44 v 1"
           id="path42" /><path
           d="m 134.85,45 h -4.7"
           id="path43" /><path
           d="m 134.85,48.5 h -4.7"
           id="path44" /><path
           d="M 134.85,48.5 V 45"
           id="path45" /><path
           style="fill:none;stroke:#000000;stroke-width:0.15;stroke-linecap:round;stroke-linejoin:round;stroke-opacity:1"
           d="m 91,122.25 h 18 v 18 H 91 Z"
           id="path46" /><path
           style="fill:none;stroke:#000000;stroke-width:0.15;stroke-linecap:round;stroke-linejoin:round;stroke-opacity:1"
           d="m 91,103.5 h 18 v 18 H 91 Z"
           id="path47" /><path
           style="fill:none;stroke:#000000;stroke-width:0.15;stroke-linecap:round;stroke-linejoin:round;stroke-opacity:1"
           d="m 91,84.75 h 18 v 18 H 91 Z"
           id="path48" /><path
           style="fill:none;stroke:#000000;stroke-width:0.15;stroke-linecap:round;stroke-linejoin:round;stroke-opacity:1"
           d="m 91,66 h 18 V 84 H 91 Z"
           id="path49" /><path
           style="fill:none;stroke:#000000;stroke-width:0.15;stroke-linecap:round;stroke-linejoin:round;stroke-opacity:1"
           d="m 109.75,122.25 h 18 v 18 h -18 z"
           id="path50" /><path
           style="fill:none;stroke:#000000;stroke-width:0.15;stroke-linecap:round;stroke-linejoin:round;stroke-opacity:1"
           d="m 109.75,103.5 h 18 v 18 h -18 z"
           id="path51" /><path
           style="fill:none;stroke:#000000;stroke-width:0.15;stroke-linecap:round;stroke-linejoin:round;stroke-opacity:1"
           d="m 109.75,84.75 h 18 v 18 h -18 z"
           id="path52" /><path
           style="fill:none;stroke:#000000;stroke-width:0.15;stroke-linecap:round;stroke-linejoin:round;stroke-opacity:1"
           d="m 109.75,66 h 18 v 18 h -18 z"
           id="path53" /><path
           style="fill:none;stroke:#000000;stroke-width:0.15;stroke-linecap:round;stroke-linejoin:round;stroke-opacity:1"
           d="m 128.5,116.25 h 18 v 18 h -18 z"
           id="path54" /><path
           style="fill:none;stroke:#000000;stroke-width:0.15;stroke-linecap:round;stroke-linejoin:round;stroke-opacity:1"
           d="m 128.5,97.5 h 18 v 18 h -18 z"
           id="path55" /><path
           style="fill:none;stroke:#000000;stroke-width:0.15;stroke-linecap:round;stroke-linejoin:round;stroke-opacity:1"
           d="m 128.5,78.75 h 18 v 18 h -18 z"
           id="path56" /><path
           style="fill:none;stroke:#000000;stroke-width:0.15;stroke-linecap:round;stroke-linejoin:round;stroke-opacity:1"
           d="m 128.5,60 h 18 v 18 h -18 z"
           id="path57" /><path
           style="fill:none;stroke:#000000;stroke-width:0.15;stroke-linecap:round;stroke-linejoin:round;stroke-opacity:1"
           d="m 147.25,132 h 18 v 18 h -18 z"
           id="path58" /><path
           style="fill:none;stroke:#000000;stroke-width:0.15;stroke-linecap:round;stroke-linejoin:round;stroke-opacity:1"
           d="m 147.25,113.25 h 18 v 18 h -18 z"
           id="path59" /><path
           style="fill:none;stroke:#000000;stroke-width:0.15;stroke-linecap:round;stroke-linejoin:round;stroke-opacity:1"
           d="m 147.25,94.5 h 18 v 18 h -18 z"
           id="path60" /><path
           style="fill:none;stroke:#000000;stroke-width:0.15;stroke-linecap:round;stroke-linejoin:round;stroke-opacity:1"
           d="m 147.25,75.75 h 18 v 18 h -18 z"
           id="path61" /><path
           style="fill:none;stroke:#000000;stroke-width:0.15;stroke-linecap:round;stroke-linejoin:round;stroke-opacity:1"
           d="m 147.25,57 h 18 v 18 h -18 z"
           id="path62" /><path
           style="fill:none;stroke:#000000;stroke-width:0.15;stroke-linecap:round;stroke-linejoin:round;stroke-opacity:1"
           d="m 166,135 h 18 v 18 h -18 z"
           id="path63" /><path
           style="fill:none;stroke:#000000;stroke-width:0.15;stroke-linecap:round;stroke-linejoin:round;stroke-opacity:1"
           d="m 166,116.25 h 18 v 18 h -18 z"
           id="path64" /><path
           style="fill:none;stroke:#000000;stroke-width:0.15;stroke-linecap:round;stroke-linejoin:round;stroke-opacity:1"
           d="m 166,97.5 h 18 v 18 h -18 z"
           id="path65" /><path
           style="fill:none;stroke:#000000;stroke-width:0.15;stroke-linecap:round;stroke-linejoin:round;stroke-opacity:1"
           d="m 166,78.75 h 18 v 18 h -18 z"
           id="path66" /><path
           style="fill:none;stroke:#000000;stroke-width:0.15;stroke-linecap:round;stroke-linejoin:round;stroke-opacity:1"
           d="m 166,60 h 18 v 18 h -18 z"
           id="path67" /><path
           style="fill:none;stroke:#000000;stroke-width:0.15;stroke-linecap:round;stroke-linejoin:round;stroke-opacity:1"
           d="m 184.75,122.25 h 18 v 18 h -18 z"
           id="path68" /><path
           style="fill:none;stroke:#000000;stroke-width:0.15;stroke-linecap:round;stroke-linejoin:round;stroke-opacity:1"
           d="m 184.75,103.5 h 18 v 18 h -18 z"
           id="path69" /><path
           style="fill:none;stroke:#000000;stroke-width:0.15;stroke-linecap:round;stroke-linejoin:round;stroke-opacity:1"
           d="m 184.75,84.75 h 18 v 18 h -18 z"
           id="path70" /><path
           style="fill:none;stroke:#000000;stroke-width:0.15;stroke-linecap:round;stroke-linejoin:round;stroke-opacity:1"
           d="m 184.75,66 h 18 v 18 h -18 z"
           id="path71" /><path
           style="fill:none;stroke:#000000;stroke-width:0.15;stroke-linecap:round;stroke-linejoin:round;stroke-opacity:1"
           d="m 203.5,103.5 h 18 v 18 h -18 z"
           id="path72" /><path
           style="fill:none;stroke:#000000;stroke-width:0.15;stroke-linecap:round;stroke-linejoin:round;stroke-opacity:1"
           d="m 203.5,84.75 h 18 v 18 h -18 z"
           id="path73" /><path
           style="fill:none;stroke:#000000;stroke-width:0.15;stroke-linecap:round;stroke-linejoin:round;stroke-opacity:1"
           d="M 229.0391,146.9307 218.7147,161.6755 203.97,151.3511 214.2944,136.6063 Z"
           id="path74" /><path
           style="fill:none;stroke:#000000;stroke-width:0.15;stroke-linecap:round;stroke-linejoin:round;stroke-opacity:1"
           d="m 239.0926,165.2624 -10.3243,14.7448 -14.7448,-10.3244 10.3244,-14.7447 z"
           id="path75" /><path
           style="fill:none;stroke:#000000;stroke-width:0.15;stroke-linecap:round;stroke-linejoin:round;stroke-opacity:1"
           d="m 249.8472,149.9033 -10.3244,14.7448 -14.7447,-10.3244 10.3244,-14.7447 z"
           id="path76" /></g><g
         style="fill:none;stroke:#000000;stroke-width:0.2;stroke-linecap:round;stroke-linejoin:round;stroke-opacity:1"
         id="g80"><path
           d="M 92.276,51.444 V 58.81"
           id="path77" /><path
           d="m 92.276,58.81 h -5.08"
           id="path78" /><path
           d="M 87.196,58.81 V 51.444"
           id="path79" /><path
           d="m 87.196,51.444 h 5.08"
           id="path80" /></g><g
         style="fill:none;stroke:#000000;stroke-width:0.15;stroke-linecap:round;stroke-linejoin:round;stroke-opacity:1"
         id="g83"><path
           d="m 140.55,42.9 h 3.9"
           id="path81" /><path
           d="m 144.45,42.9 v 2.5"
           id="path82" /><path
           d="M 140.55,45.4 V 42.9"
           id="path83" /></g><g
         style="fill:none;stroke:#000000;stroke-width:0.1;stroke-linecap:round;stroke-linejoin:round;stroke-opacity:1"
         id="g86"><circle
           cx="193.75"
           cy="144.75"
           r="4"
           id="circle83" /><circle
           cx="212.5"
           cy="80.25"
           r="4"
           id="circle84" /><circle
           cx="137.5"
           cy="138.77499"
           r="4"
           id="circle85" /><circle
           cx="137.5"
           cy="55.5"
           r="4"
           id="circle86" /></g></g></g></svg>
