  0
SECTION
  2
HEADER
  9
$ACADVER
  1
AC1014
  9
$HANDSEED
  5
FFFF
  9
$INSUNITS
 70
     4
  9
$MEASUREMENT
 70
     1
  0
ENDSEC
  0
SECTION
  2
TABLES
  0
TABLE
  2
VPORT
  5
8
330
0
100
AcDbSymbolTable
 70
     4
  0
VPORT
  5
2E
330
8
100
AcDbSymbolTableRecord
100
AcDbViewportTableRecord
  2
*ACTIVE
 70
     0
 10
0.0
 20
0.0
 11
1.0
 21
1.0
 12
210.0
 22
148.5
 13
0.0
 23
0.0
 14
10.0
 24
10.0
 15
10.0
 25
10.0
 16
0.0
 26
0.0
 36
1.0
 17
0.0
 27
0.0
 37
0.0
 40
341.0
 41
1.24
 42
50.0
 43
0.0
 44
0.0
 50
0.0
 51
0.0
 71
     0
 72
   100
 73
     1
 74
     3
 75
     0
 76
     0
 77
     0
 78
     0
  0
ENDTAB
  0
TABLE
  2
LTYPE
  5
5
330
0
100
AcDbSymbolTable
 70
     1
  0
LTYPE
  5
14
330
5
100
AcDbSymbolTableRecord
100
AcDbLinetypeTableRecord
  2
BYBLOCK
 70
     0
  3

 72
    65
 73
     0
 40
0.0
  0
LTYPE
  5
15
330
5
100
AcDbSymbolTableRecord
100
AcDbLinetypeTableRecord
  2
BYLAYER
 70
     0
  3

 72
    65
 73
     0
 40
0.0
  0
LTYPE
  5
16
330
5
100
AcDbSymbolTableRecord
100
AcDbLinetypeTableRecord
  2
CONTINUOUS
 70
     0
  3
Solid line
 72
    65
 73
     0
 40
0.0
  0
ENDTAB
  0
TABLE
  2
LAYER
  5
2
100
AcDbSymbolTable
 70
2
  0
LAYER
  5
50
100
AcDbSymbolTableRecord
100
AcDbLayerTableRecord
  2
0
 70
0
  6
CONTINUOUS
  0
LAYER
  5
51
100
AcDbSymbolTableRecord
100
AcDbLayerTableRecord
  2
Layer_1
 70
0
  6
CONTINUOUS
  0
ENDTAB
  0
TABLE
  2
STYLE
  5
3
330
0
100
AcDbSymbolTable
 70
     1
  0
STYLE
  5
11
330
3
100
AcDbSymbolTableRecord
100
AcDbTextStyleTableRecord
  2
STANDARD
 70
     0
 40
0.0
 41
1.0
 50
0.0
 71
     0
 42
2.5
  3
txt
  4

  0
ENDTAB
  0
TABLE
  2
VIEW
  5
6
330
0
100
AcDbSymbolTable
 70
     0
  0
ENDTAB
  0
TABLE
  2
UCS
  5
7
330
0
100
AcDbSymbolTable
 70
     0
  0
ENDTAB
  0
TABLE
  2
APPID
  5
9
330
0
100
AcDbSymbolTable
 70
     2
  0
APPID
  5
12
330
9
100
AcDbSymbolTableRecord
100
AcDbRegAppTableRecord
  2
ACAD
 70
     0
  0
ENDTAB
  0
TABLE
  2
DIMSTYLE
  5
A
330
0
100
AcDbSymbolTable
 70
     1
  0
DIMSTYLE
105
27
330
A
100
AcDbSymbolTableRecord
100
AcDbDimStyleTableRecord
  2
ISO-25
 70
     0
  3

  4

  5

  6

  7

 40
1.0
 41
2.5
 42
0.625
 43
3.75
 44
1.25
 45
0.0
 46
0.0
 47
0.0
 48
0.0
140
2.5
141
2.5
142
0.0
143
0.03937007874016
144
1.0
145
0.0
146
1.0
147
0.625
 71
     0
 72
     0
 73
     0
 74
     0
 75
     0
 76
     0
 77
     1
 78
     8
170
     0
171
     3
172
     1
173
     0
174
     0
175
     0
176
     0
177
     0
178
     0
270
     2
271
     2
272
     2
273
     2
274
     3
340
11
275
     0
280
     0
281
     0
282
     0
283
     0
284
     8
285
     0
286
     0
287
     3
288
     0
  0
ENDTAB
  0
TABLE
  2
BLOCK_RECORD
  5
1
330
0
100
AcDbSymbolTable
 70
     1
  0
BLOCK_RECORD
  5
1F
330
1
100
AcDbSymbolTableRecord
100
AcDbBlockTableRecord
  2
*MODEL_SPACE
  0
BLOCK_RECORD
  5
1B
330
1
100
AcDbSymbolTableRecord
100
AcDbBlockTableRecord
  2
*PAPER_SPACE
  0
ENDTAB
  0
ENDSEC
  0
SECTION
  2
BLOCKS
  0
BLOCK
  5
20
330
1F
100
AcDbEntity
  8
0
100
AcDbBlockBegin
  2
*MODEL_SPACE
 70
     0
 10
0.0
 20
0.0
 30
0.0
  3
*MODEL_SPACE
  1

  0
ENDBLK
  5
21
330
1F
100
AcDbEntity
  8
0
100
AcDbBlockEnd
  0
BLOCK
  5
1C
330
1B
100
AcDbEntity
 67
     1
  8
0
100
AcDbBlockBegin
  2
*PAPER_SPACE
  1

  0
ENDBLK
  5
1D
330
1B
100
AcDbEntity
 67
     1
  8
0
100
AcDbBlockEnd
  0
ENDSEC
  0
SECTION
  2
ENTITIES
  0
LWPOLYLINE
  5
100
100
AcDbEntity
  8
Layer_1
 62
7
100
AcDbPolyline
 90
2
 70
0
 10
22.292300
 20
172.165300
 30
0.0
 10
22.292300
 20
253.465300
 30
0.0
  0
LWPOLYLINE
  5
101
100
AcDbEntity
  8
Layer_1
 62
7
100
AcDbPolyline
 90
3
 70
0
 10
102.592300
 20
263.465300
 30
0.0
 10
102.592300
 20
264.465300
 30
0.0
 10
102.567300
 20
264.465300
 30
0.0
  0
LWPOLYLINE
  5
102
100
AcDbEntity
  8
Layer_1
 62
7
100
AcDbPolyline
 90
2
 70
0
 10
121.342300
 20
257.465300
 30
0.0
 10
121.342300
 20
259.465300
 30
0.0
  0
SPLINE
  5
103
100
AcDbEntity
  8
Layer_1
 62
7
100
AcDbSpline
 70
8
 71
3
 72
8
 73
4
 74
0
 40
0
 40
0
 40
0
 40
0
 40
1
 40
1
 40
1
 40
1
 10
121.342300
 20
259.465300
 30
0.0
 10
121.342300
 20
259.995733
 30
0.0
 10
121.131586
 20
260.504441
 30
0.0
 10
120.756514
 20
260.879514
 30
0.0
  0
SPLINE
  5
104
100
AcDbEntity
  8
Layer_1
 62
7
100
AcDbSpline
 70
8
 71
3
 72
8
 73
4
 74
0
 40
0
 40
0
 40
0
 40
0
 40
1
 40
1
 40
1
 40
1
 10
120.756514
 20
260.879514
 30
0.0
 10
120.381441
 20
261.254586
 30
0.0
 10
119.872733
 20
261.465300
 30
0.0
 10
119.342300
 20
261.465300
 30
0.0
  0
SPLINE
  5
105
100
AcDbEntity
  8
Layer_1
 62
7
100
AcDbSpline
 70
8
 71
3
 72
8
 73
4
 74
0
 40
0
 40
0
 40
0
 40
0
 40
1
 40
1
 40
1
 40
1
 10
102.592300
 20
263.465300
 30
0.0
 10
102.592300
 20
262.934867
 30
0.0
 10
102.803014
 20
262.426159
 30
0.0
 10
103.178086
 20
262.051086
 30
0.0
  0
SPLINE
  5
106
100
AcDbEntity
  8
Layer_1
 62
7
100
AcDbSpline
 70
8
 71
3
 72
8
 73
4
 74
0
 40
0
 40
0
 40
0
 40
0
 40
1
 40
1
 40
1
 40
1
 10
103.178086
 20
262.051086
 30
0.0
 10
103.553159
 20
261.676014
 30
0.0
 10
104.061867
 20
261.465300
 30
0.0
 10
104.592300
 20
261.465300
 30
0.0
  0
SPLINE
  5
107
100
AcDbEntity
  8
Layer_1
 62
7
100
AcDbSpline
 70
8
 71
3
 72
8
 73
4
 74
0
 40
0
 40
0
 40
0
 40
0
 40
1
 40
1
 40
1
 40
1
 10
22.317300
 20
253.780500
 30
0.0
 10
22.300662
 20
253.676258
 30
0.0
 10
22.292302
 20
253.570862
 30
0.0
 10
22.292300
 20
253.465300
 30
0.0
  0
LWPOLYLINE
  5
108
100
AcDbEntity
  8
Layer_1
 62
7
100
AcDbPolyline
 90
2
 70
0
 10
119.342300
 20
261.465300
 30
0.0
 10
104.592300
 20
261.465300
 30
0.0
  0
LWPOLYLINE
  5
109
100
AcDbEntity
  8
Layer_1
 62
7
100
AcDbPolyline
 90
2
 70
0
 10
146.342300
 20
238.715300
 30
0.0
 10
146.342300
 20
253.465300
 30
0.0
  0
SPLINE
  5
10a
100
AcDbEntity
  8
Layer_1
 62
7
100
AcDbSpline
 70
8
 71
3
 72
8
 73
4
 74
0
 40
0
 40
0
 40
0
 40
0
 40
1
 40
1
 40
1
 40
1
 10
146.342300
 20
253.465300
 30
0.0
 10
146.342300
 20
253.995733
 30
0.0
 10
146.131586
 20
254.504441
 30
0.0
 10
145.756514
 20
254.879514
 30
0.0
  0
SPLINE
  5
10b
100
AcDbEntity
  8
Layer_1
 62
7
100
AcDbSpline
 70
8
 71
3
 72
8
 73
4
 74
0
 40
0
 40
0
 40
0
 40
0
 40
1
 40
1
 40
1
 40
1
 10
145.756514
 20
254.879514
 30
0.0
 10
145.381441
 20
255.254586
 30
0.0
 10
144.872733
 20
255.465300
 30
0.0
 10
144.342300
 20
255.465300
 30
0.0
  0
SPLINE
  5
10c
100
AcDbEntity
  8
Layer_1
 62
7
100
AcDbSpline
 70
8
 71
3
 72
8
 73
4
 74
0
 40
0
 40
0
 40
0
 40
0
 40
1
 40
1
 40
1
 40
1
 10
121.342300
 20
257.465300
 30
0.0
 10
121.342300
 20
256.934867
 30
0.0
 10
121.553014
 20
256.426159
 30
0.0
 10
121.928086
 20
256.051086
 30
0.0
  0
SPLINE
  5
10d
100
AcDbEntity
  8
Layer_1
 62
7
100
AcDbSpline
 70
8
 71
3
 72
8
 73
4
 74
0
 40
0
 40
0
 40
0
 40
0
 40
1
 40
1
 40
1
 40
1
 10
121.928086
 20
256.051086
 30
0.0
 10
122.303159
 20
255.676014
 30
0.0
 10
122.811867
 20
255.465300
 30
0.0
 10
123.342300
 20
255.465300
 30
0.0
  0
LWPOLYLINE
  5
10e
100
AcDbEntity
  8
Layer_1
 62
7
100
AcDbPolyline
 90
2
 70
0
 10
144.342300
 20
255.465300
 30
0.0
 10
123.342300
 20
255.465300
 30
0.0
  0
LWPOLYLINE
  5
10f
100
AcDbEntity
  8
Layer_1
 62
7
100
AcDbPolyline
 90
2
 70
0
 10
155.408900
 20
188.915300
 30
0.0
 10
156.842300
 20
188.915300
 30
0.0
  0
LWPOLYLINE
  5
110
100
AcDbEntity
  8
Layer_1
 62
7
100
AcDbPolyline
 90
2
 70
0
 10
158.842300
 20
190.915300
 30
0.0
 10
158.842300
 20
234.715300
 30
0.0
  0
SPLINE
  5
111
100
AcDbEntity
  8
Layer_1
 62
7
100
AcDbSpline
 70
8
 71
3
 72
8
 73
4
 74
0
 40
0
 40
0
 40
0
 40
0
 40
1
 40
1
 40
1
 40
1
 10
22.292300
 20
172.165300
 30
0.0
 10
22.292302
 20
172.059738
 30
0.0
 10
22.300662
 20
171.954342
 30
0.0
 10
22.317300
 20
171.850100
 30
0.0
  0
SPLINE
  5
112
100
AcDbEntity
  8
Layer_1
 62
7
100
AcDbSpline
 70
8
 71
3
 72
8
 73
4
 74
0
 40
0
 40
0
 40
0
 40
0
 40
1
 40
1
 40
1
 40
1
 10
156.842300
 20
188.915300
 30
0.0
 10
157.372733
 20
188.915300
 30
0.0
 10
157.881441
 20
189.126014
 30
0.0
 10
158.256514
 20
189.501086
 30
0.0
  0
SPLINE
  5
113
100
AcDbEntity
  8
Layer_1
 62
7
100
AcDbSpline
 70
8
 71
3
 72
8
 73
4
 74
0
 40
0
 40
0
 40
0
 40
0
 40
1
 40
1
 40
1
 40
1
 10
158.256514
 20
189.501086
 30
0.0
 10
158.631586
 20
189.876159
 30
0.0
 10
158.842300
 20
190.384867
 30
0.0
 10
158.842300
 20
190.915300
 30
0.0
  0
SPLINE
  5
114
100
AcDbEntity
  8
Layer_1
 62
7
100
AcDbSpline
 70
8
 71
3
 72
8
 73
4
 74
0
 40
0
 40
0
 40
0
 40
0
 40
1
 40
1
 40
1
 40
1
 10
158.842300
 20
234.715300
 30
0.0
 10
158.842300
 20
235.245733
 30
0.0
 10
158.631586
 20
235.754441
 30
0.0
 10
158.256514
 20
236.129514
 30
0.0
  0
SPLINE
  5
115
100
AcDbEntity
  8
Layer_1
 62
7
100
AcDbSpline
 70
8
 71
3
 72
8
 73
4
 74
0
 40
0
 40
0
 40
0
 40
0
 40
1
 40
1
 40
1
 40
1
 10
158.256514
 20
236.129514
 30
0.0
 10
157.881441
 20
236.504586
 30
0.0
 10
157.372733
 20
236.715300
 30
0.0
 10
156.842300
 20
236.715300
 30
0.0
  0
SPLINE
  5
116
100
AcDbEntity
  8
Layer_1
 62
7
100
AcDbSpline
 70
8
 71
3
 72
8
 73
4
 74
0
 40
0
 40
0
 40
0
 40
0
 40
1
 40
1
 40
1
 40
1
 10
146.342300
 20
238.715300
 30
0.0
 10
146.342300
 20
238.184867
 30
0.0
 10
146.553014
 20
237.676159
 30
0.0
 10
146.928086
 20
237.301086
 30
0.0
  0
SPLINE
  5
117
100
AcDbEntity
  8
Layer_1
 62
7
100
AcDbSpline
 70
8
 71
3
 72
8
 73
4
 74
0
 40
0
 40
0
 40
0
 40
0
 40
1
 40
1
 40
1
 40
1
 10
146.928086
 20
237.301086
 30
0.0
 10
147.303159
 20
236.926014
 30
0.0
 10
147.811867
 20
236.715300
 30
0.0
 10
148.342300
 20
236.715300
 30
0.0
  0
LWPOLYLINE
  5
118
100
AcDbEntity
  8
Layer_1
 62
7
100
AcDbPolyline
 90
2
 70
0
 10
156.842300
 20
236.715300
 30
0.0
 10
148.342300
 20
236.715300
 30
0.0
  0
LWPOLYLINE
  5
119
100
AcDbEntity
  8
Layer_1
 62
7
100
AcDbPolyline
 90
2
 70
0
 10
102.567300
 20
264.465300
 30
0.0
 10
102.567300
 20
265.565300
 30
0.0
  0
LWPOLYLINE
  5
11a
100
AcDbEntity
  8
Layer_1
 62
7
100
AcDbPolyline
 90
2
 70
0
 10
100.567300
 20
267.565300
 30
0.0
 10
24.317300
 20
267.565300
 30
0.0
  0
SPLINE
  5
11b
100
AcDbEntity
  8
Layer_1
 62
7
100
AcDbSpline
 70
8
 71
3
 72
8
 73
4
 74
0
 40
0
 40
0
 40
0
 40
0
 40
1
 40
1
 40
1
 40
1
 10
102.567300
 20
265.565300
 30
0.0
 10
102.567300
 20
266.095733
 30
0.0
 10
102.356586
 20
266.604441
 30
0.0
 10
101.981514
 20
266.979514
 30
0.0
  0
SPLINE
  5
11c
100
AcDbEntity
  8
Layer_1
 62
7
100
AcDbSpline
 70
8
 71
3
 72
8
 73
4
 74
0
 40
0
 40
0
 40
0
 40
0
 40
1
 40
1
 40
1
 40
1
 10
101.981514
 20
266.979514
 30
0.0
 10
101.606441
 20
267.354586
 30
0.0
 10
101.097733
 20
267.565300
 30
0.0
 10
100.567300
 20
267.565300
 30
0.0
  0
SPLINE
  5
11d
100
AcDbEntity
  8
Layer_1
 62
7
100
AcDbSpline
 70
8
 71
3
 72
8
 73
4
 74
0
 40
0
 40
0
 40
0
 40
0
 40
1
 40
1
 40
1
 40
1
 10
24.317300
 20
267.565300
 30
0.0
 10
23.786867
 20
267.565300
 30
0.0
 10
23.278159
 20
267.354586
 30
0.0
 10
22.903086
 20
266.979514
 30
0.0
  0
SPLINE
  5
11e
100
AcDbEntity
  8
Layer_1
 62
7
100
AcDbSpline
 70
8
 71
3
 72
8
 73
4
 74
0
 40
0
 40
0
 40
0
 40
0
 40
1
 40
1
 40
1
 40
1
 10
22.903086
 20
266.979514
 30
0.0
 10
22.528014
 20
266.604441
 30
0.0
 10
22.317300
 20
266.095733
 30
0.0
 10
22.317300
 20
265.565300
 30
0.0
  0
LWPOLYLINE
  5
11f
100
AcDbEntity
  8
Layer_1
 62
7
100
AcDbPolyline
 90
2
 70
0
 10
22.317300
 20
265.565300
 30
0.0
 10
22.317300
 20
253.780500
 30
0.0
  0
LWPOLYLINE
  5
120
100
AcDbEntity
  8
Layer_1
 62
7
100
AcDbPolyline
 90
2
 70
0
 10
24.317300
 20
166.415300
 30
0.0
 10
74.192300
 20
166.415300
 30
0.0
  0
SPLINE
  5
121
100
AcDbEntity
  8
Layer_1
 62
7
100
AcDbSpline
 70
8
 71
3
 72
8
 73
4
 74
0
 40
0
 40
0
 40
0
 40
0
 40
1
 40
1
 40
1
 40
1
 10
22.317300
 20
168.415300
 30
0.0
 10
22.317300
 20
167.884867
 30
0.0
 10
22.528014
 20
167.376159
 30
0.0
 10
22.903086
 20
167.001086
 30
0.0
  0
SPLINE
  5
122
100
AcDbEntity
  8
Layer_1
 62
7
100
AcDbSpline
 70
8
 71
3
 72
8
 73
4
 74
0
 40
0
 40
0
 40
0
 40
0
 40
1
 40
1
 40
1
 40
1
 10
22.903086
 20
167.001086
 30
0.0
 10
23.278159
 20
166.626014
 30
0.0
 10
23.786867
 20
166.415300
 30
0.0
 10
24.317300
 20
166.415300
 30
0.0
  0
LWPOLYLINE
  5
123
100
AcDbEntity
  8
Layer_1
 62
7
100
AcDbPolyline
 90
2
 70
0
 10
22.317300
 20
171.850100
 30
0.0
 10
22.317300
 20
168.415300
 30
0.0
  0
LWPOLYLINE
  5
124
100
AcDbEntity
  8
Layer_1
 62
7
100
AcDbPolyline
 90
2
 70
0
 10
78.192300
 20
156.665300
 30
0.0
 10
121.692300
 20
156.665300
 30
0.0
  0
SPLINE
  5
125
100
AcDbEntity
  8
Layer_1
 62
7
100
AcDbSpline
 70
8
 71
3
 72
8
 73
4
 74
0
 40
0
 40
0
 40
0
 40
0
 40
1
 40
1
 40
1
 40
1
 10
76.192300
 20
164.415300
 30
0.0
 10
76.192300
 20
164.945733
 30
0.0
 10
75.981586
 20
165.454441
 30
0.0
 10
75.606514
 20
165.829514
 30
0.0
  0
SPLINE
  5
126
100
AcDbEntity
  8
Layer_1
 62
7
100
AcDbSpline
 70
8
 71
3
 72
8
 73
4
 74
0
 40
0
 40
0
 40
0
 40
0
 40
1
 40
1
 40
1
 40
1
 10
75.606514
 20
165.829514
 30
0.0
 10
75.231441
 20
166.204586
 30
0.0
 10
74.722733
 20
166.415300
 30
0.0
 10
74.192300
 20
166.415300
 30
0.0
  0
SPLINE
  5
127
100
AcDbEntity
  8
Layer_1
 62
7
100
AcDbSpline
 70
8
 71
3
 72
8
 73
4
 74
0
 40
0
 40
0
 40
0
 40
0
 40
1
 40
1
 40
1
 40
1
 10
76.192300
 20
158.665300
 30
0.0
 10
76.192300
 20
158.134867
 30
0.0
 10
76.403014
 20
157.626159
 30
0.0
 10
76.778086
 20
157.251086
 30
0.0
  0
SPLINE
  5
128
100
AcDbEntity
  8
Layer_1
 62
7
100
AcDbSpline
 70
8
 71
3
 72
8
 73
4
 74
0
 40
0
 40
0
 40
0
 40
0
 40
1
 40
1
 40
1
 40
1
 10
76.778086
 20
157.251086
 30
0.0
 10
77.153159
 20
156.876014
 30
0.0
 10
77.661867
 20
156.665300
 30
0.0
 10
78.192300
 20
156.665300
 30
0.0
  0
SPLINE
  5
129
100
AcDbEntity
  8
Layer_1
 62
7
100
AcDbSpline
 70
8
 71
3
 72
8
 73
4
 74
0
 40
0
 40
0
 40
0
 40
0
 40
1
 40
1
 40
1
 40
1
 10
121.692300
 20
156.665300
 30
0.0
 10
121.791275
 20
156.665307
 30
0.0
 10
121.890113
 20
156.672660
 30
0.0
 10
121.988000
 20
156.687300
 30
0.0
  0
LWPOLYLINE
  5
12a
100
AcDbEntity
  8
Layer_1
 62
7
100
AcDbPolyline
 90
2
 70
0
 10
76.192300
 20
164.415300
 30
0.0
 10
76.192300
 20
158.665300
 30
0.0
  0
LWPOLYLINE
  5
12b
100
AcDbEntity
  8
Layer_1
 62
7
100
AcDbPolyline
 90
2
 70
0
 10
121.988000
 20
156.687300
 30
0.0
 10
164.354600
 20
127.021800
 30
0.0
  0
LWPOLYLINE
  5
12c
100
AcDbEntity
  8
Layer_1
 62
7
100
AcDbPolyline
 90
2
 70
0
 10
165.747400
 20
127.267400
 30
0.0
 10
189.694200
 20
161.467000
 30
0.0
  0
SPLINE
  5
12d
100
AcDbEntity
  8
Layer_1
 62
7
100
AcDbSpline
 70
8
 71
3
 72
8
 73
4
 74
0
 40
0
 40
0
 40
0
 40
0
 40
1
 40
1
 40
1
 40
1
 10
164.354600
 20
127.021800
 30
0.0
 10
164.571861
 20
126.869658
 30
0.0
 10
164.840664
 20
126.810060
 30
0.0
 10
165.101869
 20
126.856120
 30
0.0
  0
SPLINE
  5
12e
100
AcDbEntity
  8
Layer_1
 62
7
100
AcDbSpline
 70
8
 71
3
 72
8
 73
4
 74
0
 40
0
 40
0
 40
0
 40
0
 40
1
 40
1
 40
1
 40
1
 10
165.101869
 20
126.856120
 30
0.0
 10
165.363074
 20
126.902180
 30
0.0
 10
165.595281
 20
127.050123
 30
0.0
 10
165.747400
 20
127.267400
 30
0.0
  0
SPLINE
  5
12f
100
AcDbEntity
  8
Layer_1
 62
7
100
AcDbSpline
 70
8
 71
3
 72
8
 73
4
 74
0
 40
0
 40
0
 40
0
 40
0
 40
1
 40
1
 40
1
 40
1
 10
189.694200
 20
161.466900
 30
0.0
 10
190.010963
 20
161.919338
 30
0.0
 10
189.901008
 20
162.542894
 30
0.0
 10
189.448600
 20
162.859700
 30
0.0
  0
SPLINE
  5
130
100
AcDbEntity
  8
Layer_1
 62
7
100
AcDbSpline
 70
8
 71
3
 72
8
 73
4
 74
0
 40
0
 40
0
 40
0
 40
0
 40
1
 40
1
 40
1
 40
1
 10
155.408900
 20
188.915300
 30
0.0
 10
154.972442
 20
188.915297
 30
0.0
 10
154.586404
 20
188.632226
 30
0.0
 10
154.455177
 20
188.215962
 30
0.0
  0
SPLINE
  5
131
100
AcDbEntity
  8
Layer_1
 62
7
100
AcDbSpline
 70
8
 71
3
 72
8
 73
4
 74
0
 40
0
 40
0
 40
0
 40
0
 40
1
 40
1
 40
1
 40
1
 10
154.455177
 20
188.215962
 30
0.0
 10
154.323951
 20
187.799698
 30
0.0
 10
154.477853
 20
187.346412
 30
0.0
 10
154.835400
 20
187.096100
 30
0.0
  0
LWPOLYLINE
  5
132
100
AcDbEntity
  8
Layer_1
 62
7
100
AcDbPolyline
 90
2
 70
0
 10
189.448600
 20
162.859700
 30
0.0
 10
154.835400
 20
187.096100
 30
0.0
  0
LWPOLYLINE
  5
133
100
AcDbEntity
  8
Layer_1
 62
7
100
AcDbPolyline
 90
2
 70
0
 10
64.467300
 20
263.690300
 30
0.0
 10
64.467300
 20
267.190300
 30
0.0
  0
LWPOLYLINE
  5
134
100
AcDbEntity
  8
Layer_1
 62
7
100
AcDbPolyline
 90
2
 70
0
 10
65.517300
 20
268.190300
 30
0.0
 10
65.517300
 20
267.190300
 30
0.0
  0
LWPOLYLINE
  5
135
100
AcDbEntity
  8
Layer_1
 62
7
100
AcDbPolyline
 90
2
 70
0
 10
68.117300
 20
268.190300
 30
0.0
 10
65.517300
 20
268.190300
 30
0.0
  0
LWPOLYLINE
  5
136
100
AcDbEntity
  8
Layer_1
 62
7
100
AcDbPolyline
 90
2
 70
0
 10
68.117300
 20
268.190300
 30
0.0
 10
68.117300
 20
267.190300
 30
0.0
  0
LWPOLYLINE
  5
137
100
AcDbEntity
  8
Layer_1
 62
7
100
AcDbPolyline
 90
2
 70
0
 10
69.167300
 20
267.190300
 30
0.0
 10
64.467300
 20
267.190300
 30
0.0
  0
LWPOLYLINE
  5
138
100
AcDbEntity
  8
Layer_1
 62
7
100
AcDbPolyline
 90
2
 70
0
 10
69.167300
 20
263.690300
 30
0.0
 10
64.467300
 20
263.690300
 30
0.0
  0
LWPOLYLINE
  5
139
100
AcDbEntity
  8
Layer_1
 62
7
100
AcDbPolyline
 90
2
 70
0
 10
69.167300
 20
263.690300
 30
0.0
 10
69.167300
 20
267.190300
 30
0.0
  0
LWPOLYLINE
  5
13a
100
AcDbEntity
  8
Layer_1
 62
7
100
AcDbPolyline
 90
4
 70
1
 10
25.317300
 20
189.940300
 30
0.0
 10
43.317300
 20
189.940300
 30
0.0
 10
43.317300
 20
171.940300
 30
0.0
 10
25.317300
 20
171.940300
 30
0.0
  0
LWPOLYLINE
  5
13b
100
AcDbEntity
  8
Layer_1
 62
7
100
AcDbPolyline
 90
4
 70
1
 10
25.317300
 20
208.690300
 30
0.0
 10
43.317300
 20
208.690300
 30
0.0
 10
43.317300
 20
190.690300
 30
0.0
 10
25.317300
 20
190.690300
 30
0.0
  0
LWPOLYLINE
  5
13c
100
AcDbEntity
  8
Layer_1
 62
7
100
AcDbPolyline
 90
4
 70
1
 10
25.317300
 20
227.440300
 30
0.0
 10
43.317300
 20
227.440300
 30
0.0
 10
43.317300
 20
209.440300
 30
0.0
 10
25.317300
 20
209.440300
 30
0.0
  0
LWPOLYLINE
  5
13d
100
AcDbEntity
  8
Layer_1
 62
7
100
AcDbPolyline
 90
4
 70
1
 10
25.317300
 20
246.190300
 30
0.0
 10
43.317300
 20
246.190300
 30
0.0
 10
43.317300
 20
228.190300
 30
0.0
 10
25.317300
 20
228.190300
 30
0.0
  0
LWPOLYLINE
  5
13e
100
AcDbEntity
  8
Layer_1
 62
7
100
AcDbPolyline
 90
4
 70
1
 10
44.067300
 20
189.940300
 30
0.0
 10
62.067300
 20
189.940300
 30
0.0
 10
62.067300
 20
171.940300
 30
0.0
 10
44.067300
 20
171.940300
 30
0.0
  0
LWPOLYLINE
  5
13f
100
AcDbEntity
  8
Layer_1
 62
7
100
AcDbPolyline
 90
4
 70
1
 10
44.067300
 20
208.690300
 30
0.0
 10
62.067300
 20
208.690300
 30
0.0
 10
62.067300
 20
190.690300
 30
0.0
 10
44.067300
 20
190.690300
 30
0.0
  0
LWPOLYLINE
  5
140
100
AcDbEntity
  8
Layer_1
 62
7
100
AcDbPolyline
 90
4
 70
1
 10
44.067300
 20
227.440300
 30
0.0
 10
62.067300
 20
227.440300
 30
0.0
 10
62.067300
 20
209.440300
 30
0.0
 10
44.067300
 20
209.440300
 30
0.0
  0
LWPOLYLINE
  5
141
100
AcDbEntity
  8
Layer_1
 62
7
100
AcDbPolyline
 90
4
 70
1
 10
44.067300
 20
246.190300
 30
0.0
 10
62.067300
 20
246.190300
 30
0.0
 10
62.067300
 20
228.190300
 30
0.0
 10
44.067300
 20
228.190300
 30
0.0
  0
LWPOLYLINE
  5
142
100
AcDbEntity
  8
Layer_1
 62
7
100
AcDbPolyline
 90
4
 70
1
 10
62.817300
 20
195.940300
 30
0.0
 10
80.817300
 20
195.940300
 30
0.0
 10
80.817300
 20
177.940300
 30
0.0
 10
62.817300
 20
177.940300
 30
0.0
  0
LWPOLYLINE
  5
143
100
AcDbEntity
  8
Layer_1
 62
7
100
AcDbPolyline
 90
4
 70
1
 10
62.817300
 20
214.690300
 30
0.0
 10
80.817300
 20
214.690300
 30
0.0
 10
80.817300
 20
196.690300
 30
0.0
 10
62.817300
 20
196.690300
 30
0.0
  0
LWPOLYLINE
  5
144
100
AcDbEntity
  8
Layer_1
 62
7
100
AcDbPolyline
 90
4
 70
1
 10
62.817300
 20
233.440300
 30
0.0
 10
80.817300
 20
233.440300
 30
0.0
 10
80.817300
 20
215.440300
 30
0.0
 10
62.817300
 20
215.440300
 30
0.0
  0
LWPOLYLINE
  5
145
100
AcDbEntity
  8
Layer_1
 62
7
100
AcDbPolyline
 90
4
 70
1
 10
62.817300
 20
252.190300
 30
0.0
 10
80.817300
 20
252.190300
 30
0.0
 10
80.817300
 20
234.190300
 30
0.0
 10
62.817300
 20
234.190300
 30
0.0
  0
LWPOLYLINE
  5
146
100
AcDbEntity
  8
Layer_1
 62
7
100
AcDbPolyline
 90
4
 70
1
 10
81.567300
 20
180.190300
 30
0.0
 10
99.567300
 20
180.190300
 30
0.0
 10
99.567300
 20
162.190300
 30
0.0
 10
81.567300
 20
162.190300
 30
0.0
  0
LWPOLYLINE
  5
147
100
AcDbEntity
  8
Layer_1
 62
7
100
AcDbPolyline
 90
4
 70
1
 10
81.567300
 20
198.940300
 30
0.0
 10
99.567300
 20
198.940300
 30
0.0
 10
99.567300
 20
180.940300
 30
0.0
 10
81.567300
 20
180.940300
 30
0.0
  0
LWPOLYLINE
  5
148
100
AcDbEntity
  8
Layer_1
 62
7
100
AcDbPolyline
 90
4
 70
1
 10
81.567300
 20
217.690300
 30
0.0
 10
99.567300
 20
217.690300
 30
0.0
 10
99.567300
 20
199.690300
 30
0.0
 10
81.567300
 20
199.690300
 30
0.0
  0
LWPOLYLINE
  5
149
100
AcDbEntity
  8
Layer_1
 62
7
100
AcDbPolyline
 90
4
 70
1
 10
81.567300
 20
236.440300
 30
0.0
 10
99.567300
 20
236.440300
 30
0.0
 10
99.567300
 20
218.440300
 30
0.0
 10
81.567300
 20
218.440300
 30
0.0
  0
LWPOLYLINE
  5
14a
100
AcDbEntity
  8
Layer_1
 62
7
100
AcDbPolyline
 90
4
 70
1
 10
81.567300
 20
255.190300
 30
0.0
 10
99.567300
 20
255.190300
 30
0.0
 10
99.567300
 20
237.190300
 30
0.0
 10
81.567300
 20
237.190300
 30
0.0
  0
LWPOLYLINE
  5
14b
100
AcDbEntity
  8
Layer_1
 62
7
100
AcDbPolyline
 90
4
 70
1
 10
100.317300
 20
177.190300
 30
0.0
 10
118.317300
 20
177.190300
 30
0.0
 10
118.317300
 20
159.190300
 30
0.0
 10
100.317300
 20
159.190300
 30
0.0
  0
LWPOLYLINE
  5
14c
100
AcDbEntity
  8
Layer_1
 62
7
100
AcDbPolyline
 90
4
 70
1
 10
100.317300
 20
195.940300
 30
0.0
 10
118.317300
 20
195.940300
 30
0.0
 10
118.317300
 20
177.940300
 30
0.0
 10
100.317300
 20
177.940300
 30
0.0
  0
LWPOLYLINE
  5
14d
100
AcDbEntity
  8
Layer_1
 62
7
100
AcDbPolyline
 90
4
 70
1
 10
100.317300
 20
214.690300
 30
0.0
 10
118.317300
 20
214.690300
 30
0.0
 10
118.317300
 20
196.690300
 30
0.0
 10
100.317300
 20
196.690300
 30
0.0
  0
LWPOLYLINE
  5
14e
100
AcDbEntity
  8
Layer_1
 62
7
100
AcDbPolyline
 90
4
 70
1
 10
100.317300
 20
233.440300
 30
0.0
 10
118.317300
 20
233.440300
 30
0.0
 10
118.317300
 20
215.440300
 30
0.0
 10
100.317300
 20
215.440300
 30
0.0
  0
LWPOLYLINE
  5
14f
100
AcDbEntity
  8
Layer_1
 62
7
100
AcDbPolyline
 90
4
 70
1
 10
100.317300
 20
252.190300
 30
0.0
 10
118.317300
 20
252.190300
 30
0.0
 10
118.317300
 20
234.190300
 30
0.0
 10
100.317300
 20
234.190300
 30
0.0
  0
LWPOLYLINE
  5
150
100
AcDbEntity
  8
Layer_1
 62
7
100
AcDbPolyline
 90
4
 70
1
 10
119.067300
 20
189.940300
 30
0.0
 10
137.067300
 20
189.940300
 30
0.0
 10
137.067300
 20
171.940300
 30
0.0
 10
119.067300
 20
171.940300
 30
0.0
  0
LWPOLYLINE
  5
151
100
AcDbEntity
  8
Layer_1
 62
7
100
AcDbPolyline
 90
4
 70
1
 10
119.067300
 20
208.690300
 30
0.0
 10
137.067300
 20
208.690300
 30
0.0
 10
137.067300
 20
190.690300
 30
0.0
 10
119.067300
 20
190.690300
 30
0.0
  0
LWPOLYLINE
  5
152
100
AcDbEntity
  8
Layer_1
 62
7
100
AcDbPolyline
 90
4
 70
1
 10
119.067300
 20
227.440300
 30
0.0
 10
137.067300
 20
227.440300
 30
0.0
 10
137.067300
 20
209.440300
 30
0.0
 10
119.067300
 20
209.440300
 30
0.0
  0
LWPOLYLINE
  5
153
100
AcDbEntity
  8
Layer_1
 62
7
100
AcDbPolyline
 90
4
 70
1
 10
119.067300
 20
246.190300
 30
0.0
 10
137.067300
 20
246.190300
 30
0.0
 10
137.067300
 20
228.190300
 30
0.0
 10
119.067300
 20
228.190300
 30
0.0
  0
LWPOLYLINE
  5
154
100
AcDbEntity
  8
Layer_1
 62
7
100
AcDbPolyline
 90
4
 70
1
 10
137.817300
 20
208.690300
 30
0.0
 10
155.817300
 20
208.690300
 30
0.0
 10
155.817300
 20
190.690300
 30
0.0
 10
137.817300
 20
190.690300
 30
0.0
  0
LWPOLYLINE
  5
155
100
AcDbEntity
  8
Layer_1
 62
7
100
AcDbPolyline
 90
4
 70
1
 10
137.817300
 20
227.440300
 30
0.0
 10
155.817300
 20
227.440300
 30
0.0
 10
155.817300
 20
209.440300
 30
0.0
 10
137.817300
 20
209.440300
 30
0.0
  0
LWPOLYLINE
  5
156
100
AcDbEntity
  8
Layer_1
 62
7
100
AcDbPolyline
 90
4
 70
1
 10
163.356400
 20
165.259600
 30
0.0
 10
153.032000
 20
150.514800
 30
0.0
 10
138.287300
 20
160.839200
 30
0.0
 10
148.611700
 20
175.584000
 30
0.0
  0
LWPOLYLINE
  5
157
100
AcDbEntity
  8
Layer_1
 62
7
100
AcDbPolyline
 90
4
 70
1
 10
173.409900
 20
146.927900
 30
0.0
 10
163.085600
 20
132.183100
 30
0.0
 10
148.340800
 20
142.507500
 30
0.0
 10
158.665200
 20
157.252200
 30
0.0
  0
LWPOLYLINE
  5
158
100
AcDbEntity
  8
Layer_1
 62
7
100
AcDbPolyline
 90
4
 70
1
 10
184.164500
 20
162.287000
 30
0.0
 10
173.840100
 20
147.542200
 30
0.0
 10
159.095400
 20
157.866600
 30
0.0
 10
169.419800
 20
172.611300
 30
0.0
  0
LWPOLYLINE
  5
159
100
AcDbEntity
  8
Layer_1
 62
7
100
AcDbPolyline
 90
4
 70
1
 10
26.593300
 20
260.746300
 30
0.0
 10
26.593300
 20
253.380300
 30
0.0
 10
21.513300
 20
253.380300
 30
0.0
 10
21.513300
 20
260.746300
 30
0.0
  0
LWPOLYLINE
  5
15a
100
AcDbEntity
  8
Layer_1
 62
7
100
AcDbPolyline
 90
3
 70
0
 10
74.867300
 20
269.290300
 30
0.0
 10
78.767300
 20
269.290300
 30
0.0
 10
78.767300
 20
266.790300
 30
0.0
  0
SPLINE
  5
15b
100
AcDbEntity
  8
Layer_1
 62
7
100
AcDbSpline
 70
8
 71
3
 72
8
 73
4
 74
0
 40
0
 40
0
 40
0
 40
0
 40
1
 40
1
 40
1
 40
1
 10
128.067300
 20
171.440300
 30
0.0
 10
126.449451
 20
171.440300
 30
0.0
 10
124.990906
 20
170.465731
 30
0.0
 10
124.371782
 20
168.971034
 30
0.0
  0
SPLINE
  5
15c
100
AcDbEntity
  8
Layer_1
 62
7
100
AcDbSpline
 70
8
 71
3
 72
8
 73
4
 74
0
 40
0
 40
0
 40
0
 40
0
 40
1
 40
1
 40
1
 40
1
 10
124.371782
 20
168.971034
 30
0.0
 10
123.752658
 20
167.476336
 30
0.0
 10
124.094881
 20
165.755865
 30
0.0
 10
125.238873
 20
164.611873
 30
0.0
  0
SPLINE
  5
15d
100
AcDbEntity
  8
Layer_1
 62
7
100
AcDbSpline
 70
8
 71
3
 72
8
 73
4
 74
0
 40
0
 40
0
 40
0
 40
0
 40
1
 40
1
 40
1
 40
1
 10
125.238873
 20
164.611873
 30
0.0
 10
126.382865
 20
163.467881
 30
0.0
 10
128.103336
 20
163.125658
 30
0.0
 10
129.598034
 20
163.744782
 30
0.0
  0
SPLINE
  5
15e
100
AcDbEntity
  8
Layer_1
 62
7
100
AcDbSpline
 70
8
 71
3
 72
8
 73
4
 74
0
 40
0
 40
0
 40
0
 40
0
 40
1
 40
1
 40
1
 40
1
 10
129.598034
 20
163.744782
 30
0.0
 10
131.092731
 20
164.363906
 30
0.0
 10
132.067300
 20
165.822451
 30
0.0
 10
132.067300
 20
167.440300
 30
0.0
  0
SPLINE
  5
15f
100
AcDbEntity
  8
Layer_1
 62
7
100
AcDbSpline
 70
8
 71
3
 72
8
 73
4
 74
0
 40
0
 40
0
 40
0
 40
0
 40
1
 40
1
 40
1
 40
1
 10
132.067300
 20
167.440300
 30
0.0
 10
132.067300
 20
168.501166
 30
0.0
 10
131.645873
 20
169.518582
 30
0.0
 10
130.895727
 20
170.268727
 30
0.0
  0
SPLINE
  5
160
100
AcDbEntity
  8
Layer_1
 62
7
100
AcDbSpline
 70
8
 71
3
 72
8
 73
4
 74
0
 40
0
 40
0
 40
0
 40
0
 40
1
 40
1
 40
1
 40
1
 10
130.895727
 20
170.268727
 30
0.0
 10
130.145582
 20
171.018873
 30
0.0
 10
129.128166
 20
171.440300
 30
0.0
 10
128.067300
 20
171.440300
 30
0.0
  0
LWPOLYLINE
  5
161
100
AcDbEntity
  8
Layer_1
 62
7
100
AcDbPolyline
 90
2
 70
0
 10
74.867300
 20
266.790300
 30
0.0
 10
74.867300
 20
269.290300
 30
0.0
  0
SPLINE
  5
162
100
AcDbEntity
  8
Layer_1
 62
7
100
AcDbSpline
 70
8
 71
3
 72
8
 73
4
 74
0
 40
0
 40
0
 40
0
 40
0
 40
1
 40
1
 40
1
 40
1
 10
146.817300
 20
235.940300
 30
0.0
 10
145.199451
 20
235.940300
 30
0.0
 10
143.740906
 20
234.965731
 30
0.0
 10
143.121782
 20
233.471034
 30
0.0
  0
SPLINE
  5
163
100
AcDbEntity
  8
Layer_1
 62
7
100
AcDbSpline
 70
8
 71
3
 72
8
 73
4
 74
0
 40
0
 40
0
 40
0
 40
0
 40
1
 40
1
 40
1
 40
1
 10
143.121782
 20
233.471034
 30
0.0
 10
142.502658
 20
231.976336
 30
0.0
 10
142.844881
 20
230.255865
 30
0.0
 10
143.988873
 20
229.111873
 30
0.0
  0
SPLINE
  5
164
100
AcDbEntity
  8
Layer_1
 62
7
100
AcDbSpline
 70
8
 71
3
 72
8
 73
4
 74
0
 40
0
 40
0
 40
0
 40
0
 40
1
 40
1
 40
1
 40
1
 10
143.988873
 20
229.111873
 30
0.0
 10
145.132865
 20
227.967881
 30
0.0
 10
146.853336
 20
227.625658
 30
0.0
 10
148.348034
 20
228.244782
 30
0.0
  0
SPLINE
  5
165
100
AcDbEntity
  8
Layer_1
 62
7
100
AcDbSpline
 70
8
 71
3
 72
8
 73
4
 74
0
 40
0
 40
0
 40
0
 40
0
 40
1
 40
1
 40
1
 40
1
 10
148.348034
 20
228.244782
 30
0.0
 10
149.842731
 20
228.863906
 30
0.0
 10
150.817300
 20
230.322451
 30
0.0
 10
150.817300
 20
231.940300
 30
0.0
  0
SPLINE
  5
166
100
AcDbEntity
  8
Layer_1
 62
7
100
AcDbSpline
 70
8
 71
3
 72
8
 73
4
 74
0
 40
0
 40
0
 40
0
 40
0
 40
1
 40
1
 40
1
 40
1
 10
150.817300
 20
231.940300
 30
0.0
 10
150.817300
 20
233.001166
 30
0.0
 10
150.395873
 20
234.018582
 30
0.0
 10
149.645727
 20
234.768727
 30
0.0
  0
SPLINE
  5
167
100
AcDbEntity
  8
Layer_1
 62
7
100
AcDbSpline
 70
8
 71
3
 72
8
 73
4
 74
0
 40
0
 40
0
 40
0
 40
0
 40
1
 40
1
 40
1
 40
1
 10
149.645727
 20
234.768727
 30
0.0
 10
148.895582
 20
235.518873
 30
0.0
 10
147.878166
 20
235.940300
 30
0.0
 10
146.817300
 20
235.940300
 30
0.0
  0
LWPOLYLINE
  5
168
100
AcDbEntity
  8
Layer_1
 62
7
100
AcDbPolyline
 90
1
 70
1
 10
128.067300
 20
171.440300
 30
0.0
  0
SPLINE
  5
169
100
AcDbEntity
  8
Layer_1
 62
7
100
AcDbSpline
 70
8
 71
3
 72
8
 73
4
 74
0
 40
0
 40
0
 40
0
 40
0
 40
1
 40
1
 40
1
 40
1
 10
71.817300
 20
177.415310
 30
0.0
 10
70.199451
 20
177.415310
 30
0.0
 10
68.740906
 20
176.440741
 30
0.0
 10
68.121782
 20
174.946044
 30
0.0
  0
SPLINE
  5
16a
100
AcDbEntity
  8
Layer_1
 62
7
100
AcDbSpline
 70
8
 71
3
 72
8
 73
4
 74
0
 40
0
 40
0
 40
0
 40
0
 40
1
 40
1
 40
1
 40
1
 10
68.121782
 20
174.946044
 30
0.0
 10
67.502658
 20
173.451346
 30
0.0
 10
67.844881
 20
171.730875
 30
0.0
 10
68.988873
 20
170.586883
 30
0.0
  0
SPLINE
  5
16b
100
AcDbEntity
  8
Layer_1
 62
7
100
AcDbSpline
 70
8
 71
3
 72
8
 73
4
 74
0
 40
0
 40
0
 40
0
 40
0
 40
1
 40
1
 40
1
 40
1
 10
68.988873
 20
170.586883
 30
0.0
 10
70.132865
 20
169.442891
 30
0.0
 10
71.853336
 20
169.100668
 30
0.0
 10
73.348034
 20
169.719792
 30
0.0
  0
SPLINE
  5
16c
100
AcDbEntity
  8
Layer_1
 62
7
100
AcDbSpline
 70
8
 71
3
 72
8
 73
4
 74
0
 40
0
 40
0
 40
0
 40
0
 40
1
 40
1
 40
1
 40
1
 10
73.348034
 20
169.719792
 30
0.0
 10
74.842731
 20
170.338916
 30
0.0
 10
75.817300
 20
171.797461
 30
0.0
 10
75.817300
 20
173.415310
 30
0.0
  0
SPLINE
  5
16d
100
AcDbEntity
  8
Layer_1
 62
7
100
AcDbSpline
 70
8
 71
3
 72
8
 73
4
 74
0
 40
0
 40
0
 40
0
 40
0
 40
1
 40
1
 40
1
 40
1
 10
75.817300
 20
173.415310
 30
0.0
 10
75.817300
 20
174.476176
 30
0.0
 10
75.395873
 20
175.493592
 30
0.0
 10
74.645727
 20
176.243737
 30
0.0
  0
SPLINE
  5
16e
100
AcDbEntity
  8
Layer_1
 62
7
100
AcDbSpline
 70
8
 71
3
 72
8
 73
4
 74
0
 40
0
 40
0
 40
0
 40
0
 40
1
 40
1
 40
1
 40
1
 10
74.645727
 20
176.243737
 30
0.0
 10
73.895582
 20
176.993883
 30
0.0
 10
72.878166
 20
177.415310
 30
0.0
 10
71.817300
 20
177.415310
 30
0.0
  0
LWPOLYLINE
  5
16f
100
AcDbEntity
  8
Layer_1
 62
7
100
AcDbPolyline
 90
1
 70
1
 10
146.817300
 20
235.940300
 30
0.0
  0
SPLINE
  5
170
100
AcDbEntity
  8
Layer_1
 62
7
100
AcDbSpline
 70
8
 71
3
 72
8
 73
4
 74
0
 40
0
 40
0
 40
0
 40
0
 40
1
 40
1
 40
1
 40
1
 10
71.817300
 20
260.690300
 30
0.0
 10
70.199451
 20
260.690300
 30
0.0
 10
68.740906
 20
259.715731
 30
0.0
 10
68.121782
 20
258.221034
 30
0.0
  0
SPLINE
  5
171
100
AcDbEntity
  8
Layer_1
 62
7
100
AcDbSpline
 70
8
 71
3
 72
8
 73
4
 74
0
 40
0
 40
0
 40
0
 40
0
 40
1
 40
1
 40
1
 40
1
 10
68.121782
 20
258.221034
 30
0.0
 10
67.502658
 20
256.726336
 30
0.0
 10
67.844881
 20
255.005865
 30
0.0
 10
68.988873
 20
253.861873
 30
0.0
  0
SPLINE
  5
172
100
AcDbEntity
  8
Layer_1
 62
7
100
AcDbSpline
 70
8
 71
3
 72
8
 73
4
 74
0
 40
0
 40
0
 40
0
 40
0
 40
1
 40
1
 40
1
 40
1
 10
68.988873
 20
253.861873
 30
0.0
 10
70.132865
 20
252.717881
 30
0.0
 10
71.853336
 20
252.375658
 30
0.0
 10
73.348034
 20
252.994782
 30
0.0
  0
SPLINE
  5
173
100
AcDbEntity
  8
Layer_1
 62
7
100
AcDbSpline
 70
8
 71
3
 72
8
 73
4
 74
0
 40
0
 40
0
 40
0
 40
0
 40
1
 40
1
 40
1
 40
1
 10
73.348034
 20
252.994782
 30
0.0
 10
74.842731
 20
253.613906
 30
0.0
 10
75.817300
 20
255.072451
 30
0.0
 10
75.817300
 20
256.690300
 30
0.0
  0
SPLINE
  5
174
100
AcDbEntity
  8
Layer_1
 62
7
100
AcDbSpline
 70
8
 71
3
 72
8
 73
4
 74
0
 40
0
 40
0
 40
0
 40
0
 40
1
 40
1
 40
1
 40
1
 10
75.817300
 20
256.690300
 30
0.0
 10
75.817300
 20
257.751166
 30
0.0
 10
75.395873
 20
258.768582
 30
0.0
 10
74.645727
 20
259.518727
 30
0.0
  0
SPLINE
  5
175
100
AcDbEntity
  8
Layer_1
 62
7
100
AcDbSpline
 70
8
 71
3
 72
8
 73
4
 74
0
 40
0
 40
0
 40
0
 40
0
 40
1
 40
1
 40
1
 40
1
 10
74.645727
 20
259.518727
 30
0.0
 10
73.895582
 20
260.268873
 30
0.0
 10
72.878166
 20
260.690300
 30
0.0
 10
71.817300
 20
260.690300
 30
0.0
  0
LWPOLYLINE
  5
176
100
AcDbEntity
  8
Layer_1
 62
7
100
AcDbPolyline
 90
1
 70
1
 10
71.817300
 20
177.415310
 30
0.0
  0
LWPOLYLINE
  5
177
100
AcDbEntity
  8
Layer_1
 62
7
100
AcDbPolyline
 90
1
 70
1
 10
71.817300
 20
260.690300
 30
0.0
  0
ENDSEC
  0
SECTION
  2
OBJECTS
  0
DICTIONARY
  5
C
330
0
100
AcDbDictionary
  3
ACAD_GROUP
350
D
  3
ACAD_MLINESTYLE
350
17
  0
DICTIONARY
  5
D
330
C
100
AcDbDictionary
  0
DICTIONARY
  5
1A
330
C
100
AcDbDictionary
  0
DICTIONARY
  5
17
330
C
100
AcDbDictionary
  3
STANDARD
350
18
  0
DICTIONARY
  5
19
330
C
100
AcDbDictionary
  0
ENDSEC
  0
EOF
