0
SECTION
2
HEADER
9
$INSUNITS
70
4
0
ENDSEC
0
SECTION
2
TABLES
0
TABLE
2
LTYPE
0
LTYPE
72
65
70
64
2
CONTINUOUS
3
______
73
0
40
0
0
ENDTAB
0
TABLE
2
LAYER
0
ENDTAB
0
ENDSEC
0
SECTION
2
ENTITIES
0
LINE
8
0
10
92.975
20
-138.275
11
107.025
21
-138.275
0
LINE
8
0
10
107.025
20
-138.275
11
107.025
21
-124.225
0
LINE
8
0
10
107.025
20
-124.225
11
92.975
21
-124.225
0
LINE
8
0
10
92.975
20
-124.225
11
92.975
21
-138.275
0
LINE
8
0
10
92.975
20
-119.525
11
107.025
21
-119.525
0
LINE
8
0
10
107.025
20
-119.525
11
107.025
21
-105.475
0
LINE
8
0
10
107.025
20
-105.475
11
92.975
21
-105.475
0
LINE
8
0
10
92.975
20
-105.475
11
92.975
21
-119.525
0
LINE
8
0
10
92.975
20
-100.775
11
107.025
21
-100.775
0
LINE
8
0
10
107.025
20
-100.775
11
107.025
21
-86.725
0
LINE
8
0
10
107.025
20
-86.725
11
92.975
21
-86.725
0
LINE
8
0
10
92.975
20
-86.725
11
92.975
21
-100.775
0
LINE
8
0
10
92.975
20
-82.025
11
107.025
21
-82.025
0
LINE
8
0
10
107.025
20
-82.025
11
107.025
21
-67.975
0
LINE
8
0
10
107.025
20
-67.975
11
92.975
21
-67.975
0
LINE
8
0
10
92.975
20
-67.975
11
92.975
21
-82.025
0
LINE
8
0
10
111.725
20
-138.275
11
125.775
21
-138.275
0
LINE
8
0
10
125.775
20
-138.275
11
125.775
21
-124.225
0
LINE
8
0
10
125.775
20
-124.225
11
111.725
21
-124.225
0
LINE
8
0
10
111.725
20
-124.225
11
111.725
21
-138.275
0
LINE
8
0
10
111.725
20
-119.525
11
125.775
21
-119.525
0
LINE
8
0
10
125.775
20
-119.525
11
125.775
21
-105.475
0
LINE
8
0
10
125.775
20
-105.475
11
111.725
21
-105.475
0
LINE
8
0
10
111.725
20
-105.475
11
111.725
21
-119.525
0
LINE
8
0
10
111.725
20
-100.775
11
125.775
21
-100.775
0
LINE
8
0
10
125.775
20
-100.775
11
125.775
21
-86.725
0
LINE
8
0
10
125.775
20
-86.725
11
111.725
21
-86.725
0
LINE
8
0
10
111.725
20
-86.725
11
111.725
21
-100.775
0
LINE
8
0
10
111.725
20
-82.025
11
125.775
21
-82.025
0
LINE
8
0
10
125.775
20
-82.025
11
125.775
21
-67.975
0
LINE
8
0
10
125.775
20
-67.975
11
111.725
21
-67.975
0
LINE
8
0
10
111.725
20
-67.975
11
111.725
21
-82.025
0
LINE
8
0
10
130.475
20
-132.275
11
144.525
21
-132.275
0
LINE
8
0
10
144.525
20
-132.275
11
144.525
21
-118.225
0
LINE
8
0
10
144.525
20
-118.225
11
130.475
21
-118.225
0
LINE
8
0
10
130.475
20
-118.225
11
130.475
21
-132.275
0
LINE
8
0
10
130.475
20
-113.525
11
144.525
21
-113.525
0
LINE
8
0
10
144.525
20
-113.525
11
144.525
21
-99.475
0
LINE
8
0
10
144.525
20
-99.475
11
130.475
21
-99.475
0
LINE
8
0
10
130.475
20
-99.475
11
130.475
21
-113.525
0
LINE
8
0
10
130.475
20
-94.775
11
144.525
21
-94.775
0
LINE
8
0
10
144.525
20
-94.775
11
144.525
21
-80.725
0
LINE
8
0
10
144.525
20
-80.725
11
130.475
21
-80.725
0
LINE
8
0
10
130.475
20
-80.725
11
130.475
21
-94.775
0
LINE
8
0
10
130.475
20
-76.025
11
144.525
21
-76.025
0
LINE
8
0
10
144.525
20
-76.025
11
144.525
21
-61.975
0
LINE
8
0
10
144.525
20
-61.975
11
130.475
21
-61.975
0
LINE
8
0
10
130.475
20
-61.975
11
130.475
21
-76.025
0
LINE
8
0
10
149.225
20
-148.025
11
163.275
21
-148.025
0
LINE
8
0
10
163.275
20
-148.025
11
163.275
21
-133.975
0
LINE
8
0
10
163.275
20
-133.975
11
149.225
21
-133.975
0
LINE
8
0
10
149.225
20
-133.975
11
149.225
21
-148.025
0
LINE
8
0
10
149.225
20
-129.275
11
163.275
21
-129.275
0
LINE
8
0
10
163.275
20
-129.275
11
163.275
21
-115.225
0
LINE
8
0
10
163.275
20
-115.225
11
149.225
21
-115.225
0
LINE
8
0
10
149.225
20
-115.225
11
149.225
21
-129.275
0
LINE
8
0
10
149.225
20
-110.525
11
163.275
21
-110.525
0
LINE
8
0
10
163.275
20
-110.525
11
163.275
21
-96.475
0
LINE
8
0
10
163.275
20
-96.475
11
149.225
21
-96.475
0
LINE
8
0
10
149.225
20
-96.475
11
149.225
21
-110.525
0
LINE
8
0
10
149.225
20
-91.775
11
163.275
21
-91.775
0
LINE
8
0
10
163.275
20
-91.775
11
163.275
21
-77.725
0
LINE
8
0
10
163.275
20
-77.725
11
149.225
21
-77.725
0
LINE
8
0
10
149.225
20
-77.725
11
149.225
21
-91.775
0
LINE
8
0
10
149.225
20
-73.025
11
163.275
21
-73.025
0
LINE
8
0
10
163.275
20
-73.025
11
163.275
21
-58.975
0
LINE
8
0
10
163.275
20
-58.975
11
149.225
21
-58.975
0
LINE
8
0
10
149.225
20
-58.975
11
149.225
21
-73.025
0
LINE
8
0
10
167.975
20
-151.025
11
182.025
21
-151.025
0
LINE
8
0
10
182.025
20
-151.025
11
182.025
21
-136.975
0
LINE
8
0
10
182.025
20
-136.975
11
167.975
21
-136.975
0
LINE
8
0
10
167.975
20
-136.975
11
167.975
21
-151.025
0
LINE
8
0
10
167.975
20
-132.275
11
182.025
21
-132.275
0
LINE
8
0
10
182.025
20
-132.275
11
182.025
21
-118.225
0
LINE
8
0
10
182.025
20
-118.225
11
167.975
21
-118.225
0
LINE
8
0
10
167.975
20
-118.225
11
167.975
21
-132.275
0
LINE
8
0
10
167.975
20
-113.525
11
182.025
21
-113.525
0
LINE
8
0
10
182.025
20
-113.525
11
182.025
21
-99.475
0
LINE
8
0
10
182.025
20
-99.475
11
167.975
21
-99.475
0
LINE
8
0
10
167.975
20
-99.475
11
167.975
21
-113.525
0
LINE
8
0
10
167.975
20
-94.775
11
182.025
21
-94.775
0
LINE
8
0
10
182.025
20
-94.775
11
182.025
21
-80.725
0
LINE
8
0
10
182.025
20
-80.725
11
167.975
21
-80.725
0
LINE
8
0
10
167.975
20
-80.725
11
167.975
21
-94.775
0
LINE
8
0
10
167.975
20
-76.025
11
182.025
21
-76.025
0
LINE
8
0
10
182.025
20
-76.025
11
182.025
21
-61.975
0
LINE
8
0
10
182.025
20
-61.975
11
167.975
21
-61.975
0
LINE
8
0
10
167.975
20
-61.975
11
167.975
21
-76.025
0
LINE
8
0
10
186.725
20
-138.275
11
200.775
21
-138.275
0
LINE
8
0
10
200.775
20
-138.275
11
200.775
21
-124.225
0
LINE
8
0
10
200.775
20
-124.225
11
186.725
21
-124.225
0
LINE
8
0
10
186.725
20
-124.225
11
186.725
21
-138.275
0
LINE
8
0
10
186.725
20
-119.525
11
200.775
21
-119.525
0
LINE
8
0
10
200.775
20
-119.525
11
200.775
21
-105.475
0
LINE
8
0
10
200.775
20
-105.475
11
186.725
21
-105.475
0
LINE
8
0
10
186.725
20
-105.475
11
186.725
21
-119.525
0
LINE
8
0
10
186.725
20
-100.775
11
200.775
21
-100.775
0
LINE
8
0
10
200.775
20
-100.775
11
200.775
21
-86.725
0
LINE
8
0
10
200.775
20
-86.725
11
186.725
21
-86.725
0
LINE
8
0
10
186.725
20
-86.725
11
186.725
21
-100.775
0
LINE
8
0
10
186.725
20
-82.025
11
200.775
21
-82.025
0
LINE
8
0
10
200.775
20
-82.025
11
200.775
21
-67.975
0
LINE
8
0
10
200.775
20
-67.975
11
186.725
21
-67.975
0
LINE
8
0
10
186.725
20
-67.975
11
186.725
21
-82.025
0
LINE
8
0
10
205.475
20
-119.525
11
219.525
21
-119.525
0
LINE
8
0
10
219.525
20
-119.525
11
219.525
21
-105.475
0
LINE
8
0
10
219.525
20
-105.475
11
205.475
21
-105.475
0
LINE
8
0
10
205.475
20
-105.475
11
205.475
21
-119.525
0
LINE
8
0
10
205.475
20
-100.775
11
219.525
21
-100.775
0
LINE
8
0
10
219.525
20
-100.775
11
219.525
21
-86.725
0
LINE
8
0
10
219.525
20
-86.725
11
205.475
21
-86.725
0
LINE
8
0
10
205.475
20
-86.725
11
205.475
21
-100.775
0
LINE
8
0
10
206.7206406
20
-150.8660678
11
218.2297268
21
-158.9248168
0
LINE
8
0
10
218.2297268
20
-158.9248168
11
226.2884758
21
-147.4157306
0
LINE
8
0
10
226.2884758
20
-147.4157306
11
214.7793896
21
-139.3569816
0
LINE
8
0
10
214.7793896
20
-139.3569816
11
206.7206406
21
-150.8660678
0
LINE
8
0
10
216.7741594
20
-169.1977824
11
228.2832456
21
-177.2565314
0
LINE
8
0
10
228.2832456
20
-177.2565314
11
236.3419946
21
-165.7474452
0
LINE
8
0
10
236.3419946
20
-165.7474452
11
224.8329084
21
-157.6886962
0
LINE
8
0
10
224.8329084
20
-157.6886962
11
216.7741594
21
-169.1977824
0
LINE
8
0
10
227.5287176
20
-153.8386816
11
239.0378038
21
-161.8974306
0
LINE
8
0
10
239.0378038
20
-161.8974306
11
247.0965528
21
-150.3883444
0
LINE
8
0
10
247.0965528
20
-150.3883444
11
235.5874666
21
-142.3295954
0
LINE
8
0
10
235.5874666
20
-142.3295954
11
227.5287176
21
-153.8386816
0
LINE
8
0
10
402.975
20
-138.275
11
417.025
21
-138.275
0
LINE
8
0
10
417.025
20
-138.275
11
417.025
21
-124.225
0
LINE
8
0
10
417.025
20
-124.225
11
402.975
21
-124.225
0
LINE
8
0
10
402.975
20
-124.225
11
402.975
21
-138.275
0
LINE
8
0
10
402.975
20
-119.525
11
417.025
21
-119.525
0
LINE
8
0
10
417.025
20
-119.525
11
417.025
21
-105.475
0
LINE
8
0
10
417.025
20
-105.475
11
402.975
21
-105.475
0
LINE
8
0
10
402.975
20
-105.475
11
402.975
21
-119.525
0
LINE
8
0
10
402.975
20
-100.775
11
417.025
21
-100.775
0
LINE
8
0
10
417.025
20
-100.775
11
417.025
21
-86.725
0
LINE
8
0
10
417.025
20
-86.725
11
402.975
21
-86.725
0
LINE
8
0
10
402.975
20
-86.725
11
402.975
21
-100.775
0
LINE
8
0
10
402.975
20
-82.025
11
417.025
21
-82.025
0
LINE
8
0
10
417.025
20
-82.025
11
417.025
21
-67.975
0
LINE
8
0
10
417.025
20
-67.975
11
402.975
21
-67.975
0
LINE
8
0
10
402.975
20
-67.975
11
402.975
21
-82.025
0
LINE
8
0
10
384.225
20
-138.275
11
398.275
21
-138.275
0
LINE
8
0
10
398.275
20
-138.275
11
398.275
21
-124.225
0
LINE
8
0
10
398.275
20
-124.225
11
384.225
21
-124.225
0
LINE
8
0
10
384.225
20
-124.225
11
384.225
21
-138.275
0
LINE
8
0
10
384.225
20
-119.525
11
398.275
21
-119.525
0
LINE
8
0
10
398.275
20
-119.525
11
398.275
21
-105.475
0
LINE
8
0
10
398.275
20
-105.475
11
384.225
21
-105.475
0
LINE
8
0
10
384.225
20
-105.475
11
384.225
21
-119.525
0
LINE
8
0
10
384.225
20
-100.775
11
398.275
21
-100.775
0
LINE
8
0
10
398.275
20
-100.775
11
398.275
21
-86.725
0
LINE
8
0
10
398.275
20
-86.725
11
384.225
21
-86.725
0
LINE
8
0
10
384.225
20
-86.725
11
384.225
21
-100.775
0
LINE
8
0
10
384.225
20
-82.025
11
398.275
21
-82.025
0
LINE
8
0
10
398.275
20
-82.025
11
398.275
21
-67.975
0
LINE
8
0
10
398.275
20
-67.975
11
384.225
21
-67.975
0
LINE
8
0
10
384.225
20
-67.975
11
384.225
21
-82.025
0
LINE
8
0
10
365.475
20
-132.275
11
379.525
21
-132.275
0
LINE
8
0
10
379.525
20
-132.275
11
379.525
21
-118.225
0
LINE
8
0
10
379.525
20
-118.225
11
365.475
21
-118.225
0
LINE
8
0
10
365.475
20
-118.225
11
365.475
21
-132.275
0
LINE
8
0
10
365.475
20
-113.525
11
379.525
21
-113.525
0
LINE
8
0
10
379.525
20
-113.525
11
379.525
21
-99.475
0
LINE
8
0
10
379.525
20
-99.475
11
365.475
21
-99.475
0
LINE
8
0
10
365.475
20
-99.475
11
365.475
21
-113.525
0
LINE
8
0
10
365.475
20
-94.775
11
379.525
21
-94.775
0
LINE
8
0
10
379.525
20
-94.775
11
379.525
21
-80.725
0
LINE
8
0
10
379.525
20
-80.725
11
365.475
21
-80.725
0
LINE
8
0
10
365.475
20
-80.725
11
365.475
21
-94.775
0
LINE
8
0
10
365.475
20
-76.025
11
379.525
21
-76.025
0
LINE
8
0
10
379.525
20
-76.025
11
379.525
21
-61.975
0
LINE
8
0
10
379.525
20
-61.975
11
365.475
21
-61.975
0
LINE
8
0
10
365.475
20
-61.975
11
365.475
21
-76.025
0
LINE
8
0
10
346.725
20
-148.025
11
360.775
21
-148.025
0
LINE
8
0
10
360.775
20
-148.025
11
360.775
21
-133.975
0
LINE
8
0
10
360.775
20
-133.975
11
346.725
21
-133.975
0
LINE
8
0
10
346.725
20
-133.975
11
346.725
21
-148.025
0
LINE
8
0
10
346.725
20
-129.275
11
360.775
21
-129.275
0
LINE
8
0
10
360.775
20
-129.275
11
360.775
21
-115.225
0
LINE
8
0
10
360.775
20
-115.225
11
346.725
21
-115.225
0
LINE
8
0
10
346.725
20
-115.225
11
346.725
21
-129.275
0
LINE
8
0
10
346.725
20
-110.525
11
360.775
21
-110.525
0
LINE
8
0
10
360.775
20
-110.525
11
360.775
21
-96.475
0
LINE
8
0
10
360.775
20
-96.475
11
346.725
21
-96.475
0
LINE
8
0
10
346.725
20
-96.475
11
346.725
21
-110.525
0
LINE
8
0
10
346.725
20
-91.775
11
360.775
21
-91.775
0
LINE
8
0
10
360.775
20
-91.775
11
360.775
21
-77.725
0
LINE
8
0
10
360.775
20
-77.725
11
346.725
21
-77.725
0
LINE
8
0
10
346.725
20
-77.725
11
346.725
21
-91.775
0
LINE
8
0
10
346.725
20
-73.025
11
360.775
21
-73.025
0
LINE
8
0
10
360.775
20
-73.025
11
360.775
21
-58.975
0
LINE
8
0
10
360.775
20
-58.975
11
346.725
21
-58.975
0
LINE
8
0
10
346.725
20
-58.975
11
346.725
21
-73.025
0
LINE
8
0
10
327.975
20
-151.025
11
342.025
21
-151.025
0
LINE
8
0
10
342.025
20
-151.025
11
342.025
21
-136.975
0
LINE
8
0
10
342.025
20
-136.975
11
327.975
21
-136.975
0
LINE
8
0
10
327.975
20
-136.975
11
327.975
21
-151.025
0
LINE
8
0
10
327.975
20
-132.275
11
342.025
21
-132.275
0
LINE
8
0
10
342.025
20
-132.275
11
342.025
21
-118.225
0
LINE
8
0
10
342.025
20
-118.225
11
327.975
21
-118.225
0
LINE
8
0
10
327.975
20
-118.225
11
327.975
21
-132.275
0
LINE
8
0
10
327.975
20
-113.525
11
342.025
21
-113.525
0
LINE
8
0
10
342.025
20
-113.525
11
342.025
21
-99.475
0
LINE
8
0
10
342.025
20
-99.475
11
327.975
21
-99.475
0
LINE
8
0
10
327.975
20
-99.475
11
327.975
21
-113.525
0
LINE
8
0
10
327.975
20
-94.775
11
342.025
21
-94.775
0
LINE
8
0
10
342.025
20
-94.775
11
342.025
21
-80.725
0
LINE
8
0
10
342.025
20
-80.725
11
327.975
21
-80.725
0
LINE
8
0
10
327.975
20
-80.725
11
327.975
21
-94.775
0
LINE
8
0
10
327.975
20
-76.025
11
342.025
21
-76.025
0
LINE
8
0
10
342.025
20
-76.025
11
342.025
21
-61.975
0
LINE
8
0
10
342.025
20
-61.975
11
327.975
21
-61.975
0
LINE
8
0
10
327.975
20
-61.975
11
327.975
21
-76.025
0
LINE
8
0
10
309.225
20
-138.275
11
323.275
21
-138.275
0
LINE
8
0
10
323.275
20
-138.275
11
323.275
21
-124.225
0
LINE
8
0
10
323.275
20
-124.225
11
309.225
21
-124.225
0
LINE
8
0
10
309.225
20
-124.225
11
309.225
21
-138.275
0
LINE
8
0
10
309.225
20
-119.525
11
323.275
21
-119.525
0
LINE
8
0
10
323.275
20
-119.525
11
323.275
21
-105.475
0
LINE
8
0
10
323.275
20
-105.475
11
309.225
21
-105.475
0
LINE
8
0
10
309.225
20
-105.475
11
309.225
21
-119.525
0
LINE
8
0
10
309.225
20
-100.775
11
323.275
21
-100.775
0
LINE
8
0
10
323.275
20
-100.775
11
323.275
21
-86.725
0
LINE
8
0
10
323.275
20
-86.725
11
309.225
21
-86.725
0
LINE
8
0
10
309.225
20
-86.725
11
309.225
21
-100.775
0
LINE
8
0
10
309.225
20
-82.025
11
323.275
21
-82.025
0
LINE
8
0
10
323.275
20
-82.025
11
323.275
21
-67.975
0
LINE
8
0
10
323.275
20
-67.975
11
309.225
21
-67.975
0
LINE
8
0
10
309.225
20
-67.975
11
309.225
21
-82.025
0
LINE
8
0
10
290.475
20
-119.525
11
304.525
21
-119.525
0
LINE
8
0
10
304.525
20
-119.525
11
304.525
21
-105.475
0
LINE
8
0
10
304.525
20
-105.475
11
290.475
21
-105.475
0
LINE
8
0
10
290.475
20
-105.475
11
290.475
21
-119.525
0
LINE
8
0
10
290.475
20
-100.775
11
304.525
21
-100.775
0
LINE
8
0
10
304.525
20
-100.775
11
304.525
21
-86.725
0
LINE
8
0
10
304.525
20
-86.725
11
290.475
21
-86.725
0
LINE
8
0
10
290.475
20
-86.725
11
290.475
21
-100.775
0
LINE
8
0
10
291.7702732
20
-158.9248168
11
303.2793594
21
-150.8660678
0
LINE
8
0
10
303.2793594
20
-150.8660678
11
295.2206104
21
-139.3569816
0
LINE
8
0
10
295.2206104
20
-139.3569816
11
283.7115242
21
-147.4157306
0
LINE
8
0
10
283.7115242
20
-147.4157306
11
291.7702732
21
-158.9248168
0
LINE
8
0
10
281.7167544
20
-177.2565314
11
293.2258406
21
-169.1977824
0
LINE
8
0
10
293.2258406
20
-169.1977824
11
285.1670916
21
-157.6886962
0
LINE
8
0
10
285.1670916
20
-157.6886962
11
273.6580054
21
-165.7474452
0
LINE
8
0
10
273.6580054
20
-165.7474452
11
281.7167544
21
-177.2565314
0
LINE
8
0
10
270.9621962
20
-161.8974306
11
282.4712824
21
-153.8386816
0
LINE
8
0
10
282.4712824
20
-153.8386816
11
274.4125334
21
-142.3295954
0
LINE
8
0
10
274.4125334
20
-142.3295954
11
262.9034472
21
-150.3883444
0
LINE
8
0
10
262.9034472
20
-150.3883444
11
270.9621962
21
-161.8974306
0
ENDSEC
0
EOF