0
SECTION
2
HEADER
9
$INSUNITS
70
4
0
ENDSEC
0
SECTION
2
TABLES
0
TABLE
2
LTYPE
0
LTYPE
72
65
70
64
2
CONTINUOUS
3
______
73
0
40
0
0
ENDTAB
0
TABLE
2
LAYER
0
ENDTAB
0
ENDSEC
0
SECTION
2
ENTITIES
0
LINE
8
0
10
87.975
20
-140.025
11
87.975
21
-58.725
0
LINE
8
0
10
168.275
20
-48.725
11
168.275
21
-47.725
0
LINE
8
0
10
168.275
20
-47.725
11
168.25
21
-47.725
0
LINE
8
0
10
187.025
20
-54.725
11
187.025
21
-52.725
0
LINE
8
0
10
185.025
20
-50.725
11
170.275
21
-50.725
0
ARC
8
0
10
185.025
20
-52.725
40
2
50
0
51
90
0
ARC
8
0
10
170.275
20
-48.725
40
2
50
180
51
270
0
ARC
8
0
10
89.975
20
-58.725
40
2
50
170.9312786
51
180
0
LINE
8
0
10
212.025
20
-73.475
11
212.025
21
-58.725
0
LINE
8
0
10
210.025
20
-56.725
11
189.025
21
-56.725
0
ARC
8
0
10
210.025
20
-58.725
40
2
50
0
51
90
0
ARC
8
0
10
189.025
20
-54.725
40
2
50
180
51
270
0
LINE
8
0
10
221.0916499
20
-123.275
11
222.525
21
-123.275
0
LINE
8
0
10
224.525
20
-121.275
11
224.525
21
-77.475
0
LINE
8
0
10
222.525
20
-75.475
11
214.025
21
-75.475
0
ARC
8
0
10
89.975
20
-140.025
40
2
50
180
51
189.0687214
0
ARC
8
0
10
222.525
20
-121.275
40
2
50
270
51
0
0
ARC
8
0
10
222.525
20
-77.475
40
2
50
0
51
90
0
ARC
8
0
10
214.025
20
-73.475
40
2
50
180
51
270
0
LINE
8
0
10
168.25
20
-47.725
11
168.25
21
-46.625
0
LINE
8
0
10
166.25
20
-44.625
11
90
21
-44.625
0
LINE
8
0
10
88
20
-46.625
11
88
21
-58.409762
0
ARC
8
0
10
166.25
20
-46.625
40
2
50
0
51
90
0
ARC
8
0
10
90
20
-46.625
40
2
50
90
51
180
0
LINE
8
0
10
90
20
-145.775
11
139.875
21
-145.775
0
LINE
8
0
10
88
20
-140.340238
11
88
21
-143.775
0
ARC
8
0
10
90
20
-143.775
40
2
50
180
51
270
0
LINE
8
0
10
143.875
20
-155.525
11
187.375
21
-155.525
0
LINE
8
0
10
141.875
20
-147.775
11
141.875
21
-153.525
0
ARC
8
0
10
139.875
20
-147.775
40
2
50
0
51
90
0
ARC
8
0
10
143.875
20
-153.525
40
2
50
180
51
270
0
ARC
8
0
10
187.375
20
-153.525
40
2
50
270
51
278.5009175
0
LINE
8
0
10
187.6706505
20
-155.503027
11
230.0373481
21
-185.1685081
0
LINE
8
0
10
231.4300765
20
-184.9229325
11
255.3768928
21
-150.7233346
0
LINE
8
0
10
255.1313172
20
-149.3306062
11
220.5180735
21
-125.094152
0
ARC
8
0
10
230.6109245
20
-184.3493561
40
1
50
235.0000003
51
325.0000003
0
ARC
8
0
10
254.5577408
20
-150.1497582
40
1
50
325.0000003
51
55.0000003
0
ARC
8
0
10
221.0916499
20
-124.275
40
1
50
90
51
235.0000003
0
LINE
8
0
10
92.975
20
-138.275
11
107.025
21
-138.275
0
LINE
8
0
10
107.025
20
-138.275
11
107.025
21
-124.225
0
LINE
8
0
10
107.025
20
-124.225
11
92.975
21
-124.225
0
LINE
8
0
10
92.975
20
-124.225
11
92.975
21
-138.275
0
LINE
8
0
10
92.975
20
-119.525
11
107.025
21
-119.525
0
LINE
8
0
10
107.025
20
-119.525
11
107.025
21
-105.475
0
LINE
8
0
10
107.025
20
-105.475
11
92.975
21
-105.475
0
LINE
8
0
10
92.975
20
-105.475
11
92.975
21
-119.525
0
LINE
8
0
10
92.975
20
-100.775
11
107.025
21
-100.775
0
LINE
8
0
10
107.025
20
-100.775
11
107.025
21
-86.725
0
LINE
8
0
10
107.025
20
-86.725
11
92.975
21
-86.725
0
LINE
8
0
10
92.975
20
-86.725
11
92.975
21
-100.775
0
LINE
8
0
10
92.975
20
-82.025
11
107.025
21
-82.025
0
LINE
8
0
10
107.025
20
-82.025
11
107.025
21
-67.975
0
LINE
8
0
10
107.025
20
-67.975
11
92.975
21
-67.975
0
LINE
8
0
10
92.975
20
-67.975
11
92.975
21
-82.025
0
LINE
8
0
10
111.725
20
-138.275
11
125.775
21
-138.275
0
LINE
8
0
10
125.775
20
-138.275
11
125.775
21
-124.225
0
LINE
8
0
10
125.775
20
-124.225
11
111.725
21
-124.225
0
LINE
8
0
10
111.725
20
-124.225
11
111.725
21
-138.275
0
LINE
8
0
10
111.725
20
-119.525
11
125.775
21
-119.525
0
LINE
8
0
10
125.775
20
-119.525
11
125.775
21
-105.475
0
LINE
8
0
10
125.775
20
-105.475
11
111.725
21
-105.475
0
LINE
8
0
10
111.725
20
-105.475
11
111.725
21
-119.525
0
LINE
8
0
10
111.725
20
-100.775
11
125.775
21
-100.775
0
LINE
8
0
10
125.775
20
-100.775
11
125.775
21
-86.725
0
LINE
8
0
10
125.775
20
-86.725
11
111.725
21
-86.725
0
LINE
8
0
10
111.725
20
-86.725
11
111.725
21
-100.775
0
LINE
8
0
10
111.725
20
-82.025
11
125.775
21
-82.025
0
LINE
8
0
10
125.775
20
-82.025
11
125.775
21
-67.975
0
LINE
8
0
10
125.775
20
-67.975
11
111.725
21
-67.975
0
LINE
8
0
10
111.725
20
-67.975
11
111.725
21
-82.025
0
LINE
8
0
10
130.475
20
-132.275
11
144.525
21
-132.275
0
LINE
8
0
10
144.525
20
-132.275
11
144.525
21
-118.225
0
LINE
8
0
10
144.525
20
-118.225
11
130.475
21
-118.225
0
LINE
8
0
10
130.475
20
-118.225
11
130.475
21
-132.275
0
LINE
8
0
10
130.475
20
-113.525
11
144.525
21
-113.525
0
LINE
8
0
10
144.525
20
-113.525
11
144.525
21
-99.475
0
LINE
8
0
10
144.525
20
-99.475
11
130.475
21
-99.475
0
LINE
8
0
10
130.475
20
-99.475
11
130.475
21
-113.525
0
LINE
8
0
10
130.475
20
-94.775
11
144.525
21
-94.775
0
LINE
8
0
10
144.525
20
-94.775
11
144.525
21
-80.725
0
LINE
8
0
10
144.525
20
-80.725
11
130.475
21
-80.725
0
LINE
8
0
10
130.475
20
-80.725
11
130.475
21
-94.775
0
LINE
8
0
10
130.475
20
-76.025
11
144.525
21
-76.025
0
LINE
8
0
10
144.525
20
-76.025
11
144.525
21
-61.975
0
LINE
8
0
10
144.525
20
-61.975
11
130.475
21
-61.975
0
LINE
8
0
10
130.475
20
-61.975
11
130.475
21
-76.025
0
LINE
8
0
10
149.225
20
-148.025
11
163.275
21
-148.025
0
LINE
8
0
10
163.275
20
-148.025
11
163.275
21
-133.975
0
LINE
8
0
10
163.275
20
-133.975
11
149.225
21
-133.975
0
LINE
8
0
10
149.225
20
-133.975
11
149.225
21
-148.025
0
LINE
8
0
10
149.225
20
-129.275
11
163.275
21
-129.275
0
LINE
8
0
10
163.275
20
-129.275
11
163.275
21
-115.225
0
LINE
8
0
10
163.275
20
-115.225
11
149.225
21
-115.225
0
LINE
8
0
10
149.225
20
-115.225
11
149.225
21
-129.275
0
LINE
8
0
10
149.225
20
-110.525
11
163.275
21
-110.525
0
LINE
8
0
10
163.275
20
-110.525
11
163.275
21
-96.475
0
LINE
8
0
10
163.275
20
-96.475
11
149.225
21
-96.475
0
LINE
8
0
10
149.225
20
-96.475
11
149.225
21
-110.525
0
LINE
8
0
10
149.225
20
-91.775
11
163.275
21
-91.775
0
LINE
8
0
10
163.275
20
-91.775
11
163.275
21
-77.725
0
LINE
8
0
10
163.275
20
-77.725
11
149.225
21
-77.725
0
LINE
8
0
10
149.225
20
-77.725
11
149.225
21
-91.775
0
LINE
8
0
10
149.225
20
-73.025
11
163.275
21
-73.025
0
LINE
8
0
10
163.275
20
-73.025
11
163.275
21
-58.975
0
LINE
8
0
10
163.275
20
-58.975
11
149.225
21
-58.975
0
LINE
8
0
10
149.225
20
-58.975
11
149.225
21
-73.025
0
LINE
8
0
10
167.975
20
-151.025
11
182.025
21
-151.025
0
LINE
8
0
10
182.025
20
-151.025
11
182.025
21
-136.975
0
LINE
8
0
10
182.025
20
-136.975
11
167.975
21
-136.975
0
LINE
8
0
10
167.975
20
-136.975
11
167.975
21
-151.025
0
LINE
8
0
10
167.975
20
-132.275
11
182.025
21
-132.275
0
LINE
8
0
10
182.025
20
-132.275
11
182.025
21
-118.225
0
LINE
8
0
10
182.025
20
-118.225
11
167.975
21
-118.225
0
LINE
8
0
10
167.975
20
-118.225
11
167.975
21
-132.275
0
LINE
8
0
10
167.975
20
-113.525
11
182.025
21
-113.525
0
LINE
8
0
10
182.025
20
-113.525
11
182.025
21
-99.475
0
LINE
8
0
10
182.025
20
-99.475
11
167.975
21
-99.475
0
LINE
8
0
10
167.975
20
-99.475
11
167.975
21
-113.525
0
LINE
8
0
10
167.975
20
-94.775
11
182.025
21
-94.775
0
LINE
8
0
10
182.025
20
-94.775
11
182.025
21
-80.725
0
LINE
8
0
10
182.025
20
-80.725
11
167.975
21
-80.725
0
LINE
8
0
10
167.975
20
-80.725
11
167.975
21
-94.775
0
LINE
8
0
10
167.975
20
-76.025
11
182.025
21
-76.025
0
LINE
8
0
10
182.025
20
-76.025
11
182.025
21
-61.975
0
LINE
8
0
10
182.025
20
-61.975
11
167.975
21
-61.975
0
LINE
8
0
10
167.975
20
-61.975
11
167.975
21
-76.025
0
LINE
8
0
10
186.725
20
-138.275
11
200.775
21
-138.275
0
LINE
8
0
10
200.775
20
-138.275
11
200.775
21
-124.225
0
LINE
8
0
10
200.775
20
-124.225
11
186.725
21
-124.225
0
LINE
8
0
10
186.725
20
-124.225
11
186.725
21
-138.275
0
LINE
8
0
10
186.725
20
-119.525
11
200.775
21
-119.525
0
LINE
8
0
10
200.775
20
-119.525
11
200.775
21
-105.475
0
LINE
8
0
10
200.775
20
-105.475
11
186.725
21
-105.475
0
LINE
8
0
10
186.725
20
-105.475
11
186.725
21
-119.525
0
LINE
8
0
10
186.725
20
-100.775
11
200.775
21
-100.775
0
LINE
8
0
10
200.775
20
-100.775
11
200.775
21
-86.725
0
LINE
8
0
10
200.775
20
-86.725
11
186.725
21
-86.725
0
LINE
8
0
10
186.725
20
-86.725
11
186.725
21
-100.775
0
LINE
8
0
10
186.725
20
-82.025
11
200.775
21
-82.025
0
LINE
8
0
10
200.775
20
-82.025
11
200.775
21
-67.975
0
LINE
8
0
10
200.775
20
-67.975
11
186.725
21
-67.975
0
LINE
8
0
10
186.725
20
-67.975
11
186.725
21
-82.025
0
LINE
8
0
10
205.475
20
-119.525
11
219.525
21
-119.525
0
LINE
8
0
10
219.525
20
-119.525
11
219.525
21
-105.475
0
LINE
8
0
10
219.525
20
-105.475
11
205.475
21
-105.475
0
LINE
8
0
10
205.475
20
-105.475
11
205.475
21
-119.525
0
LINE
8
0
10
205.475
20
-100.775
11
219.525
21
-100.775
0
LINE
8
0
10
219.525
20
-100.775
11
219.525
21
-86.725
0
LINE
8
0
10
219.525
20
-86.725
11
205.475
21
-86.725
0
LINE
8
0
10
205.475
20
-86.725
11
205.475
21
-100.775
0
LINE
8
0
10
206.7206406
20
-150.8660678
11
218.2297268
21
-158.9248168
0
LINE
8
0
10
218.2297268
20
-158.9248168
11
226.2884758
21
-147.4157306
0
LINE
8
0
10
226.2884758
20
-147.4157306
11
214.7793896
21
-139.3569816
0
LINE
8
0
10
214.7793896
20
-139.3569816
11
206.7206406
21
-150.8660678
0
LINE
8
0
10
216.7741594
20
-169.1977824
11
228.2832456
21
-177.2565314
0
LINE
8
0
10
228.2832456
20
-177.2565314
11
236.3419946
21
-165.7474452
0
LINE
8
0
10
236.3419946
20
-165.7474452
11
224.8329084
21
-157.6886962
0
LINE
8
0
10
224.8329084
20
-157.6886962
11
216.7741594
21
-169.1977824
0
LINE
8
0
10
227.5287176
20
-153.8386816
11
239.0378038
21
-161.8974306
0
LINE
8
0
10
239.0378038
20
-161.8974306
11
247.0965528
21
-150.3883444
0
LINE
8
0
10
247.0965528
20
-150.3883444
11
235.5874666
21
-142.3295954
0
LINE
8
0
10
235.5874666
20
-142.3295954
11
227.5287176
21
-153.8386816
0
ENDSEC
0
EOF