0
SECTION
2
HEADER
9
$INSUNITS
70
4
0
ENDSEC
0
SECTION
2
TABLES
0
TABLE
2
LTYPE
0
LTYPE
72
65
70
64
2
CONTINUOUS
3
______
73
0
40
0
0
ENDTAB
0
TABLE
2
LAYER
0
ENDTAB
0
ENDSEC
0
SECTION
2
ENTITIES
0
LINE
8
0
10
87.975
20
-140.025
11
87.975
21
-58.725
0
LINE
8
0
10
168.275
20
-48.725
11
168.275
21
-47.725
0
LINE
8
0
10
168.275
20
-47.725
11
168.25
21
-47.725
0
LINE
8
0
10
187.025
20
-54.725
11
187.025
21
-52.725
0
LINE
8
0
10
185.025
20
-50.725
11
170.275
21
-50.725
0
ARC
8
0
10
185.025
20
-52.725
40
2
50
0
51
90
0
ARC
8
0
10
170.275
20
-48.725
40
2
50
180
51
270
0
ARC
8
0
10
89.975
20
-58.725
40
2
50
170.9312786
51
180
0
LINE
8
0
10
212.025
20
-73.475
11
212.025
21
-58.725
0
LINE
8
0
10
210.025
20
-56.725
11
189.025
21
-56.725
0
ARC
8
0
10
210.025
20
-58.725
40
2
50
0
51
90
0
ARC
8
0
10
189.025
20
-54.725
40
2
50
180
51
270
0
LINE
8
0
10
221.0916499
20
-123.275
11
222.525
21
-123.275
0
LINE
8
0
10
224.525
20
-121.275
11
224.525
21
-77.475
0
LINE
8
0
10
222.525
20
-75.475
11
214.025
21
-75.475
0
ARC
8
0
10
89.975
20
-140.025
40
2
50
180
51
189.0687214
0
ARC
8
0
10
222.525
20
-121.275
40
2
50
270
51
0
0
ARC
8
0
10
222.525
20
-77.475
40
2
50
0
51
90
0
ARC
8
0
10
214.025
20
-73.475
40
2
50
180
51
270
0
LINE
8
0
10
168.25
20
-47.725
11
168.25
21
-46.625
0
LINE
8
0
10
166.25
20
-44.625
11
90
21
-44.625
0
LINE
8
0
10
88
20
-46.625
11
88
21
-58.409762
0
ARC
8
0
10
166.25
20
-46.625
40
2
50
0
51
90
0
ARC
8
0
10
90
20
-46.625
40
2
50
90
51
180
0
LINE
8
0
10
90
20
-145.775
11
139.875
21
-145.775
0
LINE
8
0
10
88
20
-140.340238
11
88
21
-143.775
0
ARC
8
0
10
90
20
-143.775
40
2
50
180
51
270
0
LINE
8
0
10
143.875
20
-155.525
11
187.375
21
-155.525
0
LINE
8
0
10
141.875
20
-147.775
11
141.875
21
-153.525
0
ARC
8
0
10
139.875
20
-147.775
40
2
50
0
51
90
0
ARC
8
0
10
143.875
20
-153.525
40
2
50
180
51
270
0
ARC
8
0
10
187.375
20
-153.525
40
2
50
270
51
278.5009175
0
LINE
8
0
10
187.6706505
20
-155.503027
11
230.0373481
21
-185.1685081
0
LINE
8
0
10
231.4300765
20
-184.9229325
11
255.3768928
21
-150.7233346
0
LINE
8
0
10
255.1313172
20
-149.3306062
11
220.5180735
21
-125.094152
0
ARC
8
0
10
230.6109245
20
-184.3493561
40
1
50
235.0000003
51
325.0000003
0
ARC
8
0
10
254.5577408
20
-150.1497582
40
1
50
325.0000003
51
55.0000003
0
ARC
8
0
10
221.0916499
20
-124.275
40
1
50
90
51
235.0000003
0
ENDSEC
0
EOF