0
SECTION
2
HEADER
9
$INSUNITS
70
4
0
ENDSEC
0
SECTION
2
TABLES
0
TABLE
2
LTYPE
0
LTYPE
72
65
70
64
2
CONTINUOUS
3
______
73
0
40
0
0
ENDTAB
0
TABLE
2
LAYER
0
ENDTAB
0
ENDSEC
0
SECTION
2
ENTITIES
0
LINE
8
0
10
422.025
20
-140.025
11
422.025
21
-58.725
0
LINE
8
0
10
341.725
20
-49.725
11
341.725
21
-50.725
0
LINE
8
0
10
341.725
20
-50.725
11
324.975
21
-50.725
0
LINE
8
0
10
322.975
20
-52.725
11
322.975
21
-54.725
0
ARC
8
0
10
420.025
20
-58.725
40
2
50
0
51
9.0687214
0
ARC
8
0
10
343.725
20
-49.725
40
2
50
170.9312786
51
180
0
ARC
8
0
10
324.975
20
-52.725
40
2
50
90
51
180
0
LINE
8
0
10
320.975
20
-56.725
11
299.975
21
-56.725
0
LINE
8
0
10
297.975
20
-58.725
11
297.975
21
-73.475
0
ARC
8
0
10
320.975
20
-54.725
40
2
50
270
51
0
0
ARC
8
0
10
299.975
20
-58.725
40
2
50
90
51
180
0
LINE
8
0
10
287.475
20
-123.275
11
288.9083501
21
-123.275
0
LINE
8
0
10
285.475
20
-121.275
11
285.475
21
-77.475
0
LINE
8
0
10
295.975
20
-75.475
11
287.475
21
-75.475
0
ARC
8
0
10
295.975
20
-73.475
40
2
50
270
51
0
0
ARC
8
0
10
287.475
20
-77.475
40
2
50
90
51
180
0
ARC
8
0
10
287.475
20
-121.275
40
2
50
180
51
270
0
ARC
8
0
10
420.025
20
-140.025
40
2
50
350.9312786
51
0
0
LINE
8
0
10
422
20
-58.409762
11
422
21
-46.625
0
LINE
8
0
10
420
20
-44.625
11
343.75
21
-44.625
0
LINE
8
0
10
341.75
20
-46.625
11
341.75
21
-49.409762
0
ARC
8
0
10
420
20
-46.625
40
2
50
0
51
90
0
ARC
8
0
10
343.75
20
-46.625
40
2
50
90
51
180
0
LINE
8
0
10
370.125
20
-145.775
11
420
21
-145.775
0
LINE
8
0
10
422
20
-143.775
11
422
21
-140.340238
0
ARC
8
0
10
420
20
-143.775
40
2
50
270
51
0
0
LINE
8
0
10
322.625
20
-155.525
11
366.125
21
-155.525
0
LINE
8
0
10
368.125
20
-153.525
11
368.125
21
-147.775
0
ARC
8
0
10
322.625
20
-153.525
40
2
50
261.4990825
51
270
0
ARC
8
0
10
366.125
20
-153.525
40
2
50
270
51
0
0
ARC
8
0
10
370.125
20
-147.775
40
2
50
90
51
180
0
LINE
8
0
10
279.9626519
20
-185.1685081
11
322.3293495
21
-155.503027
0
LINE
8
0
10
254.6231072
20
-150.7233346
11
278.5699235
21
-184.9229325
0
LINE
8
0
10
289.4819265
20
-125.094152
11
254.8686828
21
-149.3306062
0
ARC
8
0
10
288.9083501
20
-124.275
40
1
50
304.9999997
51
90
0
ARC
8
0
10
255.4422592
20
-150.1497582
40
1
50
124.9999997
51
214.9999997
0
ARC
8
0
10
279.3890755
20
-184.3493561
40
1
50
214.9999997
51
304.9999997
0
ENDSEC
0
EOF