0
SECTION
2
HEADER
9
$INSUNITS
70
4
0
ENDSEC
0
SECTION
2
TABLES
0
TABLE
2
LTYPE
0
LTYPE
72
65
70
64
2
CONTINUOUS
3
______
73
0
40
0
0
ENDTAB
0
TABLE
2
LAYER
0
ENDTAB
0
ENDSEC
0
SECTION
2
ENTITIES
0
LINE
8
0
10
422.025
20
-140.025
11
422.025
21
-58.725
0
LINE
8
0
10
341.725
20
-49.725
11
341.725
21
-50.725
0
LINE
8
0
10
341.725
20
-50.725
11
324.975
21
-50.725
0
LINE
8
0
10
322.975
20
-52.725
11
322.975
21
-54.725
0
ARC
8
0
10
420.025
20
-58.725
40
2
50
0
51
9.0687214
0
ARC
8
0
10
343.725
20
-49.725
40
2
50
170.9312786
51
180
0
ARC
8
0
10
324.975
20
-52.725
40
2
50
90
51
180
0
LINE
8
0
10
320.975
20
-56.725
11
299.975
21
-56.725
0
LINE
8
0
10
297.975
20
-58.725
11
297.975
21
-73.475
0
ARC
8
0
10
320.975
20
-54.725
40
2
50
270
51
0
0
ARC
8
0
10
299.975
20
-58.725
40
2
50
90
51
180
0
LINE
8
0
10
287.475
20
-123.275
11
288.9083501
21
-123.275
0
LINE
8
0
10
285.475
20
-121.275
11
285.475
21
-77.475
0
LINE
8
0
10
295.975
20
-75.475
11
287.475
21
-75.475
0
ARC
8
0
10
295.975
20
-73.475
40
2
50
270
51
0
0
ARC
8
0
10
287.475
20
-77.475
40
2
50
90
51
180
0
ARC
8
0
10
287.475
20
-121.275
40
2
50
180
51
270
0
ARC
8
0
10
420.025
20
-140.025
40
2
50
350.9312786
51
0
0
LINE
8
0
10
422
20
-58.409762
11
422
21
-46.625
0
LINE
8
0
10
420
20
-44.625
11
343.75
21
-44.625
0
LINE
8
0
10
341.75
20
-46.625
11
341.75
21
-49.409762
0
ARC
8
0
10
420
20
-46.625
40
2
50
0
51
90
0
ARC
8
0
10
343.75
20
-46.625
40
2
50
90
51
180
0
LINE
8
0
10
370.125
20
-145.775
11
420
21
-145.775
0
LINE
8
0
10
422
20
-143.775
11
422
21
-140.340238
0
ARC
8
0
10
420
20
-143.775
40
2
50
270
51
0
0
LINE
8
0
10
322.625
20
-155.525
11
366.125
21
-155.525
0
LINE
8
0
10
368.125
20
-153.525
11
368.125
21
-147.775
0
ARC
8
0
10
322.625
20
-153.525
40
2
50
261.4990825
51
270
0
ARC
8
0
10
366.125
20
-153.525
40
2
50
270
51
0
0
ARC
8
0
10
370.125
20
-147.775
40
2
50
90
51
180
0
LINE
8
0
10
279.9626519
20
-185.1685081
11
322.3293495
21
-155.503027
0
LINE
8
0
10
254.6231072
20
-150.7233346
11
278.5699235
21
-184.9229325
0
LINE
8
0
10
289.4819265
20
-125.094152
11
254.8686828
21
-149.3306062
0
ARC
8
0
10
288.9083501
20
-124.275
40
1
50
304.9999997
51
90
0
ARC
8
0
10
255.4422592
20
-150.1497582
40
1
50
124.9999997
51
214.9999997
0
ARC
8
0
10
279.3890755
20
-184.3493561
40
1
50
214.9999997
51
304.9999997
0
LINE
8
0
10
402.975
20
-138.275
11
417.025
21
-138.275
0
LINE
8
0
10
417.025
20
-138.275
11
417.025
21
-124.225
0
LINE
8
0
10
417.025
20
-124.225
11
402.975
21
-124.225
0
LINE
8
0
10
402.975
20
-124.225
11
402.975
21
-138.275
0
LINE
8
0
10
402.975
20
-119.525
11
417.025
21
-119.525
0
LINE
8
0
10
417.025
20
-119.525
11
417.025
21
-105.475
0
LINE
8
0
10
417.025
20
-105.475
11
402.975
21
-105.475
0
LINE
8
0
10
402.975
20
-105.475
11
402.975
21
-119.525
0
LINE
8
0
10
402.975
20
-100.775
11
417.025
21
-100.775
0
LINE
8
0
10
417.025
20
-100.775
11
417.025
21
-86.725
0
LINE
8
0
10
417.025
20
-86.725
11
402.975
21
-86.725
0
LINE
8
0
10
402.975
20
-86.725
11
402.975
21
-100.775
0
LINE
8
0
10
402.975
20
-82.025
11
417.025
21
-82.025
0
LINE
8
0
10
417.025
20
-82.025
11
417.025
21
-67.975
0
LINE
8
0
10
417.025
20
-67.975
11
402.975
21
-67.975
0
LINE
8
0
10
402.975
20
-67.975
11
402.975
21
-82.025
0
LINE
8
0
10
384.225
20
-138.275
11
398.275
21
-138.275
0
LINE
8
0
10
398.275
20
-138.275
11
398.275
21
-124.225
0
LINE
8
0
10
398.275
20
-124.225
11
384.225
21
-124.225
0
LINE
8
0
10
384.225
20
-124.225
11
384.225
21
-138.275
0
LINE
8
0
10
384.225
20
-119.525
11
398.275
21
-119.525
0
LINE
8
0
10
398.275
20
-119.525
11
398.275
21
-105.475
0
LINE
8
0
10
398.275
20
-105.475
11
384.225
21
-105.475
0
LINE
8
0
10
384.225
20
-105.475
11
384.225
21
-119.525
0
LINE
8
0
10
384.225
20
-100.775
11
398.275
21
-100.775
0
LINE
8
0
10
398.275
20
-100.775
11
398.275
21
-86.725
0
LINE
8
0
10
398.275
20
-86.725
11
384.225
21
-86.725
0
LINE
8
0
10
384.225
20
-86.725
11
384.225
21
-100.775
0
LINE
8
0
10
384.225
20
-82.025
11
398.275
21
-82.025
0
LINE
8
0
10
398.275
20
-82.025
11
398.275
21
-67.975
0
LINE
8
0
10
398.275
20
-67.975
11
384.225
21
-67.975
0
LINE
8
0
10
384.225
20
-67.975
11
384.225
21
-82.025
0
LINE
8
0
10
365.475
20
-132.275
11
379.525
21
-132.275
0
LINE
8
0
10
379.525
20
-132.275
11
379.525
21
-118.225
0
LINE
8
0
10
379.525
20
-118.225
11
365.475
21
-118.225
0
LINE
8
0
10
365.475
20
-118.225
11
365.475
21
-132.275
0
LINE
8
0
10
365.475
20
-113.525
11
379.525
21
-113.525
0
LINE
8
0
10
379.525
20
-113.525
11
379.525
21
-99.475
0
LINE
8
0
10
379.525
20
-99.475
11
365.475
21
-99.475
0
LINE
8
0
10
365.475
20
-99.475
11
365.475
21
-113.525
0
LINE
8
0
10
365.475
20
-94.775
11
379.525
21
-94.775
0
LINE
8
0
10
379.525
20
-94.775
11
379.525
21
-80.725
0
LINE
8
0
10
379.525
20
-80.725
11
365.475
21
-80.725
0
LINE
8
0
10
365.475
20
-80.725
11
365.475
21
-94.775
0
LINE
8
0
10
365.475
20
-76.025
11
379.525
21
-76.025
0
LINE
8
0
10
379.525
20
-76.025
11
379.525
21
-61.975
0
LINE
8
0
10
379.525
20
-61.975
11
365.475
21
-61.975
0
LINE
8
0
10
365.475
20
-61.975
11
365.475
21
-76.025
0
LINE
8
0
10
346.725
20
-148.025
11
360.775
21
-148.025
0
LINE
8
0
10
360.775
20
-148.025
11
360.775
21
-133.975
0
LINE
8
0
10
360.775
20
-133.975
11
346.725
21
-133.975
0
LINE
8
0
10
346.725
20
-133.975
11
346.725
21
-148.025
0
LINE
8
0
10
346.725
20
-129.275
11
360.775
21
-129.275
0
LINE
8
0
10
360.775
20
-129.275
11
360.775
21
-115.225
0
LINE
8
0
10
360.775
20
-115.225
11
346.725
21
-115.225
0
LINE
8
0
10
346.725
20
-115.225
11
346.725
21
-129.275
0
LINE
8
0
10
346.725
20
-110.525
11
360.775
21
-110.525
0
LINE
8
0
10
360.775
20
-110.525
11
360.775
21
-96.475
0
LINE
8
0
10
360.775
20
-96.475
11
346.725
21
-96.475
0
LINE
8
0
10
346.725
20
-96.475
11
346.725
21
-110.525
0
LINE
8
0
10
346.725
20
-91.775
11
360.775
21
-91.775
0
LINE
8
0
10
360.775
20
-91.775
11
360.775
21
-77.725
0
LINE
8
0
10
360.775
20
-77.725
11
346.725
21
-77.725
0
LINE
8
0
10
346.725
20
-77.725
11
346.725
21
-91.775
0
LINE
8
0
10
346.725
20
-73.025
11
360.775
21
-73.025
0
LINE
8
0
10
360.775
20
-73.025
11
360.775
21
-58.975
0
LINE
8
0
10
360.775
20
-58.975
11
346.725
21
-58.975
0
LINE
8
0
10
346.725
20
-58.975
11
346.725
21
-73.025
0
LINE
8
0
10
327.975
20
-151.025
11
342.025
21
-151.025
0
LINE
8
0
10
342.025
20
-151.025
11
342.025
21
-136.975
0
LINE
8
0
10
342.025
20
-136.975
11
327.975
21
-136.975
0
LINE
8
0
10
327.975
20
-136.975
11
327.975
21
-151.025
0
LINE
8
0
10
327.975
20
-132.275
11
342.025
21
-132.275
0
LINE
8
0
10
342.025
20
-132.275
11
342.025
21
-118.225
0
LINE
8
0
10
342.025
20
-118.225
11
327.975
21
-118.225
0
LINE
8
0
10
327.975
20
-118.225
11
327.975
21
-132.275
0
LINE
8
0
10
327.975
20
-113.525
11
342.025
21
-113.525
0
LINE
8
0
10
342.025
20
-113.525
11
342.025
21
-99.475
0
LINE
8
0
10
342.025
20
-99.475
11
327.975
21
-99.475
0
LINE
8
0
10
327.975
20
-99.475
11
327.975
21
-113.525
0
LINE
8
0
10
327.975
20
-94.775
11
342.025
21
-94.775
0
LINE
8
0
10
342.025
20
-94.775
11
342.025
21
-80.725
0
LINE
8
0
10
342.025
20
-80.725
11
327.975
21
-80.725
0
LINE
8
0
10
327.975
20
-80.725
11
327.975
21
-94.775
0
LINE
8
0
10
327.975
20
-76.025
11
342.025
21
-76.025
0
LINE
8
0
10
342.025
20
-76.025
11
342.025
21
-61.975
0
LINE
8
0
10
342.025
20
-61.975
11
327.975
21
-61.975
0
LINE
8
0
10
327.975
20
-61.975
11
327.975
21
-76.025
0
LINE
8
0
10
309.225
20
-138.275
11
323.275
21
-138.275
0
LINE
8
0
10
323.275
20
-138.275
11
323.275
21
-124.225
0
LINE
8
0
10
323.275
20
-124.225
11
309.225
21
-124.225
0
LINE
8
0
10
309.225
20
-124.225
11
309.225
21
-138.275
0
LINE
8
0
10
309.225
20
-119.525
11
323.275
21
-119.525
0
LINE
8
0
10
323.275
20
-119.525
11
323.275
21
-105.475
0
LINE
8
0
10
323.275
20
-105.475
11
309.225
21
-105.475
0
LINE
8
0
10
309.225
20
-105.475
11
309.225
21
-119.525
0
LINE
8
0
10
309.225
20
-100.775
11
323.275
21
-100.775
0
LINE
8
0
10
323.275
20
-100.775
11
323.275
21
-86.725
0
LINE
8
0
10
323.275
20
-86.725
11
309.225
21
-86.725
0
LINE
8
0
10
309.225
20
-86.725
11
309.225
21
-100.775
0
LINE
8
0
10
309.225
20
-82.025
11
323.275
21
-82.025
0
LINE
8
0
10
323.275
20
-82.025
11
323.275
21
-67.975
0
LINE
8
0
10
323.275
20
-67.975
11
309.225
21
-67.975
0
LINE
8
0
10
309.225
20
-67.975
11
309.225
21
-82.025
0
LINE
8
0
10
290.475
20
-119.525
11
304.525
21
-119.525
0
LINE
8
0
10
304.525
20
-119.525
11
304.525
21
-105.475
0
LINE
8
0
10
304.525
20
-105.475
11
290.475
21
-105.475
0
LINE
8
0
10
290.475
20
-105.475
11
290.475
21
-119.525
0
LINE
8
0
10
290.475
20
-100.775
11
304.525
21
-100.775
0
LINE
8
0
10
304.525
20
-100.775
11
304.525
21
-86.725
0
LINE
8
0
10
304.525
20
-86.725
11
290.475
21
-86.725
0
LINE
8
0
10
290.475
20
-86.725
11
290.475
21
-100.775
0
LINE
8
0
10
291.7702732
20
-158.9248168
11
303.2793594
21
-150.8660678
0
LINE
8
0
10
303.2793594
20
-150.8660678
11
295.2206104
21
-139.3569816
0
LINE
8
0
10
295.2206104
20
-139.3569816
11
283.7115242
21
-147.4157306
0
LINE
8
0
10
283.7115242
20
-147.4157306
11
291.7702732
21
-158.9248168
0
LINE
8
0
10
281.7167544
20
-177.2565314
11
293.2258406
21
-169.1977824
0
LINE
8
0
10
293.2258406
20
-169.1977824
11
285.1670916
21
-157.6886962
0
LINE
8
0
10
285.1670916
20
-157.6886962
11
273.6580054
21
-165.7474452
0
LINE
8
0
10
273.6580054
20
-165.7474452
11
281.7167544
21
-177.2565314
0
LINE
8
0
10
270.9621962
20
-161.8974306
11
282.4712824
21
-153.8386816
0
LINE
8
0
10
282.4712824
20
-153.8386816
11
274.4125334
21
-142.3295954
0
LINE
8
0
10
274.4125334
20
-142.3295954
11
262.9034472
21
-150.3883444
0
LINE
8
0
10
262.9034472
20
-150.3883444
11
270.9621962
21
-161.8974306
0
ENDSEC
0
EOF