%TF.GenerationSoftware,KiCad,Pcbnew,9.0.6*%
%TF.CreationDate,2026-02-01T20:37:32-05:00*%
%TF.ProjectId,right-finished,72696768-742d-4666-996e-69736865642e,v1.0.0*%
%TF.SameCoordinates,Original*%
%TF.FileFunction,Paste,Top*%
%TF.FilePolarity,Positive*%
%FSLAX46Y46*%
G04 Gerber Fmt 4.6, Leading zero omitted, Abs format (unit mm)*
G04 Created by KiCad (PCBNEW 9.0.6) date 2026-02-01 20:37:32*
%MOMM*%
%LPD*%
G01*
G04 APERTURE LIST*
G04 Aperture macros list*
%AMRotRect*
0 Rectangle, with rotation*
0 The origin of the aperture is its center*
0 $1 length*
0 $2 width*
0 $3 Rotation angle, in degrees counterclockwise*
0 Add horizontal line*
21,1,$1,$2,0,0,$3*%
G04 Aperture macros list end*
%ADD10RotRect,0.900000X1.200000X135.000000*%
%ADD11RotRect,0.900000X1.200000X170.000000*%
G04 APERTURE END LIST*
D10*
%TO.C,D1*%
X319791726Y-132058393D03*
X317458274Y-129724941D03*
%TD*%
%TO.C,D2*%
X319791726Y-113308393D03*
X317458274Y-110974941D03*
%TD*%
%TO.C,D3*%
X319791726Y-94558393D03*
X317458274Y-92224941D03*
%TD*%
%TO.C,D4*%
X319791726Y-75808393D03*
X317458274Y-73474941D03*
%TD*%
%TO.C,D5*%
X301041726Y-132058393D03*
X298708274Y-129724941D03*
%TD*%
%TO.C,D6*%
X301041726Y-113308393D03*
X298708274Y-110974941D03*
%TD*%
%TO.C,D7*%
X301041726Y-94558393D03*
X298708274Y-92224941D03*
%TD*%
%TO.C,D8*%
X301041726Y-75808393D03*
X298708274Y-73474941D03*
%TD*%
%TO.C,D9*%
X282291726Y-126058393D03*
X279958274Y-123724941D03*
%TD*%
%TO.C,D10*%
X282291726Y-107308393D03*
X279958274Y-104974941D03*
%TD*%
%TO.C,D11*%
X282291726Y-88558393D03*
X279958274Y-86224941D03*
%TD*%
%TO.C,D12*%
X282291726Y-69808393D03*
X279958274Y-67474941D03*
%TD*%
%TO.C,D13*%
X263541726Y-141808393D03*
X261208274Y-139474941D03*
%TD*%
%TO.C,D14*%
X263541726Y-123058393D03*
X261208274Y-120724941D03*
%TD*%
%TO.C,D15*%
X263541726Y-104308393D03*
X261208274Y-101974941D03*
%TD*%
%TO.C,D16*%
X263541726Y-85558393D03*
X261208274Y-83224941D03*
%TD*%
%TO.C,D17*%
X263541726Y-66808393D03*
X261208274Y-64474941D03*
%TD*%
%TO.C,D18*%
X244791726Y-144808393D03*
X242458274Y-142474941D03*
%TD*%
%TO.C,D19*%
X244791726Y-126058393D03*
X242458274Y-123724941D03*
%TD*%
%TO.C,D20*%
X244791726Y-107308393D03*
X242458274Y-104974941D03*
%TD*%
%TO.C,D21*%
X244791726Y-88558393D03*
X242458274Y-86224941D03*
%TD*%
%TO.C,D22*%
X244791726Y-69808393D03*
X242458274Y-67474941D03*
%TD*%
%TO.C,D23*%
X226041726Y-132058393D03*
X223708274Y-129724941D03*
%TD*%
%TO.C,D24*%
X226041726Y-113308393D03*
X223708274Y-110974941D03*
%TD*%
%TO.C,D25*%
X226041726Y-94558393D03*
X223708274Y-92224941D03*
%TD*%
%TO.C,D26*%
X226041726Y-75808393D03*
X223708274Y-73474941D03*
%TD*%
%TO.C,D27*%
X207291726Y-113308393D03*
X204958274Y-110974941D03*
%TD*%
%TO.C,D28*%
X207291726Y-94558393D03*
X204958274Y-92224941D03*
%TD*%
D11*
%TO.C,D29*%
X200536485Y-147558454D03*
X197286619Y-146985416D03*
%TD*%
%TO.C,D30*%
X190482966Y-165890168D03*
X187233100Y-165317130D03*
%TD*%
%TO.C,D31*%
X179728408Y-150531067D03*
X176478542Y-149958029D03*
%TD*%
M02*
