M48
; DRILL file {KiCad 9.0.6} date 2026-02-01T20:37:30-0500
; FORMAT={-:-/ absolute / metric / decimal}
; #@! TF.CreationDate,2026-02-01T20:37:30-05:00
; #@! TF.GenerationSoftware,Kicad,Pcbnew,9.0.6
; #@! TF.FileFunction,NonPlated,1,2,NPTH
FMAT,2
METRIC
; #@! TA.AperFunction,NonPlated,NPTH,ComponentDrill
T1C0.750
; #@! TA.AperFunction,NonPlated,NPTH,ComponentDrill
T2C0.900
; #@! TA.AperFunction,NonPlated,NPTH,ComponentDrill
T3C3.000
; #@! TA.AperFunction,NonPlated,NPTH,ComponentDrill
T4C4.000
; #@! TA.AperFunction,NonPlated,NPTH,ComponentDrill
T5C5.000
%
G90
G05
T1
X282.125Y-49.35
X282.125Y-52.1
T2
X270.625Y-50.725
X273.625Y-50.725
T3
X175.368Y-162.028
X180.725Y-160.962
X186.122Y-177.387
X191.48Y-176.322
X196.176Y-159.056
X197.125Y-101.475
X197.125Y-120.225
X201.533Y-157.99
X202.125Y-103.675
X202.125Y-122.425
X215.875Y-82.725
X215.875Y-101.475
X215.875Y-120.225
X215.875Y-138.975
X220.875Y-84.925
X220.875Y-103.675
X220.875Y-122.425
X220.875Y-141.175
X234.625Y-76.725
X234.625Y-95.475
X234.625Y-114.225
X234.625Y-132.975
X234.625Y-151.725
X239.625Y-78.925
X239.625Y-97.675
X239.625Y-116.425
X239.625Y-135.175
X239.625Y-153.925
X253.375Y-73.725
X253.375Y-92.475
X253.375Y-111.225
X253.375Y-129.975
X253.375Y-148.725
X258.375Y-75.925
X258.375Y-94.675
X258.375Y-113.425
X258.375Y-132.175
X258.375Y-150.925
X272.125Y-76.725
X272.125Y-95.475
X272.125Y-114.225
X272.125Y-132.975
X277.125Y-78.925
X277.125Y-97.675
X277.125Y-116.425
X277.125Y-135.175
X290.875Y-82.725
X290.875Y-101.475
X290.875Y-120.225
X290.875Y-138.975
X295.875Y-84.925
X295.875Y-103.675
X295.875Y-122.425
X295.875Y-141.175
X309.625Y-82.725
X309.625Y-101.475
X309.625Y-120.225
X309.625Y-138.975
X314.625Y-84.925
X314.625Y-103.675
X314.625Y-122.425
X314.625Y-141.175
T4
X202.125Y-84.225
X220.875Y-148.725
X277.125Y-59.475
X277.125Y-142.75
T5
X177.312Y-156.089
X188.067Y-171.448
X198.12Y-153.116
X202.125Y-97.725
X202.125Y-116.475
X220.875Y-78.975
X220.875Y-97.725
X220.875Y-116.475
X220.875Y-135.225
X239.625Y-72.975
X239.625Y-91.725
X239.625Y-110.475
X239.625Y-129.225
X239.625Y-147.975
X258.375Y-69.975
X258.375Y-88.725
X258.375Y-107.475
X258.375Y-126.225
X258.375Y-144.975
X277.125Y-72.975
X277.125Y-91.725
X277.125Y-110.475
X277.125Y-129.225
X295.875Y-78.975
X295.875Y-97.725
X295.875Y-116.475
X295.875Y-135.225
X314.625Y-78.975
X314.625Y-97.725
X314.625Y-116.475
X314.625Y-135.225
M30
