%TF.GenerationSoftware,KiCad,Pcbnew,9.0.6*%
%TF.CreationDate,2026-02-01T20:37:32-05:00*%
%TF.ProjectId,right-finished,72696768-742d-4666-996e-69736865642e,v1.0.0*%
%TF.SameCoordinates,Original*%
%TF.FileFunction,Profile,NP*%
%FSLAX46Y46*%
G04 Gerber Fmt 4.6, Leading zero omitted, Abs format (unit mm)*
G04 Created by KiCad (PCBNEW 9.0.6) date 2026-02-01 20:37:32*
%MOMM*%
%LPD*%
G01*
G04 APERTURE LIST*
%TA.AperFunction,Profile*%
%ADD10C,0.150000*%
%TD*%
G04 APERTURE END LIST*
D10*
X326650000Y-144000000D02*
X326650000Y-62700000D01*
X246350000Y-53700000D02*
X246350000Y-54700000D01*
X246350000Y-54700000D02*
X229600000Y-54700000D01*
X227600000Y-56700000D02*
X227600000Y-58700000D01*
X326625000Y-62384762D02*
G75*
G02*
X326649999Y-62700000I-1975100J-315238D01*
G01*
X246350000Y-53700000D02*
G75*
G02*
X246374999Y-53384762I2000100J0D01*
G01*
X227600000Y-56700000D02*
G75*
G02*
X229600000Y-54700000I2000000J0D01*
G01*
X225600000Y-60700000D02*
X204600000Y-60700000D01*
X202600000Y-62700000D02*
X202600000Y-77450000D01*
X227600000Y-58700000D02*
G75*
G02*
X225600000Y-60700000I-2000000J0D01*
G01*
X202600000Y-62700000D02*
G75*
G02*
X204600000Y-60700000I2000000J0D01*
G01*
X192100000Y-127250000D02*
X193533350Y-127250000D01*
X190100000Y-125250000D02*
X190100000Y-81450000D01*
X200600000Y-79450000D02*
X192100000Y-79450000D01*
X202600000Y-77450000D02*
G75*
G02*
X200600000Y-79450000I-2000000J0D01*
G01*
X190100000Y-81450000D02*
G75*
G02*
X192100000Y-79450000I2000000J0D01*
G01*
X192100000Y-127250000D02*
G75*
G02*
X190100000Y-125250000I0J2000000D01*
G01*
X326650000Y-144000000D02*
G75*
G02*
X326625001Y-144315238I-2000100J0D01*
G01*
X326625000Y-62384762D02*
X326625000Y-50600000D01*
X324625000Y-48600000D02*
X248375000Y-48600000D01*
X246375000Y-50600000D02*
X246375000Y-53384762D01*
X324625000Y-48600000D02*
G75*
G02*
X326625000Y-50600000I0J-2000000D01*
G01*
X246375000Y-50600000D02*
G75*
G02*
X248375000Y-48600000I2000000J0D01*
G01*
X274750000Y-149750000D02*
X324625000Y-149750000D01*
X326625000Y-147750000D02*
X326625000Y-144315238D01*
X326625000Y-147750000D02*
G75*
G02*
X324625000Y-149750000I-2000000J0D01*
G01*
X227250000Y-159500000D02*
X270750000Y-159500000D01*
X272750000Y-157500000D02*
X272750000Y-151750000D01*
X227250000Y-159500000D02*
G75*
G02*
X226954350Y-159478028I0J2000100D01*
G01*
X272750000Y-157500000D02*
G75*
G02*
X270750000Y-159500000I-2000000J0D01*
G01*
X272750000Y-151750000D02*
G75*
G02*
X274750000Y-149750000I2000000J0D01*
G01*
X184587652Y-189143508D02*
X226954350Y-159478027D01*
X159248107Y-154698335D02*
X183194923Y-188897932D01*
X194106927Y-129069152D02*
X159493683Y-153305606D01*
X193533350Y-127250000D02*
G75*
G02*
X194106910Y-129069128I-50J-1000000D01*
G01*
X159248107Y-154698335D02*
G75*
G02*
X159493710Y-153305645I819193J573535D01*
G01*
X184587652Y-189143508D02*
G75*
G02*
X183194960Y-188897906I-573552J819108D01*
G01*
M02*
