M48
; DRILL file {KiCad 9.0.6} date 2026-02-01T20:37:30-0500
; FORMAT={-:-/ absolute / metric / decimal}
; #@! TF.CreationDate,2026-02-01T20:37:30-05:00
; #@! TF.GenerationSoftware,Kicad,Pcbnew,9.0.6
; #@! TF.FileFunction,Plated,1,2,PTH
FMAT,2
METRIC
; #@! TA.AperFunction,Plated,PTH,ComponentDrill
T1C0.750
; #@! TA.AperFunction,Plated,PTH,ComponentDrill
T2C0.991
; #@! TA.AperFunction,Plated,PTH,ComponentDrill
T3C1.092
; #@! TA.AperFunction,Plated,PTH,ComponentDrill
T4C1.600
%
G90
G05
T1
X257.375Y-51.475
X259.375Y-51.475
T2
X174.351Y-149.583
X181.856Y-150.906
X185.106Y-164.942
X192.61Y-166.265
X195.159Y-146.61
X202.664Y-147.934
X203.431Y-90.698
X203.431Y-109.448
X208.819Y-96.086
X208.819Y-114.836
X222.181Y-71.948
X222.181Y-90.698
X222.181Y-109.448
X222.181Y-128.198
X227.569Y-77.336
X227.569Y-96.086
X227.569Y-114.836
X227.569Y-133.586
X240.931Y-65.948
X240.931Y-84.698
X240.931Y-103.448
X240.931Y-122.198
X240.931Y-140.948
X246.319Y-71.336
X246.319Y-90.086
X246.319Y-108.836
X246.319Y-127.586
X246.319Y-146.336
X259.681Y-62.948
X259.681Y-81.698
X259.681Y-100.448
X259.681Y-119.198
X259.681Y-137.948
X265.069Y-68.336
X265.069Y-87.086
X265.069Y-105.836
X265.069Y-124.586
X265.069Y-143.336
X278.431Y-65.948
X278.431Y-84.698
X278.431Y-103.448
X278.431Y-122.198
X283.819Y-71.336
X283.819Y-90.086
X283.819Y-108.836
X283.819Y-127.586
X297.181Y-71.948
X297.181Y-90.698
X297.181Y-109.448
X297.181Y-128.198
X302.569Y-77.336
X302.569Y-96.086
X302.569Y-114.836
X302.569Y-133.586
X315.931Y-71.948
X315.931Y-90.698
X315.931Y-109.448
X315.931Y-128.198
X321.319Y-77.336
X321.319Y-96.086
X321.319Y-114.836
X321.319Y-133.586
T3
X294.155Y-51.355
X294.155Y-66.595
X296.695Y-51.355
X296.695Y-66.595
X299.235Y-51.355
X299.235Y-53.895
X299.235Y-56.435
X299.235Y-58.975
X299.235Y-66.595
X301.775Y-51.355
X301.775Y-66.595
X304.315Y-51.355
X304.315Y-66.595
X306.855Y-51.355
X306.855Y-66.595
X309.395Y-51.355
X309.395Y-66.595
X311.935Y-51.355
X311.935Y-66.595
X314.475Y-51.355
X314.475Y-66.595
X317.015Y-51.355
X317.015Y-66.595
X319.555Y-51.355
X319.555Y-66.595
X322.095Y-51.355
X322.095Y-66.595
T4
X178.454Y-149.002
X189.209Y-164.361
X199.262Y-146.029
X207.125Y-92.575
X207.125Y-111.325
X225.875Y-73.825
X225.875Y-92.575
X225.875Y-111.325
X225.875Y-130.075
X244.625Y-67.825
X244.625Y-86.575
X244.625Y-105.325
X244.625Y-124.075
X244.625Y-142.825
X263.375Y-64.825
X263.375Y-83.575
X263.375Y-102.325
X263.375Y-121.075
X263.375Y-139.825
X282.125Y-67.825
X282.125Y-86.575
X282.125Y-105.325
X282.125Y-124.075
X300.875Y-73.825
X300.875Y-92.575
X300.875Y-111.325
X300.875Y-130.075
X319.625Y-73.825
X319.625Y-92.575
X319.625Y-111.325
X319.625Y-130.075
M30
