%TF.GenerationSoftware,KiCad,Pcbnew,9.0.6*%
%TF.CreationDate,2026-02-01T20:37:32-05:00*%
%TF.ProjectId,right-finished,72696768-742d-4666-996e-69736865642e,v1.0.0*%
%TF.SameCoordinates,Original*%
%TF.FileFunction,Soldermask,Top*%
%TF.FilePolarity,Negative*%
%FSLAX46Y46*%
G04 Gerber Fmt 4.6, Leading zero omitted, Abs format (unit mm)*
G04 Created by KiCad (PCBNEW 9.0.6) date 2026-02-01 20:37:32*
%MOMM*%
%LPD*%
G01*
G04 APERTURE LIST*
G04 Aperture macros list*
%AMRoundRect*
0 Rectangle with rounded corners*
0 $1 Rounding radius*
0 $2 $3 $4 $5 $6 $7 $8 $9 X,Y pos of 4 corners*
0 Add a 4 corners polygon primitive as box body*
4,1,4,$2,$3,$4,$5,$6,$7,$8,$9,$2,$3,0*
0 Add four circle primitives for the rounded corners*
1,1,$1+$1,$2,$3*
1,1,$1+$1,$4,$5*
1,1,$1+$1,$6,$7*
1,1,$1+$1,$8,$9*
0 Add four rect primitives between the rounded corners*
20,1,$1+$1,$2,$3,$4,$5,0*
20,1,$1+$1,$4,$5,$6,$7,0*
20,1,$1+$1,$6,$7,$8,$9,0*
20,1,$1+$1,$8,$9,$2,$3,0*%
G04 Aperture macros list end*
%ADD10C,5.100000*%
%ADD11C,2.000000*%
%ADD12C,3.100000*%
%ADD13RoundRect,0.050000X0.742462X0.106066X0.106066X0.742462X-0.742462X-0.106066X-0.106066X-0.742462X0*%
%ADD14RoundRect,0.050000X1.257236X0.000000X0.000000X1.257236X-1.257236X0.000000X0.000000X-1.257236X0*%
%ADD15C,2.005000*%
%ADD16RoundRect,0.050000X0.547352X0.512743X-0.338975X0.669026X-0.547352X-0.512743X0.338975X-0.669026X0*%
%ADD17RoundRect,0.050000X1.029867X0.721121X-0.721121X1.029867X-1.029867X-0.721121X0.721121X-1.029867X0*%
%ADD18C,1.852600*%
%ADD19RoundRect,0.050000X-0.600000X-0.850000X0.600000X-0.850000X0.600000X0.850000X-0.600000X0.850000X0*%
%ADD20O,1.300000X1.800000*%
%ADD21C,0.850000*%
%ADD22C,1.100000*%
%ADD23C,4.100000*%
G04 APERTURE END LIST*
D10*
%TO.C,S1*%
X314625000Y-135225000D03*
D11*
X319625000Y-130075000D03*
D12*
X314625000Y-141175000D03*
X309625000Y-138975000D03*
%TD*%
D10*
%TO.C,S2*%
X314625000Y-116475000D03*
D11*
X319625000Y-111325000D03*
D12*
X314625000Y-122425000D03*
X309625000Y-120225000D03*
%TD*%
D10*
%TO.C,S3*%
X314625000Y-97725000D03*
D11*
X319625000Y-92575000D03*
D12*
X314625000Y-103675000D03*
X309625000Y-101475000D03*
%TD*%
D10*
%TO.C,S4*%
X314625000Y-78975000D03*
D11*
X319625000Y-73825000D03*
D12*
X314625000Y-84925000D03*
X309625000Y-82725000D03*
%TD*%
D10*
%TO.C,S5*%
X295875000Y-135225000D03*
D11*
X300875000Y-130075000D03*
D12*
X295875000Y-141175000D03*
X290875000Y-138975000D03*
%TD*%
D10*
%TO.C,S6*%
X295875000Y-116475000D03*
D11*
X300875000Y-111325000D03*
D12*
X295875000Y-122425000D03*
X290875000Y-120225000D03*
%TD*%
D10*
%TO.C,S7*%
X295875000Y-97725000D03*
D11*
X300875000Y-92575000D03*
D12*
X295875000Y-103675000D03*
X290875000Y-101475000D03*
%TD*%
D10*
%TO.C,S8*%
X295875000Y-78975000D03*
D11*
X300875000Y-73825000D03*
D12*
X295875000Y-84925000D03*
X290875000Y-82725000D03*
%TD*%
D10*
%TO.C,S9*%
X277125000Y-129225000D03*
D11*
X282125000Y-124075000D03*
D12*
X277125000Y-135175000D03*
X272125000Y-132975000D03*
%TD*%
D10*
%TO.C,S10*%
X277125000Y-110475000D03*
D11*
X282125000Y-105325000D03*
D12*
X277125000Y-116425000D03*
X272125000Y-114225000D03*
%TD*%
D10*
%TO.C,S11*%
X277125000Y-91725000D03*
D11*
X282125000Y-86575000D03*
D12*
X277125000Y-97675000D03*
X272125000Y-95475000D03*
%TD*%
D10*
%TO.C,S12*%
X277125000Y-72975000D03*
D11*
X282125000Y-67825000D03*
D12*
X277125000Y-78925000D03*
X272125000Y-76725000D03*
%TD*%
D10*
%TO.C,S13*%
X258375000Y-144975000D03*
D11*
X263375000Y-139825000D03*
D12*
X258375000Y-150925000D03*
X253375000Y-148725000D03*
%TD*%
D10*
%TO.C,S14*%
X258375000Y-126225000D03*
D11*
X263375000Y-121075000D03*
D12*
X258375000Y-132175000D03*
X253375000Y-129975000D03*
%TD*%
D10*
%TO.C,S15*%
X258375000Y-107475000D03*
D11*
X263375000Y-102325000D03*
D12*
X258375000Y-113425000D03*
X253375000Y-111225000D03*
%TD*%
D10*
%TO.C,S16*%
X258375000Y-88725000D03*
D11*
X263375000Y-83575000D03*
D12*
X258375000Y-94675000D03*
X253375000Y-92475000D03*
%TD*%
D10*
%TO.C,S17*%
X258375000Y-69975000D03*
D11*
X263375000Y-64825000D03*
D12*
X258375000Y-75925000D03*
X253375000Y-73725000D03*
%TD*%
D10*
%TO.C,S18*%
X239625000Y-147975000D03*
D11*
X244625000Y-142825000D03*
D12*
X239625000Y-153925000D03*
X234625000Y-151725000D03*
%TD*%
D10*
%TO.C,S19*%
X239625000Y-129225000D03*
D11*
X244625000Y-124075000D03*
D12*
X239625000Y-135175000D03*
X234625000Y-132975000D03*
%TD*%
D10*
%TO.C,S20*%
X239625000Y-110475000D03*
D11*
X244625000Y-105325000D03*
D12*
X239625000Y-116425000D03*
X234625000Y-114225000D03*
%TD*%
D10*
%TO.C,S21*%
X239625000Y-91725000D03*
D11*
X244625000Y-86575000D03*
D12*
X239625000Y-97675000D03*
X234625000Y-95475000D03*
%TD*%
D10*
%TO.C,S22*%
X239625000Y-72975000D03*
D11*
X244625000Y-67825000D03*
D12*
X239625000Y-78925000D03*
X234625000Y-76725000D03*
%TD*%
D10*
%TO.C,S23*%
X220875000Y-135225000D03*
D11*
X225875000Y-130075000D03*
D12*
X220875000Y-141175000D03*
X215875000Y-138975000D03*
%TD*%
D10*
%TO.C,S24*%
X220875000Y-116475000D03*
D11*
X225875000Y-111325000D03*
D12*
X220875000Y-122425000D03*
X215875000Y-120225000D03*
%TD*%
D10*
%TO.C,S25*%
X220875000Y-97725000D03*
D11*
X225875000Y-92575000D03*
D12*
X220875000Y-103675000D03*
X215875000Y-101475000D03*
%TD*%
D10*
%TO.C,S26*%
X220875000Y-78975000D03*
D11*
X225875000Y-73825000D03*
D12*
X220875000Y-84925000D03*
X215875000Y-82725000D03*
%TD*%
D10*
%TO.C,S27*%
X202125000Y-116475000D03*
D11*
X207125000Y-111325000D03*
D12*
X202125000Y-122425000D03*
X197125000Y-120225000D03*
%TD*%
D10*
%TO.C,S28*%
X202125000Y-97725000D03*
D11*
X207125000Y-92575000D03*
D12*
X202125000Y-103675000D03*
X197125000Y-101475000D03*
%TD*%
D10*
%TO.C,S29*%
X198120442Y-153115899D03*
D11*
X199262284Y-146029384D03*
D12*
X201533222Y-157989854D03*
X196175593Y-159055601D03*
%TD*%
D10*
%TO.C,S30*%
X188066923Y-171447614D03*
D11*
X189208765Y-164361099D03*
D12*
X191479703Y-176321569D03*
X186122074Y-177387316D03*
%TD*%
D10*
%TO.C,S31*%
X177312365Y-156088513D03*
D11*
X178454207Y-149001998D03*
D12*
X180725145Y-160962468D03*
X175367516Y-162028215D03*
%TD*%
D13*
%TO.C,D1*%
X319791726Y-132058393D03*
X317458274Y-129724941D03*
D14*
X321319077Y-133585744D03*
D15*
X315930923Y-128197590D03*
%TD*%
D13*
%TO.C,D2*%
X319791726Y-113308393D03*
X317458274Y-110974941D03*
D14*
X321319077Y-114835744D03*
D15*
X315930923Y-109447590D03*
%TD*%
D13*
%TO.C,D3*%
X319791726Y-94558393D03*
X317458274Y-92224941D03*
D14*
X321319077Y-96085744D03*
D15*
X315930923Y-90697590D03*
%TD*%
D13*
%TO.C,D4*%
X319791726Y-75808393D03*
X317458274Y-73474941D03*
D14*
X321319077Y-77335744D03*
D15*
X315930923Y-71947590D03*
%TD*%
D13*
%TO.C,D5*%
X301041726Y-132058393D03*
X298708274Y-129724941D03*
D14*
X302569077Y-133585744D03*
D15*
X297180923Y-128197590D03*
%TD*%
D13*
%TO.C,D6*%
X301041726Y-113308393D03*
X298708274Y-110974941D03*
D14*
X302569077Y-114835744D03*
D15*
X297180923Y-109447590D03*
%TD*%
D13*
%TO.C,D7*%
X301041726Y-94558393D03*
X298708274Y-92224941D03*
D14*
X302569077Y-96085744D03*
D15*
X297180923Y-90697590D03*
%TD*%
D13*
%TO.C,D8*%
X301041726Y-75808393D03*
X298708274Y-73474941D03*
D14*
X302569077Y-77335744D03*
D15*
X297180923Y-71947590D03*
%TD*%
D13*
%TO.C,D9*%
X282291726Y-126058393D03*
X279958274Y-123724941D03*
D14*
X283819077Y-127585744D03*
D15*
X278430923Y-122197590D03*
%TD*%
D13*
%TO.C,D10*%
X282291726Y-107308393D03*
X279958274Y-104974941D03*
D14*
X283819077Y-108835744D03*
D15*
X278430923Y-103447590D03*
%TD*%
D13*
%TO.C,D11*%
X282291726Y-88558393D03*
X279958274Y-86224941D03*
D14*
X283819077Y-90085744D03*
D15*
X278430923Y-84697590D03*
%TD*%
D13*
%TO.C,D12*%
X282291726Y-69808393D03*
X279958274Y-67474941D03*
D14*
X283819077Y-71335744D03*
D15*
X278430923Y-65947590D03*
%TD*%
D13*
%TO.C,D13*%
X263541726Y-141808393D03*
X261208274Y-139474941D03*
D14*
X265069077Y-143335744D03*
D15*
X259680923Y-137947590D03*
%TD*%
D13*
%TO.C,D14*%
X263541726Y-123058393D03*
X261208274Y-120724941D03*
D14*
X265069077Y-124585744D03*
D15*
X259680923Y-119197590D03*
%TD*%
D13*
%TO.C,D15*%
X263541726Y-104308393D03*
X261208274Y-101974941D03*
D14*
X265069077Y-105835744D03*
D15*
X259680923Y-100447590D03*
%TD*%
D13*
%TO.C,D16*%
X263541726Y-85558393D03*
X261208274Y-83224941D03*
D14*
X265069077Y-87085744D03*
D15*
X259680923Y-81697590D03*
%TD*%
D13*
%TO.C,D17*%
X263541726Y-66808393D03*
X261208274Y-64474941D03*
D14*
X265069077Y-68335744D03*
D15*
X259680923Y-62947590D03*
%TD*%
D13*
%TO.C,D18*%
X244791726Y-144808393D03*
X242458274Y-142474941D03*
D14*
X246319077Y-146335744D03*
D15*
X240930923Y-140947590D03*
%TD*%
D13*
%TO.C,D19*%
X244791726Y-126058393D03*
X242458274Y-123724941D03*
D14*
X246319077Y-127585744D03*
D15*
X240930923Y-122197590D03*
%TD*%
D13*
%TO.C,D20*%
X244791726Y-107308393D03*
X242458274Y-104974941D03*
D14*
X246319077Y-108835744D03*
D15*
X240930923Y-103447590D03*
%TD*%
D13*
%TO.C,D21*%
X244791726Y-88558393D03*
X242458274Y-86224941D03*
D14*
X246319077Y-90085744D03*
D15*
X240930923Y-84697590D03*
%TD*%
D13*
%TO.C,D22*%
X244791726Y-69808393D03*
X242458274Y-67474941D03*
D14*
X246319077Y-71335744D03*
D15*
X240930923Y-65947590D03*
%TD*%
D13*
%TO.C,D23*%
X226041726Y-132058393D03*
X223708274Y-129724941D03*
D14*
X227569077Y-133585744D03*
D15*
X222180923Y-128197590D03*
%TD*%
D13*
%TO.C,D24*%
X226041726Y-113308393D03*
X223708274Y-110974941D03*
D14*
X227569077Y-114835744D03*
D15*
X222180923Y-109447590D03*
%TD*%
D13*
%TO.C,D25*%
X226041726Y-94558393D03*
X223708274Y-92224941D03*
D14*
X227569077Y-96085744D03*
D15*
X222180923Y-90697590D03*
%TD*%
D13*
%TO.C,D26*%
X226041726Y-75808393D03*
X223708274Y-73474941D03*
D14*
X227569077Y-77335744D03*
D15*
X222180923Y-71947590D03*
%TD*%
D13*
%TO.C,D27*%
X207291726Y-113308393D03*
X204958274Y-110974941D03*
D14*
X208819077Y-114835744D03*
D15*
X203430923Y-109447590D03*
%TD*%
D13*
%TO.C,D28*%
X207291726Y-94558393D03*
X204958274Y-92224941D03*
D14*
X208819077Y-96085744D03*
D15*
X203430923Y-90697590D03*
%TD*%
D16*
%TO.C,D29*%
X200536485Y-147558454D03*
X197286619Y-146985416D03*
D17*
X202663670Y-147933535D03*
D15*
X195159434Y-146610335D03*
%TD*%
D16*
%TO.C,D30*%
X190482966Y-165890168D03*
X187233100Y-165317130D03*
D17*
X192610151Y-166265249D03*
D15*
X185105915Y-164942049D03*
%TD*%
D16*
%TO.C,D31*%
X179728408Y-150531067D03*
X176478542Y-149958029D03*
D17*
X181855593Y-150906148D03*
D15*
X174351357Y-149582948D03*
%TD*%
D18*
%TO.C,MCU1*%
X322095000Y-51355000D03*
X319555000Y-51355000D03*
X317015000Y-51355000D03*
X314475000Y-51355000D03*
X311935000Y-51355000D03*
X309395000Y-51355000D03*
X306855000Y-51355000D03*
X304315000Y-51355000D03*
X301775000Y-51355000D03*
X299235000Y-51355000D03*
X296695000Y-51355000D03*
X294155000Y-51355000D03*
X294155000Y-66595000D03*
X296695000Y-66595000D03*
X299235000Y-66595000D03*
X301775000Y-66595000D03*
X304315000Y-66595000D03*
X306855000Y-66595000D03*
X309395000Y-66595000D03*
X311935000Y-66595000D03*
X314475000Y-66595000D03*
X317015000Y-66595000D03*
X319555000Y-66595000D03*
X322095000Y-66595000D03*
X299235000Y-53895000D03*
X299235000Y-56435000D03*
X299235000Y-58975000D03*
%TD*%
D19*
%TO.C,JST1*%
X257375000Y-51475000D03*
D20*
X259375000Y-51475000D03*
%TD*%
D21*
%TO.C,B1*%
X282125000Y-49350000D03*
X282125000Y-52100000D03*
%TD*%
D22*
%TO.C,T1*%
X273625000Y-50725000D03*
X270625000Y-50725000D03*
%TD*%
D23*
%TO.C,*%
X220875000Y-148725000D03*
%TD*%
%TO.C,*%
X277125000Y-142750000D03*
%TD*%
%TO.C,*%
X277125000Y-59475000D03*
%TD*%
%TO.C,*%
X202125000Y-84225000D03*
%TD*%
M02*
