%TF.GenerationSoftware,KiCad,Pcbnew,9.0.6*%
%TF.CreationDate,2026-02-01T20:37:32-05:00*%
%TF.ProjectId,right-finished,72696768-742d-4666-996e-69736865642e,v1.0.0*%
%TF.SameCoordinates,Original*%
%TF.FileFunction,Copper,L2,Bot*%
%TF.FilePolarity,Positive*%
%FSLAX46Y46*%
G04 Gerber Fmt 4.6, Leading zero omitted, Abs format (unit mm)*
G04 Created by KiCad (PCBNEW 9.0.6) date 2026-02-01 20:37:32*
%MOMM*%
%LPD*%
G01*
G04 APERTURE LIST*
G04 Aperture macros list*
%AMRotRect*
0 Rectangle, with rotation*
0 The origin of the aperture is its center*
0 $1 length*
0 $2 width*
0 $3 Rotation angle, in degrees counterclockwise*
0 Add horizontal line*
21,1,$1,$2,0,0,$3*%
G04 Aperture macros list end*
%TA.AperFunction,ComponentPad*%
%ADD10C,1.900000*%
%TD*%
%TA.AperFunction,SMDPad,CuDef*%
%ADD11R,2.600000X2.600000*%
%TD*%
%TA.AperFunction,SMDPad,CuDef*%
%ADD12RotRect,2.600000X2.600000X215.000000*%
%TD*%
%TA.AperFunction,SMDPad,CuDef*%
%ADD13RotRect,0.900000X1.200000X135.000000*%
%TD*%
%TA.AperFunction,ComponentPad*%
%ADD14RotRect,1.778000X1.778000X135.000000*%
%TD*%
%TA.AperFunction,ComponentPad*%
%ADD15C,1.905000*%
%TD*%
%TA.AperFunction,SMDPad,CuDef*%
%ADD16RotRect,0.900000X1.200000X170.000000*%
%TD*%
%TA.AperFunction,ComponentPad*%
%ADD17RotRect,1.778000X1.778000X170.000000*%
%TD*%
%TA.AperFunction,ComponentPad*%
%ADD18C,1.752600*%
%TD*%
%TA.AperFunction,ComponentPad*%
%ADD19R,1.200000X1.700000*%
%TD*%
%TA.AperFunction,ComponentPad*%
%ADD20O,1.200000X1.700000*%
%TD*%
%TA.AperFunction,SMDPad,CuDef*%
%ADD21R,1.550000X1.000000*%
%TD*%
%TA.AperFunction,WasherPad*%
%ADD22C,1.000000*%
%TD*%
%TA.AperFunction,SMDPad,CuDef*%
%ADD23R,0.900000X1.250000*%
%TD*%
%TA.AperFunction,SMDPad,CuDef*%
%ADD24R,0.900000X0.900000*%
%TD*%
%TA.AperFunction,Conductor*%
%ADD25C,0.200000*%
%TD*%
G04 APERTURE END LIST*
D10*
%TO.P,S1,*%
%TO.N,*%
X319625000Y-130075000D03*
D11*
%TO.P,S1,1*%
%TO.N,P031*%
X317900000Y-141175000D03*
%TO.P,S1,2*%
%TO.N,mirror_actions_bottom*%
X306350000Y-138975000D03*
%TD*%
D10*
%TO.P,S2,*%
%TO.N,*%
X319625000Y-111325000D03*
D11*
%TO.P,S2,1*%
%TO.N,P031*%
X317900000Y-122425000D03*
%TO.P,S2,2*%
%TO.N,mirror_actions_home*%
X306350000Y-120225000D03*
%TD*%
D10*
%TO.P,S3,*%
%TO.N,*%
X319625000Y-92575000D03*
D11*
%TO.P,S3,1*%
%TO.N,P031*%
X317900000Y-103675000D03*
%TO.P,S3,2*%
%TO.N,mirror_actions_top*%
X306350000Y-101475000D03*
%TD*%
D10*
%TO.P,S4,*%
%TO.N,*%
X319625000Y-73825000D03*
D11*
%TO.P,S4,1*%
%TO.N,P031*%
X317900000Y-84925000D03*
%TO.P,S4,2*%
%TO.N,mirror_actions_numbers*%
X306350000Y-82725000D03*
%TD*%
D10*
%TO.P,S5,*%
%TO.N,*%
X300875000Y-130075000D03*
D11*
%TO.P,S5,1*%
%TO.N,P029*%
X299150000Y-141175000D03*
%TO.P,S5,2*%
%TO.N,mirror_pinky_bottom*%
X287600000Y-138975000D03*
%TD*%
D10*
%TO.P,S6,*%
%TO.N,*%
X300875000Y-111325000D03*
D11*
%TO.P,S6,1*%
%TO.N,P029*%
X299150000Y-122425000D03*
%TO.P,S6,2*%
%TO.N,mirror_pinky_home*%
X287600000Y-120225000D03*
%TD*%
D10*
%TO.P,S7,*%
%TO.N,*%
X300875000Y-92575000D03*
D11*
%TO.P,S7,1*%
%TO.N,P029*%
X299150000Y-103675000D03*
%TO.P,S7,2*%
%TO.N,mirror_pinky_top*%
X287600000Y-101475000D03*
%TD*%
D10*
%TO.P,S8,*%
%TO.N,*%
X300875000Y-73825000D03*
D11*
%TO.P,S8,1*%
%TO.N,P029*%
X299150000Y-84925000D03*
%TO.P,S8,2*%
%TO.N,mirror_pinky_numbers*%
X287600000Y-82725000D03*
%TD*%
D10*
%TO.P,S9,*%
%TO.N,*%
X282125000Y-124075000D03*
D11*
%TO.P,S9,1*%
%TO.N,P002*%
X280400000Y-135175000D03*
%TO.P,S9,2*%
%TO.N,mirror_ring_bottom*%
X268850000Y-132975000D03*
%TD*%
D10*
%TO.P,S10,*%
%TO.N,*%
X282125000Y-105325000D03*
D11*
%TO.P,S10,1*%
%TO.N,P002*%
X280400000Y-116425000D03*
%TO.P,S10,2*%
%TO.N,mirror_ring_home*%
X268850000Y-114225000D03*
%TD*%
D10*
%TO.P,S11,*%
%TO.N,*%
X282125000Y-86575000D03*
D11*
%TO.P,S11,1*%
%TO.N,P002*%
X280400000Y-97675000D03*
%TO.P,S11,2*%
%TO.N,mirror_ring_top*%
X268850000Y-95475000D03*
%TD*%
D10*
%TO.P,S12,*%
%TO.N,*%
X282125000Y-67825000D03*
D11*
%TO.P,S12,1*%
%TO.N,P002*%
X280400000Y-78925000D03*
%TO.P,S12,2*%
%TO.N,mirror_ring_numbers*%
X268850000Y-76725000D03*
%TD*%
D10*
%TO.P,S13,*%
%TO.N,*%
X263375000Y-139825000D03*
D11*
%TO.P,S13,1*%
%TO.N,P115*%
X261650000Y-150925000D03*
%TO.P,S13,2*%
%TO.N,mirror_middle_modifiers*%
X250100000Y-148725000D03*
%TD*%
D10*
%TO.P,S14,*%
%TO.N,*%
X263375000Y-121075000D03*
D11*
%TO.P,S14,1*%
%TO.N,P115*%
X261650000Y-132175000D03*
%TO.P,S14,2*%
%TO.N,mirror_middle_bottom*%
X250100000Y-129975000D03*
%TD*%
D10*
%TO.P,S15,*%
%TO.N,*%
X263375000Y-102325000D03*
D11*
%TO.P,S15,1*%
%TO.N,P115*%
X261650000Y-113425000D03*
%TO.P,S15,2*%
%TO.N,mirror_middle_home*%
X250100000Y-111225000D03*
%TD*%
D10*
%TO.P,S16,*%
%TO.N,*%
X263375000Y-83575000D03*
D11*
%TO.P,S16,1*%
%TO.N,P115*%
X261650000Y-94675000D03*
%TO.P,S16,2*%
%TO.N,mirror_middle_top*%
X250100000Y-92475000D03*
%TD*%
D10*
%TO.P,S17,*%
%TO.N,*%
X263375000Y-64825000D03*
D11*
%TO.P,S17,1*%
%TO.N,P115*%
X261650000Y-75925000D03*
%TO.P,S17,2*%
%TO.N,mirror_middle_numbers*%
X250100000Y-73725000D03*
%TD*%
D10*
%TO.P,S18,*%
%TO.N,*%
X244625000Y-142825000D03*
D11*
%TO.P,S18,1*%
%TO.N,P113*%
X242900000Y-153925000D03*
%TO.P,S18,2*%
%TO.N,mirror_index_modifiers*%
X231350000Y-151725000D03*
%TD*%
D10*
%TO.P,S19,*%
%TO.N,*%
X244625000Y-124075000D03*
D11*
%TO.P,S19,1*%
%TO.N,P113*%
X242900000Y-135175000D03*
%TO.P,S19,2*%
%TO.N,mirror_index_bottom*%
X231350000Y-132975000D03*
%TD*%
D10*
%TO.P,S20,*%
%TO.N,*%
X244625000Y-105325000D03*
D11*
%TO.P,S20,1*%
%TO.N,P113*%
X242900000Y-116425000D03*
%TO.P,S20,2*%
%TO.N,mirror_index_home*%
X231350000Y-114225000D03*
%TD*%
D10*
%TO.P,S21,*%
%TO.N,*%
X244625000Y-86575000D03*
D11*
%TO.P,S21,1*%
%TO.N,P113*%
X242900000Y-97675000D03*
%TO.P,S21,2*%
%TO.N,mirror_index_top*%
X231350000Y-95475000D03*
%TD*%
D10*
%TO.P,S22,*%
%TO.N,*%
X244625000Y-67825000D03*
D11*
%TO.P,S22,1*%
%TO.N,P113*%
X242900000Y-78925000D03*
%TO.P,S22,2*%
%TO.N,mirror_index_numbers*%
X231350000Y-76725000D03*
%TD*%
D10*
%TO.P,S23,*%
%TO.N,*%
X225875000Y-130075000D03*
D11*
%TO.P,S23,1*%
%TO.N,P111*%
X224150000Y-141175000D03*
%TO.P,S23,2*%
%TO.N,mirror_inner_bottom*%
X212600000Y-138975000D03*
%TD*%
D10*
%TO.P,S24,*%
%TO.N,*%
X225875000Y-111325000D03*
D11*
%TO.P,S24,1*%
%TO.N,P111*%
X224150000Y-122425000D03*
%TO.P,S24,2*%
%TO.N,mirror_inner_home*%
X212600000Y-120225000D03*
%TD*%
D10*
%TO.P,S25,*%
%TO.N,*%
X225875000Y-92575000D03*
D11*
%TO.P,S25,1*%
%TO.N,P111*%
X224150000Y-103675000D03*
%TO.P,S25,2*%
%TO.N,mirror_inner_top*%
X212600000Y-101475000D03*
%TD*%
D10*
%TO.P,S26,*%
%TO.N,*%
X225875000Y-73825000D03*
D11*
%TO.P,S26,1*%
%TO.N,P111*%
X224150000Y-84925000D03*
%TO.P,S26,2*%
%TO.N,mirror_inner_numbers*%
X212600000Y-82725000D03*
%TD*%
D10*
%TO.P,S27,*%
%TO.N,*%
X207125000Y-111325000D03*
D11*
%TO.P,S27,1*%
%TO.N,P010*%
X205400000Y-122425000D03*
%TO.P,S27,2*%
%TO.N,mirror_special_home*%
X193850000Y-120225000D03*
%TD*%
D10*
%TO.P,S28,*%
%TO.N,*%
X207125000Y-92575000D03*
D11*
%TO.P,S28,1*%
%TO.N,P010*%
X205400000Y-103675000D03*
%TO.P,S28,2*%
%TO.N,mirror_special_top*%
X193850000Y-101475000D03*
%TD*%
D10*
%TO.P,S29,*%
%TO.N,*%
X199262284Y-146029384D03*
D12*
%TO.P,S29,1*%
%TO.N,P111*%
X204215945Y-156111391D03*
%TO.P,S29,2*%
%TO.N,mirror_space_thumb*%
X193492870Y-160934064D03*
%TD*%
D10*
%TO.P,S30,*%
%TO.N,*%
X189208765Y-164361099D03*
D12*
%TO.P,S30,1*%
%TO.N,P010*%
X194162426Y-174443106D03*
%TO.P,S30,2*%
%TO.N,mirror_forward_top*%
X183439351Y-179265779D03*
%TD*%
D10*
%TO.P,S31,*%
%TO.N,*%
X178454207Y-149001998D03*
D12*
%TO.P,S31,1*%
%TO.N,P010*%
X183407868Y-159084005D03*
%TO.P,S31,2*%
%TO.N,mirror_forward_thumb*%
X172684793Y-163906678D03*
%TD*%
D13*
%TO.P,D1,2*%
%TO.N,mirror_actions_bottom*%
X317458274Y-129724941D03*
%TO.P,D1,1*%
%TO.N,P017*%
X319791726Y-132058393D03*
D14*
X321319077Y-133585744D03*
D15*
%TO.P,D1,2*%
%TO.N,mirror_actions_bottom*%
X315930923Y-128197590D03*
%TD*%
D13*
%TO.P,D2,2*%
%TO.N,mirror_actions_home*%
X317458274Y-110974941D03*
%TO.P,D2,1*%
%TO.N,P008*%
X319791726Y-113308393D03*
D14*
X321319077Y-114835744D03*
D15*
%TO.P,D2,2*%
%TO.N,mirror_actions_home*%
X315930923Y-109447590D03*
%TD*%
D13*
%TO.P,D3,2*%
%TO.N,mirror_actions_top*%
X317458274Y-92224941D03*
%TO.P,D3,1*%
%TO.N,P006*%
X319791726Y-94558393D03*
D14*
X321319077Y-96085744D03*
D15*
%TO.P,D3,2*%
%TO.N,mirror_actions_top*%
X315930923Y-90697590D03*
%TD*%
D13*
%TO.P,D4,2*%
%TO.N,mirror_actions_numbers*%
X317458274Y-73474941D03*
%TO.P,D4,1*%
%TO.N,P009*%
X319791726Y-75808393D03*
D14*
X321319077Y-77335744D03*
D15*
%TO.P,D4,2*%
%TO.N,mirror_actions_numbers*%
X315930923Y-71947590D03*
%TD*%
D13*
%TO.P,D5,2*%
%TO.N,mirror_pinky_bottom*%
X298708274Y-129724941D03*
%TO.P,D5,1*%
%TO.N,P017*%
X301041726Y-132058393D03*
D14*
X302569077Y-133585744D03*
D15*
%TO.P,D5,2*%
%TO.N,mirror_pinky_bottom*%
X297180923Y-128197590D03*
%TD*%
D13*
%TO.P,D6,2*%
%TO.N,mirror_pinky_home*%
X298708274Y-110974941D03*
%TO.P,D6,1*%
%TO.N,P008*%
X301041726Y-113308393D03*
D14*
X302569077Y-114835744D03*
D15*
%TO.P,D6,2*%
%TO.N,mirror_pinky_home*%
X297180923Y-109447590D03*
%TD*%
D13*
%TO.P,D7,2*%
%TO.N,mirror_pinky_top*%
X298708274Y-92224941D03*
%TO.P,D7,1*%
%TO.N,P006*%
X301041726Y-94558393D03*
D14*
X302569077Y-96085744D03*
D15*
%TO.P,D7,2*%
%TO.N,mirror_pinky_top*%
X297180923Y-90697590D03*
%TD*%
D13*
%TO.P,D8,2*%
%TO.N,mirror_pinky_numbers*%
X298708274Y-73474941D03*
%TO.P,D8,1*%
%TO.N,P009*%
X301041726Y-75808393D03*
D14*
X302569077Y-77335744D03*
D15*
%TO.P,D8,2*%
%TO.N,mirror_pinky_numbers*%
X297180923Y-71947590D03*
%TD*%
D13*
%TO.P,D9,2*%
%TO.N,mirror_ring_bottom*%
X279958274Y-123724941D03*
%TO.P,D9,1*%
%TO.N,P017*%
X282291726Y-126058393D03*
D14*
X283819077Y-127585744D03*
D15*
%TO.P,D9,2*%
%TO.N,mirror_ring_bottom*%
X278430923Y-122197590D03*
%TD*%
D13*
%TO.P,D10,2*%
%TO.N,mirror_ring_home*%
X279958274Y-104974941D03*
%TO.P,D10,1*%
%TO.N,P008*%
X282291726Y-107308393D03*
D14*
X283819077Y-108835744D03*
D15*
%TO.P,D10,2*%
%TO.N,mirror_ring_home*%
X278430923Y-103447590D03*
%TD*%
D13*
%TO.P,D11,2*%
%TO.N,mirror_ring_top*%
X279958274Y-86224941D03*
%TO.P,D11,1*%
%TO.N,P006*%
X282291726Y-88558393D03*
D14*
X283819077Y-90085744D03*
D15*
%TO.P,D11,2*%
%TO.N,mirror_ring_top*%
X278430923Y-84697590D03*
%TD*%
D13*
%TO.P,D12,2*%
%TO.N,mirror_ring_numbers*%
X279958274Y-67474941D03*
%TO.P,D12,1*%
%TO.N,P009*%
X282291726Y-69808393D03*
D14*
X283819077Y-71335744D03*
D15*
%TO.P,D12,2*%
%TO.N,mirror_ring_numbers*%
X278430923Y-65947590D03*
%TD*%
D13*
%TO.P,D13,2*%
%TO.N,mirror_middle_modifiers*%
X261208274Y-139474941D03*
%TO.P,D13,1*%
%TO.N,P020*%
X263541726Y-141808393D03*
D14*
X265069077Y-143335744D03*
D15*
%TO.P,D13,2*%
%TO.N,mirror_middle_modifiers*%
X259680923Y-137947590D03*
%TD*%
D13*
%TO.P,D14,2*%
%TO.N,mirror_middle_bottom*%
X261208274Y-120724941D03*
%TO.P,D14,1*%
%TO.N,P017*%
X263541726Y-123058393D03*
D14*
X265069077Y-124585744D03*
D15*
%TO.P,D14,2*%
%TO.N,mirror_middle_bottom*%
X259680923Y-119197590D03*
%TD*%
D13*
%TO.P,D15,2*%
%TO.N,mirror_middle_home*%
X261208274Y-101974941D03*
%TO.P,D15,1*%
%TO.N,P008*%
X263541726Y-104308393D03*
D14*
X265069077Y-105835744D03*
D15*
%TO.P,D15,2*%
%TO.N,mirror_middle_home*%
X259680923Y-100447590D03*
%TD*%
D13*
%TO.P,D16,2*%
%TO.N,mirror_middle_top*%
X261208274Y-83224941D03*
%TO.P,D16,1*%
%TO.N,P006*%
X263541726Y-85558393D03*
D14*
X265069077Y-87085744D03*
D15*
%TO.P,D16,2*%
%TO.N,mirror_middle_top*%
X259680923Y-81697590D03*
%TD*%
D13*
%TO.P,D17,2*%
%TO.N,mirror_middle_numbers*%
X261208274Y-64474941D03*
%TO.P,D17,1*%
%TO.N,P009*%
X263541726Y-66808393D03*
D14*
X265069077Y-68335744D03*
D15*
%TO.P,D17,2*%
%TO.N,mirror_middle_numbers*%
X259680923Y-62947590D03*
%TD*%
D13*
%TO.P,D18,2*%
%TO.N,mirror_index_modifiers*%
X242458274Y-142474941D03*
%TO.P,D18,1*%
%TO.N,P020*%
X244791726Y-144808393D03*
D14*
X246319077Y-146335744D03*
D15*
%TO.P,D18,2*%
%TO.N,mirror_index_modifiers*%
X240930923Y-140947590D03*
%TD*%
D13*
%TO.P,D19,2*%
%TO.N,mirror_index_bottom*%
X242458274Y-123724941D03*
%TO.P,D19,1*%
%TO.N,P017*%
X244791726Y-126058393D03*
D14*
X246319077Y-127585744D03*
D15*
%TO.P,D19,2*%
%TO.N,mirror_index_bottom*%
X240930923Y-122197590D03*
%TD*%
D13*
%TO.P,D20,2*%
%TO.N,mirror_index_home*%
X242458274Y-104974941D03*
%TO.P,D20,1*%
%TO.N,P008*%
X244791726Y-107308393D03*
D14*
X246319077Y-108835744D03*
D15*
%TO.P,D20,2*%
%TO.N,mirror_index_home*%
X240930923Y-103447590D03*
%TD*%
D13*
%TO.P,D21,2*%
%TO.N,mirror_index_top*%
X242458274Y-86224941D03*
%TO.P,D21,1*%
%TO.N,P006*%
X244791726Y-88558393D03*
D14*
X246319077Y-90085744D03*
D15*
%TO.P,D21,2*%
%TO.N,mirror_index_top*%
X240930923Y-84697590D03*
%TD*%
D13*
%TO.P,D22,2*%
%TO.N,mirror_index_numbers*%
X242458274Y-67474941D03*
%TO.P,D22,1*%
%TO.N,P009*%
X244791726Y-69808393D03*
D14*
X246319077Y-71335744D03*
D15*
%TO.P,D22,2*%
%TO.N,mirror_index_numbers*%
X240930923Y-65947590D03*
%TD*%
D13*
%TO.P,D23,2*%
%TO.N,mirror_inner_bottom*%
X223708274Y-129724941D03*
%TO.P,D23,1*%
%TO.N,P017*%
X226041726Y-132058393D03*
D14*
X227569077Y-133585744D03*
D15*
%TO.P,D23,2*%
%TO.N,mirror_inner_bottom*%
X222180923Y-128197590D03*
%TD*%
D13*
%TO.P,D24,2*%
%TO.N,mirror_inner_home*%
X223708274Y-110974941D03*
%TO.P,D24,1*%
%TO.N,P008*%
X226041726Y-113308393D03*
D14*
X227569077Y-114835744D03*
D15*
%TO.P,D24,2*%
%TO.N,mirror_inner_home*%
X222180923Y-109447590D03*
%TD*%
D13*
%TO.P,D25,2*%
%TO.N,mirror_inner_top*%
X223708274Y-92224941D03*
%TO.P,D25,1*%
%TO.N,P006*%
X226041726Y-94558393D03*
D14*
X227569077Y-96085744D03*
D15*
%TO.P,D25,2*%
%TO.N,mirror_inner_top*%
X222180923Y-90697590D03*
%TD*%
D13*
%TO.P,D26,2*%
%TO.N,mirror_inner_numbers*%
X223708274Y-73474941D03*
%TO.P,D26,1*%
%TO.N,P009*%
X226041726Y-75808393D03*
D14*
X227569077Y-77335744D03*
D15*
%TO.P,D26,2*%
%TO.N,mirror_inner_numbers*%
X222180923Y-71947590D03*
%TD*%
D13*
%TO.P,D27,2*%
%TO.N,mirror_special_home*%
X204958274Y-110974941D03*
%TO.P,D27,1*%
%TO.N,P008*%
X207291726Y-113308393D03*
D14*
X208819077Y-114835744D03*
D15*
%TO.P,D27,2*%
%TO.N,mirror_special_home*%
X203430923Y-109447590D03*
%TD*%
D13*
%TO.P,D28,2*%
%TO.N,mirror_special_top*%
X204958274Y-92224941D03*
%TO.P,D28,1*%
%TO.N,P006*%
X207291726Y-94558393D03*
D14*
X208819077Y-96085744D03*
D15*
%TO.P,D28,2*%
%TO.N,mirror_special_top*%
X203430923Y-90697590D03*
%TD*%
D16*
%TO.P,D29,2*%
%TO.N,mirror_space_thumb*%
X197286619Y-146985416D03*
%TO.P,D29,1*%
%TO.N,P017*%
X200536485Y-147558454D03*
D17*
X202663670Y-147933535D03*
D15*
%TO.P,D29,2*%
%TO.N,mirror_space_thumb*%
X195159434Y-146610335D03*
%TD*%
D16*
%TO.P,D30,2*%
%TO.N,mirror_forward_top*%
X187233100Y-165317130D03*
%TO.P,D30,1*%
%TO.N,P020*%
X190482966Y-165890168D03*
D17*
X192610151Y-166265249D03*
D15*
%TO.P,D30,2*%
%TO.N,mirror_forward_top*%
X185105915Y-164942049D03*
%TD*%
D16*
%TO.P,D31,2*%
%TO.N,mirror_forward_thumb*%
X176478542Y-149958029D03*
%TO.P,D31,1*%
%TO.N,P017*%
X179728408Y-150531067D03*
D17*
X181855593Y-150906148D03*
D15*
%TO.P,D31,2*%
%TO.N,mirror_forward_thumb*%
X174351357Y-149582948D03*
%TD*%
D18*
%TO.P,MCU1,1*%
%TO.N,P006*%
X322095000Y-51355000D03*
%TO.P,MCU1,2*%
%TO.N,P008*%
X319555000Y-51355000D03*
%TO.P,MCU1,3*%
%TO.N,GND*%
X317015000Y-51355000D03*
%TO.P,MCU1,4*%
X314475000Y-51355000D03*
%TO.P,MCU1,5*%
%TO.N,P017*%
X311935000Y-51355000D03*
%TO.P,MCU1,6*%
%TO.N,P020*%
X309395000Y-51355000D03*
%TO.P,MCU1,7*%
%TO.N,P022*%
X306855000Y-51355000D03*
%TO.P,MCU1,8*%
%TO.N,P024*%
X304315000Y-51355000D03*
%TO.P,MCU1,9*%
%TO.N,P100*%
X301775000Y-51355000D03*
%TO.P,MCU1,10*%
%TO.N,P011*%
X299235000Y-51355000D03*
%TO.P,MCU1,11*%
%TO.N,P104*%
X296695000Y-51355000D03*
%TO.P,MCU1,12*%
%TO.N,P106*%
X294155000Y-51355000D03*
%TO.P,MCU1,13*%
%TO.N,P009*%
X294155000Y-66595000D03*
%TO.P,MCU1,14*%
%TO.N,P010*%
X296695000Y-66595000D03*
%TO.P,MCU1,15*%
%TO.N,P111*%
X299235000Y-66595000D03*
%TO.P,MCU1,16*%
%TO.N,P113*%
X301775000Y-66595000D03*
%TO.P,MCU1,17*%
%TO.N,P115*%
X304315000Y-66595000D03*
%TO.P,MCU1,18*%
%TO.N,P002*%
X306855000Y-66595000D03*
%TO.P,MCU1,19*%
%TO.N,P029*%
X309395000Y-66595000D03*
%TO.P,MCU1,20*%
%TO.N,P031*%
X311935000Y-66595000D03*
%TO.P,MCU1,21*%
%TO.N,VCC*%
X314475000Y-66595000D03*
%TO.P,MCU1,22*%
%TO.N,RST*%
X317015000Y-66595000D03*
%TO.P,MCU1,23*%
%TO.N,GND*%
X319555000Y-66595000D03*
%TO.P,MCU1,24*%
%TO.N,RAW*%
X322095000Y-66595000D03*
%TO.P,MCU1,31*%
%TO.N,P101*%
X299235000Y-53895000D03*
%TO.P,MCU1,32*%
%TO.N,P102*%
X299235000Y-56435000D03*
%TO.P,MCU1,33*%
%TO.N,P107*%
X299235000Y-58975000D03*
%TD*%
D19*
%TO.P,JST1,1*%
%TO.N,pos*%
X257375000Y-51475000D03*
D20*
%TO.P,JST1,2*%
%TO.N,GND*%
X259375000Y-51475000D03*
%TD*%
D21*
%TO.P,B1,1*%
%TO.N,GND*%
X279500000Y-49875000D03*
X284750000Y-49875000D03*
%TO.P,B1,2*%
%TO.N,RST*%
X279500000Y-51575000D03*
X284750000Y-51575000D03*
%TD*%
D22*
%TO.P,T1,*%
%TO.N,*%
X273625000Y-50725000D03*
X270625000Y-50725000D03*
D23*
%TO.P,T1,1*%
%TO.N,pos*%
X269875000Y-52800000D03*
%TO.P,T1,2*%
%TO.N,RAW*%
X272875000Y-52800000D03*
%TO.P,T1,3*%
%TO.N,N/C*%
X274375000Y-52800000D03*
D24*
%TO.P,T1,*%
%TO.N,*%
X275825000Y-49625000D03*
X275825000Y-51825000D03*
X268425000Y-51825000D03*
X268425000Y-49625000D03*
%TD*%
D25*
%TO.N,RAW*%
X272875000Y-52800000D02*
X274075000Y-54000000D01*
X274075000Y-54000000D02*
X286607900Y-54000000D01*
X316527346Y-67772300D02*
X317502654Y-67772300D01*
X286607900Y-54000000D02*
X296607900Y-64000000D01*
X296607900Y-64000000D02*
X313730354Y-64000000D01*
X313730354Y-64000000D02*
X315837700Y-66107346D01*
X315837700Y-66107346D02*
X315837700Y-67082654D01*
X315837700Y-67082654D02*
X316527346Y-67772300D01*
X317502654Y-67772300D02*
X318192300Y-67082654D01*
X318192300Y-67082654D02*
X318192300Y-66292746D01*
X319067346Y-65417700D02*
X320917700Y-65417700D01*
X318192300Y-66292746D02*
X319067346Y-65417700D01*
X320917700Y-65417700D02*
X322095000Y-66595000D01*
%TO.N,RST*%
X284750000Y-51575000D02*
X294175000Y-61000000D01*
X294175000Y-61000000D02*
X311420000Y-61000000D01*
X311420000Y-61000000D02*
X317015000Y-66595000D01*
%TO.N,GND*%
X319555000Y-66595000D02*
X320732300Y-67772300D01*
X320732300Y-67772300D02*
X322582654Y-67772300D01*
X322582654Y-67772300D02*
X323272300Y-67082654D01*
X323272300Y-67082654D02*
X323272300Y-57612300D01*
X323272300Y-57612300D02*
X317015000Y-51355000D01*
X317015000Y-51355000D02*
X314475000Y-51355000D01*
X284750000Y-49875000D02*
X312995000Y-49875000D01*
X312995000Y-49875000D02*
X314475000Y-51355000D01*
X279500000Y-49875000D02*
X279701000Y-50076000D01*
X279701000Y-50076000D02*
X284549000Y-50076000D01*
X284549000Y-50076000D02*
X284750000Y-49875000D01*
%TO.N,RST*%
X279500000Y-51575000D02*
X279701000Y-51374000D01*
X279701000Y-51374000D02*
X284549000Y-51374000D01*
X284549000Y-51374000D02*
X284750000Y-51575000D01*
%TO.N,pos*%
X257375000Y-51475000D02*
X258700000Y-52800000D01*
X258700000Y-52800000D02*
X269875000Y-52800000D01*
%TO.N,GND*%
X259375000Y-51475000D02*
X260456785Y-50393215D01*
X260456785Y-50393215D02*
X269824000Y-50393215D01*
X270293215Y-49924000D02*
X274622000Y-49924000D01*
X274622000Y-49924000D02*
X275074000Y-50376000D01*
X269824000Y-50393215D02*
X270293215Y-49924000D01*
X275074000Y-50376000D02*
X278999000Y-50376000D01*
X278999000Y-50376000D02*
X279500000Y-49875000D01*
%TO.N,P009*%
X319791726Y-75808393D02*
X321319077Y-77335744D01*
%TO.N,mirror_actions_numbers*%
X315930923Y-71947590D02*
X317458274Y-73474941D01*
%TO.N,P009*%
X301041726Y-75808393D02*
X302569077Y-77335744D01*
%TO.N,mirror_pinky_numbers*%
X297180923Y-71947590D02*
X298708274Y-73474941D01*
%TO.N,P009*%
X282291726Y-69808393D02*
X283819077Y-71335744D01*
%TO.N,mirror_ring_numbers*%
X278430923Y-65947590D02*
X279958274Y-67474941D01*
%TO.N,P009*%
X263541726Y-66808393D02*
X265069077Y-68335744D01*
%TO.N,mirror_middle_numbers*%
X259680923Y-62947590D02*
X261208274Y-64474941D01*
%TO.N,P009*%
X244791726Y-69808393D02*
X246319077Y-71335744D01*
%TO.N,mirror_index_numbers*%
X240930923Y-65947590D02*
X242458274Y-67474941D01*
%TO.N,P009*%
X226041726Y-75808393D02*
X227569077Y-77335744D01*
%TO.N,mirror_inner_numbers*%
X222180923Y-71947590D02*
X223708274Y-73474941D01*
%TO.N,mirror_special_top*%
X204958274Y-92224941D02*
X203430923Y-90697590D01*
%TO.N,P006*%
X208819077Y-96085744D02*
X207291726Y-94558393D01*
%TO.N,mirror_inner_top*%
X223708274Y-92224941D02*
X222180923Y-90697590D01*
%TO.N,P006*%
X227569077Y-96085744D02*
X226041726Y-94558393D01*
%TO.N,mirror_index_top*%
X242458274Y-86224941D02*
X240930923Y-84697590D01*
%TO.N,P006*%
X246319077Y-90085744D02*
X244791726Y-88558393D01*
%TO.N,mirror_middle_top*%
X261208274Y-83224941D02*
X259680923Y-81697590D01*
%TO.N,P006*%
X265069077Y-87085744D02*
X263541726Y-85558393D01*
%TO.N,mirror_ring_top*%
X279958274Y-86224941D02*
X278430923Y-84697590D01*
%TO.N,P006*%
X283819077Y-90085744D02*
X282291726Y-88558393D01*
%TO.N,mirror_pinky_top*%
X298708274Y-92224941D02*
X297180923Y-90697590D01*
%TO.N,P006*%
X302569077Y-96085744D02*
X301041726Y-94558393D01*
%TO.N,mirror_actions_top*%
X317458274Y-92224941D02*
X315930923Y-90697590D01*
%TO.N,P006*%
X321319077Y-96085744D02*
X319791726Y-94558393D01*
%TO.N,P008*%
X319791726Y-113308393D02*
X321319077Y-114835744D01*
%TO.N,mirror_actions_home*%
X315930923Y-109447590D02*
X317458274Y-110974941D01*
%TO.N,P008*%
X301041726Y-113308393D02*
X302569077Y-114835744D01*
%TO.N,mirror_pinky_home*%
X297180923Y-109447590D02*
X298708274Y-110974941D01*
%TO.N,P008*%
X282291726Y-107308393D02*
X283819077Y-108835744D01*
%TO.N,mirror_ring_home*%
X278430923Y-103447590D02*
X279958274Y-104974941D01*
%TO.N,P008*%
X263541726Y-104308393D02*
X265069077Y-105835744D01*
%TO.N,mirror_middle_home*%
X259680923Y-100447590D02*
X261208274Y-101974941D01*
%TO.N,P008*%
X244791726Y-107308393D02*
X246319077Y-108835744D01*
%TO.N,mirror_index_home*%
X240930923Y-103447590D02*
X242458274Y-104974941D01*
%TO.N,P008*%
X226041726Y-113308393D02*
X227569077Y-114835744D01*
%TO.N,mirror_inner_home*%
X222180923Y-109447590D02*
X223708274Y-110974941D01*
%TO.N,mirror_special_home*%
X204958274Y-110974941D02*
X203430923Y-109447590D01*
%TO.N,P008*%
X208819077Y-114835744D02*
X207291726Y-113308393D01*
%TO.N,mirror_inner_bottom*%
X223708274Y-129724941D02*
X222180923Y-128197590D01*
%TO.N,P017*%
X227569077Y-133585744D02*
X226041726Y-132058393D01*
%TO.N,mirror_index_bottom*%
X242458274Y-123724941D02*
X240930923Y-122197590D01*
%TO.N,P017*%
X246319077Y-127585744D02*
X244791726Y-126058393D01*
%TO.N,mirror_middle_bottom*%
X261208274Y-120724941D02*
X259680923Y-119197590D01*
%TO.N,P017*%
X265069077Y-124585744D02*
X263541726Y-123058393D01*
%TO.N,mirror_ring_bottom*%
X279958274Y-123724941D02*
X278430923Y-122197590D01*
%TO.N,P017*%
X283819077Y-127585744D02*
X282291726Y-126058393D01*
%TO.N,mirror_pinky_bottom*%
X298708274Y-129724941D02*
X297180923Y-128197590D01*
%TO.N,P017*%
X302569077Y-133585744D02*
X301041726Y-132058393D01*
%TO.N,mirror_actions_bottom*%
X317458274Y-129724941D02*
X315930923Y-128197590D01*
%TO.N,P017*%
X321319077Y-133585744D02*
X319791726Y-132058393D01*
%TO.N,P020*%
X263541726Y-141808393D02*
X265069077Y-143335744D01*
%TO.N,mirror_middle_modifiers*%
X259680923Y-137947590D02*
X261208274Y-139474941D01*
%TO.N,P020*%
X244791726Y-144808393D02*
X246319077Y-146335744D01*
%TO.N,mirror_index_modifiers*%
X240930923Y-140947590D02*
X242458274Y-142474941D01*
%TO.N,mirror_actions_numbers*%
X306350000Y-82725000D02*
X306350000Y-81528513D01*
X306350000Y-81528513D02*
X315930923Y-71947590D01*
%TO.N,P031*%
X317900000Y-84925000D02*
X317900000Y-83600000D01*
X317900000Y-83600000D02*
X323500000Y-78000000D01*
X323500000Y-78000000D02*
X323500000Y-75000000D01*
X323500000Y-75000000D02*
X318500000Y-70000000D01*
X318500000Y-70000000D02*
X314000000Y-70000000D01*
X314000000Y-70000000D02*
X314000000Y-68660000D01*
X314000000Y-68660000D02*
X311935000Y-66595000D01*
%TO.N,mirror_ring_numbers*%
X268850000Y-76725000D02*
X268850000Y-71150000D01*
X274052410Y-65947590D02*
X278430923Y-65947590D01*
X268850000Y-71150000D02*
X274052410Y-65947590D01*
%TO.N,mirror_middle_numbers*%
X250100000Y-73725000D02*
X250100000Y-72528513D01*
X250100000Y-72528513D02*
X259680923Y-62947590D01*
%TO.N,mirror_index_numbers*%
X231350000Y-76725000D02*
X231350000Y-72650000D01*
X231350000Y-72650000D02*
X238052410Y-65947590D01*
X238052410Y-65947590D02*
X240930923Y-65947590D01*
%TO.N,mirror_inner_numbers*%
X212600000Y-82725000D02*
X212600000Y-78400000D01*
X219052410Y-71947590D02*
X222180923Y-71947590D01*
X212600000Y-78400000D02*
X219052410Y-71947590D01*
%TO.N,mirror_actions_top*%
X306350000Y-101475000D02*
X306350000Y-96650000D01*
X306350000Y-96650000D02*
X312302410Y-90697590D01*
X312302410Y-90697590D02*
X315930923Y-90697590D01*
%TO.N,mirror_pinky_top*%
X287600000Y-101475000D02*
X287600000Y-96400000D01*
X287600000Y-96400000D02*
X293302410Y-90697590D01*
X293302410Y-90697590D02*
X297180923Y-90697590D01*
%TO.N,mirror_ring_top*%
X268850000Y-95475000D02*
X268850000Y-90650000D01*
X268850000Y-90650000D02*
X274802410Y-84697590D01*
X274802410Y-84697590D02*
X278430923Y-84697590D01*
%TO.N,mirror_middle_top*%
X250100000Y-92475000D02*
X250100000Y-85900000D01*
X254302410Y-81697590D02*
X259680923Y-81697590D01*
X250100000Y-85900000D02*
X254302410Y-81697590D01*
%TO.N,mirror_index_top*%
X231350000Y-95475000D02*
X231350000Y-90150000D01*
X231350000Y-90150000D02*
X236802410Y-84697590D01*
X236802410Y-84697590D02*
X240930923Y-84697590D01*
%TO.N,mirror_inner_top*%
X212600000Y-101475000D02*
X212600000Y-96400000D01*
X218302410Y-90697590D02*
X222180923Y-90697590D01*
X212600000Y-96400000D02*
X218302410Y-90697590D01*
%TO.N,mirror_special_top*%
X193850000Y-101475000D02*
X193850000Y-96150000D01*
X193850000Y-96150000D02*
X199302410Y-90697590D01*
X199302410Y-90697590D02*
X203430923Y-90697590D01*
%TO.N,mirror_actions_home*%
X306350000Y-120225000D02*
X306350000Y-114150000D01*
X306350000Y-114150000D02*
X311052410Y-109447590D01*
X311052410Y-109447590D02*
X315930923Y-109447590D01*
%TO.N,mirror_pinky_home*%
X287600000Y-120225000D02*
X287600000Y-115900000D01*
X294052410Y-109447590D02*
X297180923Y-109447590D01*
X287600000Y-115900000D02*
X294052410Y-109447590D01*
%TO.N,mirror_ring_home*%
X268850000Y-114225000D02*
X268850000Y-108650000D01*
X268850000Y-108650000D02*
X274052410Y-103447590D01*
X274052410Y-103447590D02*
X278430923Y-103447590D01*
%TO.N,mirror_middle_home*%
X250100000Y-111225000D02*
X250100000Y-106400000D01*
X250100000Y-106400000D02*
X256052410Y-100447590D01*
X256052410Y-100447590D02*
X259680923Y-100447590D01*
%TO.N,mirror_index_home*%
X231350000Y-114225000D02*
X231350000Y-110650000D01*
X231350000Y-110650000D02*
X238552410Y-103447590D01*
X238552410Y-103447590D02*
X240930923Y-103447590D01*
%TO.N,mirror_inner_home*%
X212600000Y-120225000D02*
X212600000Y-114900000D01*
X212600000Y-114900000D02*
X218052410Y-109447590D01*
X218052410Y-109447590D02*
X222180923Y-109447590D01*
%TO.N,mirror_special_home*%
X193850000Y-120225000D02*
X193850000Y-115650000D01*
X193850000Y-115650000D02*
X200052410Y-109447590D01*
X200052410Y-109447590D02*
X203430923Y-109447590D01*
%TO.N,P010*%
X183407868Y-159084005D02*
X183407868Y-144417132D01*
X183407868Y-144417132D02*
X205400000Y-122425000D01*
%TO.N,mirror_actions_bottom*%
X306350000Y-138975000D02*
X306350000Y-134150000D01*
X306350000Y-134150000D02*
X312302410Y-128197590D01*
X312302410Y-128197590D02*
X315930923Y-128197590D01*
%TO.N,mirror_pinky_bottom*%
X287600000Y-138975000D02*
X287600000Y-133400000D01*
X292802410Y-128197590D02*
X297180923Y-128197590D01*
X287600000Y-133400000D02*
X292802410Y-128197590D01*
%TO.N,mirror_middle_modifiers*%
X250100000Y-148725000D02*
X250100000Y-143900000D01*
X250100000Y-143900000D02*
X256052410Y-137947590D01*
X256052410Y-137947590D02*
X259680923Y-137947590D01*
%TO.N,mirror_index_modifiers*%
X231350000Y-151725000D02*
X231350000Y-147150000D01*
X231350000Y-147150000D02*
X237552410Y-140947590D01*
X237552410Y-140947590D02*
X240930923Y-140947590D01*
%TO.N,mirror_ring_bottom*%
X268850000Y-132975000D02*
X268850000Y-127650000D01*
X268850000Y-127650000D02*
X274302410Y-122197590D01*
X274302410Y-122197590D02*
X278430923Y-122197590D01*
%TO.N,mirror_middle_bottom*%
X250100000Y-129975000D02*
X250100000Y-125400000D01*
X250100000Y-125400000D02*
X256302410Y-119197590D01*
X256302410Y-119197590D02*
X259680923Y-119197590D01*
%TO.N,mirror_index_bottom*%
X231350000Y-132975000D02*
X231350000Y-128150000D01*
X231350000Y-128150000D02*
X237302410Y-122197590D01*
X237302410Y-122197590D02*
X240930923Y-122197590D01*
%TO.N,mirror_inner_bottom*%
X212600000Y-138975000D02*
X212600000Y-137778513D01*
X212600000Y-137778513D02*
X222180923Y-128197590D01*
%TO.N,mirror_space_thumb*%
X197286619Y-146985416D02*
X195534515Y-146985416D01*
X195534515Y-146985416D02*
X195159434Y-146610335D01*
%TO.N,P017*%
X202663670Y-147933535D02*
X200911566Y-147933535D01*
X200911566Y-147933535D02*
X200536485Y-147558454D01*
X179728408Y-150531067D02*
X181480512Y-150531067D01*
X181480512Y-150531067D02*
X181855593Y-150906148D01*
%TO.N,mirror_forward_thumb*%
X174351357Y-149582948D02*
X176103461Y-149582948D01*
X176103461Y-149582948D02*
X176478542Y-149958029D01*
X172684793Y-163906678D02*
X172684793Y-151249512D01*
X172684793Y-151249512D02*
X174351357Y-149582948D01*
%TO.N,mirror_space_thumb*%
X193492870Y-160934064D02*
X193492870Y-148276899D01*
X193492870Y-148276899D02*
X195159434Y-146610335D01*
%TO.N,P020*%
X190482966Y-165890168D02*
X192235070Y-165890168D01*
X192235070Y-165890168D02*
X192610151Y-166265249D01*
%TO.N,mirror_forward_top*%
X185105915Y-164942049D02*
X186858019Y-164942049D01*
X186858019Y-164942049D02*
X187233100Y-165317130D01*
X183439351Y-179265779D02*
X191895227Y-179265779D01*
X191895227Y-179265779D02*
X196273973Y-174887033D01*
X196273973Y-173999179D02*
X187591924Y-165317130D01*
X196273973Y-174887033D02*
X196273973Y-173999179D01*
X187591924Y-165317130D02*
X187233100Y-165317130D01*
%TO.N,P010*%
X205400000Y-103675000D02*
X205400000Y-102600000D01*
X205400000Y-102600000D02*
X211000000Y-97000000D01*
X285998300Y-67797000D02*
X295493000Y-67797000D01*
X211000000Y-97000000D02*
X211000000Y-88000000D01*
X211000000Y-88000000D02*
X208500000Y-85500000D01*
X208500000Y-85500000D02*
X208500000Y-73500000D01*
X208500000Y-73500000D02*
X215500000Y-66500000D01*
X265931200Y-62797000D02*
X280998300Y-62797000D01*
X215500000Y-66500000D02*
X232432900Y-66500000D01*
X295493000Y-67797000D02*
X296695000Y-66595000D01*
X232432900Y-66500000D02*
X239333900Y-59599000D01*
X239333900Y-59599000D02*
X262733200Y-59599000D01*
X262733200Y-59599000D02*
X265931200Y-62797000D01*
X280998300Y-62797000D02*
X285998300Y-67797000D01*
X205400000Y-103675000D02*
X210500000Y-108775000D01*
X210500000Y-108775000D02*
X210500000Y-117325000D01*
X210500000Y-117325000D02*
X205400000Y-122425000D01*
X189409598Y-168000000D02*
X185000000Y-168000000D01*
X185000000Y-168000000D02*
X183407868Y-166407868D01*
X194162426Y-172752828D02*
X189409598Y-168000000D01*
X183407868Y-166407868D02*
X183407868Y-159084005D01*
X194162426Y-174443106D02*
X194162426Y-172752828D01*
%TO.N,P111*%
X224150000Y-84925000D02*
X229500000Y-79575000D01*
X229500000Y-70000000D02*
X239500000Y-60000000D01*
X229500000Y-79575000D02*
X229500000Y-70000000D01*
X280832200Y-63198000D02*
X285832200Y-68198000D01*
X239500000Y-60000000D02*
X262567100Y-60000000D01*
X262567100Y-60000000D02*
X265765100Y-63198000D01*
X265765100Y-63198000D02*
X280832200Y-63198000D01*
X285832200Y-68198000D02*
X297632000Y-68198000D01*
X297632000Y-68198000D02*
X299235000Y-66595000D01*
X224150000Y-103675000D02*
X228325000Y-99500000D01*
X228325000Y-98675000D02*
X229500000Y-97500000D01*
X229500000Y-90275000D02*
X224150000Y-84925000D01*
X228325000Y-99500000D02*
X228325000Y-98675000D01*
X229500000Y-97500000D02*
X229500000Y-90275000D01*
X224150000Y-122425000D02*
X224150000Y-120850000D01*
X224150000Y-120850000D02*
X229127313Y-115872687D01*
X229127313Y-115872687D02*
X229127313Y-108652313D01*
X229127313Y-108652313D02*
X224150000Y-103675000D01*
X224150000Y-141175000D02*
X229127313Y-136197687D01*
X229127313Y-136197687D02*
X229127313Y-127402313D01*
X229127313Y-127402313D02*
X224150000Y-122425000D01*
X204215945Y-156111391D02*
X218888609Y-156111391D01*
X218888609Y-156111391D02*
X224150000Y-150850000D01*
X224150000Y-150850000D02*
X224150000Y-141175000D01*
%TO.N,P113*%
X242900000Y-78925000D02*
X242900000Y-77425000D01*
X242900000Y-77425000D02*
X253500000Y-66825000D01*
X299771000Y-68599000D02*
X301775000Y-66595000D01*
X253500000Y-66825000D02*
X253500000Y-62500000D01*
X255500000Y-60500000D02*
X262500000Y-60500000D01*
X253500000Y-62500000D02*
X255500000Y-60500000D01*
X262500000Y-60500000D02*
X265599000Y-63599000D01*
X265599000Y-63599000D02*
X280666100Y-63599000D01*
X280666100Y-63599000D02*
X285666100Y-68599000D01*
X285666100Y-68599000D02*
X299771000Y-68599000D01*
X242900000Y-95600000D02*
X248500000Y-90000000D01*
X242900000Y-97675000D02*
X242900000Y-95600000D01*
X248500000Y-90000000D02*
X248500000Y-84000000D01*
X248500000Y-84000000D02*
X243425000Y-78925000D01*
X243425000Y-78925000D02*
X242900000Y-78925000D01*
X242900000Y-114600000D02*
X248500000Y-109000000D01*
X248500000Y-103275000D02*
X242900000Y-97675000D01*
X242900000Y-116425000D02*
X242900000Y-114600000D01*
X248500000Y-109000000D02*
X248500000Y-103275000D01*
X242900000Y-135175000D02*
X242900000Y-133600000D01*
X248500000Y-122025000D02*
X242900000Y-116425000D01*
X242900000Y-133600000D02*
X248500000Y-128000000D01*
X248500000Y-128000000D02*
X248500000Y-122025000D01*
X242900000Y-152600000D02*
X248500000Y-147000000D01*
X248500000Y-140500000D02*
X243175000Y-135175000D01*
X243175000Y-135175000D02*
X242900000Y-135175000D01*
X242900000Y-153925000D02*
X242900000Y-152600000D01*
X248500000Y-147000000D02*
X248500000Y-140500000D01*
%TO.N,P115*%
X261650000Y-75925000D02*
X262575000Y-75925000D01*
X262575000Y-75925000D02*
X274500000Y-64000000D01*
X274500000Y-64000000D02*
X280500000Y-64000000D01*
X280500000Y-64000000D02*
X285500000Y-69000000D01*
X301910000Y-69000000D02*
X304315000Y-66595000D01*
X285500000Y-69000000D02*
X301910000Y-69000000D01*
X261650000Y-93350000D02*
X267000000Y-88000000D01*
X267000000Y-81275000D02*
X261650000Y-75925000D01*
X261650000Y-94675000D02*
X261650000Y-93350000D01*
X267000000Y-88000000D02*
X267000000Y-81275000D01*
X261650000Y-112350000D02*
X267000000Y-107000000D01*
X261650000Y-113425000D02*
X261650000Y-112350000D01*
X267000000Y-107000000D02*
X267000000Y-100025000D01*
X267000000Y-100025000D02*
X261650000Y-94675000D01*
X261650000Y-130850000D02*
X267000000Y-125500000D01*
X261650000Y-132175000D02*
X261650000Y-130850000D01*
X267000000Y-125500000D02*
X267000000Y-118775000D01*
X267000000Y-118775000D02*
X261650000Y-113425000D01*
X261650000Y-150925000D02*
X261650000Y-149850000D01*
X261650000Y-149850000D02*
X267000000Y-144500000D01*
X267000000Y-144500000D02*
X267000000Y-140000000D01*
X267000000Y-140000000D02*
X261650000Y-134650000D01*
X261650000Y-134650000D02*
X261650000Y-132175000D01*
%TO.N,P002*%
X280400000Y-78925000D02*
X286575000Y-78925000D01*
X286575000Y-78925000D02*
X296000000Y-69500000D01*
X304000000Y-69500000D02*
X304000000Y-69450000D01*
X296000000Y-69500000D02*
X304000000Y-69500000D01*
X304000000Y-69450000D02*
X306855000Y-66595000D01*
X280400000Y-97675000D02*
X280400000Y-96600000D01*
X280400000Y-96600000D02*
X286000000Y-91000000D01*
X286000000Y-91000000D02*
X286000000Y-87000000D01*
X286000000Y-87000000D02*
X280400000Y-81400000D01*
X280400000Y-81400000D02*
X280400000Y-78925000D01*
X280400000Y-116425000D02*
X280400000Y-116100000D01*
X280400000Y-116100000D02*
X286000000Y-110500000D01*
X286000000Y-110500000D02*
X286000000Y-107000000D01*
X286000000Y-107000000D02*
X280400000Y-101400000D01*
X280400000Y-101400000D02*
X280400000Y-97675000D01*
X280400000Y-135175000D02*
X280400000Y-134100000D01*
X280400000Y-134100000D02*
X286000000Y-128500000D01*
X286000000Y-128500000D02*
X286000000Y-125500000D01*
X286000000Y-125500000D02*
X280400000Y-119900000D01*
X280400000Y-119900000D02*
X280400000Y-116425000D01*
%TO.N,mirror_pinky_numbers*%
X287600000Y-82725000D02*
X287600000Y-81528513D01*
X287600000Y-81528513D02*
X297180923Y-71947590D01*
%TO.N,P029*%
X299150000Y-84925000D02*
X309395000Y-74680000D01*
X309395000Y-74680000D02*
X309395000Y-66595000D01*
X299150000Y-103675000D02*
X299150000Y-102350000D01*
X299150000Y-102350000D02*
X304500000Y-97000000D01*
X304500000Y-97000000D02*
X304500000Y-92000000D01*
X304500000Y-92000000D02*
X299150000Y-86650000D01*
X299150000Y-86650000D02*
X299150000Y-84925000D01*
X299150000Y-121850000D02*
X305000000Y-116000000D01*
X299150000Y-122425000D02*
X299150000Y-121850000D01*
X305000000Y-109525000D02*
X299150000Y-103675000D01*
X305000000Y-116000000D02*
X305000000Y-109525000D01*
X304500000Y-135500000D02*
X304500000Y-130500000D01*
X299150000Y-141175000D02*
X299150000Y-140850000D01*
X299150000Y-140850000D02*
X304500000Y-135500000D01*
X299150000Y-125150000D02*
X299150000Y-122425000D01*
X304500000Y-130500000D02*
X299150000Y-125150000D01*
%TO.N,P031*%
X318425000Y-103675000D02*
X323625000Y-98475000D01*
X317900000Y-103675000D02*
X318425000Y-103675000D01*
X323625000Y-98475000D02*
X323625000Y-90650000D01*
X323625000Y-90650000D02*
X317900000Y-84925000D01*
X317900000Y-122425000D02*
X323625000Y-116700000D01*
X323625000Y-116700000D02*
X323625000Y-109400000D01*
X323625000Y-109400000D02*
X317900000Y-103675000D01*
X317900000Y-141175000D02*
X323125000Y-135950000D01*
X323125000Y-127650000D02*
X317900000Y-122425000D01*
X323125000Y-135950000D02*
X323125000Y-127650000D01*
%TD*%
M02*
